<?xml version="1.0" encoding="UTF-8"?>
<svg width="56px" height="56px" viewBox="0 0 56 56" version="1.1" xmlns="http://www.w3.org/2000/svg" xmlns:xlink="http://www.w3.org/1999/xlink">
    <title>facebook</title>
    <g id="FINAL-PAYMENT-PROFILE" stroke="none" stroke-width="1" fill="none" fill-rule="evenodd" opacity="0.254651024">
        <g id="FIO---My-Profile-Lookup---Error" transform="translate(-1252.000000, -288.000000)" fill="#FFFFFF" fill-rule="nonzero">
            <g id="FIO_Interaction" transform="translate(853.000000, 218.000000)">
                <g id="facebook" transform="translate(399.044747, 70.200000)">
                    <path d="M27.9241245,0 C12.5268257,0 0,12.5160034 0,27.9 C0,43.2828728 12.5268257,55.8 27.9241245,55.8 C43.3202985,55.8 55.848249,43.2828728 55.848249,27.9 C55.848249,12.5160034 43.3225481,0 27.9241245,0 Z M34.8685999,28.8822203 L30.3255587,28.8822203 L30.3255587,45.0607589 L23.5936694,45.0607589 C23.5936694,45.0607589 23.5936694,36.2207766 23.5936694,28.8822203 L20.3936317,28.8822203 L20.3936317,23.1642149 L23.5936694,23.1642149 L23.5936694,19.4657174 C23.5936694,16.8168694 24.8534381,12.6778337 30.3874224,12.6778337 L35.3758817,12.6969387 L35.3758817,18.2474946 C35.3758817,18.2474946 32.3445631,18.2474946 31.7551713,18.2474946 C31.1657795,18.2474946 30.3278083,18.5419359 30.3278083,19.8051116 L30.3278083,23.1653388 L35.4568669,23.1653388 L34.8685999,28.8822203 Z" id="Shape"></path>
                </g>
            </g>
        </g>
    </g>
</svg>