<?xml version="1.0" encoding="UTF-8"?>
<svg width="113px" height="112px" viewBox="0 0 113 112" version="1.1" xmlns="http://www.w3.org/2000/svg" xmlns:xlink="http://www.w3.org/1999/xlink">
    <title>square-instagram</title>
    <g id="FINAL-PAYMENT-PROFILE" stroke="none" stroke-width="1" fill="none" fill-rule="evenodd" opacity="0.7">
        <g id="FIO---My-Profile-Lookup---Error" transform="translate(-1204.000000, -565.000000)" fill="#FFFFFF" fill-rule="nonzero">
            <g id="FIO_Interaction" transform="translate(853.000000, 218.000000)">
                <g id="social-1_square-instagram" transform="translate(351.303502, 347.400000)">
                    <path d="M73.2486476,54.827027 C73.2486476,64.0216216 65.5151371,71.5135135 56.0240106,71.5135135 C46.5328841,71.5135135 38.7993736,64.0216216 38.7993736,54.827027 C38.7993736,53.4648649 39.1508968,51.7621622 39.50242,50.4 L34.229572,50.4 L34.229572,74.2378378 C34.229572,74.9189189 34.9326184,75.6 35.6356648,75.6 L76.0608333,75.6 C76.7638797,75.6 77.4669261,74.9189189 77.4669261,74.2378378 L77.4669261,50.4 L72.194078,50.4 C72.8971244,51.7621622 73.2486476,53.4648649 73.2486476,54.827027 Z" id="Path"></path>
                    <path d="M67.4054016,45.9 L75.9189992,45.9 C76.6929626,45.9 77.4669261,45.12 77.4669261,44.34 L77.4669261,35.76 C77.4669261,34.98 76.6929626,34.2 75.9189992,34.2 L67.4054016,34.2 C66.6314382,34.2 65.8574747,34.98 65.8574747,35.76 L65.8574747,44.34 C65.470493,45.12 66.2444564,45.9 67.4054016,45.9 Z" id="Path"></path>
                    <ellipse id="Oval" cx="56.7490272" cy="54.9" rx="10.8093385" ry="10.8"></ellipse>
                    <path d="M0,55.8 C3.77405393e-15,86.617489 24.982511,111.6 55.8,111.6 L55.8964981,111.6 C86.7139871,111.6 111.696498,86.617489 111.696498,55.8 C111.696498,24.982511 86.7139871,1.44434646e-15 55.8964981,0 L55.8,0 C24.982511,5.6610809e-15 -3.77405393e-15,24.982511 0,55.8 Z M83.7723735,77.07375 C83.7723735,80.56125 80.6309095,83.7 77.140394,83.7 L34.5561041,83.7 C31.0655885,83.7 27.9241245,80.91 27.9241245,77.07375 L27.9241245,34.52625 C27.9241245,30.69 31.0655885,27.9 34.5561041,27.9 L77.140394,27.9 C80.6309095,27.9 83.7723735,30.69 83.7723735,34.52625 L83.7723735,77.07375 Z" id="Shape"></path>
                </g>
            </g>
        </g>
    </g>
</svg>