<?xml version="1.0" encoding="UTF-8"?>
<svg width="32px" height="31px" viewBox="0 0 32 31" version="1.1" xmlns="http://www.w3.org/2000/svg" xmlns:xlink="http://www.w3.org/1999/xlink">
    <title>square-linkedin</title>
    <g id="FINAL-PAYMENT-PROFILE" stroke="none" stroke-width="1" fill="none" fill-rule="evenodd">
        <g id="FIO---My-Profile-Lookup---Error" transform="translate(-1279.000000, -218.000000)" fill="#FFFFFF" fill-rule="nonzero">
            <g id="FIO_Interaction" transform="translate(853.000000, 218.000000)">
                <g id="social-1_square-linkedin" transform="translate(426.968872, 0.000000)">
                    <path d="M0,15.3 C1.03482124e-15,23.7499567 6.85004333,30.6 15.3,30.6 L15.3264591,30.6 C23.7764158,30.6 30.6264591,23.7499567 30.6264591,15.3 C30.6264591,6.85004333 23.7764158,5.5531955e-15 15.3264591,0 L15.3,0 C6.85004333,1.55223186e-15 -1.03482124e-15,6.85004333 0,15.3 Z M12.0028696,22.05 L8.84451605,22.05 L8.84451605,11.818125 L12.0028696,11.818125 L12.0028696,22.05 L12.0028696,22.05 Z M10.375839,10.479375 C9.41876216,10.479375 8.557393,9.61875 8.557393,8.566875 C8.557393,7.610625 9.41876216,6.75 10.375839,6.75 C11.4286235,6.75 12.194285,7.610625 12.194285,8.566875 C12.194285,9.61875 11.4286235,10.479375 10.375839,10.479375 Z M23.8706226,22.05 L20.712269,22.05 L20.712269,17.0775 C20.712269,15.93 20.712269,14.4 19.0852383,14.4 C17.4582077,14.4 17.1710846,15.643125 17.1710846,16.981875 L17.1710846,22.05 L14.012731,22.05 L14.012731,11.818125 L17.0753769,11.818125 L17.0753769,13.2525 L17.0753769,13.2525 C17.4582077,12.4875 18.5109922,11.626875 20.0423152,11.626875 C23.2963765,11.626875 23.8706226,13.730625 23.8706226,16.50375 L23.8706226,22.05 Z" id="Shape"></path>
                </g>
            </g>
        </g>
    </g>
</svg>