<?xml version="1.0" encoding="UTF-8"?>
<svg width="64px" height="64px" viewBox="0 0 64 64" version="1.1" xmlns="http://www.w3.org/2000/svg" xmlns:xlink="http://www.w3.org/1999/xlink">
    <title>whatsapp</title>
    <g id="FINAL-PAYMENT-PROFILE" stroke="none" stroke-width="1" fill="none" fill-rule="evenodd" opacity="0.569111415">
        <g id="FIO---My-Profile-Lookup---Error" transform="translate(-853.000000, -444.000000)" fill="#FFFFFF" fill-rule="nonzero">
            <g id="FIO_Interaction" transform="translate(853.000000, 218.000000)">
                <g id="whatsapp" transform="translate(0.000000, 226.800000)">
                    <path d="M40.6330802,22.5026493 L40.5712182,22.4408046 C36.3367652,18.2300876 29.6717387,17.7134048 24.8386011,21.2211888 C20.0054634,24.7289727 18.4326107,31.2245252 21.1259241,36.5537671 L21.6620616,37.6092501 L20.6598969,42.4661212 L20.6598969,42.5279659 L25.4727618,41.3859003 L26.5697816,41.9301337 C31.2515834,44.2533392 36.8941577,43.3308705 40.5918389,39.6377565 C45.3041091,34.904045 45.3225095,27.2589765 40.6330802,22.5026493 L40.6330802,22.5026493 Z M40.1464323,36.1084852 C39.5566811,37.0361558 38.6205026,38.1699754 37.4533725,38.4544611 C35.3913053,38.9533418 32.2528389,38.4544611 28.3225388,34.8221152 L28.2730492,34.7767624 C24.8541417,31.5855755 23.9468321,28.926253 24.1489147,26.81941 C24.2685146,25.6237456 25.2665551,24.5435247 26.1078786,23.834372 C26.3784737,23.6039583 26.7425648,23.5159604 27.0885621,23.5973488 C27.4345595,23.6787372 27.7212015,23.9198059 27.8606357,24.2466701 L29.126745,27.1327565 C29.2951726,27.5080745 29.2428381,27.9456582 28.9906486,28.2706991 L28.3472836,29.0952952 C28.0737584,29.4454162 28.0395201,29.9262488 28.2606768,30.3115745 C28.8720991,31.2105966 29.60331,32.0220552 30.4340956,32.7235181 C31.3260634,33.5864397 32.3405315,34.3130402 33.4447138,34.879837 C33.8561349,35.0468197 34.3277663,34.9472991 34.6365887,34.6283351 L35.3748087,33.8820757 C35.6559305,33.5599719 36.0957722,33.4256578 36.5089457,33.5357453 L39.5195639,34.4015712 C39.858862,34.5008494 40.1318129,34.7536874 40.2566567,35.0843499 C40.3815005,35.4150123 40.343738,35.7850966 40.1546806,36.0837473 L40.1464323,36.1084852 Z" id="Shape"></path>
                    <path d="M31.5272374,0 C14.115225,0 0,14.1030304 0,31.5 C0,48.8969696 14.115225,63 31.5272374,63 C48.9392497,63 63.0544747,48.8969696 63.0544747,31.5 C63.0544747,14.1030304 48.9392497,0 31.5272374,0 L31.5272374,0 Z M47.1539614,31.8688816 C46.9808994,37.1849124 44.113949,42.0481346 39.5444782,44.7768855 C34.9750074,47.5056365 29.3302839,47.7253308 24.5622069,45.36 L16.6803976,47.2334211 C16.4365549,47.2893054 16.1832865,47.1907146 16.0415562,46.9847368 C15.9458446,46.848713 15.9112639,46.6789632 15.9461448,46.5163816 L17.6054731,38.4673026 C14.6336115,32.6492108 15.5974481,25.5980715 20.0219265,20.7892565 C24.4464048,15.9804414 31.3977921,14.4287928 37.4498826,16.8990886 C43.5019731,19.3693844 47.3775464,25.3402985 47.1664064,31.8688816 L47.1539614,31.8688816 Z" id="Shape"></path>
                </g>
            </g>
        </g>
    </g>
</svg>