<?xml version="1.0" encoding="UTF-8"?>
<svg width="47px" height="49px" viewBox="0 0 47 49" version="1.1" xmlns="http://www.w3.org/2000/svg" xmlns:xlink="http://www.w3.org/1999/xlink">
    <title>add_box@1x</title>
    <defs>
        <path d="M25.2083334,20.6250001 L29.7916668,20.6250001 L29.7916668,13.7500001 L36.6666668,13.7500001 L36.6666668,9.1666667 L29.7916668,9.1666667 L29.7916668,2.29166668 L25.2083334,2.29166668 L25.2083334,9.1666667 L18.3333334,9.1666667 L18.3333334,13.7500001 L25.2083334,13.7500001 L25.2083334,20.6250001 L25.2083334,20.6250001 Z M9.78541671,4.58333335 L11.9395834,9.1666667 L14.1166667,13.7500001 L19.2500001,24.5895834 L19.5479167,25.2083334 L35.6354168,25.2083334 L41.9604168,13.7500001 L44.4812502,9.1666667 L44.5041669,9.1666667 L48.4916669,11.3666667 L39.6458335,27.4312501 C38.8666668,28.8520835 37.3541668,29.7916668 35.6354168,29.7916668 L18.5625001,29.7916668 L16.5000001,33.5270835 L16.4312501,33.8020835 C16.4312501,34.1229168 16.7062501,34.3750001 17.0041667,34.3750001 L43.5416668,34.3750001 L43.5416668,38.9583335 L16.0416667,38.9583335 C13.5208334,38.9583335 11.4583334,36.8958335 11.4583334,34.3750001 C11.4583334,33.5729168 11.6645834,32.8166668 12.0312501,32.1750001 L15.1250001,26.5604168 L6.87500003,9.1666667 L2.29166668,9.1666667 L2.29166668,4.58333335 L9.78541671,4.58333335 Z M16.0416667,41.2500002 C13.5208334,41.2500002 11.48125,43.3125002 11.48125,45.8333335 C11.48125,48.3541669 13.5208334,50.4166669 16.0416667,50.4166669 C18.5625001,50.4166669 20.6250001,48.3541669 20.6250001,45.8333335 C20.6250001,43.3125002 18.5625001,41.2500002 16.0416667,41.2500002 L16.0416667,41.2500002 Z M38.9583335,41.2500002 C36.4375002,41.2500002 34.3979168,43.3125002 34.3979168,45.8333335 C34.3979168,48.3541669 36.4375002,50.4166669 38.9583335,50.4166669 C41.4791668,50.4166669 43.5416668,48.3541669 43.5416668,45.8333335 C43.5416668,43.3125002 41.4791668,41.2500002 38.9583335,41.2500002 L38.9583335,41.2500002 Z" id="path-1"></path>
    </defs>
    <g id="NEW-Domain-Landing---Post-Creation" stroke="none" stroke-width="1" fill="none" fill-rule="evenodd">
        <g id="FIO-Dashboard-Action-Tiles" transform="translate(-497.000000, -345.000000)">
            <g id="Group-5-Copy" transform="translate(100.000000, 343.000000)">
                <g id="Group-7" transform="translate(395.000000, 0.000000)">
                    <g id="add_box" transform="translate(-0.000000, -0.000000)">
                        <polygon id="Base" points="1.18423789e-15 0 55.0000002 0 55.0000002 55.0000002 1.18423789e-15 55.0000002"></polygon>
                        <mask id="mask-2" fill="white">
                            <use xlink:href="#path-1"></use>
                        </mask>
                        <g id="Icon" fill-rule="nonzero"></g>
                        <rect id="↳-🎨-Color" fill="#FFFFFF" mask="url(#mask-2)" x="1.14583425e-07" y="1.14583294e-07" width="55" height="55"></rect>
                    </g>
                </g>
            </g>
        </g>
    </g>
</svg>