<?xml version="1.0" encoding="UTF-8"?>
<svg width="155px" height="32px" viewBox="0 0 155 32" version="1.1" xmlns="http://www.w3.org/2000/svg" xmlns:xlink="http://www.w3.org/1999/xlink">
    <g id="Get-FIO" stroke="none" stroke-width="1" fill="none" fill-rule="evenodd">
        <g id="FIO_WalletView---No-FIO---Partners" transform="translate(-723.000000, -946.000000)">
            <g id="Group-2" transform="translate(328.000000, 230.000000)">
                <g id="Group-11" transform="translate(365.000000, 705.000000)">
                    <g id="AscendEX" transform="translate(30.000000, 11.000000)">
                        <path d="M23.7458704,14.2312579 C24.8030496,13.1740788 25.8805591,12.13723 26.9377382,11.0800508 C28.7268107,9.33163914 30.4752224,7.54256671 32.2439644,5.79415502 C33.3621347,4.69631512 35.090216,4.96060991 35.7814485,6.30241423 C35.9237611,6.58703939 36.0050826,6.89199492 36.0050826,7.21728081 L36.0050826,24.660737 C36.0050826,25.7992376 35.1308767,26.7141042 33.9923761,26.7954257 L11.364676,26.7954257 C11.4053367,26.7547649 11.4053367,26.6937738 11.4256671,26.6734435 L13.2147395,24.884371 C13.6213469,24.5387548 13.9872935,24.1524778 14.3125794,23.72554 C14.3939009,23.6645489 14.454892,23.6035578 14.5362135,23.5425667 L16.8538755,21.2249047 C17.0978399,20.9809403 17.0775095,20.9809403 17.2604828,21.2655654 C17.7280813,22.0177891 18.1753494,22.729352 18.6429479,23.4815756 C18.703939,23.5832274 18.7445997,23.6442186 18.866582,23.6442186 C19.4968234,23.6442186 20.0864041,23.6442186 20.7166455,23.6035578 C21.2452351,23.6442186 21.7738247,23.6645489 22.3024142,23.6442186 C22.7903431,23.6645489 23.2782719,23.6442186 23.7662008,23.6035578 C23.8271919,23.6035578 23.888183,23.6442186 23.9491741,23.6442186 L32.7115629,23.6442186 C32.935197,23.6442186 32.9555273,23.5425667 32.9555273,23.3595934 L32.9555273,9.81956798 C32.9555273,9.71791614 33.0165184,9.63659466 32.8945362,9.57560356 C32.772554,9.51461245 32.7318933,9.63659466 32.6709022,9.69758577 L27.2223634,15.1461245 C26.0635324,16.2642948 24.9453621,17.4231258 23.7865311,18.5616264 C23.7662008,18.5006353 23.7458704,18.4396442 23.7458704,18.3786531 L23.7458704,14.4345616 C23.72554,14.4142313 23.72554,14.3125794 23.7458704,14.2312579 Z" id="Path" fill="#1D2939" fill-rule="nonzero"></path>
                        <path d="M23.72554,23.6645489 C23.2376112,23.7052097 22.7496823,23.7052097 22.2617535,23.7052097 C21.7331639,23.72554 21.2045743,23.7052097 20.6759848,23.6645489 L20.6759848,14.3735705 C20.5743329,14.4142313 20.4726811,14.4955527 20.3913596,14.5972046 C19.1308767,15.8576874 17.8907243,17.0978399 16.6099111,18.3583227 C14.9224905,20.0457433 13.1944091,21.7331639 11.5069886,23.4612452 C11.4459975,23.5222363 11.3443456,23.5628971 11.3850064,23.6442186 C11.4256671,23.72554 11.5476493,23.7052097 11.6289708,23.7052097 L14.0076239,23.7052097 C14.1092757,23.7052097 14.1905972,23.6645489 14.292249,23.7662008 C13.9669632,24.1728081 13.6010165,24.5590851 13.1944091,24.9250318 L11.4053367,26.7141042 C11.364676,26.7547649 11.364676,26.7750953 11.3443456,26.8360864 L4.14739517,26.8360864 C4.04574333,26.8360864 3.92376112,26.8970775 3.90343075,26.7750953 C3.86277001,26.6531131 4.00508259,26.6124524 4.0660737,26.5514612 L16.9148666,13.7026684 C17.9517154,12.6658196 18.9682338,11.6493011 20.0050826,10.6327827 C20.4320203,10.1448539 21.0419314,9.90088945 21.6925032,9.92121982 C22.8106734,9.94155019 23.7052097,10.8360864 23.7458704,11.9542567 C23.7865311,12.747141 23.7458704,13.4790343 23.7865311,14.2719187 C23.7865311,14.3735705 23.7458704,14.454892 23.7458704,14.5158831 L23.7458704,18.4396442 C23.7458704,18.5006353 23.7458704,18.5616264 23.7865311,18.6226175 L23.7865311,21.7128335 C23.72554,22.343075 23.72554,23.0139771 23.72554,23.6645489 Z" id="Path" fill="#3DD4ED" fill-rule="nonzero"></path>
                        <path d="M122.897078,17.7484117 L122.897078,25.9415502 C122.897078,26.4498094 122.775095,26.5717916 122.307497,26.5311309 C121.819568,26.5108005 121.331639,26.5108005 120.84371,26.5311309 C120.376112,26.5717916 120.193139,26.4091487 120.25413,25.9415502 C120.29479,25.7585769 120.355781,25.4942821 120.193139,25.4129606 C120.030496,25.3113088 119.888183,25.5756036 119.72554,25.656925 C117.570521,27.1817027 115.252859,27.1817027 112.975858,26.1651842 C110.637865,25.1080051 109.316391,23.1359593 109.133418,20.5336722 C108.889454,17.4637865 110.048285,15.0241423 112.792884,13.5806861 C115.171537,12.360864 117.611182,12.5438374 119.827192,14.1092757 C119.949174,14.2109276 120.071156,14.4142313 120.233799,14.3329098 C120.396442,14.2515883 120.29479,14.0279543 120.29479,13.8653113 C120.29479,12.4015248 120.335451,10.8970775 120.29479,9.43329098 C120.29479,9.04701398 120.396442,8.92503177 120.762389,8.9656925 C121.311309,9.00635324 121.860229,9.00635324 122.429479,8.9656925 C122.836086,8.94536213 122.937738,9.08767471 122.937738,9.47395172 L122.937738,17.7484117 L122.897078,17.7484117 Z M111.796696,19.7814485 C111.735705,22.2210928 113.66709,24.2337992 116.106734,24.2947903 L116.106734,24.2947903 C118.363405,24.2947903 120.335451,22.2617535 120.335451,19.9440915 C120.335451,17.545108 118.343075,15.4104193 116.045743,15.4307497 C113.687421,15.4714104 111.776366,17.4231258 111.796696,19.7814485 L111.796696,19.7814485 Z" id="Shape" fill="#1D2939" fill-rule="nonzero"></path>
                        <path d="M124.462516,17.8500635 L124.462516,9.94155019 C124.462516,8.9656925 124.462516,8.9656925 125.397713,8.9656925 L135.257942,8.9656925 C136.010165,8.9656925 136.010165,8.9656925 136.010165,9.75857687 C136.010165,10.1245235 135.969504,10.4701398 136.010165,10.8564168 C136.050826,11.2833545 135.908513,11.4459975 135.440915,11.4459975 C132.96061,11.4256671 130.500635,11.4459975 128.02033,11.4256671 C127.43075,11.4256671 127.308767,11.58831 127.308767,12.13723 C127.349428,13.4180432 127.349428,14.7395172 127.308767,16.0203304 C127.308767,16.5285896 127.47141,16.6099111 127.939009,16.6099111 C130.378653,16.5692503 132.818297,16.6099111 135.217281,16.6099111 C135.969504,16.6099111 135.969504,16.6099111 135.989835,17.3824651 C135.989835,17.7687421 135.949174,18.1346887 135.989835,18.5006353 C136.030496,18.9275731 135.867853,19.090216 135.420584,19.090216 C132.98094,19.0698856 130.500635,19.090216 128.081321,19.090216 C127.329098,19.090216 127.329098,19.090216 127.329098,19.8424396 C127.329098,21.0622618 127.369759,22.3227446 127.288437,23.5425667 C127.247776,24.0711563 127.45108,24.1728081 127.939009,24.1728081 C130.419314,24.1321474 132.879288,24.1728081 135.359593,24.1321474 C135.867853,24.1321474 136.050826,24.2947903 135.989835,24.7827192 C135.949174,25.270648 135.949174,25.7382465 135.989835,26.2261753 C136.030496,26.6531131 135.867853,26.815756 135.400254,26.815756 C134.017789,26.7750953 132.614994,26.815756 131.232529,26.815756 L125.072427,26.815756 C124.564168,26.815756 124.381194,26.6937738 124.381194,26.1245235 C124.462516,23.3595934 124.462516,20.5946633 124.462516,17.8500635 L124.462516,17.8500635 Z" id="Path" fill="#3DD4ED" fill-rule="nonzero"></path>
                        <path d="M57.5146125,26.7954257 C56.5794155,26.7954257 55.7052097,26.7750953 54.7903431,26.7954257 C54.4447268,26.7954257 54.3837357,26.5717916 54.2820839,26.3684879 C53.7738247,25.0876747 53.3062262,23.7662008 52.8386277,22.4853875 C52.6759848,22.0381194 52.4930114,21.8551461 51.9847522,21.8958069 C50.1956798,21.9364676 48.4269377,21.9364676 46.6378653,21.8958069 C46.3125794,21.8551461 45.9872935,22.0787802 45.9263024,22.4040661 C45.4180432,23.7458704 44.8894536,25.0876747 44.4015248,26.429479 C44.3405337,26.6937738 44.0965693,26.8564168 43.8322745,26.8360864 C42.9987294,26.7954257 42.1855146,26.8360864 41.270648,26.8360864 C41.6772554,25.7382465 42.0838628,24.7013977 42.4904701,23.6848793 C44.2998729,19.090216 46.0889454,14.4955527 47.8576874,9.90088945 C48.0203304,9.53494282 48.1626429,9.37229987 48.5692503,9.39263024 C49.158831,9.41296061 49.7280813,9.41296061 50.317662,9.39263024 C50.5412961,9.3519695 50.7649301,9.49428208 50.8462516,9.69758577 C53.0419314,15.3494282 55.2376112,21.021601 57.4739517,26.6734435 L57.5146125,26.7954257 Z M49.4231258,13.2147395 C48.6709022,15.1867853 47.9796696,16.9961881 47.2884371,18.8055909 C47.1867853,19.0292249 47.2884371,19.1105464 47.5120712,19.1105464 L51.2731893,19.1105464 C51.4968234,19.1105464 51.5781449,19.0698856 51.4968234,18.8055909 C50.8259212,17.0165184 50.1346887,15.1664549 49.4231258,13.2147395 Z" id="Shape" fill="#1D2939" fill-rule="nonzero"></path>
                        <path d="M90.7954257,20.8792884 L85.8144854,20.8792884 C85.3468869,20.8792884 85.3062262,21.0012706 85.4485388,21.407878 C86.0381194,22.9326557 87.0952986,23.9491741 88.7623888,24.1931385 C90.3278272,24.498094 91.8932656,23.7865311 92.7268107,22.4447268 C92.8081321,22.2210928 93.0317662,22.0991105 93.2554003,22.1397713 C94.0076239,22.180432 94.7191868,22.1397713 95.4714104,22.1397713 C95.7763659,22.1397713 95.9186785,22.2007624 95.7560356,22.5057179 C94.8208386,24.6404066 93.3570521,26.2871665 91.0393901,26.7344346 C85.9771283,27.7102922 82.6632783,24.3354511 82.480305,20.025413 C82.317662,16.6099111 84.8182973,13.9263024 87.1969504,13.1740788 C90.815756,12.0152478 94.678526,14.0076239 95.8576874,17.6060991 C95.9796696,17.9720457 96.0609911,18.3583227 96.1219822,18.7242694 C96.2033037,19.2935197 96.2642948,19.8424396 96.2846252,20.41169 C96.3252859,20.797967 96.2236341,20.9402795 95.7763659,20.9402795 C94.1296061,20.8589581 92.4421855,20.8792884 90.7954257,20.8792884 Z M89.3113088,18.4599746 C90.4701398,18.4599746 91.6289708,18.4193139 92.7878018,18.4599746 C93.3163914,18.4599746 93.296061,18.2973316 93.133418,17.8907243 C92.4218551,16.2846252 91.202033,15.3494282 89.4129606,15.3900889 C87.6238882,15.4307497 86.343075,16.3456163 85.5908513,17.9720457 C85.4282084,18.317662 85.4282084,18.480305 85.8958069,18.480305 C87.0343075,18.4396442 88.1524778,18.480305 89.3113088,18.4599746 L89.3113088,18.4599746 Z" id="Shape" fill="#1D2939" fill-rule="nonzero"></path>
                        <path d="M149.387548,26.7954257 C148.127065,27.1410419 147.537484,26.4498094 147.008895,25.4536213 C146.094028,23.72554 145.016518,22.1397713 144.121982,20.41169 C143.898348,20.0050826 143.817027,20.1270648 143.613723,20.4523507 C142.495553,22.4447268 141.23507,24.4167726 140.015248,26.3888183 C139.872935,26.6734435 139.547649,26.8564168 139.242694,26.8360864 C138.592122,26.7954257 137.900889,26.8360864 137.250318,26.8360864 C136.721728,26.8360864 136.681067,26.7750953 136.965693,26.3074968 C138.348158,24.0508259 139.750953,21.8348158 141.153748,19.5781449 C141.499365,19.0088945 141.844981,18.4599746 142.210928,17.8907243 C142.414231,17.6467598 142.414231,17.3011436 142.210928,17.0368488 C140.747141,14.6378653 139.263024,12.1982211 137.839898,9.77890724 C137.717916,9.55527319 137.39263,9.31130877 137.555273,9.02668361 C137.717916,8.80304956 138.063532,8.9656925 138.307497,8.92503177 C138.551461,8.9047014 138.815756,8.9047014 139.05972,8.92503177 C140.503177,8.92503177 140.503177,8.92503177 141.21474,10.1448539 C142.068615,11.6086404 142.90216,13.0520966 143.715375,14.5158831 C143.898348,14.8614994 144,14.8614994 144.182973,14.5158831 C145.11817,12.7878018 146.21601,11.202033 147.212198,9.51461245 C147.415502,9.08767471 147.86277,8.82337992 148.330368,8.88437103 C148.899619,8.92503177 149.468869,8.92503177 150.05845,8.88437103 C150.221093,8.88437103 150.424396,8.78271919 150.526048,8.98602287 C150.6277,9.18932656 150.404066,9.2909784 150.343075,9.41296061 C148.818297,11.9135959 147.273189,14.4142313 145.707751,16.9148666 C145.504447,17.1385006 145.504447,17.4841169 145.66709,17.7280813 C147.395172,20.5743329 149.082592,23.4205845 150.790343,26.2668361 C151.013977,26.6124524 151.013977,26.7750953 150.546379,26.7750953 C150.160102,26.7750953 149.753494,26.7954257 149.387548,26.7954257 Z" id="Path" fill="#3DD4ED" fill-rule="nonzero"></path>
                        <path d="M75.58831,26.7954257 C71.9898348,26.7954257 69.2452351,24.4574333 68.7166455,21.2249047 C68.025413,17.1994917 70.566709,13.905972 73.6975858,13.0927573 C77.296061,12.1575604 80.6302414,13.7229987 81.9517154,17.4637865 C82.0533672,17.7687421 82.0533672,17.8703939 81.707751,17.8703939 C80.9555273,17.8703939 80.2439644,17.8297332 79.4917408,17.8703939 C79.2884371,17.8907243 79.0851334,17.7687421 79.0241423,17.5654384 C77.9872935,15.6543837 75.750953,15.1664549 74.0228717,15.7763659 C72.2947903,16.4066074 71.2376112,18.3989835 71.4205845,20.41169 C71.6442186,23.0139771 74.0228717,24.9860229 76.8284625,24.0914867 C77.7839898,23.7865311 78.5768742,23.115629 79.0241423,22.2210928 C79.1257942,21.956798 79.3900889,21.7738247 79.6747141,21.8144854 C80.3659466,21.8551461 81.0571792,21.8144854 81.7280813,21.8144854 C81.9720457,21.8144854 82.1550191,21.8144854 82.0330368,22.1601017 C81.158831,24.4371029 79.7357052,26.1651842 77.2350699,26.7750953 C76.7064803,26.815756 76.1575604,26.815756 75.58831,26.7954257 Z" id="Path" fill="#1D2939" fill-rule="nonzero"></path>
                        <path d="M108.482846,22.343075 L108.482846,26.3481576 C108.482846,26.6937738 108.381194,26.815756 108.035578,26.7750953 C107.486658,26.7547649 106.937738,26.7547649 106.368488,26.7750953 C105.900889,26.815756 105.738247,26.6734435 105.778907,26.1855146 C105.819568,23.9085133 105.819568,21.5908513 105.778907,19.3138501 C105.778907,17.8094028 105.026684,16.6912325 103.74587,16.2236341 C101.773825,15.4714104 99.6594663,16.9961881 99.6188056,19.1715375 C99.5984752,21.5501906 99.6188056,23.9288437 99.6188056,26.3074968 C99.6188056,26.7141042 99.5578145,26.8970775 99.1105464,26.8360864 C98.5209657,26.7954257 97.9517154,26.7954257 97.3621347,26.8360864 C97.0571792,26.8360864 96.9148666,26.7750953 96.9148666,26.429479 C96.9148666,23.8678526 96.8742058,21.3062262 96.9555273,18.7445997 C97.0368488,15.9796696 99.0698856,13.6620076 101.794155,13.2147395 C104.742058,12.8081321 107.364676,14.4345616 108.238882,17.1791614 C108.421855,17.7687421 108.523507,18.3989835 108.482846,19.0292249 C108.482846,20.1067344 108.482846,21.2249047 108.482846,22.343075 Z" id="Path" fill="#1D2939" fill-rule="nonzero"></path>
                        <path d="M62.4955527,26.7750953 C61.3570521,26.9174079 60.1982211,26.6327827 59.2426938,26.0025413 C58.2668361,25.3316391 57.5959339,24.3151207 57.3316391,23.1562897 C57.270648,22.8513342 57.3316391,22.7496823 57.6365947,22.7496823 C58.3278272,22.7496823 59.0393901,22.7903431 59.7306226,22.7496823 C59.9135959,22.729352 60.0965693,22.8513342 60.13723,23.0343075 C60.7268107,24.5997459 62.5972046,24.9453621 63.8983482,24.498094 C64.4472681,24.3354511 64.8538755,23.8678526 64.935197,23.3189327 C65.0165184,22.7700127 64.772554,22.2210928 64.3049555,21.9364676 C63.7153748,21.4688691 62.9834816,21.2858958 62.3125794,21.0012706 C61.4587039,20.6556544 60.6251588,20.2287166 59.8526048,19.7407878 C57.7585769,18.5006353 57.8602287,15.3697586 59.9135959,14.0279543 C61.8246506,12.8081321 64.7928844,12.8487929 66.4396442,14.1499365 C67.1308767,14.678526 67.639136,15.3900889 67.9034307,16.2033037 C68.0050826,16.5082592 67.9644219,16.7115629 67.5578145,16.6709022 C66.9072427,16.6302414 66.2566709,16.6302414 65.6264295,16.6709022 C65.3011436,16.6912325 65.0165184,16.5285896 64.8538755,16.2642948 C64.2236341,15.3290978 62.9428208,15.0851334 62.0076239,15.7153748 C61.8043202,15.8373571 61.6416773,16.0203304 61.4993647,16.2033037 C61.1740788,16.5489199 61.1944091,17.0978399 61.5400254,17.4231258 C61.9872935,17.8907243 62.5565438,18.2363405 63.1664549,18.4193139 C64.1626429,18.7445997 65.1385006,19.1512071 66.0736976,19.6594663 C67.3138501,20.41169 67.9847522,21.5095299 67.8831004,22.9326557 C67.7814485,24.5997459 66.9072427,25.7179161 65.3824651,26.3481576 C64.4879288,26.815756 63.5933926,26.7954257 62.4955527,26.7750953 Z" id="Path" fill="#1D2939" fill-rule="nonzero"></path>
                        <rect id="Rectangle" x="0" y="-5.77823826e-15" width="154.856417" height="32"></rect>
                    </g>
                </g>
            </g>
        </g>
    </g>
</svg>
