<?xml version="1.0" encoding="UTF-8"?>
<svg width="150px" height="30px" viewBox="0 0 150 30" version="1.1" xmlns="http://www.w3.org/2000/svg" xmlns:xlink="http://www.w3.org/1999/xlink">
    <g id="Get-FIO" stroke="none" stroke-width="1" fill="none" fill-rule="evenodd">
        <g id="FIO_WalletView---No-FIO---Partners" transform="translate(-388.000000, -755.000000)" fill="#F3BA2F" fill-rule="nonzero">
            <g id="Group-2" transform="translate(328.000000, 230.000000)">
                <g id="Group-10" transform="translate(30.000000, 513.000000)">
                    <g id="Binance_logo" transform="translate(30.000000, 12.000000)">
                        <polygon id="Path" points="9.17401896 12.6062506 15.000053 6.78045352 20.8291674 12.6093309 24.2191572 9.21934113 15.000053 0 5.78402914 9.21626083"></polygon>
                        <polygon id="Rectangle" transform="translate(3.390015, 14.999553) rotate(45.000000) translate(-3.390015, -14.999553) " points="0.992971748 12.6023913 5.78705898 12.6023913 5.78705898 17.3967155 0.992971748 17.3967155"></polygon>
                        <polygon id="Path" points="9.17401896 17.3937494 15.000053 23.2195465 20.8289305 17.390906 24.2208158 20.7790002 24.2191572 20.7808958 15.000053 30 5.7837922 20.7839761 5.77905327 20.7792372"></polygon>
                        <polygon id="Rectangle" transform="translate(26.610420, 15.001151) rotate(135.000000) translate(-26.610420, -15.001151) " points="24.213258 12.6041069 29.0075822 12.6041069 29.0075822 17.3981941 24.213258 17.3981941"></polygon>
                        <polygon id="Path" points="18.4386168 14.9982229 18.4400385 14.9982229 15.000053 11.5582374 12.4578569 14.1004336 12.4576199 14.1004336 12.1657021 14.3925883 11.5631479 14.9951426 11.5631479 14.9951426 11.5584089 14.9998815 11.5631479 15.0048574 15.000053 18.4417626 18.4400385 15.0017771 18.4416971 14.9998815"></polygon>
                        <path d="M35.2852573,7.2692736 L42.6583134,7.2692736 C44.4882492,7.2692736 45.8720152,7.73890104 46.8098484,8.67815593 C47.5356147,9.40558087 47.8983794,10.3071613 47.8983794,11.3826603 L47.8983794,11.428154 C47.8983794,11.8826168 47.8422231,12.2842407 47.7291998,12.6325517 C47.6164134,12.9813365 47.4657156,13.2952903 47.2773433,13.5755977 C47.0894449,13.856142 46.8709805,14.1023292 46.6226609,14.3141591 C46.3741043,14.5264629 46.1070658,14.7084377 45.8210717,14.8596094 C46.740897,15.2083942 47.4650047,15.6815759 47.9929209,16.280102 C48.5206002,16.8788652 48.7847953,17.708414 48.7847953,18.7687484 L48.7847953,18.8140051 C48.7847953,19.54143 48.644997,20.1776307 48.3651635,20.7233179 C48.08533,21.2685312 47.6844169,21.723231 47.1624244,22.0869435 C46.6404318,22.4506559 46.0127612,22.7231441 45.2791757,22.9051188 C44.5455901,23.0868566 43.7326276,23.177607 42.840525,23.177607 L35.2852573,23.177607 L35.2852573,7.2692736 Z M41.9211736,13.7007053 C42.6940923,13.7007053 43.307783,13.5684893 43.7620089,13.3031095 C44.2164718,13.0379667 44.4437033,12.6098048 44.4437033,12.0190979 L44.4437033,11.9736042 C44.4437033,11.4435555 44.246564,11.0383774 43.8527593,10.757833 C43.4587178,10.4775256 42.8905207,10.3372535 42.1484051,10.3372535 L38.6939659,10.3372535 L38.6939659,13.7007053 L41.9211736,13.7007053 L41.9211736,13.7007053 Z M42.8530832,20.1098641 C43.6257649,20.1098641 44.2313994,19.9700658 44.6711717,19.6895214 C45.11047,19.409214 45.3303561,18.9734699 45.3303561,18.382526 L45.3303561,18.3372693 C45.3303561,17.8069836 45.1256345,17.386641 44.7166653,17.0757675 C44.3074592,16.7656049 43.6485117,16.6101682 42.739349,16.6101682 L38.6939659,16.6101682 L38.6939659,20.110101 L42.8530832,20.110101 L42.8530832,20.1098641 Z" id="Shape"></path>
                        <polygon id="Path" points="53.1758829 7.2692736 56.6760527 7.2692736 56.6760527 23.1780809 53.1758829 23.1780809"></polygon>
                        <polygon id="Path" points="61.9772509 7.2692736 65.2039848 7.2692736 72.6585503 17.064631 72.6585503 7.2692736 76.1129895 7.2692736 76.1129895 23.1780809 73.135997 23.1780809 65.4314531 13.0647416 65.4314531 23.1780809 61.9772509 23.1780809"></polygon>
                        <path d="M86.7092252,7.15577635 L89.936196,7.15577635 L96.7545609,23.1780809 L93.0954002,23.1780809 L91.6407872,19.6101445 L84.9136466,19.6101445 L83.4592706,23.1780809 L79.8906234,23.1780809 L86.7092252,7.15577635 Z M90.3908958,16.5189439 L88.2770985,11.3601504 L86.1640119,16.5189439 L90.3908958,16.5189439 Z" id="Shape"></path>
                        <polygon id="Path" points="100.532669 7.2692736 103.760113 7.2692736 111.214205 17.064631 111.214205 7.2692736 114.668644 7.2692736 114.668644 23.1780809 111.691652 23.1780809 103.987108 13.0647416 103.987108 23.1780809 100.532669 23.1780809 100.532669 7.2692736"></polygon>
                        <path d="M127.264706,23.4505691 C126.097509,23.4505691 125.014665,23.2382652 124.014515,22.8143684 C123.014365,22.3904716 122.150932,21.8106642 121.423744,21.0756569 C120.69632,20.3408867 120.127886,19.4734265 119.71939,18.4735134 C119.310184,17.4733633 119.105699,16.4052097 119.105699,15.2688155 L119.105699,15.2235588 C119.105699,14.0871646 119.310184,13.0230391 119.71939,12.0304713 C120.128122,11.0381404 120.69632,10.1668891 121.423744,9.41695429 C122.150696,8.66701945 123.022184,8.07583859 124.037025,7.64412255 C125.051865,7.2124065 126.173806,6.99654848 127.40095,6.99654848 C128.142829,6.99654848 128.820732,7.05744367 129.434423,7.17828625 C130.048114,7.29983967 130.6047,7.46617592 131.105131,7.67824281 C131.605324,7.89054663 132.066896,8.14810719 132.49174,8.45092449 C132.915163,8.75421567 133.309442,9.08736208 133.673154,9.45107455 L131.446333,12.0190979 C130.824349,11.45872 130.192177,11.0189478 129.548394,10.700966 C128.904137,10.3829841 128.180977,10.2237562 127.377966,10.2237562 C126.7112,10.2237562 126.093718,10.352655 125.525995,10.6102155 C124.957798,10.8677761 124.468978,11.2236693 124.059771,11.6781322 C123.651039,12.1325951 123.33282,12.6593266 123.105115,13.2576158 C122.878357,13.856379 122.76486,14.4963708 122.76486,15.1780651 L122.76486,15.2233218 C122.76486,15.9050162 122.878357,16.549273 123.105115,17.1549076 C123.33282,17.761253 123.646537,18.2913017 124.048635,18.7457646 C124.449785,19.2002275 124.934814,19.5603857 125.502774,19.8255286 C126.071445,20.0909084 126.696272,20.2231244 127.377966,20.2231244 C128.287366,20.2231244 129.055546,20.0565512 129.684401,19.7231678 C130.313256,19.3902584 130.938558,18.9355585 131.559594,18.3595422 L133.786888,20.6095837 C133.377682,21.049119 132.952838,21.4431605 132.51425,21.7912346 C132.074715,22.1400194 131.593714,22.4390456 131.070774,22.6892608 C130.548307,22.9390021 129.975845,23.1287961 129.355283,23.2572209 C128.733536,23.3858827 128.036914,23.4505691 127.264706,23.4505691 Z" id="Path"></path>
                        <polygon id="Path" points="137.905962 7.2692736 149.882883 7.2692736 149.882883 10.3829841 141.360638 10.3829841 141.360638 13.6101918 148.86046 13.6101918 148.86046 16.7236654 141.360638 16.7236654 141.360638 20.0646073 149.997091 20.0646073 149.997091 23.1780809 137.905962 23.1780809"></polygon>
                    </g>
                </g>
            </g>
        </g>
    </g>
</svg>
