<?xml version="1.0" encoding="UTF-8"?>
<svg width="148px" height="34px" viewBox="0 0 148 34" version="1.1" xmlns="http://www.w3.org/2000/svg" xmlns:xlink="http://www.w3.org/1999/xlink">
    <defs>
        <polygon id="path-1" points="0 0 24.1944558 0 24.1944558 20.6359337 0 20.6359337"></polygon>
        <polygon id="path-3" points="1.54593322e-15 0 17.8573593 0 17.8573593 14.9748434 1.54593322e-15 14.9748434"></polygon>
        <polygon id="path-5" points="0 0 25.6106891 0 25.6106891 9.8471655 0 9.8471655"></polygon>
    </defs>
    <g id="Get-FIO" stroke="none" stroke-width="1" fill="none" fill-rule="evenodd">
        <g id="FIO_WalletView---No-FIO---Partners" transform="translate(-723.000000, -881.000000)">
            <g id="Group-2" transform="translate(328.000000, 230.000000)">
                <g id="Group-16" transform="translate(365.000000, 641.000000)">
                    <g id="Group-33" transform="translate(30.000000, 10.000000)">
                        <g id="Group-3" transform="translate(4.047099, 0.000218)">
                            <mask id="mask-2" fill="white">
                                <use xlink:href="#path-1"></use>
                            </mask>
                            <g id="Clip-2"></g>
                            <path d="M20.8415381,2.76040724 C18.6075215,0.921499191 15.5338994,-0.000130542455 11.6204542,-0.000130542455 L1.87089095,-0.000130542455 L1.87089095,1.36229755 L11.4409583,1.36229755 C14.7678328,1.36229755 17.7798824,2.04829815 19.6187904,3.63591197 C21.4579161,5.22570151 22.8521095,7.59134836 22.8521095,10.5113655 C22.8521095,13.3297771 21.6452445,15.4180213 19.7325799,16.9978025 C17.8196978,18.5775838 14.4090586,19.2735927 10.9942856,19.2735927 L0,19.2735927 L0,20.6360208 C0,20.6360208 9.36054674,20.6340626 11.0700002,20.6340626 C15.1888322,20.6340626 18.406051,19.7385414 20.7218742,17.9511976 C23.0374798,16.1621133 24.1945211,13.6469953 24.1945211,10.4017099 C24.1945211,7.14859187 23.0772952,4.601491 20.8415381,2.76040724" id="Fill-1" fill="#1C1E1D" mask="url(#mask-2)"></path>
                        </g>
                        <g id="Group-6" transform="translate(9.035692, 2.830487)">
                            <mask id="mask-4" fill="white">
                                <use xlink:href="#path-3"></use>
                            </mask>
                            <g id="Clip-5"></g>
                            <path d="M15.0271771,1.90483199 C13.6369,0.849613812 12.0392779,0 7.51946298,0 C2.64479014,0.00195813683 2.04842869,0 1.54593322e-15,0 L1.54593322e-15,1.32848705 C1.54593322e-15,1.32848705 3.36473178,1.28453776 7.3519335,1.32848705 C11.2055468,1.3683025 12.6197567,1.80300888 13.9162609,2.76249592 C15.575673,3.98915986 16.6047827,5.50301719 16.6047827,7.6212861 C16.6047827,9.66384038 15.5597904,11.1098156 13.8923281,12.3364796 C12.1867909,13.5931683 9.57985807,13.6070928 8.51876548,13.6310256 C8.11800014,13.6408163 2.93589982,13.6310256 2.93589982,13.6310256 L2.93589982,14.9592951 C2.93589982,14.9592951 5.51498359,14.9954118 7.10847182,14.9575545 C10.7667066,14.8757479 12.9367573,14.6581771 14.9573369,13.1562862 C16.8541188,11.7501264 17.8575551,9.89315996 17.8575551,7.54143763 C17.8575551,4.43996647 16.3056229,2.87606786 15.0271771,1.90483199" id="Fill-4" fill="#1C1E1D" mask="url(#mask-4)"></path>
                        </g>
                        <g id="Group-9" transform="translate(0.000000, 5.393579)">
                            <mask id="mask-6" fill="white">
                                <use xlink:href="#path-5"></use>
                            </mask>
                            <g id="Clip-8"></g>
                            <path d="M23.3905971,1.0949466 C22.3475629,0.440711328 21.4320251,-8.70283034e-05 17.1136807,-8.70283034e-05 L11.7083528,-8.70283034e-05 L11.7083528,0.873459567 L16.963992,0.873459567 C20.7897563,0.873459567 22.2396478,1.55358576 22.6787056,1.82293836 C23.5383276,2.34945959 24.6712186,3.20712352 24.6712186,4.95443428 C24.6712186,6.07144256 24.0108913,7.4736861 23.0355216,8.02414012 C22.1460924,8.52477043 20.5204037,8.97361891 17.6563022,8.97361891 L0,8.97361891 L0,9.8471655 L17.7220086,9.8471655 C21.1746389,9.8471655 22.3595293,9.46424097 23.576185,8.79194732 C24.7967569,8.11987125 25.6106891,6.73764422 25.6106891,4.9624844 C25.6106891,2.97976208 24.5036891,1.79095546 23.3905971,1.0949466" id="Fill-7" fill="#1C1E1D" mask="url(#mask-6)"></path>
                        </g>
                        <path d="M26.827323,16.1263446 C24.5933065,14.2854784 21.5177263,13.3658068 17.6062392,13.3658068 C12.3725746,13.3658068 13.2839785,13.3638487 11.0841205,13.3638487 L11.0841205,14.7260592 L17.4247851,14.7260592 C20.7518772,14.7260592 23.7656673,15.4122774 25.6045754,17.0001088 C27.443701,18.5896807 28.8357187,20.9553276 28.8357187,23.8773029 C28.8357187,26.6937564 27.6310294,28.7820005 25.7183649,30.3617818 C23.8054828,31.9415631 20.3926679,32.6375719 16.9778948,32.6375719 L5.98578495,32.6375719 L5.98578495,34 C5.98578495,34 15.3443736,33.9978243 17.0557851,33.9978243 C21.1746172,33.9978243 24.3898778,33.1044788 26.705701,31.3151768 C29.0213066,29.5280506 30.180306,27.0109745 30.180306,23.7676472 C30.180306,20.5125711 29.0632977,17.9654702 26.827323,16.1263446" id="Fill-10" fill="#1C1E1D"></path>
                        <path d="M26.001555,18.0990369 C24.6112778,17.0459945 23.0136558,16.1942049 18.4938408,16.1942049 C13.6172098,16.1961631 10.3201426,16.1942049 8.27171388,16.1942049 L8.27171388,17.522692 C8.27171388,17.522692 14.3371515,17.4785251 18.3263113,17.522692 C22.1799246,17.5625074 23.5921764,17.9972138 24.8886806,18.9567009 C26.5500509,20.1853229 27.5791606,21.6972221 27.5791606,23.815491 C27.5791606,25.8580453 26.5341682,27.3042382 24.8667059,28.5326427 C23.1611687,29.7873732 20.5542359,29.8032559 19.4911852,29.8271887 C19.0902023,29.8350212 13.9083195,29.8271887 13.9083195,29.8271887 L13.9083195,31.1537176 C13.9083195,31.1537176 16.4874033,31.1896168 18.0830672,31.1537176 C21.7391263,31.0697353 23.9113527,30.8523821 25.9317148,29.3526668 C27.8265385,27.9443313 28.8299749,26.0873649 28.8299749,23.7356426 C28.8299749,20.6361295 27.2800008,19.0704904 26.001555,18.0990369" id="Fill-12" fill="#1C1E1D"></path>
                        <polygon id="Fill-14" fill="#1C1E1D" points="10.4597142 22.6069072 20.0397899 22.6069072 20.0397899 21.8649909 10.4597142 21.8649909"></polygon>
                        <polygon id="Fill-16" fill="#1C1E1D" points="14.4110168 25.2016561 19.9838742 25.2016561 19.9838742 24.5633035 14.4110168 24.5633035"></polygon>
                        <polygon id="Fill-17" fill="#1C1E1D" points="5.98602428 22.6069072 8.82423482 22.6069072 8.82423482 21.8649909 5.98602428 21.8649909"></polygon>
                        <polygon id="Fill-18" fill="#1C1E1D" points="4.21673887 25.2536555 12.8373275 25.2536555 12.8373275 24.5117392 4.21673887 24.5117392"></polygon>
                        <polygon id="Fill-19" fill="#1C1E1D" points="6.34088219 6.20925188 9.69973956 6.20925188 9.69973956 5.59700776 6.34088219 5.59700776"></polygon>
                        <polygon id="Fill-20" fill="#1C1E1D" points="4.00112625 11.1759572 11.6942107 11.1759572 11.6942107 10.4638481 4.00112625 10.4638481"></polygon>
                        <polygon id="Fill-21" fill="#1C1E1D" points="4.21673887 31.0619245 12.328647 31.0619245 12.328647 30.1722776 4.21673887 30.1722776"></polygon>
                        <polygon id="Fill-22" fill="#1C1E1D" points="2.1942011 33.9460425 4.22261328 33.9460425 4.22261328 32.6575884 2.1942011 32.6575884"></polygon>
                        <polygon id="Fill-23" fill="#1C1E1D" points="7.26425248 9.00177256 20.001715 9.00177256 20.001715 8.28966347 7.26425248 8.28966347"></polygon>
                        <polygon id="Fill-24" fill="#1C1E1D" points="13.6329837 11.1759572 19.760429 11.1759572 19.760429 10.4638481 13.6329837 10.4638481"></polygon>
                        <path d="M25.3294136,19.9860064 C24.2842037,19.3537457 23.368666,18.92883 19.0522797,18.92883 L12.1650773,18.92883 L12.1650773,19.7725694 L18.9008504,19.7725694 C22.7263971,19.7725694 24.1784643,20.4287629 24.6173046,20.6898478 C25.4749685,21.1985282 26.6098176,22.0244268 26.6098176,23.7119056 C26.6098176,24.790839 25.9497079,26.1432588 24.97238,26.6736963 C24.0827332,27.158444 22.4572621,27.5911922 19.592943,27.5911922 L1.93881654,27.5911922 L1.93881654,28.4349316 C1.93881654,28.4349316 18.2246405,28.4329735 19.658867,28.4329735 C23.1134555,28.4329735 24.2981283,28.0639735 25.5150015,27.4156126 C26.7336153,26.7655112 27.54733,25.4311497 27.54733,23.71778 C27.54733,21.8048979 26.4422881,20.6580824 25.3294136,19.9860064" id="Fill-25" fill="#1C1E1D"></path>
                        <path d="M40.3466696,28.1298104 L40.3466696,6.55244799 L47.9340146,6.55244799 C50.2378714,6.55244799 52.0669888,7.00912901 53.4172329,7.92053292 C54.767477,8.83411254 55.4436869,10.0229192 55.4436869,11.4869528 C55.4436869,12.7116586 55.0348715,13.7747093 54.217023,14.6782807 C53.3991745,15.5798939 52.2704174,16.2221628 50.8342328,16.6031292 L50.8342328,16.6629611 C52.6313673,16.8344069 54.0673343,17.3829028 55.1464853,18.3104069 C56.2256362,19.2400868 56.7641239,20.4467342 56.7641239,21.9307843 C56.7641239,23.7755668 55.9462754,25.2715833 54.310796,26.4144825 C52.6731409,27.5573817 50.6107877,28.1298104 48.1196025,28.1298104 L40.3466696,28.1298104 Z M43.4701154,8.83824638 L43.4701154,15.8052972 L46.6694934,15.8052972 C48.3787293,15.8052972 49.7233165,15.4721964 50.7026025,14.8059947 C51.6818885,14.1378349 52.1725106,13.1983644 52.1725106,11.9836668 C52.1725106,9.88737258 50.467191,8.83824638 47.0585099,8.83824638 L43.4701154,8.83824638 Z M43.4701154,18.0791292 L43.4701154,25.8420539 L47.710787,25.8420539 C49.5436031,25.8420539 50.9658631,25.4908947 51.977132,24.7890114 C52.9864428,24.086693 53.4909894,23.1232897 53.4909894,21.9007596 C53.4909894,19.351483 51.3468295,18.0791292 47.0585099,18.0791292 L43.4701154,18.0791292 Z" id="Fill-26" fill="#1C1E1D"></path>
                        <path d="M61.8044768,8.80819986 C61.2579391,8.80819986 60.793208,8.65872875 60.4102834,8.35739325 C60.0251832,8.05627532 59.8337209,7.67530892 59.8337209,7.21449405 C59.8337209,6.75172105 60.0251832,6.36879651 60.4102834,6.0615866 C60.793208,5.7565524 61.2579391,5.60294744 61.8044768,5.60294744 C62.3610228,5.60294744 62.8355447,5.7565524 63.2265193,6.0615866 C63.617494,6.36879651 63.8109144,6.75172105 63.8109144,7.21449405 C63.8109144,7.65529241 63.617494,8.03234253 63.2265193,8.34151058 C62.8355447,8.65263677 62.3610228,8.80819986 61.8044768,8.80819986 L61.8044768,8.80819986 Z M60.2427539,28.1297886 L63.2904851,28.1297886 L63.2904851,12.7216451 L60.2427539,12.7216451 L60.2427539,28.1297886 Z" id="Fill-27" fill="#1C1E1D"></path>
                        <path d="M76.771822,27.9802305 C76.0516628,28.3013649 75.1043597,28.4608443 73.9275195,28.4608443 C70.5925949,28.4608443 68.9251326,26.9569952 68.9251326,23.9471213 L68.9251326,14.8278606 L65.6539563,14.8278606 L65.6539563,12.7215581 L68.9251326,12.7215581 L68.9251326,8.95975965 L71.9748219,8.16192768 L71.9748219,12.7215581 L76.771822,12.7215581 L76.771822,14.8278606 L71.9748219,14.8278606 L71.9748219,23.5102393 C71.9748219,24.5434828 72.1923927,25.2817004 72.6251409,25.7222812 C73.0598473,26.1630795 73.7780484,26.3845666 74.7832253,26.3845666 C75.5512501,26.3845666 76.2135355,26.2150789 76.771822,25.8719698 L76.771822,27.9802305 Z" id="Fill-28" fill="#1C1E1D"></path>
                        <path d="M104.45472,28.1298104 L101.598451,28.1298104 L101.598451,14.8138273 C101.598451,13.7607848 101.6783,12.4742889 101.837997,10.9504233 L101.770115,10.9504233 C101.496628,11.8459445 101.249468,12.4862553 101.034073,12.8752718 L92.6528121,28.1298104 L91.2507861,28.1298104 L82.8871486,12.9849275 C82.6478208,12.5419534 82.4026185,11.8640029 82.1511067,10.9504233 L82.0834422,10.9504233 C82.1752571,11.7441214 82.2211645,13.0406256 82.2211645,14.8399358 L82.2211645,28.1298104 L79.4484428,28.1298104 L79.4484428,8.27974224 L83.2461404,8.27974224 L90.7719129,22.1222466 C91.3543498,23.1833392 91.7294418,23.9770373 91.9008876,24.5035586 L92.0027107,24.5035586 C92.4931152,23.4146169 92.886048,22.6028604 93.1832496,22.0663309 L100.86241,8.27974224 L104.45472,8.27974224 L104.45472,28.1298104 Z" id="Fill-29" fill="#1C1E1D"></path>
                        <path d="M123.000517,28.1298104 L119.95061,28.1298104 L119.95061,25.72239 L119.877071,25.72239 C118.550542,27.56739 116.597845,28.4907603 114.020937,28.4907603 C112.123937,28.4907603 110.639887,28.083903 109.567046,27.2721465 C108.495727,26.46039 107.959198,25.381239 107.959198,24.0368693 C107.959198,21.1588433 110.053534,19.4833309 114.244164,19.0105496 L119.95061,18.3643645 C119.95061,15.7454652 118.642357,14.4369947 116.027374,14.4369947 C113.735701,14.4369947 111.665081,15.0692553 109.818122,16.3318184 L109.818122,13.8047341 C111.689231,12.8413308 113.847315,12.3604994 116.288677,12.3604994 C120.762584,12.3604994 123.000517,14.2753396 123.000517,18.1089364 L123.000517,28.1298104 Z M119.95061,20.3349028 L115.359214,20.8474995 C113.945005,21.0071965 112.879778,21.290256 112.159836,21.6973309 C111.441853,22.1041882 111.082861,22.8241299 111.082861,23.8554153 C111.082861,24.609298 111.413786,25.2237178 112.07803,25.7004153 C112.740315,26.1771128 113.62387,26.4144825 114.726954,26.4144825 C116.238853,26.4144825 117.487492,25.9856506 118.472652,25.1279866 C119.45803,24.2703227 119.95061,23.1850798 119.95061,21.8707348 L119.95061,20.3349028 Z" id="Fill-30" fill="#1C1E1D"></path>
                        <path d="M137.150036,15.2188787 C136.61764,14.887736 135.847657,14.7221647 134.844221,14.7221647 C133.5438,14.7221647 132.454859,15.2188787 131.581094,16.2120893 C130.707548,17.2052998 130.270883,18.5598953 130.270883,20.2752232 L130.270883,28.1297451 L127.220976,28.1297451 L127.220976,12.7216016 L130.270883,12.7216016 L130.270883,15.8970468 L130.34464,15.8970468 C130.779346,14.8120214 131.441632,13.968282 132.335195,13.3599542 C133.2268,12.7535845 134.224144,12.4502908 135.32701,12.4502908 C136.120926,12.4502908 136.727296,12.5201311 137.150036,12.6617696 L137.150036,15.2188787 Z" id="Fill-31" fill="#1C1E1D"></path>
                        <path d="M147.767249,27.9802305 C147.04709,28.3013649 146.099787,28.4608443 144.923164,28.4608443 C141.58824,28.4608443 139.920777,26.9569952 139.920777,23.9471213 L139.920777,14.8278606 L136.649383,14.8278606 L136.649383,12.7215581 L139.920777,12.7215581 L139.920777,8.95975965 L142.970249,8.16192768 L142.970249,12.7215581 L147.767249,12.7215581 L147.767249,14.8278606 L142.970249,14.8278606 L142.970249,23.5102393 C142.970249,24.5434828 143.187602,25.2817004 143.620351,25.7222812 C144.055274,26.1630795 144.773476,26.3845666 145.778652,26.3845666 C146.546677,26.3845666 147.208963,26.2150789 147.767249,25.8719698 L147.767249,27.9802305 Z" id="Fill-32" fill="#1C1E1D"></path>
                    </g>
                </g>
            </g>
        </g>
    </g>
</svg>
