<?xml version="1.0" encoding="UTF-8"?>
<svg width="34px" height="34px" viewBox="0 0 34 34" version="1.1" xmlns="http://www.w3.org/2000/svg" xmlns:xlink="http://www.w3.org/1999/xlink">
    <title>BTCa</title>
    <g id="FINAL-PAYMENT-PROFILE" stroke="none" stroke-width="1" fill="none" fill-rule="evenodd">
        <g id="FIO---My-Profile" transform="translate(-209.000000, -947.000000)">
            <g id="Group-5" transform="translate(92.000000, 238.000000)">
                <g id="Competitive-Edge" transform="translate(97.000000, 339.000000)">
                    <g id="Group-2-Copy" transform="translate(0.000000, 350.000000)">
                        <g id="Group" transform="translate(20.000000, 20.000000)">
                            <circle id="Oval" fill="#060606" cx="17" cy="17" r="17"></circle>
                            <g id="link-solid" transform="translate(6.954545, 9.272727)" fill="#FFFFFF" fill-rule="nonzero">
                                <path d="M18.6822018,8.11173839 C20.5604782,6.25513069 20.5604782,3.24841202 18.6822018,1.39180432 C17.0200102,-0.251211347 14.4003964,-0.464803383 12.4888761,0.885755494 L12.435686,0.921901839 C11.9569748,1.26036307 11.8472702,1.91756933 12.1896816,2.38747181 C12.5320931,2.85737429 13.1969697,2.96909936 13.6723565,2.63063813 L13.7255466,2.59449179 C14.7926736,1.84199061 16.2520777,1.96028774 17.1762562,2.87709048 C18.2234369,3.91219035 18.2234369,5.58806633 17.1762562,6.6231662 L13.4462984,10.3166654 C12.3991178,11.3517653 10.7036824,11.3517653 9.65650173,10.3166654 C8.72899885,9.39986268 8.60932106,7.95729492 9.37060478,6.90576489 L9.407173,6.85318839 C9.74958445,6.37999988 9.63655543,5.72279361 9.16116865,5.38761842 C8.68578187,5.05244322 8.01758087,5.16088226 7.6784938,5.63078474 L7.64192558,5.68336124 C6.27227976,7.56954322 6.48836466,10.1589359 8.15055619,11.8019516 C10.0288326,13.6585593 13.0706431,13.6585593 14.9489196,11.8019516 L18.6822018,8.11173839 Z M1.40870733,7.34280706 C-0.469569109,9.19941476 -0.469569109,12.2061334 1.40870733,14.0627411 C3.07089886,15.7057568 5.69051272,15.9193488 7.60203299,14.56879 L7.65522312,14.5326436 C8.13393428,14.1941824 8.24363892,13.5369761 7.90122746,13.0670736 C7.55881601,12.5971712 6.89393939,12.4854461 6.41855261,12.8239073 L6.36536249,12.8600537 C5.29823552,13.6125548 3.83883135,13.4942577 2.91465286,12.577455 C1.86747219,11.5390691 1.86747219,9.86319309 2.91465286,8.82809322 L6.64461066,5.13788004 C7.69179133,4.10278017 9.3872267,4.10278017 10.4344074,5.13788004 C11.3619102,6.05468278 11.481588,7.49725053 10.7203043,8.55206659 L10.6837361,8.60464309 C10.3413246,9.0778316 10.4543537,9.73503787 10.9297404,10.0702131 C11.4051272,10.4053883 12.0733282,10.2969492 12.4124153,9.82704675 L12.4489835,9.77447025 C13.8186293,7.88500223 13.6025444,5.29560954 11.9403529,3.65259388 C10.0620765,1.79598617 7.02026595,1.79598617 5.14198952,3.65259388 L1.40870733,7.34280706 Z" id="Shape"></path>
                            </g>
                        </g>
                    </g>
                </g>
            </g>
        </g>
    </g>
</svg>