<?xml version="1.0" encoding="UTF-8"?>
<svg width="148px" height="34px" viewBox="0 0 148 34" version="1.1" xmlns="http://www.w3.org/2000/svg" xmlns:xlink="http://www.w3.org/1999/xlink">
    <g id="Get-FIO" stroke="none" stroke-width="1" fill="none" fill-rule="evenodd">
        <g id="FIO_WalletView---No-FIO---Partners" transform="translate(-388.000000, -881.000000)" fill-rule="nonzero">
            <g id="Group-2" transform="translate(328.000000, 230.000000)">
                <g id="Group-Copy-6" transform="translate(30.000000, 641.000000)">
                    <g id="changelly-seeklogo.com" transform="translate(30.000000, 10.000000)">
                        <path d="M41.6405282,17.1172489 C41.6405282,13.5858967 44.3871354,10.5695334 48.0656273,10.5695334 C50.4443854,10.5695334 51.9157822,11.5749878 53.0683763,12.8011518 L51.8912589,14.051839 C50.9103277,12.997338 49.7332103,12.2125931 48.041104,12.2125931 C45.490683,12.2125931 43.5533439,14.3706416 43.5533439,17.1172489 C43.5533439,19.8393329 45.5397296,21.9973815 48.1391972,21.9973815 C49.7332103,21.9973815 50.9103277,21.16359 51.9157822,20.109089 L53.1419461,21.2371598 C51.8912589,22.6349867 50.3953389,23.6649645 48.041104,23.6649645 C44.4116587,23.6649645 41.6405282,20.6731244 41.6405282,17.1172489 M55.2509481,6.59676212 L57.1147174,5.68940079 L57.1147174,13.0463846 C57.9485089,11.6976042 59.2482427,10.5940566 61.4062912,10.5940566 C64.4226546,10.5940566 66.1883307,12.6294888 66.1883307,15.6213289 L66.1883307,23.3952084 L64.3245615,23.3952084 L64.3245615,16.0382246 C64.3245615,13.7085131 63.0738742,12.2616396 60.8667791,12.2616396 C58.7087305,12.2616396 57.1147174,13.8311295 57.1147174,16.1853643 L57.1147174,23.3706851 L55.2509481,23.3706851 C55.2509481,23.3706851 55.2509481,6.59676212 55.2509481,6.59676212 Z M77.5671323,18.7603086 L77.5671323,17.6077145 C76.3900149,17.2643886 75.1393276,17.0682024 73.9131636,17.0682024 C71.5834521,17.0682024 70.259195,18.0981801 70.259195,19.6431467 C70.259195,21.2126365 71.7060685,22.1445212 73.3981748,22.1445212 C75.703363,22.1199979 77.5671323,20.7466942 77.5671323,18.7603086 M68.3709025,19.6921932 C68.3709025,16.9946325 70.5534744,15.5968056 73.7169774,15.5968056 C75.3109906,15.5968056 76.4390614,15.8175151 77.542609,16.1363177 L77.542609,15.7439453 C77.542609,13.5123269 76.1938286,12.3597327 73.8395938,12.3597327 C72.3681971,12.3597327 71.1910797,12.7275819 70.0384855,13.2670941 L69.4744501,11.7466508 C70.8477537,11.1090455 72.1965341,10.6676265 74.03578,10.6676265 C75.8014561,10.6676265 77.1747598,11.1580921 78.0821211,12.0409301 C78.9649592,12.9237682 79.3818549,14.1254088 79.3818549,15.719422 L79.3818549,23.3706851 L77.542609,23.3706851 L77.542609,21.5069159 C76.6597709,22.6104635 75.2374207,23.6404412 73.0303256,23.6404412 C70.7006141,23.6404412 68.3709025,22.2916608 68.3709025,19.6921932 M82.5453579,10.8392894 L84.4091272,10.8392894 L84.4091272,13.0218613 C85.2429187,11.6730809 86.5426525,10.5695334 88.700701,10.5695334 C91.7170644,10.5695334 93.4827405,12.6049655 93.4827405,15.5968056 L93.4827405,23.3706851 L91.6189713,23.3706851 L91.6189713,16.0382246 C91.6189713,13.7085131 90.368284,12.2616396 88.1611889,12.2616396 C86.0031403,12.2616396 84.4091272,13.8311295 84.4091272,16.1853643 L84.4091272,23.3706851 L82.5453579,23.3706851 L82.5453579,10.8392894 L82.5453579,10.8392894 Z M106.651741,16.4551204 C106.651741,13.8801761 104.420123,12.2125931 102.041365,12.2125931 C99.6626069,12.2125931 97.7007445,13.8556528 97.7007445,16.4796437 C97.7007445,19.0055414 99.7116534,20.7466942 102.041365,20.7466942 C104.420123,20.7466942 106.651741,19.0300647 106.651741,16.4551204 M96.3764874,25.553257 L97.2348022,24.1063835 C98.6571524,25.1608845 100.251166,25.7003966 102.041365,25.7003966 C104.787972,25.7003966 106.602695,24.1799533 106.602695,21.2371598 L106.602695,19.7657631 C105.523671,21.2126365 103.978704,22.4142772 101.698039,22.4142772 C98.706199,22.4142772 95.812452,20.1581355 95.812452,16.5041669 C95.812452,12.8501983 98.706199,10.5940566 101.698039,10.5940566 C104.052274,10.5940566 105.572717,11.7466508 106.578172,13.1199544 L106.578172,10.8638127 L108.441941,10.8638127 L108.441941,21.1881133 C108.441941,23.1254523 107.853382,24.5968491 106.847928,25.6268268 C105.74438,26.7548977 104.076797,27.2944098 102.090412,27.2944098 C99.9814095,27.2944098 98.0685937,26.7058511 96.3764874,25.553257 M120.948813,16.3570273 C120.728104,14.0763623 119.42837,12.1390232 116.951519,12.1390232 C114.79347,12.1390232 113.15041,13.9292226 112.880654,16.3570273 L120.948813,16.3570273 L120.948813,16.3570273 Z M117.294845,22.0219048 C119.011474,22.0219048 120.213115,21.3107297 121.243093,20.2562287 L122.395687,21.3107297 C121.144999,22.7085566 119.600033,23.6649645 117.245798,23.6649645 C113.812539,23.6649645 110.992362,21.0164503 110.992362,17.1172489 C110.992362,13.4878036 113.542783,10.5695334 117.000565,10.5695334 C120.70358,10.5695334 122.837106,13.5368501 122.837106,17.215342 C122.837106,17.387005 122.837106,17.5831912 122.812582,17.8774706 L112.880654,17.8774706 C113.15041,20.5014614 115.08775,22.0219048 117.294845,22.0219048 L117.294845,22.0219048 Z M125.436573,7.38150705 L127.300343,6.44962244 L127.300343,23.3461618 L125.436573,23.3461618 L125.436573,7.38150705 Z M130.709078,6.59676212 L132.572848,5.68940079 L132.572848,23.3952084 L130.709078,23.3952084 L130.709078,6.59676212 Z M135.049699,26.6813278 L135.687304,25.2099311 C136.300386,25.5287337 136.839898,25.6758734 137.649166,25.6758734 C138.752714,25.6758734 139.463889,25.0873147 140.224111,23.3216386 L134.53471,10.8392894 L136.594665,10.8392894 L141.131472,21.2862064 L145.15329,10.8392894 L147.139675,10.8392894 L141.891694,23.7875809 C140.837193,26.3870485 139.611029,27.3189331 137.722736,27.3189331 C136.668235,27.3189331 135.88349,27.0982236 135.049699,26.6813278" id="Shape" fill="#000000"></path>
                        <path d="M17.5341447,28.71676 C17.2643886,28.9865161 16.9701092,29.2317489 16.6513066,29.4524584 C16.0382246,29.9184007 15.4006194,30.3107731 14.7139675,30.6786223 C13.3651872,31.3652742 11.942837,31.880263 10.446917,32.1745424 C10.0790678,32.2481122 9.71121858,32.321682 9.34336939,32.3707286 L8.77933397,32.4442984 L8.5095779,32.4688217 L8.23982183,32.493345 L7.6757864,32.5423916 L7.11175098,32.5669148 C6.74390179,32.5914381 6.35152932,32.5914381 5.98368014,32.6159614 C4.88013257,32.6159614 3.776585,32.5669148 2.67303744,32.4688217 C2.79565383,32.2971588 2.91827023,32.1009725 3.04088663,31.9047863 C3.38421254,31.3652742 3.70301517,30.7767155 3.99729452,30.1881568 C4.53680666,29.0110393 4.95370241,27.7848754 5.29702832,26.5587114 C5.61583095,25.3570707 6.00820342,24.2044766 6.44962244,23.0273592 C6.89104147,21.8502418 7.40603033,20.722171 7.99458903,19.6186234 C7.57769329,20.0845657 7.2098441,20.5995546 6.86651819,21.1390667 C6.52319228,21.6540556 6.17986637,22.218091 5.88558702,22.7576031 C5.27250504,23.8611507 4.73299289,25.0382681 4.31609715,26.2153855 C3.87467812,27.3679796 3.40873582,28.5205738 2.84470039,29.5750748 C2.28066497,30.6295758 1.59401315,31.6105069 0.809268215,32.5423916 L0,33.5233227 L1.27521052,33.6949857 C2.84470039,33.9156952 4.43871354,34.0383116 6.03272669,33.989265 C6.42509916,33.9647418 6.84199491,33.9647418 7.23436738,33.9156952 L7.82292608,33.8666486 L8.41148478,33.7930788 C8.80385725,33.7440322 9.19622972,33.6459391 9.58860219,33.5968926 C9.98097465,33.4987995 10.3733471,33.4252296 10.7657196,33.3026132 C11.1580921,33.2045201 11.5259412,33.0573804 11.9183137,32.934764 C12.2861629,32.7876244 12.6785354,32.6404847 13.0463846,32.4688217 C13.7820829,32.1500191 14.493258,31.7331233 15.1553866,31.2917043 C15.8175151,30.8502853 16.4305971,30.3352964 16.9946325,29.7467377 C17.5341447,29.158179 18.0246102,28.545097 18.3679362,27.8339219 C18.0981801,28.1772479 17.828424,28.4715272 17.5341447,28.71676 M26.3134786,7.55317001 C26.7548977,7.11175098 27.3434564,6.86651819 27.9810616,6.86651819 C28.5941436,6.86651819 29.1827023,7.0872277 29.6486446,7.55317001 C30.5560059,8.48505462 30.5560059,9.95645137 29.6486446,10.888336 C28.7412833,11.7956973 27.2453632,11.7956973 26.3134786,10.888336 C25.8720596,10.446917 25.6268268,9.85835826 25.6268268,9.220753 C25.6268268,8.58314774 25.8720596,7.99458903 26.3134786,7.55317001 M27.9810616,12.997338 C28.9619928,12.997338 29.9184007,12.6294888 30.6540991,11.8937904 C32.1254958,10.3978704 32.1254958,8.01911231 30.6540991,6.52319228 C29.1827023,5.05179552 26.7794209,5.05179552 25.3080242,6.52319228 C24.5968491,7.23436738 24.2044766,8.19077527 24.2044766,9.19622972 C24.2044766,10.2016842 24.5968491,11.1580921 25.3080242,11.8692672 C26.0191993,12.6049655 26.9756072,12.997338 27.9810616,12.997338 M29.0846092,18.441506 C23.6649645,23.2235454 21.4088228,23.6649645 19.1526811,22.6349867 L21.605009,19.5450536 C21.9728582,19.1036345 22.218091,18.5641224 22.3652307,18.000087 L23.3461618,13.8556528 L19.2262509,14.8365839 C18.6622155,14.9837236 18.1227034,15.2289564 17.6812843,15.5968056 L14.5913512,18.0491335 C13.5368501,15.7929918 14.0027924,13.5368501 18.7603086,8.11720543 C23.272592,2.99184007 32.7876244,1.81472266 35.6078015,1.56948987 C35.387092,4.38966699 34.2099745,13.9292226 29.0846092,18.441506 L29.0846092,18.441506 Z M25.4796871,25.8475363 C25.4306406,26.0682458 25.3080242,26.2889554 25.1118379,26.4115717 C24.5478025,26.8039442 23.6649645,27.3434564 22.8802195,27.8339219 L22.9292661,27.6867823 C23.2971153,26.1908622 23.2971153,25.0382681 22.9292661,24.2535232 C23.9592438,23.9347205 25.0627914,23.3706851 26.3134786,22.5123703 C25.994676,23.6649645 25.6513501,25.0382681 25.4796871,25.8475363 Z M16.9210627,23.1744989 C16.60226,23.5913946 16.0872712,23.8121041 15.5722823,23.7875809 L15.547759,23.7875809 L14.3215951,23.7875809 L18.5886457,18.6376922 L13.438757,22.9047428 L13.438757,21.7031021 L13.438757,21.6540556 C13.4142337,21.1390667 13.6349433,20.6240778 14.051839,20.3052752 L18.5641224,16.7248764 C18.8584017,16.5041669 19.2017276,16.332504 19.5450536,16.2344109 L21.3842995,15.7929918 L20.9428805,17.6322378 C20.8447874,18.000087 20.6976477,18.3434129 20.4524149,18.6376922 L16.9210627,23.1744989 L16.9210627,23.1744989 Z M9.56407891,14.2970718 L9.41693923,14.3461184 C9.88288154,13.5613734 10.4223937,12.6785354 10.8147661,12.1144999 C10.9373825,11.9183137 11.1580921,11.7956973 11.3788016,11.7466508 C12.1880698,11.5749878 13.5613734,11.2316619 14.7139675,10.9373825 C13.8556528,12.1880698 13.2916174,13.3161406 12.9728147,14.3461184 C12.2125931,13.9046993 11.0599989,13.9046993 9.56407891,14.2970718 L9.56407891,14.2970718 Z M36.3680231,0.0735698377 C35.8530343,0.098093117 23.3952084,0.66212854 17.6812843,7.16079754 C17.1417722,7.77387952 16.6267833,8.41148478 16.1117945,9.04909004 C15.278003,9.26979956 12.384256,10.0545445 11.1090455,10.3243006 C10.5204868,10.446917 9.98097465,10.7902429 9.63764874,11.3052317 C8.75481069,12.5804423 7.23436738,15.2044331 7.18532082,15.3025262 L6.08177325,17.1908188 L8.09268215,16.3079807 C9.41693923,15.7439453 11.6240344,15.1553866 12.4087793,15.6213289 C12.5313957,15.6948987 12.6785354,15.8420384 12.7030586,16.2098876 L12.7030586,16.2098876 C12.7275819,17.1417722 12.9728147,18.0491335 13.438757,18.9564949 L13.169001,19.1772044 C12.4087793,19.7902864 11.9673603,20.722171 12.0164068,21.7031021 L12.0164068,25.2099311 L15.5232358,25.2099311 C16.5041669,25.2589776 17.4360515,24.8175586 18.0491335,24.0573369 L18.269843,23.7875809 C19.1772044,24.2535232 20.0845657,24.5232792 21.0164503,24.5232792 L21.0164503,24.5232792 C21.3842995,24.5478025 21.5069159,24.6704189 21.605009,24.8175586 C22.0954746,25.6023035 21.5069159,27.8339219 20.9183572,29.158179 L20.0355191,31.1690879 L21.9238116,30.0655404 C22.046428,29.9919705 24.6458956,28.4715272 25.9211062,27.5886892 C26.4115717,27.2453632 26.7548977,26.7303744 26.8775141,26.1172924 C27.1472701,24.8420819 27.9320151,21.9238116 28.1527246,21.0900202 C28.7412833,20.6240778 29.3543653,20.0845657 30.0164938,19.496007 C36.4906395,13.7820829 37.0791982,1.2997338 37.1037215,0.784744936 L37.1282448,0 L36.3680231,0.0735698377 Z" id="Shape" fill="#10D078"></path>
                    </g>
                </g>
            </g>
        </g>
    </g>
</svg>
