<?xml version="1.0" encoding="UTF-8"?>
<svg width="54px" height="54px" viewBox="0 0 54 54" version="1.1" xmlns="http://www.w3.org/2000/svg" xmlns:xlink="http://www.w3.org/1999/xlink">
    <g id="Get-FIO" stroke="none" stroke-width="1" fill="none" fill-rule="evenodd">
        <g id="FIO_WalletView---No-FIO---Get---ChangeNow-Copy" transform="translate(-163.000000, -1103.000000)" fill-rule="nonzero">
            <g id="Error-Message" transform="translate(133.000000, 375.000000)">
                <g id="Group" transform="translate(30.000000, 669.000000)">
                    <g id="logo-on-white" transform="translate(0.000000, 59.000000)">
                        <path d="M0,10.0285668 C0,4.4899488 4.4899488,0 10.0285668,0 L43.971444,0 C49.510008,0 54,4.4899488 54,10.0285668 L54,43.971444 C54,49.510008 49.510008,54 43.971444,54 L10.0285668,54 C4.4899488,54 0,49.510008 0,43.971444 L0,10.0285668 Z" id="Path" fill="#2B2B36"></path>
                        <path d="M13.5001205,21.0273296 C13.2859891,20.7858653 13.0160446,20.5927951 12.7108096,20.462698 C12.4209939,20.3407003 12.1079408,20.2744874 11.7902185,20.2679066 C11.4389431,20.2572761 11.0889708,20.3128585 10.7612912,20.4315151 C10.4668497,20.5394401 10.1995112,20.7031498 9.97608491,20.9125201 C9.75759924,21.1197643 9.5886396,21.3679106 9.48039033,21.6407602 C9.25366299,22.2365746 9.25366299,22.8871615 9.48039033,23.4829759 C9.58785778,23.7578503 9.75685,24.0081228 9.97608491,24.2170881 C10.1992723,24.4266609 10.4666868,24.5904719 10.7612912,24.6980931 C11.0889708,24.8166485 11.4389431,24.8722308 11.7902185,24.8616003 C12.1079408,24.8550195 12.4209939,24.7888067 12.7108096,24.6669102 C13.0161532,24.5368131 13.2859891,24.3437429 13.5001205,24.1021774 L12.9606658,23.712696 C12.8386152,23.8822778 12.6760622,24.0229042 12.4858197,24.1236409 C12.2745115,24.2375391 12.0339938,24.2954501 11.7902185,24.2910966 C11.538625,24.3013222 11.287683,24.2601163 11.0549834,24.1703139 C10.8447177,24.0922556 10.654497,23.9733964 10.496776,23.8217346 C10.3401517,23.6607584 10.2210004,23.4711305 10.1468688,23.2647974 C9.98703037,22.8127479 9.98703037,22.3245547 10.1468688,21.8725052 C10.2213153,21.6668809 10.3404557,21.4779617 10.496776,21.3174917 C10.6517497,21.1607677 10.8406023,21.0366439 11.0507486,20.953321 C11.2835567,20.8636198 11.5344987,20.8225152 11.7859836,20.8326395 C12.0298675,20.828286 12.2703853,20.886197 12.4816934,21.0000952 C12.6718273,21.1008319 12.8343804,21.2415595 12.9565395,21.4110401 L13.4959942,21.0215587 L13.5001205,21.0273296 Z M15.0788507,24.7565102 L15.7391615,24.7565102 L15.7391615,22.5131702 C15.7245024,22.1903066 15.7960605,21.869063 15.9474292,21.5784959 C16.0564494,21.3806672 16.2116187,21.2083518 16.4014268,21.0741038 C16.541937,20.9715447 16.7047072,20.8991561 16.878336,20.8617974 C16.9721542,20.8465098 17.066624,20.836183 17.1616366,20.8307159 C17.6476671,20.8307159 17.9809171,20.9605093 18.1613869,21.2201973 C18.3633566,21.5611833 18.4571749,21.9488424 18.4320915,22.3379188 L18.4320915,24.7565102 L19.0924023,24.7565102 L19.0924023,21.9796202 C19.1244351,21.5223061 18.971329,21.070459 18.6632709,20.7138816 C18.3731294,20.4230107 17.9281444,20.277626 17.328316,20.277626 C17.1711922,20.2780309 17.0150457,20.2983807 16.8637855,20.338068 C16.7088335,20.3775527 16.5593107,20.4337425 16.418149,20.5055237 C16.2805707,20.5757863 16.1531995,20.6621465 16.0390757,20.7625794 C15.929404,20.8582539 15.8353686,20.9685074 15.7599014,21.0896952 L15.7391615,21.0896952 L15.7391615,17.6896552 L15.0788507,17.6896552 L15.0788507,24.7565102 Z M24.3471992,22.5793831 L24.3471992,22.8967795 C24.348285,23.0821553 24.3195098,23.2666198 24.2618507,23.4439974 C24.2090779,23.6100357 24.1181916,23.7634187 23.9955981,23.8932121 C23.872896,24.0230055 23.7213101,24.1262732 23.5515904,24.1956246 C23.3542898,24.274594 23.1412443,24.3130663 22.9267872,24.3086117 C22.7935523,24.3084092 22.6607518,24.2940327 22.5309916,24.2657859 C22.405032,24.2390578 22.2851532,24.1915749 22.1770016,24.1255645 C22.0718905,24.0612753 21.9848046,23.9745101 21.9229106,23.872356 C21.8563475,23.7592677 21.8232288,23.6314992 21.8270293,23.5024145 C21.8223601,23.4047151 21.8420142,23.3074207 21.8846884,23.2181245 C21.9273627,23.1288282 21.9918627,23.0501625 22.0728678,22.9883031 C22.246388,22.858611 22.4472719,22.7643538 22.662272,22.7118088 C22.8977948,22.651468 23.1391812,22.6136032 23.3828479,22.5988217 C23.6328126,22.5832303 23.8410804,22.5754346 24.0077597,22.5754346 L24.3471992,22.5793831 Z M24.0180754,22.074991 C23.7404212,22.074991 23.4321459,22.0873426 23.0933579,22.1120459 C22.7689033,22.1370529 22.4495522,22.202557 22.1436658,22.306736 C21.8606909,22.3982595 21.6066,22.5541736 21.4041959,22.7605066 C21.1953852,22.9942764 21.0896225,23.2936517 21.1085165,23.5977853 C21.1036301,23.791058 21.1502135,23.9824071 21.2439231,24.1547225 C21.3318777,24.3110415 21.4547969,24.4478206 21.6042111,24.555948 C21.7575343,24.666809 21.9321404,24.7494232 22.118691,24.7993359 C22.3134941,24.8525897 22.5154638,24.8795203 22.7185195,24.8791153 C23.0519867,24.8874173 23.3826307,24.820597 23.6827621,24.6844253 C23.9685602,24.5365094 24.2054946,24.318331 24.3680477,24.0534796 L24.3888962,24.0534796 C24.3888962,24.17163 24.3936739,24.2930202 24.4034467,24.4176502 C24.4131108,24.5422802 24.4290729,24.6552673 24.4513331,24.7565102 L25.0761363,24.7565102 C25.0566994,24.6383597 25.0386741,24.4871029 25.0220605,24.3027396 C25.0053383,24.1183763 24.9998004,23.9450484 25.0053383,23.7828573 L25.0053383,21.8355516 C25.0117448,21.5984407 24.9641842,21.3627473 24.8658054,21.1441639 C24.779914,20.961218 24.65352,20.7973057 24.4950932,20.6632601 C24.3368835,20.5332643 24.1507673,20.4363748 23.9493405,20.3788688 C23.7378152,20.3165032 23.5172772,20.2849154 23.2954363,20.2854157 C22.4151305,20.2854157 21.7555798,20.4970193 21.3167842,20.9203158 L21.716706,21.3603174 C22.1049006,21.0242923 22.6163401,20.8402327 23.1454792,20.8463073 C23.9452142,20.8463073 24.3451361,21.223437 24.3451361,21.9776966 L24.3451361,22.0905824 L24.0180754,22.074991 Z M27.1963843,20.3828173 C27.2102833,20.5451097 27.2221192,20.7164126 27.2318919,20.8969287 C27.241556,21.0773435 27.2464424,21.2266768 27.2464424,21.3448273 L27.2464424,24.7565102 L27.9066446,24.7565102 L27.9066446,22.5131702 C27.8920941,22.1903066 27.9636522,21.869063 28.1149123,21.5784959 C28.2239326,21.3806672 28.3791018,21.2083518 28.5690185,21.0741038 C28.7094201,20.9715447 28.8722989,20.8991561 29.0459277,20.8617974 C29.1381172,20.8446874 29.2312839,20.8323358 29.3249935,20.8248438 C29.8110239,20.8248438 30.144274,20.9546372 30.3247438,21.2143252 C30.5267135,21.5553112 30.6206403,21.9429703 30.595557,22.3320467 L30.595557,24.7565102 L31.2557592,24.7565102 L31.2557592,21.9796202 C31.287792,21.5223061 31.1346859,21.070459 30.8267363,20.7138816 C30.5393095,20.4230107 30.0956275,20.277626 29.4957991,20.277626 C29.3387839,20.2780309 29.1825288,20.2983807 29.0313772,20.338068 C28.8764252,20.3775527 28.7267938,20.4337425 28.5856322,20.5055237 C28.4463165,20.5735589 28.3167735,20.6579955 28.2003694,20.7567073 C28.0906977,20.8523818 27.9966623,20.9626354 27.9211951,21.0838231 L27.9004552,21.0838231 C27.9004552,20.9656726 27.9004552,20.8488383 27.9004552,20.7333202 C27.9004552,20.6178021 27.8920941,20.5009678 27.8753719,20.3828173 L27.1963843,20.3828173 Z M34.1300276,21.8647095 C34.2167877,21.6667797 34.3425302,21.4857574 34.5007398,21.3311595 C34.657755,21.178384 34.8443056,21.0547664 35.0505102,20.9669888 C35.2656188,20.875364 35.4995128,20.8287922 35.7357957,20.8307159 C35.9896695,20.8274761 36.2415888,20.8739466 36.475157,20.9669888 C36.6864652,21.0515266 36.8770334,21.1754479 37.0354602,21.3311595 C37.189435,21.4850487 37.3085537,21.6665772 37.385324,21.8647095 C37.4667634,22.0730674 37.5075917,22.2932707 37.5061801,22.5150938 C37.5162785,22.7511923 37.4737129,22.986582 37.3811977,23.2063803 C37.2950891,23.406335 37.1637002,23.5864461 36.9958264,23.7341595 C36.657147,24.0310036 36.2105332,24.196637 35.74622,24.1975482 C35.5098285,24.1995731 35.2759345,24.1530013 35.0609344,24.0612753 C34.8547298,23.9735989 34.6680707,23.8499814 34.5111641,23.6971046 C34.3528459,23.5426079 34.2271034,23.3615857 34.1403433,23.1635546 C33.960525,22.7469401 33.960525,22.281324 34.1403433,21.8647095 L34.1300276,21.8647095 Z M33.3843683,26.1196445 C33.6632169,26.404947 34.004068,26.6313261 34.3841186,26.7835954 C34.7812172,26.9321187 35.2061138,27.0049123 35.633725,26.9978253 C36.0726292,27.0142267 36.5097959,26.937687 36.912541,26.773876 C37.2106093,26.6451963 37.4724098,26.4531386 37.6769857,26.2130917 C37.8570211,25.9955207 37.9836322,25.7435271 38.0476979,25.475031 C38.1088317,25.2264797 38.1409732,24.9725625 38.1434706,24.7175317 L38.1434706,20.3828173 L37.4832684,20.3828173 L37.4832684,21.1110574 L37.4624199,21.1110574 C37.234281,20.8151245 36.9248112,20.5823671 36.5668035,20.437286 C36.4158692,20.376844 36.2578767,20.3331071 36.0960837,20.3068851 C35.9489498,20.2828906 35.7998614,20.2705389 35.6504472,20.2698302 C35.3231694,20.2665905 34.9986061,20.3256151 34.6965202,20.4431581 C34.4138711,20.5537153 34.1586943,20.7174251 33.9467346,20.9241631 C33.7343406,21.1329259 33.5661411,21.3774275 33.4510401,21.6447087 C33.3297496,21.9268726 33.2688329,22.2285765 33.2718733,22.5326089 C33.2689415,22.8376537 33.3334415,23.139965 33.4613557,23.4206103 C33.5821032,23.6861704 33.7592068,23.9260148 33.9821336,24.1255645 C34.2063635,24.3248105 34.4693585,24.482142 34.756894,24.5890545 C35.0602829,24.7020415 35.3841946,24.75894 35.710821,24.7565102 C36.0452655,24.7553965 36.375801,24.6890824 36.6813617,24.5617189 C37.0017986,24.4257497 37.2725032,24.2051414 37.4603568,23.926926 L37.4812053,23.926926 L37.4812053,24.7058888 C37.4823997,24.9315592 37.4501497,25.1563184 37.385324,25.3737881 C37.3273391,25.5764764 37.2220108,25.7646869 37.0770486,25.9248532 C36.9228567,26.0881579 36.7294652,26.214914 36.5126192,26.2948959 C36.2416974,26.3916841 35.9529675,26.4380534 35.6629346,26.4311689 C35.3019951,26.4365347 34.9448561,26.3611088 34.6214874,26.2111681 C34.3246135,26.0743889 34.0662877,25.874333 33.8675755,25.6268953 L33.3843683,26.1196445 Z M40.8115345,22.2249317 C40.8118603,22.0427958 40.8582264,21.8633934 40.9468325,21.701101 C41.0372846,21.5328353 41.1593351,21.3811735 41.3072291,21.2533037 C41.4606609,21.1201693 41.638416,21.0140667 41.8320247,20.9397545 C42.0298682,20.8619999 42.2423707,20.8222115 42.4569365,20.8229202 C42.662381,20.811581 42.8680426,20.8403339 43.0609998,20.9073567 C43.2539569,20.9744808 43.4297574,21.0782547 43.5774342,21.2124016 C43.7113206,21.348472 43.8150202,21.5080308 43.8825606,21.6818648 C43.9502096,21.8555976 43.9801793,22.0402647 43.9710581,22.2249317 L40.8115345,22.2249317 Z M44.6896141,22.7293238 L44.6896141,22.4566767 C44.6913083,22.1690456 44.6405987,21.883237 44.5396138,21.6116023 C44.4454698,21.3562677 44.2973587,21.1211817 44.1044016,20.9203158 C43.9085126,20.719045 43.6702752,20.5579675 43.4045655,20.4471066 C43.1050856,20.3254126 42.7812825,20.2649706 42.4547647,20.2698302 C42.1357394,20.2675017 41.8195373,20.326425 41.5259211,20.4431581 C41.2441407,20.5550315 40.989181,20.71864 40.7761355,20.9241631 C40.559941,21.1338371 40.3900041,21.3813759 40.2762061,21.6525044 C40.1543727,21.9439827 40.0935646,22.2546971 40.0971479,22.5677401 C40.0938904,22.8811881 40.1568702,23.1922063 40.282504,23.4829759 C40.3990167,23.7535981 40.5701481,24.0009345 40.7865597,24.211216 C41.0031886,24.4189664 41.263469,24.5826762 41.5508958,24.692221 C41.8568908,24.8090553 42.1847116,24.8679786 42.5152471,24.8655488 C42.8892169,24.8682824 43.2594948,24.795185 43.6003459,24.6513188 C43.9648687,24.4867991 44.2819395,24.2431075 44.5250633,23.9405937 L44.0148182,23.5511123 C43.8645353,23.7657473 43.6645201,23.9461621 43.4295403,24.0787903 C43.1549266,24.2364255 42.8373128,24.3163061 42.5152471,24.3086117 C42.2919945,24.3107378 42.070805,24.2696331 41.8653605,24.1878289 C41.4635928,24.0272577 41.1420699,23.7301098 40.9656179,23.356321 C40.8713653,23.161226 40.8135976,22.9524631 40.7948123,22.7390431 L44.6896141,22.7293238 Z" id="Shape" fill="#FFFFFF"></path>
                        <path d="M9.31034483,36.0832474 L10.9996269,36.0832474 L10.9996269,29.2919665 L11.0269449,29.2919665 L15.7218234,36.0832474 L17.868038,36.0832474 L17.868038,27.2282048 L16.1766141,27.2282048 L16.1766141,33.8065152 L16.1514815,33.8065152 L11.5404148,27.2282048 L9.31034483,27.2282048 L9.31034483,36.0832474 Z M20.5655306,33.5817581 C20.7987174,34.1297305 21.1526499,34.6261876 21.6041625,35.038818 C22.0557843,35.45155 22.5951517,35.7714122 23.1875161,35.9777783 C23.8323311,36.2043643 24.516812,36.3170476 25.2058822,36.3100367 C25.9033664,36.3096303 26.5947314,36.1890215 27.2452286,35.9543068 C27.8409804,35.7378816 28.3840631,35.4123293 28.8423505,34.9966506 C29.2953929,34.5807687 29.6521665,34.0825843 29.8902706,33.5328846 C30.1446562,32.931568 30.2692264,32.2893033 30.2570972,31.6430759 C30.2672595,30.9841475 30.1398482,30.3295882 29.8819659,29.7160786 C29.6461565,29.1618065 29.2892737,28.659253 28.8339366,28.2405261 C28.378818,27.827286 27.8343148,27.5094559 27.2368146,27.3082719 C26.5831486,27.0900178 25.8917836,26.9859711 25.1974683,27.0015171 C24.508398,26.9945062 23.8240264,27.1070879 23.1791021,27.3336739 C22.5870656,27.5424785 22.0481353,27.8639665 21.596732,28.277613 C21.1415041,28.6987785 20.7847305,29.203161 20.5487026,29.7590588 C20.2989065,30.376836 20.1793627,31.0338338 20.1966277,31.6938799 C20.1873396,32.3400057 20.3147509,32.9815592 20.5717591,33.5817581 L20.5655306,33.5817581 Z M22.1960898,30.3550919 C22.3454648,29.9825966 22.5711118,29.640787 22.8605738,29.3486638 C23.1488338,29.0591824 23.4986139,28.8289385 23.8875136,28.672462 C24.3108339,28.5046055 24.7670452,28.4213885 25.2268625,28.4281962 C25.6872261,28.4225061 26.1439837,28.5056216 26.5682875,28.672462 C26.9597004,28.8279224 27.3116661,29.0582679 27.6015651,29.3486638 C27.8908085,29.6408886 28.1164555,29.9826982 28.2659399,30.3550919 C28.4212156,30.7499409 28.4979247,31.1678549 28.4923518,31.5883091 C28.4973783,32.0355879 28.4178282,32.4801233 28.2576352,32.9015936 C28.1116476,33.2849609 27.885782,33.6376425 27.5931512,33.9394185 C27.3039077,34.2332691 26.9519421,34.467679 26.5598736,34.6273052 C26.1366625,34.7981084 25.679577,34.8833576 25.2184485,34.8774643 C24.7593962,34.8838657 24.3041683,34.7986165 23.8833612,34.6273052 C23.493806,34.4665613 23.1441351,34.2323546 22.8563122,33.9394185 C22.5635721,33.6377441 22.3377065,33.2850625 22.1919374,32.9015936 C22.0322908,32.4800217 21.9535056,32.0353847 21.959297,31.5883091 C21.9554725,31.1654163 22.0351319,30.7453685 22.1940136,30.3493002 L22.1960898,30.3550919 Z M34.3252998,36.0832474 L35.8804612,36.0832474 L38.0812026,29.34084 L38.1085206,29.34084 L40.3175667,36.0832474 L41.9272549,36.0832474 L44.6896552,27.2282048 L42.9730988,27.2282048 L41.1077137,33.6071601 L41.0805049,33.6071601 L38.9845556,27.2282048 L37.3204498,27.2282048 L35.1846161,33.6071601 L35.1574073,33.6071601 L33.3737578,27.2282048 L31.5147105,27.2282048 L34.3252998,36.0832474 Z" id="Shape" fill="#00C26F"></path>
                    </g>
                </g>
            </g>
        </g>
    </g>
</svg>
