<svg width="21" height="20" viewBox="0 0 21 20" fill="none" xmlns="http://www.w3.org/2000/svg">
    <path d="M18.2557 10C18.2557 10.64 17.4695 11.1675 17.312 11.7575C17.1495 12.3675 17.5607 13.2175 17.252 13.7513C16.9382 14.2938 15.9945 14.3588 15.5545 14.7987C15.1145 15.2387 15.0495 16.1825 14.507 16.4963C13.9732 16.805 13.1232 16.3937 12.5132 16.5562C11.9232 16.7137 11.3957 17.5 10.7557 17.5C10.1157 17.5 9.58824 16.7137 8.99824 16.5562C8.38824 16.3937 7.53824 16.805 7.00449 16.4963C6.46199 16.1825 6.39699 15.2387 5.95699 14.7987C5.51699 14.3588 4.57324 14.2938 4.25949 13.7513C3.95074 13.2175 4.36199 12.3675 4.19949 11.7575C4.04199 11.1675 3.25574 10.64 3.25574 10C3.25574 9.36 4.04199 8.8325 4.19949 8.2425C4.36199 7.6325 3.95074 6.7825 4.25949 6.24875C4.57324 5.70625 5.51699 5.64125 5.95699 5.20125C6.39699 4.76125 6.46199 3.8175 7.00449 3.50375C7.53824 3.195 8.38824 3.60625 8.99824 3.44375C9.58824 3.28625 10.1157 2.5 10.7557 2.5C11.3957 2.5 11.9232 3.28625 12.5132 3.44375C13.1232 3.60625 13.9732 3.195 14.507 3.50375C15.0495 3.8175 15.1145 4.76125 15.5545 5.20125C15.9945 5.64125 16.9382 5.70625 17.252 6.24875C17.5607 6.7825 17.1495 7.6325 17.312 8.2425C17.4695 8.8325 18.2557 9.36 18.2557 10Z" fill="white"/>
    <path d="M12.9233 7.76492L10.0683 10.6199L8.58828 9.14117C8.26703 8.81992 7.74578 8.81992 7.42453 9.14117C7.10328 9.46242 7.10328 9.98368 7.42453 10.3049L9.50078 12.3812C9.81328 12.6937 10.3208 12.6937 10.6333 12.3812L14.0858 8.92867C14.407 8.60742 14.407 8.08617 14.0858 7.76492C13.7645 7.44367 13.2445 7.44367 12.9233 7.76492Z" fill="#765CD6"/>
</svg>
