<?xml version="1.0" encoding="UTF-8"?>
<svg width="103px" height="30px" viewBox="0 0 103 30" version="1.1" xmlns="http://www.w3.org/2000/svg" xmlns:xlink="http://www.w3.org/1999/xlink">
    <g id="Get-FIO" stroke="none" stroke-width="1" fill="none" fill-rule="evenodd">
        <g id="FIO_WalletView---No-FIO---Partners" transform="translate(-388.000000, -1011.000000)">
            <g id="Group-2" transform="translate(328.000000, 230.000000)">
                <g id="Group-15" transform="translate(30.000000, 769.000000)">
                    <g id="Edge-Blockchain" transform="translate(30.000000, 12.000000)">
                        <path d="M41.638796,13.3444816 C41.2374582,11.1371237 39.2307692,9.33110368 36.8227425,9.33110368 C34.5150502,9.33110368 32.4080268,10.9364548 32.006689,13.3444816 L41.638796,13.3444816 Z M31.9063545,15.9531773 C32.6086957,18.6622074 34.7157191,20.1672241 37.1237458,20.1672241 C39.1304348,20.1672241 40.9364548,19.0635452 42.0401338,17.9598662 L44.0468227,20.367893 C41.9397993,22.4749164 39.3311037,23.3779264 37.1237458,23.3779264 C32.1070234,23.3779264 28.4949833,19.264214 28.4949833,14.6488294 C28.4949833,9.93311037 32.2073579,6.32107023 36.8227425,6.32107023 C41.638796,6.32107023 45.2508361,10.1337793 45.2508361,15.8528428 L31.9063545,15.8528428 L31.9063545,15.9531773 Z" id="Fill-1" fill="#0E4B75"></path>
                        <path d="M61.1036789,14.9498328 C61.1036789,12.0401338 58.7959866,9.73244147 55.8862876,9.73244147 C52.9765886,9.73244147 50.6688963,12.0401338 50.6688963,14.9498328 C50.6688963,17.7591973 52.9765886,20.0668896 55.8862876,20.0668896 C58.7959866,20.0668896 61.1036789,17.7591973 61.1036789,14.9498328 M61.0033445,8.42809365 L61.0033445,0.100334448 L64.3143813,0.100334448 L64.3143813,23.1772575 L61.5050167,23.1772575 L61.5050167,21.0702341 C60.1003344,22.4749164 57.993311,23.3779264 55.7859532,23.3779264 C51.0702341,23.3779264 47.2575251,19.5652174 47.2575251,14.8494983 C47.2575251,10.1337793 51.0702341,6.32107023 55.7859532,6.32107023 C57.7926421,6.42140468 59.6989967,7.12374582 61.0033445,8.42809365" id="Fill-3" fill="#0E4B75"></path>
                        <path d="M80.0668896,14.9498328 C80.0668896,12.0401338 77.7591973,9.73244147 74.8494983,9.73244147 C72.0401338,9.73244147 69.632107,12.0401338 69.632107,14.9498328 C69.632107,17.7591973 71.9397993,20.1672241 74.8494983,20.1672241 C77.7591973,20.0668896 80.0668896,17.7591973 80.0668896,14.9498328 Z M83.3779264,21.270903 C83.3779264,27.5919732 79.5652174,30 75.7525084,30 C74.3478261,30 72.6421405,29.6989967 71.0367893,28.5953177 L72.3411371,25.8862876 C73.4448161,26.4882943 74.3478261,26.8896321 75.5518395,26.8896321 C78.2608696,26.8896321 80.1672241,24.9832776 80.1672241,21.3712375 C78.7625418,22.6755853 76.8561873,23.4782609 74.8494983,23.4782609 C70.1337793,23.4782609 66.3210702,19.6655518 66.3210702,14.9498328 C66.3210702,10.2341137 70.1337793,6.42140468 74.8494983,6.42140468 C77.0568562,6.42140468 78.9632107,7.32441472 80.4682274,8.72909699 L80.4682274,6.72240803 L83.3779264,6.72240803 L83.3779264,21.270903 Z" id="Fill-5" fill="#0E4B75"></path>
                        <path d="M98.6287625,13.3444816 C98.2274247,11.1371237 96.2207358,9.33110368 93.812709,9.33110368 C91.5050167,9.33110368 89.3979933,10.9364548 88.9966555,13.3444816 L98.6287625,13.3444816 Z M88.8963211,15.9531773 C89.5986622,18.6622074 91.7056856,20.1672241 94.1137124,20.1672241 C96.1204013,20.1672241 97.9264214,19.0635452 99.0301003,17.9598662 L101.036789,20.367893 C98.9297659,22.4749164 96.3210702,23.3779264 94.1137124,23.3779264 C89.09699,23.3779264 85.4849498,19.264214 85.4849498,14.6488294 C85.4849498,9.93311037 89.1973244,6.32107023 93.812709,6.32107023 C98.6287625,6.32107023 102.240803,10.1337793 102.240803,15.8528428 L88.8963211,15.8528428 L88.8963211,15.9531773 Z" id="Fill-7" fill="#0E4B75"></path>
                        <polygon id="Fill-10" fill="#66EDA8" points="24.6822742 3.41137124 17.3578595 23.5785953 0.401337793 23.5785953 4.21404682 13.0434783 10.9364548 13.0434783 14.4481605 3.41137124"></polygon>
                        <polygon id="Fill-12" fill="#66EDA8" points="12.9431438 0 9.13043478 10.5351171 0 10.5351171 3.81270903 0"></polygon>
                    </g>
                </g>
            </g>
        </g>
    </g>
</svg>
