<svg width="24" height="24" viewBox="0 0 24 24" fill="none" xmlns="http://www.w3.org/2000/svg">
<path d="M20.1787 7.59164H22.4106C23.072 7.59164 23.1822 7.209 22.7137 6.7717L19.4623 3.51929C19.1868 3.21865 18.6633 3.21865 18.3602 3.51929L15.0812 6.7717C14.6403 7.209 14.7505 7.59164 15.4118 7.59164H17.6437V15.627C17.5335 16.7476 16.5967 17.5949 15.4394 17.5949C14.2546 17.5949 13.2901 16.6929 13.235 15.545V7.45498C13.1524 5.76045 12.1329 4.25723 10.7 3.49196C10.0387 3.16399 9.32232 3 8.52324 3C7.72416 3 7.0353 3.16399 6.374 3.49196C4.91362 4.25723 3.86655 5.76045 3.81144 7.48231V15.4084H1.60709C0.945787 15.4084 0.808015 15.7637 1.27644 16.201L4.52786 19.4534C4.83095 19.754 5.35449 19.754 5.63003 19.4534L8.909 16.201C9.37743 15.7637 9.23965 15.4084 8.57835 15.4084H6.374V7.45498C6.42911 6.30707 7.3384 5.37781 8.52324 5.37781C9.70808 5.37781 10.7 6.36174 10.7 7.53698V15.545C10.7827 17.2669 11.7747 18.7154 13.235 19.4807C13.8963 19.8087 14.6403 20 15.4394 20C16.2385 20 16.9549 19.8087 17.6437 19.4807C19.049 18.7428 20.041 17.3215 20.1787 15.6543V7.59164Z" fill="black"/>
</svg>
