<svg width="348" height="80" viewBox="0 0 348 80" fill="none" xmlns="http://www.w3.org/2000/svg">
    <mask id="mask" x="0" y="0" width="348" height="80" maskUnits="userSpaceOnUse">
        <rect x="0" y="0" width="348" height="80" fill="white" />
        <path d="M320.532 55.2312L333.949 41.7824C335.096 40.6338 337.062 41.4544 337.062 43.0773V48.4395H347.949V64.5953H337.062V69.9565C337.062 71.5851 335.096 72.4009 333.946 71.2484L320.532 57.8026C319.823 57.0926 319.823 55.9421 320.532 55.2312Z" fill="black" />
        <path d="M27.9283 43.2647L14.5106 56.7134C13.3639 57.8621 11.3979 57.0415 11.3979 55.4186V50.0564H0.51123L0.51123 33.9006H11.3979V28.5394C11.3979 26.9107 13.3638 26.0949 14.5144 27.2474L27.9283 40.6933C28.6371 41.4032 28.6371 42.5538 27.9283 43.2647Z" fill="black" />
        <path d="M55.8494 62.6529L64.3134 71.0974C65.0363 71.8191 64.5199 73.0564 63.4985 73.0564H60.1238V79.908H49.956V73.0564H46.5819C45.5569 73.0564 45.0435 71.8191 45.7688 71.095L54.2311 62.6529C54.6779 62.2068 55.402 62.2068 55.8494 62.6529Z" fill="black" />
        <path d="M85.1875 71.5555L93.6515 80L75.1069 79.9976L83.5692 71.5555C84.016 71.1094 84.7401 71.1094 85.1875 71.5555Z" fill="black" />
        <path d="M170.559 23.4427L179.087 14.9205C179.815 14.1922 179.295 12.9435 178.266 12.9435H174.866V6.02895C174.866 2.72889 172.19 0.0534668 168.89 0.0534668H160.366C160.221 0.0534668 160.19 0.259644 160.331 0.301124C162.809 1.02945 164.621 3.31509 164.621 6.02895V12.9435H161.222C160.189 12.9435 159.672 14.1922 160.403 14.923L168.929 23.4427C169.379 23.8929 170.108 23.8929 170.559 23.4427Z" fill="black" />
        <path d="M139.511 18.1286L148.038 9.60643C148.767 8.8781 148.246 7.62944 147.217 7.62944H143.817V5.97548C143.817 2.67543 141.142 0 137.842 0H129.318C129.173 0 129.142 0.206177 129.282 0.247657C131.761 0.975987 133.573 3.26163 133.573 5.97548V7.62944H130.174C129.141 7.62944 128.624 8.8781 129.354 9.60887L137.88 18.1286C138.33 18.5788 139.06 18.5788 139.511 18.1286Z" fill="black" />
    </mask>
    <g mask="url(#mask)">
        <g opacity="0.952297" filter="url(#filter0_d_19_4759)">
            <rect x="1" width="347" height="80" rx="7.06749" fill="#B65CD6" />
        </g>
    </g>
</svg>