<?xml version="1.0" encoding="UTF-8"?>
<svg width="250px" height="130px" viewBox="0 0 250 130" version="1.1" xmlns="http://www.w3.org/2000/svg" xmlns:xlink="http://www.w3.org/1999/xlink">
    <title>Group 13@1x</title>
    <defs>
        <rect id="path-1" x="0" y="0" width="192.5" height="71.25" rx="7"></rect>
        <filter x="-10.9%" y="-29.5%" width="121.8%" height="158.9%" filterUnits="objectBoundingBox" id="filter-2">
            <feMorphology radius="2.5" operator="dilate" in="SourceAlpha" result="shadowSpreadOuter1"></feMorphology>
            <feOffset dx="0" dy="0" in="shadowSpreadOuter1" result="shadowOffsetOuter1"></feOffset>
            <feGaussianBlur stdDeviation="4.5" in="shadowOffsetOuter1" result="shadowBlurOuter1"></feGaussianBlur>
            <feColorMatrix values="0 0 0 0 0   0 0 0 0 0   0 0 0 0 0  0 0 0 0.0566372104 0" type="matrix" in="shadowBlurOuter1"></feColorMatrix>
        </filter>
    </defs>
    <g id="NEW-Domain-Landing---Post-Creation" stroke="none" stroke-width="1" fill="none" fill-rule="evenodd">
        <g id="FIO_Dashboard---2023-Revised---Ed-Tile---Request" transform="translate(-188.000000, -907.000000)">
            <g id="Group-12" transform="translate(101.000000, 847.000000)">
                <g id="Group-11" transform="translate(8.000000, 0.000000)">
                    <g id="Group-13" transform="translate(79.000000, 60.000000)">
                        <g id="send-copy-2" opacity="0.274081276" transform="translate(112.500000, 17.500000) scale(-1, -1) translate(-112.500000, -17.500000) translate(95.000000, 0.000000)" fill="#4C186E" fill-rule="nonzero">
                            <g id="Group" transform="translate(0.000000, 17.500000)">
                                <path d="M1.09840296,5.68972732 C0.817699979,5.68972732 0.536997001,5.58232792 0.322198201,5.36752912 C-0.1073994,4.93915196 -0.1073994,4.24349676 0.322198201,3.8151196 L3.8151196,0.322198201 C4.2447172,-0.1073994 4.93915196,-0.1073994 5.36752912,0.322198201 C5.79712672,0.750575354 5.79712672,1.44623056 5.36752912,1.87460771 L1.87460771,5.36752912 C1.66102936,5.58232792 1.38032638,5.68972732 1.09840296,5.68972732 L1.09840296,5.68972732 Z" id="Path"></path>
                                <path d="M3.92618035,14.6722226 C3.64547737,14.6722226 3.36477439,14.5648232 3.14997559,14.3500244 C2.72037799,13.9216473 2.72037799,13.225992 3.14997559,12.7976149 L9.72086617,6.22672432 C10.1504638,5.79712672 10.8448985,5.79712672 11.2732757,6.22672432 C11.7028733,6.65510147 11.7028733,7.35075668 11.2732757,7.77913383 L4.7023851,14.3512449 C4.4875863,14.5660437 4.20688333,14.6722226 3.92618035,14.6722226 L3.92618035,14.6722226 Z" id="Path"></path>
                                <path d="M12.9086756,17.5 C12.6279727,17.5 12.3472697,17.3926006 12.1324709,17.1778018 C11.7028733,16.7494246 11.7028733,16.0537694 12.1324709,15.6253923 L15.6253923,12.1324709 C16.0549899,11.7028733 16.7494246,11.7028733 17.1778018,12.1324709 C17.6073994,12.560848 17.6073994,13.2565032 17.1778018,13.6848804 L13.6848804,17.1778018 C13.471302,17.3926006 13.1905991,17.5 12.9086756,17.5 L12.9086756,17.5 Z" id="Path"></path>
                            </g>
                            <path d="M31.9242867,0.102555013 L3.30040578,8.63754819 C1.13875718,9.2816297 0.987746234,12.2840966 3.07267153,13.1424661 L15.3630139,18.2062374 C15.4165984,18.07596 15.4945395,17.9542055 15.6004908,17.8494966 L21.8857124,11.5657449 C22.3143886,11.1371689 23.007334,11.1371689 23.4347924,11.5657449 C23.8634687,11.9931033 23.8634687,12.6871042 23.4347924,13.1144626 L17.1495708,19.3982143 C17.0436196,19.5041408 16.9218365,19.5832812 16.7915287,19.6368532 L21.8589202,31.930409 C22.7162726,34.0111941 25.7145706,33.8602185 26.3575849,31.702728 L34.8970102,3.07458331 C35.4401625,1.2555705 33.7449429,-0.439252685 31.9242867,0.102555013 L31.9242867,0.102555013 Z" id="Path"></path>
                        </g>
                        <g id="send-copy-3" opacity="0.717554002" transform="translate(175.625000, 36.875000) scale(-1, -1) translate(-175.625000, -36.875000) translate(148.750000, 10.000000)" fill="#FFFFFF" fill-rule="nonzero">
                            <g id="Group" transform="translate(0.000000, 26.875000)">
                                <path d="M1.68683311,8.73779552 C1.25575354,8.73779552 0.824673966,8.57286073 0.49480438,8.24299114 C-0.164934793,7.58512623 -0.164934793,6.51679859 0.49480438,5.85893368 L5.85893368,0.49480438 C6.51867285,-0.164934793 7.58512623,-0.164934793 8.24299114,0.49480438 C8.90273032,1.15266929 8.90273032,2.22099693 8.24299114,2.87886185 L2.87886185,8.24299114 C2.55086652,8.57286073 2.11978694,8.73779552 1.68683311,8.73779552 L1.68683311,8.73779552 Z" id="Path"></path>
                                <path d="M6.02949125,22.5323419 C5.59841167,22.5323419 5.1673321,22.3674071 4.83746251,22.0375375 C4.17772334,21.3796726 4.17772334,20.3113449 4.83746251,19.65348 L14.928473,9.56246949 C15.5882122,8.90273032 16.6546656,8.90273032 17.3125305,9.56246949 C17.9722697,10.2203344 17.9722697,11.288662 17.3125305,11.946527 L7.22151998,22.0394117 C6.89165039,22.3692813 6.46057082,22.5323419 6.02949125,22.5323419 L6.02949125,22.5323419 Z" id="Path"></path>
                                <path d="M19.8240376,26.875 C19.392958,26.875 18.9618784,26.7100652 18.6320089,26.3801956 C17.9722697,25.7223307 17.9722697,24.6540031 18.6320089,23.9961382 L23.9961382,18.6320089 C24.6558773,17.9722697 25.7223307,17.9722697 26.3801956,18.6320089 C27.0399348,19.2898738 27.0399348,20.3582014 26.3801956,21.0160663 L21.0160663,26.3801956 C20.688071,26.7100652 20.2569914,26.875 19.8240376,26.875 L19.8240376,26.875 Z" id="Path"></path>
                            </g>
                            <path d="M49.0199678,0.15771578 L5.0002989,13.2833843 C1.67597486,14.2738948 1.44374039,18.8912841 4.65007434,20.2113406 L23.5509635,27.9987379 C23.6333693,27.7983889 23.7532322,27.6111469 23.9161709,27.4501187 L33.5819942,17.7865559 C34.2412404,17.1274638 35.306897,17.1274638 35.9642704,17.7865559 C36.6235166,18.4437755 36.6235166,19.5110553 35.9642704,20.1682749 L26.2984471,29.8318377 C26.1355084,29.9947383 25.9482225,30.1164457 25.7478266,30.1988322 L33.5407913,49.1046632 C34.8592838,52.30463 39.4702617,52.0724498 40.459131,48.7545205 L53.5916156,4.72829451 C54.4269106,1.93089811 51.8198914,-0.675511395 49.0199678,0.15771578 L49.0199678,0.15771578 Z" id="Path"></path>
                        </g>
                        <g id="send-copy-4" opacity="0.8168691" transform="translate(17.500000, 61.250000) scale(-1, -1) translate(-17.500000, -61.250000) translate(0.000000, 43.750000)" fill="#4C186E" fill-rule="nonzero">
                            <g id="Group" transform="translate(0.000000, 17.500000)">
                                <path d="M1.09840296,5.68972732 C0.817699979,5.68972732 0.536997001,5.58232792 0.322198201,5.36752912 C-0.1073994,4.93915196 -0.1073994,4.24349676 0.322198201,3.8151196 L3.8151196,0.322198201 C4.2447172,-0.1073994 4.93915196,-0.1073994 5.36752912,0.322198201 C5.79712672,0.750575354 5.79712672,1.44623056 5.36752912,1.87460771 L1.87460771,5.36752912 C1.66102936,5.58232792 1.38032638,5.68972732 1.09840296,5.68972732 L1.09840296,5.68972732 Z" id="Path"></path>
                                <path d="M3.92618035,14.6722226 C3.64547737,14.6722226 3.36477439,14.5648232 3.14997559,14.3500244 C2.72037799,13.9216473 2.72037799,13.225992 3.14997559,12.7976149 L9.72086617,6.22672432 C10.1504638,5.79712672 10.8448985,5.79712672 11.2732757,6.22672432 C11.7028733,6.65510147 11.7028733,7.35075668 11.2732757,7.77913383 L4.7023851,14.3512449 C4.4875863,14.5660437 4.20688333,14.6722226 3.92618035,14.6722226 L3.92618035,14.6722226 Z" id="Path"></path>
                                <path d="M12.9086756,17.5 C12.6279727,17.5 12.3472697,17.3926006 12.1324709,17.1778018 C11.7028733,16.7494246 11.7028733,16.0537694 12.1324709,15.6253923 L15.6253923,12.1324709 C16.0549899,11.7028733 16.7494246,11.7028733 17.1778018,12.1324709 C17.6073994,12.560848 17.6073994,13.2565032 17.1778018,13.6848804 L13.6848804,17.1778018 C13.471302,17.3926006 13.1905991,17.5 12.9086756,17.5 L12.9086756,17.5 Z" id="Path"></path>
                            </g>
                            <path d="M31.9242867,0.102555013 L3.30040578,8.63754819 C1.13875718,9.2816297 0.987746234,12.2840966 3.07267153,13.1424661 L15.3630139,18.2062374 C15.4165984,18.07596 15.4945395,17.9542055 15.6004908,17.8494966 L21.8857124,11.5657449 C22.3143886,11.1371689 23.007334,11.1371689 23.4347924,11.5657449 C23.8634687,11.9931033 23.8634687,12.6871042 23.4347924,13.1144626 L17.1495708,19.3982143 C17.0436196,19.5041408 16.9218365,19.5832812 16.7915287,19.6368532 L21.8589202,31.930409 C22.7162726,34.0111941 25.7145706,33.8602185 26.3575849,31.702728 L34.8970102,3.07458331 C35.4401625,1.2555705 33.7449429,-0.439252685 31.9242867,0.102555013 L31.9242867,0.102555013 Z" id="Path"></path>
                        </g>
                        <g id="send-copy-5" opacity="0.193347023" transform="translate(122.500000, 95.000000)" fill="#FFFFFF" fill-rule="nonzero">
                            <g id="Group" transform="translate(0.000000, 17.500000)">
                                <path d="M1.09840296,5.68972732 C0.817699979,5.68972732 0.536997001,5.58232792 0.322198201,5.36752912 C-0.1073994,4.93915196 -0.1073994,4.24349676 0.322198201,3.8151196 L3.8151196,0.322198201 C4.2447172,-0.1073994 4.93915196,-0.1073994 5.36752912,0.322198201 C5.79712672,0.750575354 5.79712672,1.44623056 5.36752912,1.87460771 L1.87460771,5.36752912 C1.66102936,5.58232792 1.38032638,5.68972732 1.09840296,5.68972732 L1.09840296,5.68972732 Z" id="Path"></path>
                                <path d="M3.92618035,14.6722226 C3.64547737,14.6722226 3.36477439,14.5648232 3.14997559,14.3500244 C2.72037799,13.9216473 2.72037799,13.225992 3.14997559,12.7976149 L9.72086617,6.22672432 C10.1504638,5.79712672 10.8448985,5.79712672 11.2732757,6.22672432 C11.7028733,6.65510147 11.7028733,7.35075668 11.2732757,7.77913383 L4.7023851,14.3512449 C4.4875863,14.5660437 4.20688333,14.6722226 3.92618035,14.6722226 L3.92618035,14.6722226 Z" id="Path"></path>
                                <path d="M12.9086756,17.5 C12.6279727,17.5 12.3472697,17.3926006 12.1324709,17.1778018 C11.7028733,16.7494246 11.7028733,16.0537694 12.1324709,15.6253923 L15.6253923,12.1324709 C16.0549899,11.7028733 16.7494246,11.7028733 17.1778018,12.1324709 C17.6073994,12.560848 17.6073994,13.2565032 17.1778018,13.6848804 L13.6848804,17.1778018 C13.471302,17.3926006 13.1905991,17.5 12.9086756,17.5 L12.9086756,17.5 Z" id="Path"></path>
                            </g>
                            <path d="M31.9242867,0.102555013 L3.30040578,8.63754819 C1.13875718,9.2816297 0.987746234,12.2840966 3.07267153,13.1424661 L15.3630139,18.2062374 C15.4165984,18.07596 15.4945395,17.9542055 15.6004908,17.8494966 L21.8857124,11.5657449 C22.3143886,11.1371689 23.007334,11.1371689 23.4347924,11.5657449 C23.8634687,11.9931033 23.8634687,12.6871042 23.4347924,13.1144626 L17.1495708,19.3982143 C17.0436196,19.5041408 16.9218365,19.5832812 16.7915287,19.6368532 L21.8589202,31.930409 C22.7162726,34.0111941 25.7145706,33.8602185 26.3575849,31.702728 L34.8970102,3.07458331 C35.4401625,1.2555705 33.7449429,-0.439252685 31.9242867,0.102555013 L31.9242867,0.102555013 Z" id="Path"></path>
                        </g>
                        <g id="Group-9-Copy-2" transform="translate(27.500000, 26.250000)">
                            <g id="Rectangle-Copy-6">
                                <use fill="black" fill-opacity="1" filter="url(#filter-2)" xlink:href="#path-1"></use>
                                <use fill="#C7C7C7" fill-rule="evenodd" xlink:href="#path-1"></use>
                            </g>
                            <path d="M14.8252033,6.33333333 L177.674797,6.33333333 C181.54079,6.33333333 184.674797,9.46734008 184.674797,13.3333333 L184.674797,57.9166667 C184.674797,61.7826599 181.54079,64.9166667 177.674797,64.9166667 L14.8252033,64.9166667 C10.95921,64.9166667 7.82520325,61.7826599 7.82520325,57.9166667 L7.82520325,13.3333333 C7.82520325,9.46734008 10.95921,6.33333333 14.8252033,6.33333333 Z" id="Rectangle" fill="#FFFFFF"></path>
                            <text id="bob@rulez" font-family="ProximaNova-Light, Proxima Nova" font-size="31.5" font-weight="300" fill="#4C186E">
                                <tspan x="21.28" y="45.3630952">bob@</tspan>
                                <tspan x="99.904" y="45.3630952" font-family="ProximaNova-Extrabld, Proxima Nova" font-weight="700">rulez</tspan>
                            </text>
                        </g>
                        <g id="send" transform="translate(206.250000, 35.000000)" fill="#4C186E" fill-rule="nonzero">
                            <g id="Group" transform="translate(0.000000, 21.875000)">
                                <path d="M1.3730037,7.11215915 C1.02212497,7.11215915 0.671246251,6.9779099 0.402747751,6.7094114 C-0.13424925,6.17393995 -0.13424925,5.30437095 0.402747751,4.7688995 L4.7688995,0.402747751 C5.30589651,-0.13424925 6.17393995,-0.13424925 6.7094114,0.402747751 C7.2464084,0.938219192 7.2464084,1.8077882 6.7094114,2.34325964 L2.34325964,6.7094114 C2.0762867,6.9779099 1.72540798,7.11215915 1.3730037,7.11215915 L1.3730037,7.11215915 Z" id="Path"></path>
                                <path d="M4.90772543,18.3402783 C4.55684671,18.3402783 4.20596799,18.206029 3.93746949,17.9375305 C3.40047249,17.4020591 3.40047249,16.5324901 3.93746949,15.9970186 L12.1510827,7.7834054 C12.6880797,7.2464084 13.5561232,7.2464084 14.0915946,7.7834054 C14.6285916,8.31887684 14.6285916,9.18844585 14.0915946,9.72391729 L5.87798138,17.9390561 C5.60948288,18.2075546 5.25860416,18.3402783 4.90772543,18.3402783 L4.90772543,18.3402783 Z" id="Path"></path>
                                <path d="M16.1358445,21.875 C15.7849658,21.875 15.4340871,21.7407507 15.1655886,21.4722522 C14.6285916,20.9367808 14.6285916,20.0672118 15.1655886,19.5317404 L19.5317404,15.1655886 C20.0687374,14.6285916 20.9367808,14.6285916 21.4722522,15.1655886 C22.0092493,15.70106 22.0092493,16.5706291 21.4722522,17.1061005 L17.1061005,21.4722522 C16.8391276,21.7407507 16.4882488,21.875 16.1358445,21.875 L16.1358445,21.875 Z" id="Path"></path>
                            </g>
                            <path d="M39.9380509,0.127103684 L4.46245019,10.7051246 C1.78336615,11.5033804 1.5962076,15.22455 4.18020302,16.2883881 L19.4124938,22.5642781 C19.4789049,22.4028161 19.5755029,22.2519171 19.7068157,22.122144 L27.4965356,14.3342459 C28.0278244,13.8030813 28.8866406,13.8030813 29.41642,14.3342459 C29.9477088,14.8639014 29.9477088,15.7240258 29.41642,16.2536813 L21.6267002,24.0415794 C21.4953873,24.1728616 21.344453,24.2709459 21.1829533,24.3373415 L27.46333,39.5736149 C28.5259076,42.1524791 32.2419104,41.9653643 33.0388435,39.2914338 L43.6223575,3.81054862 C44.2955245,1.55611735 42.1945189,-0.544396929 39.9380509,0.127103684 L39.9380509,0.127103684 Z" id="Path"></path>
                        </g>
                        <g id="send-copy" transform="translate(77.500000, 99.500000) scale(-1, -1) translate(-77.500000, -99.500000) translate(60.000000, 82.000000)" fill="#4C186E" fill-rule="nonzero">
                            <g id="Group" transform="translate(0.000000, 17.000000)">
                                <path d="M1.06702002,5.85229095 C0.794337123,5.85229095 0.52165423,5.741823 0.312992538,5.52088709 C-0.104330846,5.08027059 -0.104330846,4.36473952 0.312992538,3.92412302 L3.70611619,0.331403864 C4.12343957,-0.110467955 4.79803334,-0.110467955 5.21417114,0.331403864 C5.63149453,0.772020364 5.63149453,1.48755143 5.21417114,1.92816793 L1.82104749,5.52088709 C1.61357138,5.741823 1.34088849,5.85229095 1.06702002,5.85229095 L1.06702002,5.85229095 Z" id="Path"></path>
                                <path d="M3.81400377,15.091429 C3.54132087,15.091429 3.26863798,14.980961 3.05997629,14.7600251 C2.6426529,14.3194086 2.6426529,13.6038775 3.05997629,13.163261 L9.44312714,6.40463073 C9.86045052,5.96275891 10.5350443,5.96275891 10.9511821,6.40463073 C11.3685055,6.84524723 11.3685055,7.5607783 10.9511821,8.0013948 L4.56803124,14.7612804 C4.35936955,14.9822163 4.08668666,15.091429 3.81400377,15.091429 L3.81400377,15.091429 Z" id="Path"></path>
                                <path d="M12.5398563,18 C12.2671734,18 11.9944906,17.889532 11.7858289,17.6685961 C11.3685055,17.2279796 11.3685055,16.5124486 11.7858289,16.0718321 L15.1789525,12.4791129 C15.5962759,12.0372411 16.2708697,12.0372411 16.6870075,12.4791129 C17.1043308,12.9197294 17.1043308,13.6352605 16.6870075,14.075877 L13.2938838,17.6685961 C13.0864077,17.889532 12.8137248,18 12.5398563,18 L12.5398563,18 Z" id="Path"></path>
                            </g>
                            <path d="M31.9619485,0.101299238 L3.68856407,8.5317823 C1.55338464,9.16797709 1.40422281,12.1336791 3.46361841,12.981538 L15.6034668,17.9833039 C15.6563952,17.8546218 15.7333819,17.7343581 15.8380358,17.6309313 L22.0462955,11.4241235 C22.4697227,11.0007954 23.154183,11.0007954 23.5764072,11.4241235 C23.9998343,11.846249 23.9998343,12.5317519 23.5764072,12.9538773 L17.3681475,19.1606852 C17.2634936,19.2653146 17.1432018,19.343486 17.0144896,19.396402 L22.0198313,31.5394244 C22.8666856,33.5947305 25.8282697,33.4456036 26.4634104,31.3145314 L34.8982713,3.03693535 C35.4347728,1.24019616 33.7603109,-0.433874081 31.9619485,0.101299238 L31.9619485,0.101299238 Z" id="Path"></path>
                        </g>
                    </g>
                </g>
            </g>
        </g>
    </g>
</svg>