<?xml version="1.0" encoding="UTF-8"?>
<svg width="497px" height="242px" viewBox="0 0 497 242" version="1.1" xmlns="http://www.w3.org/2000/svg" xmlns:xlink="http://www.w3.org/1999/xlink">
    <!-- Generator: Sketch 62 (91390) - https://sketch.com -->
    <title>Logo/Color/Dark</title>
    <desc>Created with Sketch.</desc>
    <defs>
        <polygon id="path-1" points="0.000376989934 0.637931034 101.368103 0.637931034 101.368103 117.910594 0.000376989934 117.910594"></polygon>
    </defs>
    <g id="Logo/Color/Dark" stroke="none" stroke-width="1" fill="none" fill-rule="evenodd">
        <g id="Group-12" transform="translate(0.000000, -1.000000)">
            <path d="M402.098276,88.2922414 C407.77931,86.3525862 413.762069,85.4215517 419.762069,85.5422414 L438.158621,85.5422414 C444.15,85.412931 450.124138,86.3439655 455.796552,88.2922414 C460.624138,89.9474138 464.908621,92.8612069 468.218966,96.7318966 C471.624138,100.964655 474.02931,105.89569 475.253448,111.188793 C476.891379,117.90431 477.667241,124.809483 477.546552,131.723276 C477.693103,138.628448 476.951724,145.533621 475.339655,152.249138 C474.089655,157.533621 471.65,162.464655 468.201724,166.65431 C461.822414,174.016379 451.848276,177.697414 438.253448,177.714655 L419.865517,177.714655 C413.831034,177.843966 407.822414,176.938793 402.098276,175.042241 C397.27931,173.421552 392.977586,170.559483 389.615517,166.757759 C386.227586,162.576724 383.831034,157.671552 382.624138,152.430172 C380.986207,145.723276 380.210345,138.826724 380.331034,131.930172 C380.331034,115.843966 383.477586,104.111207 389.77931,96.7146552 C393.106897,92.8612069 397.391379,89.9560345 402.201724,88.2922414 L402.098276,88.2922414 Z M481.848276,82.4474138 C471.822414,71.7232759 457.262069,66.3698276 438.158621,66.3698276 L419.762069,66.3698276 C411.141379,66.1887931 402.546552,67.5508621 394.4,70.387069 C387.425862,72.9043103 381.15,77.0336207 376.072414,82.4474138 C366.003448,93.162931 360.977586,109.662931 360.977586,131.930172 C360.977586,154.197414 366.003448,170.550862 376.072414,181.007759 C381.158621,186.361207 387.443103,190.438793 394.4,192.90431 C402.555172,195.723276 411.141379,197.085345 419.762069,196.930172 L438.158621,196.930172 C446.77931,197.085345 455.365517,195.723276 463.52069,192.90431 C470.477586,190.438793 476.762069,186.361207 481.848276,181.007759 C487.115517,175.275 490.986207,168.39569 493.124138,160.912931 C495.839655,151.490517 497.124138,141.714655 496.943103,131.90431 C497.132759,122.050862 495.865517,112.206034 493.167241,102.723276 C491.003448,95.1887931 487.15,88.2491379 481.891379,82.4474138 L481.848276,82.4474138 Z M309.882759,196.90431 L329.098276,196.90431 L329.098276,66.2663793 L309.882759,66.2663793 L309.882759,196.90431 Z M277.503448,85.5422414 L277.503448,66.3439655 L223.718966,66.3439655 C216.218966,66.1715517 208.727586,67.3008621 201.615517,69.6974138 C198.744828,70.7577586 195.986207,72.1025862 193.391379,73.7232759 C188.736207,76.6025862 184.856897,80.5681034 182.081034,85.275 C180.693103,87.6284483 179.581034,90.1284483 178.762069,92.7318966 C176.968966,98.5939655 176.089655,104.697414 176.167241,110.826724 L176.167241,196.90431 L195.365517,196.90431 L195.365517,143.525 L276.701724,143.525 L276.701724,125.533621 L195.322414,125.533621 L195.322414,110.542241 C195.322414,108.887069 195.451724,107.231897 195.701724,105.593966 C195.925862,104.033621 196.27931,102.481897 196.744828,100.973276 C197.736207,97.912931 199.486207,95.1543103 201.813793,92.9387931 C203.081034,91.7232759 204.486207,90.6801724 206.012069,89.8181034 C207.684483,88.8784483 209.434483,88.1112069 211.262069,87.5336207 C215.813793,86.1112069 220.563793,85.4301724 225.331034,85.5163793 L277.503448,85.5422414 Z" id="Fill-1" fill="#FFFFFF"></path>
            <path d="M57.5275862,156.819828 L57.5275862,237.199138 C57.5275862,241.466379 54.8465517,243.509483 51.5362069,241.707759 L6.07068966,216.776724 C2.38965517,214.293966 0.148275862,210.173276 0.0448275862,205.733621 L0.0448275862,127.190517 C0.70862069,127.725 1.41551724,128.190517 2.15689655,128.60431 L57.5275862,156.819828 Z" id="Fill-3" fill="#425CC7"></path>
            <g id="Group-7" transform="translate(0.000000, 0.985345)">
                <mask id="mask-2" fill="white">
                    <use xlink:href="#path-1"></use>
                </mask>
                <g id="Clip-6"></g>
                <path d="M5.08362069,117.425 L96.3594828,70.6232759 C99.4025862,68.7008621 101.290517,65.3732759 101.368103,61.7698276 L101.368103,4.88189655 C101.368103,1.35603448 99.1094828,-0.264655172 96.3594828,1.14051724 L12.2474138,44.2784483 C3.56637931,48.9336207 -0.450862069,51.1232759 0.0405172414,60.9594828 L0.0405172414,113.683621 C0.0405172414,117.037069 2.33362069,118.838793 5.08362069,117.425" id="Fill-5" fill="#005CB9" mask="url(#mask-2)"></path>
            </g>
            <path d="M5.08362069,53.3043103 L96.3594828,100.106034 C99.4112069,102.04569 101.290517,105.381897 101.368103,108.993966 L101.368103,165.847414 C101.368103,169.373276 99.1094828,171.028448 96.3594828,169.623276 L5.08362069,122.812931 C2.02327586,120.890517 0.126724138,117.55431 0.0405172414,113.933621 L0.0405172414,57.0715517 C0.0405172414,53.5887931 2.33362069,51.8905172 5.08362069,53.3043103" id="Fill-8" fill="#3CB4E5"></path>
            <path d="M5.08362069,118.410345 L68.5663793,85.8586207 L5.08362069,53.3068966 C4.01465517,52.6 2.62672414,52.6 1.55775862,53.3068966 C0.635344828,54.9965517 0.118103448,56.8758621 0.0405172414,58.8068966 L0.0405172414,113.927586 C0.075,115.143103 0.325,116.332759 0.781896552,117.462069 C1.61810345,118.893103 3.45431034,119.375862 4.88534483,118.539655 C4.94568966,118.496552 5.01465517,118.453448 5.08362069,118.410345" id="Fill-10" fill="#00A0DF"></path>
        </g>
    </g>
</svg>
