<?xml version="1.0" encoding="UTF-8"?>
<svg width="55px" height="55px" viewBox="0 0 55 55" version="1.1" xmlns="http://www.w3.org/2000/svg" xmlns:xlink="http://www.w3.org/1999/xlink">
    <title>free@1x</title>
    <g id="NEW-Domain-Landing---Post-Creation" stroke="none" stroke-width="1" fill="none" fill-rule="evenodd">
        <g id="FIO-Dashboard-Action-Tiles" transform="translate(-495.000000, -90.000000)" fill="#FFFFFF" fill-rule="nonzero">
            <g id="Group-5" transform="translate(100.000000, 90.000000)">
                <g id="free" transform="translate(395.000000, 0.000000)">
                    <path d="M42.6184117,12.3369798 C42.386488,12.1050561 42.0819473,11.9890406 41.7771917,11.9890406 C41.4726509,11.9890406 41.1680027,12.1049487 40.9360791,12.3368723 C40.4722318,12.8007196 40.4722318,13.5554651 40.9360791,14.0192049 C41.4000338,14.483267 42.1546718,14.4830522 42.6183042,14.0192049 L42.6183042,14.0190975 C42.8430306,13.7943711 42.9667806,13.4957386 42.9667806,13.1779849 C42.9668879,12.8604461 42.843138,12.5617061 42.6184117,12.3369798 Z" id="Path"></path>
                    <path d="M22.9247758,29.795598 C22.6027253,29.4735475 22.2986142,29.3176785 22.0120129,29.3271316 C21.725519,29.336907 21.440529,29.4832154 21.1572577,29.7665941 L20.200989,30.7228628 L21.9975109,32.5193848 L22.9537796,31.563116 C23.2370509,31.2798448 23.3834668,30.9949622 23.3932422,30.7083609 C23.4029101,30.4219744 23.2468263,30.1177559 22.9247758,29.795598 Z" id="Path"></path>
                    <path d="M54.9201397,21.2312887 L52.2996926,6.73740436 C51.9300543,4.69241584 50.3077705,3.07002462 48.2627819,2.70027883 L33.7687901,0.0799392249 C32.1533813,-0.212140609 30.4970448,0.30649177 29.3367821,1.46675447 L1.46684448,29.3367995 C0.520995658,30.2826484 0,31.5402352 0,32.8778513 C0,34.2154673 0.520888237,35.4731616 1.46684448,36.418903 L18.5812833,53.5332344 C19.5271321,54.4791906 20.784719,55.0000789 22.122335,55.0000789 C23.4599511,55.0000789 24.7176454,54.4791906 25.6633868,53.5332344 L53.5333244,25.6632968 C54.6935871,24.5029266 55.2120046,22.846053 54.9201397,21.2312887 Z M20.6306761,41.545178 C20.5630004,41.773879 20.4262525,41.9910858 20.2203249,42.1970134 C20.0140751,42.4032632 19.7969756,42.5400112 19.5683821,42.607472 C19.3397885,42.6752552 19.151693,42.6348646 19.0033435,42.4866225 L12.8702041,36.3534831 C12.7221769,36.2054559 12.6721183,36.0269209 12.7204581,35.8176633 C12.7685831,35.6084056 12.8829873,35.4136499 13.0633485,35.2331813 L16.4149082,31.8816216 C16.5629354,31.7335944 16.7401813,31.6852546 16.9460015,31.7366022 C17.1522513,31.7881647 17.3419582,31.9008501 17.515874,32.0748734 C17.7025731,32.2616799 17.8202,32.4596583 17.8685398,32.6688085 C17.9166647,32.878281 17.8699362,33.0535933 17.7283543,33.1951752 L15.2267158,35.6968138 L16.8590972,37.3291952 L18.3175628,35.8707296 C18.4590373,35.7292551 18.6281192,35.6759739 18.8245936,35.7113157 C19.0209607,35.7467649 19.1997105,35.8451632 19.3605209,36.0059737 C19.5086556,36.1541083 19.6020051,36.3248015 19.6406769,36.5178385 C19.6791339,36.7109828 19.6245637,36.8817835 19.4765365,37.0298107 L18.0180709,38.4882763 L20.509934,40.9801394 C20.6582835,41.1283815 20.6983518,41.3166919 20.6306761,41.545178 Z M28.8404935,33.1904487 C28.8051517,33.5607316 28.6746342,33.8586122 28.4492633,34.0839831 C28.223785,34.3094614 27.9696251,34.3769223 27.6862464,34.2867954 L23.7939254,33.0409175 L23.1564846,33.6783584 L25.4840998,36.0059737 C25.6323419,36.1542157 25.6724102,36.3426335 25.6048419,36.5711197 C25.5370587,36.7999281 25.4003108,37.0171349 25.1943832,37.2230625 C24.9882408,37.4292049 24.771034,37.5659528 24.5425479,37.6334137 C24.3138469,37.7013043 24.1257513,37.6609137 23.9775093,37.5126716 L17.8347019,31.3698643 C17.7123485,31.2475108 17.6497216,31.0979797 17.6462863,30.9206263 C17.6432763,30.7437027 17.7093407,30.587404 17.8445847,30.4522674 L19.843919,28.4529331 C21.4278532,26.8689989 22.9089848,26.765874 24.286884,28.1437732 C25.2912777,29.1483817 25.555213,30.1915547 25.0787974,31.2730772 L28.3915778,32.2294534 C28.4690289,32.242344 28.5429351,32.2842385 28.6137261,32.3550294 C28.8003177,32.5419433 28.8759427,32.8202732 28.8404935,33.1904487 Z M34.1768855,28.2405602 L30.738529,31.6789167 C30.5581678,31.8592779 30.3635195,31.9734673 30.1540471,32.0218071 C29.9447894,32.0701469 29.7663618,32.0201957 29.6181198,31.8719537 L23.4849804,25.7388143 C23.3369532,25.590787 23.2868946,25.412252 23.3352344,25.2029944 C23.3834668,24.9936293 23.4977636,24.7989811 23.6781247,24.6185125 L27.1165887,21.180156 C27.2646159,21.0321287 27.4418618,20.9837889 27.647682,21.0351366 C27.8539318,21.086699 28.0436387,21.1993845 28.2175545,21.3734078 C28.4042536,21.5602142 28.5218805,21.7581926 28.5702203,21.9673428 C28.6183452,22.1768153 28.5716167,22.3521276 28.4300348,22.4937096 L25.8414921,25.0822523 L27.4738735,26.7146338 L28.9227786,25.2657287 C29.0642531,25.1242542 29.2334424,25.070973 29.4298094,25.1063148 C29.6261764,25.141764 29.8050337,25.2400549 29.9658441,25.4008653 C30.1139787,25.549 30.2073283,25.7196932 30.2458927,25.9128376 C30.2843497,26.1059819 30.2297794,26.2767826 30.0817522,26.4248098 L28.6328472,27.8737148 L30.2746817,29.5155494 L32.8632245,26.9270066 C33.004699,26.7855321 33.1803336,26.7388037 33.3895912,26.7869286 C33.5989563,26.8353759 33.7967198,26.9527879 33.9835263,27.1395943 C34.1572273,27.3132954 34.2701276,27.5033245 34.3216901,27.7093595 C34.3733599,27.9155019 34.3249127,28.0924256 34.1768855,28.2405602 Z M39.3826526,23.0346857 L35.9440813,26.473257 C35.7637201,26.6536182 35.5689644,26.767915 35.3595994,26.8161474 C35.1503417,26.8644872 34.9719141,26.814536 34.8236721,26.666294 L28.6905327,20.5331546 C28.5425054,20.3851273 28.4924469,20.2065923 28.5407867,19.9973347 C28.5890191,19.7879696 28.7033159,19.5933214 28.883677,19.4128528 L32.3220335,15.9744963 C32.4700608,15.826469 32.6473067,15.7781292 32.8531268,15.8294768 C33.0592692,15.8811467 33.2490835,15.9937248 33.4229994,16.167748 C33.6096985,16.3545545 33.7273253,16.5525329 33.7756651,16.7616831 C33.8237901,16.9711556 33.7770616,17.1464679 33.6354797,17.2880498 L31.0469369,19.8765926 L32.6793184,21.5089741 L34.1282234,20.060069 C34.2696979,19.9185945 34.4387798,19.8653133 34.6352543,19.9006551 C34.8316213,19.9361043 35.0103711,20.0345026 35.1711815,20.195313 C35.3193162,20.3434477 35.4126657,20.5141409 35.4513376,20.7071778 C35.4897946,20.9003222 35.4352243,21.0711229 35.2871971,21.2191501 L33.838292,22.6680551 L35.4801266,24.3098897 L38.0686694,21.7213469 C38.2101439,21.5798724 38.3857785,21.5332514 38.5950361,21.5813763 C38.8045086,21.6297161 39.0022721,21.7471282 39.1890786,21.9339346 C39.3627796,22.1076357 39.4755725,22.2977722 39.5272424,22.5036998 C39.5792345,22.7096273 39.5307873,22.8866584 39.3826526,23.0346857 Z M44.899191,16.3001991 C44.0385277,17.1608625 42.9079134,17.5911941 41.7774065,17.5911941 C40.6466848,17.5911941 39.5161779,17.1608625 38.6555146,16.3000917 C36.933973,14.5786576 36.933973,11.7777419 38.6555146,10.0563078 C40.3768413,8.33487373 43.1778643,8.33476631 44.899191,10.0563078 C45.7332137,10.8902232 46.1923344,11.9989234 46.1923344,13.1781998 C46.1923344,14.3574761 45.7331063,15.4661764 44.899191,16.3001991 Z" id="Shape"></path>
                </g>
            </g>
        </g>
    </g>
</svg>