<?xml version="1.0" encoding="UTF-8"?>
<svg width="123px" height="28px" viewBox="0 0 123 28" version="1.1" xmlns="http://www.w3.org/2000/svg" xmlns:xlink="http://www.w3.org/1999/xlink">
    <defs>
        <polygon id="path-1" points="-2.06332643e-15 0 122.270742 0 122.270742 28 -2.06332643e-15 28"></polygon>
        <polygon id="path-3" points="-2.06332643e-15 0 122.270742 0 122.270742 28 -2.06332643e-15 28"></polygon>
        <polygon id="path-5" points="-2.06332643e-15 0 122.270742 0 122.270742 28 -2.06332643e-15 28"></polygon>
    </defs>
    <g id="Get-FIO" stroke="none" stroke-width="1" fill="none" fill-rule="evenodd">
        <g id="FIO_WalletView---No-FIO---Partners" transform="translate(-723.000000, -820.000000)">
            <g id="Group-2" transform="translate(328.000000, 230.000000)">
                <g id="Group-Copy-5" transform="translate(365.000000, 577.000000)">
                    <g id="1653358183444462943_downlod_gate1" transform="translate(30.000000, 13.000000)">
                        <g id="Fill-1-Clipped">
                            <mask id="mask-2" fill="white">
                                <use xlink:href="#path-1"></use>
                            </mask>
                            <g id="path-1"></g>
                            <path d="M101.224046,8.32123452 L104.696498,8.32123452 L104.696498,4.84797813 L101.224046,4.84797813 L101.224046,8.32123452 Z M82.7673144,14.1053479 C83.4308496,12.3454833 85.1299061,11.0924621 87.122254,11.0924621 C89.1143114,11.0924621 90.8133679,12.3454833 91.4771935,14.1053479 L82.7673144,14.1053479 Z M87.122254,7.86318757 C82.7696374,7.86318757 79.2399788,11.3930826 79.2399788,15.7475783 C79.2399788,20.1020741 82.7696374,23.6313882 87.122254,23.6313882 C90.1091785,23.6313882 92.7075648,21.9702783 94.045089,19.5217457 L91.1325037,18.1083935 C90.323194,19.4807917 88.8306029,20.4021137 87.122254,20.4021137 C84.9638045,20.4021137 83.1494642,18.9324132 82.6229919,16.9390232 L91.6212256,16.9390232 C91.6206448,16.9404755 91.6203544,16.9425086 91.620064,16.9442514 L94.9156704,16.9442514 C94.9751999,16.5538804 95.0059809,16.1542148 95.0059809,15.7475783 C95.0059809,11.3930826 91.4763223,7.86318757 87.122254,7.86318757 L87.122254,7.86318757 Z M95.921282,23.2111003 L99.3937342,23.2111003 L99.3937342,19.737844 L95.921282,19.737844 L95.921282,23.2111003 Z M101.224046,23.2111003 L104.696498,23.2111003 L104.696498,9.84815447 L101.224046,9.84815447 L101.224046,23.2111003 Z M114.388467,20.4021137 C111.818249,20.4021137 109.734719,18.3181018 109.734719,15.7475783 C109.734719,13.176474 111.818249,11.0924621 114.388467,11.0924621 C116.958686,11.0924621 119.042215,13.176474 119.042215,15.7475783 C119.042215,18.3181018 116.958686,20.4021137 114.388467,20.4021137 L114.388467,20.4021137 Z M114.387015,7.86318757 C110.034399,7.86318757 106.50474,11.3930826 106.50474,15.7475783 C106.50474,20.1020741 110.034399,23.6313882 114.387015,23.6313882 C118.741084,23.6313882 122.270742,20.1020741 122.270742,15.7475783 C122.270742,11.3930826 118.741084,7.86318757 114.387015,7.86318757 L114.387015,7.86318757 Z M41.7863955,12.8412893 L41.7863955,16.4324703 L46.6416725,16.4324703 C46.3881643,17.4586466 45.8869556,18.3782259 45.1682468,19.1127856 C44.0842307,20.22087 42.5811857,20.8314056 40.9355604,20.8314056 C37.5208953,20.8314056 34.7424688,18.0526262 34.7424688,14.6368798 C34.7424688,11.2211335 37.5208953,8.44206364 40.9355604,8.44206364 C42.7647106,8.44206364 44.4460535,9.22512931 45.6116684,10.5757433 L48.3915468,8.30380723 C46.548458,6.14340574 43.8138801,4.85059221 40.9355604,4.85059221 C35.5410341,4.85059221 31.1521192,9.24081386 31.1521192,14.6368798 C31.1521192,20.0329459 35.5410341,24.422877 40.9355604,24.422877 C43.5548546,24.422877 45.9694256,23.4788995 47.7346905,21.6745954 C49.2159565,20.1601649 50.1977562,18.0476886 50.386508,15.9314361 C50.4785609,14.8991603 50.4869822,13.8738556 50.4326797,12.8412893 L41.7863955,12.8412893 Z M59.47331,20.4029851 C56.9030913,20.4029851 54.8192714,18.3183922 54.8192714,15.7475783 C54.8192714,13.1761835 56.9030913,11.0921716 59.47331,11.0921716 C62.0438191,11.0921716 64.1276389,13.1761835 64.1276389,15.7475783 C64.1276389,18.3183922 62.0438191,20.4029851 59.47331,20.4029851 L59.47331,20.4029851 Z M64.1282197,9.39969253 C62.8235092,8.442935 61.214763,7.87654849 59.47331,7.87654849 C55.1206935,7.87654849 51.5921965,11.4061531 51.5921965,15.7597774 C51.5921965,20.1139827 55.1206935,23.6430063 59.47331,23.6430063 C61.214763,23.6430063 62.8235092,23.0769103 64.1282197,22.1201528 L64.1282197,23.2111003 L67.3547138,23.2111003 L67.3547138,8.30874497 L64.1282197,8.30874497 L64.1282197,9.39969253 Z M74.2810336,4.84826858 L71.054249,4.84826858 L71.054249,8.32123452 L69.1202691,8.32123452 L69.1202691,11.3672322 L71.054249,11.3672322 L71.054249,19.3384689 C71.054249,20.1616173 71.157627,20.8540611 71.3626404,21.3975017 C71.56475,21.9351332 71.8737222,22.356002 72.2410623,22.6847966 C72.6133389,23.0185289 73.0500816,23.2784858 73.5678422,23.4260368 C74.0940242,23.5741686 74.6745085,23.6313882 75.288097,23.6313882 C75.9231743,23.6313882 76.4894297,23.565455 76.9726342,23.4350409 C77.4212827,23.3145021 77.8513465,23.1440054 78.2515002,22.9273262 L78.2515002,20.4729846 C77.6149711,20.7483356 77.0199674,20.8479615 76.3410416,20.879621 C75.6243656,20.9133138 75.2004,20.7085434 74.8475794,20.3721968 C74.4779163,20.0198754 74.2810336,19.5606666 74.2810336,18.790381 L74.2810336,11.3672322 L78.2515002,11.3672322 L78.2515002,8.32123452 L74.2810336,8.32123452 L74.2810336,4.84826858 Z" id="Fill-1" fill="#000000" fill-rule="nonzero" mask="url(#mask-2)"></path>
                        </g>
                        <g id="Fill-3-Clipped">
                            <mask id="mask-4" fill="white">
                                <use xlink:href="#path-3"></use>
                            </mask>
                            <g id="path-1"></g>
                            <path d="M13.9969621,21.7000392 C9.74540046,21.7000392 6.29879265,18.2529238 6.29879265,14.0000872 C6.29879265,9.74754099 9.74540046,6.29984461 13.9969621,6.29984461 L13.9969621,-0.00011618185 C6.26655965,-0.00011618185 -2.06332643e-15,6.2678946 -2.06332643e-15,14.0000872 C-2.06332643e-15,21.7319892 6.26655965,28 13.9969621,28 C21.7270742,28 27.9939241,21.7319892 27.9939241,14.0000872 L21.6951315,14.0000872 C21.6951315,18.2529238 18.2485238,21.7000392 13.9969621,21.7000392" id="Fill-3" fill="#2354E6" fill-rule="nonzero" mask="url(#mask-4)"></path>
                        </g>
                        <g id="Fill-4-Clipped">
                            <mask id="mask-6" fill="white">
                                <use xlink:href="#path-5"></use>
                            </mask>
                            <g id="path-1"></g>
                            <polygon id="Fill-4" fill="#17E6A1" fill-rule="nonzero" mask="url(#mask-6)" points="13.996904 13.9999128 21.6950735 13.9999128 21.6950735 6.29996079 13.996904 6.29996079"></polygon>
                        </g>
                    </g>
                </g>
            </g>
        </g>
    </g>
</svg>
