<?xml version="1.0" encoding="UTF-8"?>
<svg width="55px" height="54px" viewBox="0 0 55 54" version="1.1" xmlns="http://www.w3.org/2000/svg" xmlns:xlink="http://www.w3.org/1999/xlink">
    <title>growth@1x</title>
    <g id="NEW-Domain-Landing---Post-Creation" stroke="none" stroke-width="1" fill="none" fill-rule="evenodd">
        <g id="FIO-Dashboard-Action-Tiles" transform="translate(-495.000000, -596.000000)" fill="#FFFFFF" fill-rule="nonzero">
            <g id="Group-5-Copy-2" transform="translate(100.000000, 596.000000)">
                <g id="growth" transform="translate(395.000000, 0.000000)">
                    <path d="M23.4209817,29.0760842 C23.4209817,27.3564163 22.0270784,25.9625131 20.3074106,25.9625131 L17.0715299,25.9625131 C15.3518621,25.9625131 13.9579588,27.3564163 13.9579588,29.0760842 L13.9579588,50.7648595 C13.9579588,52.4845273 15.3518621,53.8784306 17.0715299,53.8784306 L20.3074106,53.8784306 C22.0270784,53.8784306 23.4209817,52.4845273 23.4209817,50.7648595 L23.4209817,29.0760842 Z" id="Path"></path>
                    <path d="M9.4630229,36.6465025 C9.4630229,34.7962449 7.96313377,33.2963558 6.11287622,33.2963558 L3.35014668,33.2963558 C1.49988913,33.2963558 0,34.7962449 0,36.6465025 L0,50.5282839 C0,52.3785415 1.49988913,53.8784306 3.35014668,53.8784306 L6.11287622,53.8784306 C7.96313377,53.8784306 9.4630229,52.3785415 9.4630229,50.5282839 L9.4630229,36.6465025 Z" id="Path"></path>
                    <path d="M37.1423649,20.7959391 C37.1423649,19.0762713 35.7484616,17.682368 34.0287938,17.682368 L30.7929131,17.682368 C29.0732453,17.682368 27.679342,19.0762713 27.679342,20.7959391 L27.679342,50.7648595 C27.679342,52.4845273 29.0732453,53.8784306 30.7929131,53.8784306 L34.0287938,53.8784306 C35.7484616,53.8784306 37.1423649,52.4845273 37.1423649,50.7648595 L37.1423649,20.7959391 Z" id="Path"></path>
                    <path d="M54.4958929,8.84461435 L48.4258368,1.05796596 C47.9018219,0.385618183 47.1566089,0 46.3813507,0 C45.6060926,0 44.8608795,0.385618183 44.3368646,1.05796596 L38.2668086,8.84437778 C37.7461057,9.51223062 37.6183549,10.2453783 37.9164402,10.8555067 C38.2412584,11.5207572 39.0210115,11.917731 40.0013807,11.917731 L41.6373008,11.922226 L41.6373008,50.8535753 C41.6373008,52.5704043 43.0359355,53.8784306 44.7527645,53.8784306 L48.0104101,53.8784306 C49.727239,53.8784306 51.1003237,52.5704043 51.1003237,50.8535753 L51.1003237,11.8952564 L52.7464165,11.9179676 C53.7289148,11.9179676 54.5155286,11.5207572 54.8403469,10.8557433 C55.1384321,10.2453783 55.0165957,9.51246719 54.4958929,8.84461435 Z" id="Path"></path>
                </g>
            </g>
        </g>
    </g>
</svg>