<?xml version="1.0" encoding="UTF-8"?>
<svg width="150px" height="20px" viewBox="0 0 150 20" version="1.1" xmlns="http://www.w3.org/2000/svg" xmlns:xlink="http://www.w3.org/1999/xlink">
    <defs>
        <linearGradient x1="50.0002681%" y1="5.33834176e-07%" x2="24.6815477%" y2="87.9441564%" id="linearGradient-1">
            <stop stop-color="#3463F8" offset="0%"></stop>
            <stop stop-color="#214FDF" offset="100%"></stop>
        </linearGradient>
        <linearGradient x1="49.999694%" y1="-9.88540695e-07%" x2="5.34000534%" y2="90.3503508%" id="linearGradient-2">
            <stop stop-color="#3463F8" offset="0%"></stop>
            <stop stop-color="#214FDF" offset="100%"></stop>
        </linearGradient>
    </defs>
    <g id="Get-FIO" stroke="none" stroke-width="1" fill="none" fill-rule="evenodd">
        <g id="FIO_WalletView---No-FIO---Partners" transform="translate(-388.000000, -642.000000)" fill-rule="nonzero">
            <g id="Group-2" transform="translate(328.000000, 230.000000)">
                <g id="Group-8" transform="translate(30.000000, 395.000000)">
                    <g id="indacoin-logo" transform="translate(30.000000, 17.000000)">
                        <path d="M52.6315789,20 C52.8171399,19.4512941 53.0453082,18.9172745 53.3136946,18.4026275 C55.6322109,13.307098 57.9507271,8.21158824 60.2692434,3.11605882 C60.4470395,2.67972549 60.6560942,2.25635294 60.895213,1.84918039 C61.4439318,0.96962549 62.3263418,0.339480392 63.3483206,0.0970492157 C63.4554363,0.0681966667 63.5597645,0.0314754902 63.6666811,0 L65.0711305,0 C65.6612621,0.0975527451 66.2225242,0.320717647 66.715097,0.653794118 C67.2078688,0.986870588 67.6202043,1.42176275 67.923035,1.92786863 C68.1022247,2.22688235 68.2519477,2.54688235 68.4072455,2.86164706 C69.9480783,5.98119608 71.4881146,9.10688235 73.0271555,12.2386863 C74.3005973,14.8249216 75.5722472,17.4120196 76.8421053,20 L70.3546399,20 C69.9988487,19.2131176 69.6297178,18.4052549 69.284678,17.5947451 C69.2500346,17.4661373 69.1686028,17.3543529 69.0557133,17.280451 C68.9430229,17.206549 68.8064404,17.1756078 68.6720481,17.193451 C66.5986236,17.2091765 64.5253982,17.193451 62.4521728,17.193451 C62.2140495,17.193451 62.0509868,17.193451 62.1845828,16.8708235 C62.8035838,15.5383529 63.4126298,14.2015294 64.0117209,12.8603333 C64.0427805,12.7793529 64.1009176,12.7112157 64.1769737,12.6672941 C64.2528307,12.6233725 64.3418283,12.6063333 64.429233,12.6190196 C65.207713,12.6190196 65.9887812,12.6190196 66.7698494,12.6190196 C67.0374394,12.6190196 67.1043369,12.5718039 66.9838816,12.3068824 C66.6147507,11.4885294 66.2669235,10.6622941 65.9139197,9.83605882 L64.7581458,7.16590196 C64.6753203,7.32064706 64.6163868,7.42819608 64.5682046,7.52786275 C63.2895862,10.2959608 62.0117642,13.0622941 60.7347386,15.8268824 C60.0980177,17.2091765 59.4692607,18.5967255 58.8353272,19.9815686 L52.6315789,20 Z" id="Path" fill="#545454"></path>
                        <path d="M0,1.13725356 C0.129177974,1.06650987 0.279467895,1.03896506 0.426964727,1.05900066 L4.80608271,1.05900066 C5.23853096,1.05900066 5.26315789,1.0824779 5.26315789,1.51026082 C5.26315789,3.60745267 5.26315789,5.70462891 5.26315789,7.80182465 L5.26315789,19.4067745 C5.26315789,19.9910534 5.26315789,19.9910534 4.6364033,19.9910534 L0.498126193,19.9910534 C0.32815346,20.0153496 0.154447169,19.9898835 0,19.9180283 L0,1.13725356 Z" id="Path" fill="#545454"></path>
                        <path d="M144.377029,13.26955 L144.377029,1.63186572 C144.377029,1.19022188 144.377029,1.1876386 144.821999,1.1876386 C146.244904,1.1876386 147.667809,1.1876386 149.090713,1.1876386 C149.39089,1.1876386 149.473684,1.28320055 149.473684,1.57504521 C149.473684,6.40730045 149.473684,11.2369473 149.473684,16.0692006 C149.447498,17.019028 149.086862,17.9292759 148.455316,18.6401019 C147.82377,19.3509278 146.961362,19.816883 146.019819,19.9561251 C144.42632,20.1731359 143.17401,19.573943 142.12368,18.4065451 C139.99972,16.0433679 137.849767,13.7060234 135.712907,11.3583498 C134.755576,10.3063111 133.80017,9.25429185 132.846304,8.20227255 C132.768708,8.11446429 132.696311,8.01889463 132.608319,7.91042788 C132.564033,7.96655334 132.532841,8.03188824 132.517245,8.10160583 C132.501456,8.17134273 132.501649,8.24368607 132.517823,8.31332643 C132.517823,12.003165 132.517823,15.6938532 132.517823,19.3853908 C132.517823,19.9019304 132.517823,19.9019304 132.000263,19.9019304 C130.587756,19.9019304 129.175248,19.9019304 127.765244,19.9019304 C127.467763,19.9019304 127.374571,19.8089672 127.374571,19.5145354 C127.374571,14.6926113 127.351274,9.87329368 127.395366,5.05136961 C127.408267,3.38036779 128.269711,2.13807604 129.80641,1.45365822 C131.376803,0.748579202 132.887701,0.975858155 134.160613,2.11483234 C135.195348,3.04977397 136.075084,4.15517714 137.021826,5.18566913 C138.631113,6.93932423 140.224805,8.70332789 141.828701,10.462138 L144.377029,13.26955 Z" id="Path" fill="#545454"></path>
                        <path d="M89.7473918,0.00733289469 L94.3117372,0.00733289469 C94.7185956,0.00733289469 94.7368421,0.0257908229 94.7368421,0.431867805 C94.7368421,1.80654871 94.7368421,3.17946935 94.7368421,4.55064156 C94.7368421,4.99626612 94.7133546,5.01999912 94.2777676,5.01999912 L85.6708493,5.01999912 C84.4263984,5.01727889 83.2273697,5.49176152 82.3152382,6.34772653 C81.4033009,7.20369154 80.846394,8.37745011 80.7567144,9.6322833 C80.6670347,10.8871165 81.0513761,12.1296495 81.8320939,13.1092666 C82.6130058,14.0888837 83.7322545,14.7326907 84.9640882,14.9108459 C85.265738,14.9512551 85.5699112,14.9706318 85.8742785,14.9688577 L94.2855321,14.9688577 C94.7290776,14.9688577 94.7368421,14.9688577 94.7368421,15.4329522 C94.7368421,16.7830131 94.7368421,18.133961 94.7368421,19.4857959 C94.7368421,19.9577949 94.7185956,19.9788865 94.2700032,19.9788865 C91.3697784,19.9788865 88.4668361,20.0263919 85.5666113,19.9788865 C83.0678098,19.9526698 80.6716934,18.9700565 78.8608242,17.229091 C77.0501491,15.4881255 75.9590465,13.1180975 75.8076393,10.5963872 C75.6562321,8.07465722 76.4555846,5.58858586 78.0447781,3.63891188 C79.6337775,1.68923396 81.894792,0.420793718 84.3720471,0.0890755423 C85.378711,-0.0506779141 86.390616,0.0178802822 87.3999975,0.00996974157 C88.1824622,-0.000577645959 88.964927,0.00733289469 89.7473918,0.00733289469 Z" id="Path" fill="url(#linearGradient-1)"></path>
                        <path d="M101.96914,0 C103.274359,0 104.600561,0 105.916271,0 C109.231581,0.0317369013 111.886511,1.41758614 113.865128,4.09143253 C115.244953,5.94061652 115.920682,8.23169798 115.768362,10.5446262 C115.637606,12.8560518 114.723293,15.0509087 113.179878,16.7582173 C111.636464,18.4655457 109.558372,19.5806197 107.297068,19.9148848 C106.855842,19.9749881 106.410925,20.0032603 105.965814,19.9997016 C103.083764,19.9997016 100.201713,19.9997016 97.3196623,19.9997016 C96.844631,19.9997016 96.8421053,19.9997016 96.8421053,19.5261906 C96.8421053,18.1615102 96.8421053,16.7941607 96.8421053,15.4294803 C96.8421053,15.1094699 96.9491573,15.0142536 97.2571019,15.0142536 C100.083392,15.024831 102.910654,15.024831 105.738693,15.0142536 C106.91374,15.0306832 108.059255,14.6407434 108.986197,13.9087488 C111.212918,12.152626 111.460828,8.61924547 109.495229,6.57221494 C109.014369,6.05930072 108.433451,5.6533466 107.789585,5.38015349 C107.145524,5.10696038 106.452503,4.97251885 105.754236,4.98535011 C102.940186,4.98535011 100.123415,4.98535011 97.306645,4.98535011 C96.8524025,4.98535011 96.8471567,4.98535011 96.8471567,4.52781393 L96.8471567,0.457541118 C96.8471567,0.00793422532 96.8471567,0 97.3093651,0 L101.96914,0 Z" id="Path" fill="url(#linearGradient-2)"></path>
                        <path d="M118.955605,10.5289035 L118.955605,1.52748797 C118.955605,1.05524126 118.955605,1.05263158 119.447015,1.05263158 C120.888553,1.05263158 122.329887,1.05263158 123.77122,1.05263158 C124.089564,1.05263158 124.210526,1.14134119 124.210526,1.4596519 C124.210526,7.5023381 124.210526,13.5441564 124.210526,19.5850969 C124.210526,19.8955864 124.108771,20.0025482 123.776737,20 C122.312519,19.986028 120.848096,19.986028 119.383878,20 C119.02426,20 118.944776,19.8721032 118.947432,19.556406 C118.965822,16.5507103 118.968478,13.5415428 118.955605,10.5289035 Z" id="Path" fill="#545454"></path>
                        <path d="M13.5957941,7.86726809 C13.5402806,8.00689017 13.5215448,8.1584135 13.5413986,8.30734372 C13.5413986,11.9867096 13.5413986,15.6643726 13.5413986,19.340294 C13.5413986,19.9201465 13.5413986,19.9201465 12.94831,19.9201465 L8.88209966,19.9201465 C8.42627207,19.9201465 8.42105263,19.9201465 8.42105263,19.4774971 C8.42105263,14.7022478 8.42105263,9.92525689 8.42105263,5.14656303 C8.41773301,4.32916913 8.66025766,3.52963679 9.11720323,2.85171016 C9.5741488,2.17381061 10.2243893,1.6488316 10.9835751,1.34491797 C11.7427416,1.04100434 12.5757912,0.972187974 13.3745882,1.14740159 C14.1733852,1.32261327 14.9010555,1.73376594 15.4631298,2.32749553 C17.5350945,4.56928427 19.5759677,6.83696745 21.6296977,9.09429749 C22.7900842,10.3713896 23.9529766,11.64674 25.1183748,12.9203682 C25.1806347,12.9876732 25.2245829,13.0834445 25.3437056,13.0963907 C25.439505,12.9721338 25.3955568,12.8375238 25.3955568,12.6951538 C25.3955568,9.03993874 25.3955568,5.38385284 25.3955568,1.72692127 C25.3955568,1.1315255 25.3955568,1.1315255 26.0042778,1.1315255 L30.0806657,1.1315255 C30.5236172,1.1315255 30.5263158,1.1315255 30.5263158,1.58713276 C30.5263158,6.38653869 30.5263158,11.1859582 30.5263158,15.9853583 C30.5209186,16.8054421 30.2657107,17.6044325 29.7946169,18.2759151 C29.3237158,18.947417 28.6590958,19.4595581 27.8896169,19.744124 C27.1257278,20.0265031 26.2951455,20.0764303 25.5027287,19.887597 C24.7103119,19.6987057 23.9917204,19.2794524 23.4375491,18.682764 L17.0378245,11.6570932 L13.8366611,8.14167434 L13.5957941,7.86726809 Z" id="Path" fill="#545454"></path>
                        <path d="M33.6855045,9.98079144 L33.6855045,0.528392721 C33.6855045,0.00120897997 33.6855045,0.00120897997 34.2006037,0.00120897997 C37.3868577,0.00120897997 40.5731117,0.00120897997 43.7593656,0.00120897997 C46.2823359,-0.0389182197 48.7226832,0.921195605 50.5697175,2.68058578 C52.4165601,4.43998581 53.5268893,6.86225449 53.6683643,9.44042737 C53.7881771,11.5893908 53.2261113,13.7204426 52.0655564,15.5156462 C50.9050016,17.3108301 49.2084522,18.6739277 47.2289529,19.401566 C46.2102565,19.7875825 45.1340499,19.9901476 44.0478749,20 C40.74315,20 37.4384251,20 34.1337003,20 C33.7035244,20 33.6855045,19.9814775 33.6855045,19.5307308 C33.6837792,16.350045 33.6837792,13.1667384 33.6855045,9.98079144 Z M38.6413457,10.0097969 C38.6413457,11.5254488 38.6413457,13.0411008 38.6413457,14.5541123 C38.6413457,14.8651522 38.7262691,14.9732132 39.0404662,14.9705924 C40.6400151,14.9574099 42.237072,14.952129 43.8366209,14.9705924 C45.1223561,14.9961101 46.3651505,14.4979143 47.2918307,13.5856225 C48.2187026,12.6733505 48.7533553,11.4216835 48.7782763,10.1059956 C48.8031974,8.7903077 48.3162781,7.51838412 47.4248708,6.57001296 C46.5334635,5.62164181 45.3102226,5.07449929 44.0246791,5.04898161 C42.3710706,5.04898161 40.7199542,5.04898161 39.0663458,5.04898161 C38.6490138,5.04898161 38.6465217,5.04898161 38.6465217,5.49972836 L38.6413457,10.0097969 Z" id="Shape" fill="#545454"></path>
                    </g>
                </g>
            </g>
        </g>
    </g>
</svg>
