<?xml version="1.0" encoding="UTF-8"?>
<svg width="173px" height="24px" viewBox="0 0 173 24" version="1.1" xmlns="http://www.w3.org/2000/svg" xmlns:xlink="http://www.w3.org/1999/xlink">
    <defs>
        <linearGradient x1="50.0272575%" y1="-12.7789311%" x2="50.0272575%" y2="180.902055%" id="linearGradient-1">
            <stop stop-color="#00BFE1" offset="0.5102044%"></stop>
            <stop stop-color="#2738AB" offset="96.51%"></stop>
        </linearGradient>
        <linearGradient x1="29.0472381%" y1="23.4537634%" x2="54.1621227%" y2="59.8480287%" id="linearGradient-2">
            <stop stop-color="#1B1464" offset="3.488575%"></stop>
            <stop stop-color="#1B1464" stop-opacity="0" offset="100%"></stop>
        </linearGradient>
        <linearGradient x1="35.9785859%" y1="65.2903197%" x2="59.3454545%" y2="46.7145748%" id="linearGradient-3">
            <stop stop-color="#1B1464" offset="3.488575%"></stop>
            <stop stop-color="#1B1464" stop-opacity="0" offset="100%"></stop>
        </linearGradient>
        <linearGradient x1="59.6822018%" y1="37.942605%" x2="43.753945%" y2="55.9375825%" id="linearGradient-4">
            <stop stop-color="#1B1464" offset="3.488575%"></stop>
            <stop stop-color="#1B1464" stop-opacity="0" offset="100%"></stop>
        </linearGradient>
        <linearGradient x1="71.0313707%" y1="76.5071685%" x2="45.9163826%" y2="40.112724%" id="linearGradient-5">
            <stop stop-color="#1B1464" offset="3.488575%"></stop>
            <stop stop-color="#1B1464" stop-opacity="0" offset="100%"></stop>
        </linearGradient>
        <linearGradient x1="64.2618182%" y1="34.672084%" x2="40.8949495%" y2="53.2477156%" id="linearGradient-6">
            <stop stop-color="#1B1464" offset="3.488575%"></stop>
            <stop stop-color="#1B1464" stop-opacity="0" offset="100%"></stop>
        </linearGradient>
        <linearGradient x1="40.526055%" y1="62.0223658%" x2="56.4537615%" y2="44.0273044%" id="linearGradient-7">
            <stop stop-color="#1B1464" offset="3.488575%"></stop>
            <stop stop-color="#1B1464" stop-opacity="0" offset="100%"></stop>
        </linearGradient>
    </defs>
    <g id="Get-FIO" stroke="none" stroke-width="1" fill="none" fill-rule="evenodd">
        <g id="FIO_WalletView---No-FIO---Partners" transform="translate(-723.000000, -1014.000000)" fill-rule="nonzero">
            <g id="Group-2" transform="translate(328.000000, 230.000000)">
                <g id="Group-Copy-11" transform="translate(365.000000, 769.000000)">
                    <g id="Infinity_main_horizontal_dark" transform="translate(30.000000, 15.000000)">
                        <g id="Group" transform="translate(49.134635, 2.145940)" fill="#354D68">
                            <polygon id="Path" points="-7.01049359e-15 1.13463515 1.94861254 1.13463515 1.94861254 16.4398767 -7.01049359e-15 16.4398767"></polygon>
                            <path d="M4.29188078,5.34018499 L5.72250771,5.34018499 L6.21582734,6.59815005 C7.41212744,5.8705036 8.47276465,5.14285714 10.1747174,5.14285714 C12.5056526,5.14285714 13.5909558,6.86947585 13.5909558,8.7934224 L13.5909558,16.4275437 L11.6423433,16.4275437 L11.6423433,8.76875642 C11.6423433,7.47379239 10.9146968,6.90647482 9.94039054,6.90647482 C8.38643371,6.90647482 7.62178828,7.30113052 6.19116136,8.04110997 L6.19116136,16.4398767 L4.24254882,16.4398767 L4.24254882,5.327852 L4.29188078,5.327852 L4.29188078,5.34018499 Z" id="Path"></path>
                            <path d="M14.9722508,5.69784173 L16.9578623,5.34018499 L16.9578623,4.30421377 C16.9578623,1.82528263 18.610483,0.0246659815 21.2127441,0 C22.2487153,0 24.4563207,0.357656732 25.4552929,0.690647482 L25.4552929,1.91161357 C25.4306269,1.91161357 21.7677287,1.71428571 21.7677287,1.71428571 C20.4727646,1.64028777 18.9064748,2.14594039 18.9064748,4.34121274 L18.9064748,5.34018499 L26.4172662,5.56217883 L26.4172662,16.4522097 L24.4563207,16.4522097 L24.4563207,7.09146968 L18.8818088,7.09146968 L18.8818088,16.4522097 L16.9331963,16.4522097 L16.9331963,7.09146968 L14.9475848,7.09146968 L14.9475848,5.69784173 L14.9722508,5.69784173 Z" id="Path"></path>
                            <path d="M28.6618705,5.34018499 L30.0924974,5.34018499 L30.5858171,6.59815005 C31.7821172,5.8705036 32.8427544,5.14285714 34.5447071,5.14285714 C36.8756423,5.14285714 37.9609455,6.86947585 37.9609455,8.7934224 L37.9609455,16.4275437 L36.012333,16.4275437 L36.012333,8.76875642 C36.012333,7.47379239 35.2846865,6.90647482 34.3103803,6.90647482 C32.7564234,6.90647482 31.991778,7.30113052 30.5611511,8.04110997 L30.5611511,16.4398767 L28.6125385,16.4398767 L28.6125385,5.327852 L28.6618705,5.327852 L28.6618705,5.34018499 Z" id="Path"></path>
                            <path d="M39.946557,2.25693731 C39.946557,1.94861254 40.1192189,1.72661871 40.4522097,1.72661871 L41.8211716,1.72661871 C42.1294964,1.72661871 42.3144913,1.96094553 42.3144913,2.25693731 L42.3144913,3.58890031 C42.3144913,3.89722508 42.1171634,4.05755396 41.8211716,4.05755396 L40.4522097,4.05755396 C40.1562179,4.05755396 39.946557,3.8602261 39.946557,3.58890031 L39.946557,2.25693731 Z M40.1315519,5.34018499 L42.0801644,5.34018499 L42.0801644,16.4522097 L40.1315519,16.4522097 L40.1315519,5.34018499 Z" id="Shape"></path>
                            <path d="M43.6834532,5.74717369 L45.6813977,5.31551901 L46.0883864,2.21993834 L47.6176773,2.21993834 L47.6176773,5.31551901 L50.676259,5.31551901 L50.676259,7.04213772 L47.6176773,7.04213772 L47.6176773,12.3206578 C47.6176773,14.0842754 48.0739979,14.4789311 48.7523124,14.676259 C48.7523124,14.676259 50.3556012,15.1079137 50.5035971,15.1079137 L50.5035971,16.4028777 L48.4686536,16.4028777 C46.8406989,16.4028777 45.7060637,15.4039054 45.7060637,12.4439877 L45.7060637,7.02980473 L43.7081192,7.02980473 L43.6834532,5.74717369 L43.6834532,5.74717369 Z" id="Path"></path>
                            <path d="M57.0030832,16.4275437 L55.9177801,19.7081192 L58.0637205,19.7081192 L62.63926,5.34018499 L60.5426516,5.34018499 L57.5950668,14.5899281 C57.5580678,14.5899281 56.6084275,14.8859198 56.2754368,13.7636177 L53.7841727,5.34018499 L51.6998972,5.34018499 L54.2898253,13.9979445 C54.9311408,16.1932169 56.2631038,16.4275437 57.0030832,16.4275437 Z" id="Path"></path>
                            <polygon id="Path" points="66.0308325 1.13463515 70.2363823 13.4059609 73.7636177 1.13463515 75.8972251 1.13463515 74.5652621 5.77183967 77.27852 13.5046249 80.9044193 1.13463515 83.0010277 1.13463515 78.3268243 16.4398767 76.2672148 16.4398767 73.6032888 9.04008222 71.2476876 16.4398767 69.1880781 16.4398767 63.934224 1.13463515 66.0308325 1.13463515"></polygon>
                            <path d="M82.7913669,12.5426516 C82.7913669,10.8900308 83.7903392,9.69373073 85.7142857,9.69373073 C85.7142857,9.69373073 90.0184995,9.71839671 90.0184995,9.69373073 C90.0184995,9.69373073 90.0431655,8.49743063 90.0184995,8.47276465 C90.0184995,7.21479959 89.364851,6.84480987 88.3535457,6.84480987 C86.9845838,6.84480987 84.8756423,6.96813977 83.1490236,7.10380267 L83.1490236,5.78417266 C84.6413155,5.327852 86.4295992,5.13052415 88.5015416,5.11819116 C90.4254882,5.09352518 91.954779,6.0061665 91.954779,8.43576567 L91.954779,16.4275437 L90.4871531,16.4275437 L90.0308325,15.1079137 C89.9691675,15.1695786 87.5519013,16.5385406 85.7142857,16.5385406 C84.012333,16.5138746 82.8036999,15.4162384 82.8036999,13.7266187 L82.8036999,12.5426516 L82.7913669,12.5426516 Z M85.9116136,14.7995889 C87.4779034,14.7995889 90.0184995,13.8006166 90.0184995,13.8006166 L90.0184995,11.0750257 L85.8746146,11.3710175 C85.0113052,11.4450154 84.7153135,12.061665 84.7153135,12.6659815 L84.7153135,13.5662898 C84.7399794,14.5405961 85.2456321,14.7995889 85.9116136,14.7995889 Z" id="Shape"></path>
                            <path d="M94.1253854,0.0616649538 L96.0739979,0.0616649538 L96.0739979,12.3453237 C96.0739979,14.1089414 96.5303186,14.5035971 97.2086331,14.676259 C97.2086331,14.676259 98.8119219,15.1079137 98.9599178,15.1079137 L98.9599178,16.4028777 L96.9619733,16.4028777 C95.2723535,16.4028777 94.1500514,15.4039054 94.1500514,12.4563207 L94.1500514,0.0616649538 L94.1253854,0.0616649538 Z" id="Path"></path>
                            <path d="M100.501542,0.0616649538 L102.450154,0.0616649538 L102.450154,12.3453237 C102.450154,14.1089414 102.906475,14.5035971 103.584789,14.676259 C103.584789,14.676259 105.188078,15.1079137 105.336074,15.1079137 L105.336074,16.4028777 L103.325797,16.4028777 C101.636177,16.4028777 100.513875,15.4039054 100.513875,12.4563207 L100.513875,0.0616649538 L100.501542,0.0616649538 Z" id="Path"></path>
                            <path d="M110.725591,5.26618705 C113.512847,5.26618705 115.116136,5.53751285 115.116136,9.22507708 C115.116136,10.9270298 114.191161,11.8396711 112.168551,11.8396711 L107.778006,11.8396711 C107.778006,14.2939363 108.345324,14.7872559 109.973279,14.7872559 C111.83556,14.7872559 113.352518,14.8119219 114.918808,14.5652621 L114.918808,15.95889 C113.253854,16.4645427 111.268243,16.5508736 109.516958,16.5508736 C106.668037,16.5508736 105.829394,15.1202467 105.829394,10.8406989 C105.841727,5.93216855 107.247688,5.26618705 110.725591,5.26618705 Z M111.983556,10.1500514 C112.822199,10.1500514 113.204522,9.81706064 113.204522,9.18807811 C113.204522,7.2024666 112.846865,7.00513875 110.811922,7.00513875 C108.653649,7.00513875 107.790339,7.04213772 107.815005,10.1623844 L111.983556,10.1500514 L111.983556,10.1500514 Z" id="Shape"></path>
                            <path d="M116.312436,5.74717369 L118.31038,5.31551901 L118.717369,2.21993834 L120.24666,2.21993834 L120.24666,5.31551901 L123.305242,5.31551901 L123.305242,7.04213772 L120.24666,7.04213772 L120.24666,12.3206578 C120.24666,14.0842754 120.70298,14.4789311 121.381295,14.676259 C121.381295,14.676259 122.984584,15.1079137 123.13258,15.1079137 L123.13258,16.4028777 L121.085303,16.4028777 C119.457348,16.4028777 118.322713,15.4039054 118.322713,12.4439877 L118.322713,7.02980473 L116.324769,7.02980473 L116.324769,5.75950668 L116.312436,5.75950668 L116.312436,5.74717369 Z" id="Path"></path>
                        </g>
                        <g id="Group">
                            <g id="Path">
                                <path d="M21.6937307,5.77183967 C21.6443988,5.63617677 21.5334018,5.5991778 21.4840699,5.58684481 C21.4347379,5.57451182 21.299075,5.54984584 21.1757451,5.67317575 L20.5467626,6.30215827 L20.4480987,6.4008222 L15.4285714,1.41829394 C14.5159301,0.505652621 13.294964,0 11.987667,0 C10.692703,0 9.4717369,0.505652621 8.55909558,1.41829394 L1.41829394,8.57142857 C0.49331963,9.49640288 0,10.717369 0,12.012333 C0,13.31963 0.49331963,14.5405961 1.41829394,15.4655704 L8.57142857,22.5817061 C9.48406989,23.4943474 10.705036,24 12,24 C13.294964,24 14.5159301,23.4943474 15.4285714,22.5817061 C15.4285714,22.5817061 17.0441932,20.9660843 17.0565262,20.9537513 C17.2661871,20.7440904 17.5251799,20.4480987 17.6608428,20.065776 C17.7718397,19.7574512 17.8088386,19.4367934 17.7595067,19.1161357 C17.7225077,18.7954779 17.5991778,18.4871531 17.4141829,18.2158273 C17.340185,18.1171634 17.2661871,18.0184995 17.1675231,17.9321686 C16.3782117,17.1551901 15.0955807,17.1551901 14.3062693,17.9445015 L12.5549846,19.6957862 C12.4439877,19.8067831 12.3206578,19.8807811 12.1726619,19.9054471 C12,19.942446 11.9013361,19.9301131 11.7533402,19.8807811 C11.6176773,19.8314491 11.4943474,19.7451182 11.3833505,19.6464543 L4.27954779,12.5426516 C4.16855087,12.4316547 4.09455293,12.2959918 4.06988695,12.1479959 C4.03288798,11.950668 4.06988695,11.7533402 4.16855087,11.5930113 L4.20554985,11.5560123 C4.29188078,11.4696814 11.3710175,4.4028777 11.4326824,4.34121274 C11.5436793,4.23021583 11.6916752,4.15621788 11.8396711,4.11921891 C11.8890031,4.10688592 11.938335,4.10688592 11.987667,4.10688592 C12.1973279,4.10688592 12.3946557,4.19321686 12.5426516,4.34121274 L17.5498458,9.31140802 L17.303186,9.55806783 L16.8098664,10.0513875 C16.6988695,10.1623844 16.7112025,10.2980473 16.7235355,10.3597122 C16.7358684,10.4090442 16.7852004,10.5200411 16.9085303,10.5693731 L21.4224049,11.1243577 C21.6073998,11.1243577 21.7923947,11.0503597 21.9157246,10.9146968 C22.0513875,10.7790339 22.1253854,10.606372 22.1253854,10.4090442 L21.6937307,5.77183967 Z" fill="url(#linearGradient-1)"></path>
                                <path d="M4.24254882,12.4933196 C4.03288798,12.2713258 4.00822199,11.8643371 4.18088386,11.5930113 C4.18088386,11.5930113 1.82528263,14.1582734 2.95991778,16.9948613 L4.45220966,18.4748201 L6.62281603,14.8735868 L4.24254882,12.4933196 Z" fill="url(#linearGradient-2)" opacity="0.49"></path>
                                <path d="M11.5560123,19.8067831 C14.2076053,22.2487153 17.1181912,20.8920863 17.1181912,20.8920863 C17.1181912,20.8920863 17.5005139,20.5344296 17.6608428,20.0781089 C17.2661871,19.8807811 14.4172662,17.8458376 14.4172662,17.8458376 L12.7399794,19.5231244 C12.1356629,20.2384378 11.5560123,19.8067831 11.5560123,19.8067831 Z" fill="url(#linearGradient-3)" opacity="0.49"></path>
                                <path d="M9.81706064,5.96916752 C9.81706064,5.96916752 11.5190134,4.25488181 11.5190134,4.2672148 C11.5190134,4.2672148 11.975334,3.90955807 12.4439877,4.24254882 C12.4439877,4.24254882 9.61973279,1.92394656 6.61048304,3.37923947 L5.72250771,4.2672148 L9.81706064,5.96916752 Z" fill="url(#linearGradient-4)" opacity="0.49"></path>
                            </g>
                            <g transform="translate(17.636177, 0.000000)" id="Path">
                                <path d="M0.431654676,18.2281603 C0.480986639,18.3638232 0.591983556,18.4008222 0.641315519,18.4131552 C0.690647482,18.4254882 0.82631038,18.4501542 0.949640288,18.3268243 L1.57862282,17.6978417 L1.67728674,17.5991778 L6.69681398,22.5817061 C7.60945529,23.4943474 8.83042138,24 10.1377184,24 C11.4326824,24 12.6536485,23.4943474 13.5662898,22.5817061 L20.7070915,15.4285714 C21.6320658,14.5035971 22.1253854,13.282631 22.1253854,11.987667 C22.1253854,10.68037 21.6320658,9.45940391 20.7070915,8.5344296 L13.5539568,1.41829394 C12.6413155,0.505652621 11.4203494,-1.40209872e-14 10.1253854,-1.40209872e-14 C8.83042138,-1.40209872e-14 7.60945529,0.505652621 6.69681398,1.41829394 C6.69681398,1.41829394 5.08119219,3.03391572 5.0688592,3.04624872 C4.85919836,3.25590956 4.60020555,3.55190134 4.46454265,3.93422405 C4.35354573,4.24254882 4.31654676,4.56320658 4.36587873,4.88386434 C4.4028777,5.2045221 4.52620761,5.51284687 4.71120247,5.78417266 C4.78520041,5.88283659 4.85919836,5.98150051 4.95786228,6.06783145 C5.74717369,6.84480987 7.02980473,6.84480987 7.81911614,6.05549846 L9.57040082,4.30421377 C9.68139774,4.19321686 9.80472765,4.11921891 9.95272354,4.09455293 C10.1253854,4.05755396 10.2240493,4.06988695 10.3720452,4.11921891 C10.5077081,4.16855087 10.631038,4.25488181 10.7420349,4.35354573 L17.8458376,11.4573484 C17.9568345,11.5683453 18.0308325,11.7040082 18.0554985,11.8520041 C18.0924974,12.049332 18.0554985,12.2466598 17.9568345,12.4069887 L17.9198356,12.4439877 C17.8335046,12.5303186 10.7543679,19.5971223 10.692703,19.6587873 C10.5817061,19.7697842 10.4337102,19.8437821 10.2857143,19.8807811 C10.2363823,19.8931141 10.1870504,19.8931141 10.1377184,19.8931141 C9.92805755,19.8931141 9.7307297,19.8067831 9.58273381,19.6587873 L4.57553957,14.688592 L4.82219938,14.4419322 L5.31551901,13.9486125 C5.42651593,13.8376156 5.41418294,13.7019527 5.40184995,13.6402878 C5.38951696,13.5909558 5.34018499,13.4799589 5.21685509,13.4306269 L0.702980473,12.8756423 C0.517985612,12.8756423 0.33299075,12.9496403 0.209660843,13.0853032 C0.0739979445,13.2209661 0,13.393628 0,13.5909558 L0.431654676,18.2281603 Z" fill="url(#linearGradient-1)"></path>
                                <path d="M17.8828366,11.5066804 C18.0924974,11.7286742 18.1171634,12.1356629 17.9445015,12.4069887 C17.9445015,12.4069887 20.3001028,9.84172662 19.1654676,7.00513875 L17.6731757,5.52517986 L15.5025694,9.12641316 L17.8828366,11.5066804 Z" fill="url(#linearGradient-5)" opacity="0.49"></path>
                                <path d="M10.5693731,4.19321686 C7.91778006,1.75128469 5.00719424,3.10791367 5.00719424,3.10791367 C5.00719424,3.10791367 4.62487153,3.4655704 4.46454265,3.92189106 C4.85919836,4.11921891 7.70811922,6.15416238 7.70811922,6.15416238 L9.39773895,4.47687564 C9.98972251,3.74922919 10.5693731,4.19321686 10.5693731,4.19321686 Z" fill="url(#linearGradient-6)" opacity="0.49"></path>
                                <path d="M12.3083248,18.0308325 C12.3083248,18.0308325 10.606372,19.7451182 10.606372,19.7327852 C10.606372,19.7327852 10.1500514,20.0904419 9.68139774,19.7574512 C9.68139774,19.7574512 12.5056526,22.0760534 15.5149024,20.6207605 L16.4028777,19.7327852 L12.3083248,18.0308325 Z" fill="url(#linearGradient-7)" opacity="0.49"></path>
                            </g>
                        </g>
                    </g>
                </g>
            </g>
        </g>
    </g>
</svg>
