<svg width="24" height="24" viewBox="0 0 24 24" fill="none" xmlns="http://www.w3.org/2000/svg">
<path d="M23.6249 12C23.624 13.1118 23.2935 14.1984 22.6754 15.1225C22.0572 16.0467 21.1791 16.7669 20.1519 17.1922C19.1246 17.6175 17.9944 17.7289 16.9039 17.5123C15.8134 17.2957 14.8116 16.7607 14.0249 15.975L13.9781 15.9282L8.36244 9.59067C7.88788 9.12518 7.28644 8.81019 6.63355 8.68522C5.98066 8.56025 5.3054 8.63087 4.6925 8.88821C4.07959 9.14555 3.55632 9.57816 3.18834 10.1318C2.82037 10.6854 2.62406 11.3353 2.62406 12C2.62406 12.6648 2.82037 13.3147 3.18834 13.8683C3.55632 14.4219 4.07959 14.8545 4.6925 15.1119C5.3054 15.3692 5.98066 15.4398 6.63355 15.3149C7.28644 15.1899 7.88788 14.8749 8.36244 14.4094L8.65306 14.0813C8.85073 13.8575 9.1292 13.7214 9.42721 13.703C9.72521 13.6845 10.0183 13.7852 10.2421 13.9829C10.4659 14.1805 10.602 14.459 10.6204 14.757C10.6389 15.055 10.5382 15.3481 10.3406 15.5719L10.0218 15.9282L9.97494 15.975C9.45333 16.4977 8.83374 16.9124 8.15166 17.1954C7.46957 17.4783 6.73838 17.624 5.99994 17.624C5.26149 17.624 4.5303 17.4783 3.84822 17.1954C3.16613 16.9124 2.54655 16.4977 2.02494 15.975C1.23926 15.1884 0.704331 14.1866 0.487698 13.0961C0.271065 12.0056 0.38245 10.8753 0.807785 9.84812C1.23312 8.82089 1.95333 7.94275 2.87744 7.3246C3.80156 6.70645 4.88814 6.37602 5.99994 6.37504C6.73891 6.37208 7.47107 6.51647 8.15358 6.79978C8.8361 7.08309 9.45529 7.49963 9.97494 8.02504L10.0218 8.07192L15.6374 14.4094C16.112 14.8749 16.7134 15.1899 17.3663 15.3149C18.0192 15.4398 18.6945 15.3692 19.3074 15.1119C19.9203 14.8545 20.4436 14.4219 20.8115 13.8683C21.1795 13.3147 21.3758 12.6648 21.3758 12C21.3758 11.3353 21.1795 10.6854 20.8115 10.1318C20.4436 9.57816 19.9203 9.14555 19.3074 8.88821C18.6945 8.63087 18.0192 8.56025 17.3663 8.68522C16.7134 8.81019 16.112 9.12518 15.6374 9.59067L15.3468 9.91879C15.1491 10.1426 14.8707 10.2787 14.5727 10.2971C14.2747 10.3156 13.9815 10.2149 13.7577 10.0172C13.534 9.81956 13.3979 9.54109 13.3794 9.24309C13.361 8.94508 13.4616 8.65195 13.6593 8.42817L13.9781 8.07192L14.0249 8.02504C14.8116 7.23937 15.8134 6.70444 16.9039 6.4878C17.9944 6.27117 19.1246 6.38256 20.1519 6.80789C21.1791 7.23323 22.0572 7.95343 22.6754 8.87755C23.2935 9.80167 23.624 10.8882 23.6249 12Z" fill="white"/>
</svg>
