<?xml version="1.0" encoding="UTF-8"?>
<svg width="48px" height="48px" viewBox="0 0 48 48" version="1.1" xmlns="http://www.w3.org/2000/svg" xmlns:xlink="http://www.w3.org/1999/xlink">
    <title>ledger-logo-svg-vector</title>
    <g id="Page-1" stroke="none" stroke-width="1" fill="none" fill-rule="evenodd">
        <g id="FIO_Wallet_ConfirmTransaction" transform="translate(-659.000000, -220.000000)" fill="#FFFFFF" fill-rule="nonzero">
            <g id="ledger-logo-svg-vector" transform="translate(659.000000, 220.000000)">
                <path d="M40.4114977,0 L18.2632375,0 L18.2632375,29.6275446 L47.9879292,29.6275446 L47.9879292,7.70846946 C48,3.54661975 44.5869894,0 40.4114977,0 Z M11.4614221,0 L7.74583964,0 C3.57034796,0 0,3.38979643 0,7.7205328 L0,11.4239759 L11.4614221,11.4239759 L11.4614221,0 Z M0,18.3603921 L11.4614221,18.3603921 L11.4614221,29.7843679 L0,29.7843679 L0,18.3603921 Z M36.5385779,47.9879367 L40.2541604,47.9879367 C44.429652,47.9879367 48,44.5981402 48,40.2674039 L48,36.5760241 L36.5385779,36.5760241 L36.5385779,47.9879367 Z M18.2632375,36.5760241 L29.7246596,36.5760241 L29.7246596,48 L18.2632375,48 L18.2632375,36.5760241 Z M0,36.5760241 L0,40.2794672 C0,44.4413169 3.40090772,48 7.74583964,48 L11.4614221,48 L11.4614221,36.5760241 L0,36.5760241 Z" id="Shape"></path>
            </g>
        </g>
    </g>
</svg>
