<?xml version="1.0" encoding="UTF-8"?>
<svg width="105px" height="26px" viewBox="0 0 105 26" version="1.1" xmlns="http://www.w3.org/2000/svg" xmlns:xlink="http://www.w3.org/1999/xlink">
    <g id="Get-FIO" stroke="none" stroke-width="1" fill="none" fill-rule="evenodd">
        <g id="FIO_WalletView---No-FIO---Partners" transform="translate(-388.000000, -822.000000)" fill-rule="nonzero">
            <g id="Group-2" transform="translate(328.000000, 230.000000)">
                <g id="Group-14" transform="translate(30.000000, 577.000000)">
                    <g id="liquid_logo" transform="translate(30.000000, 15.000000)">
                        <g id="Group" transform="translate(31.984526, 0.000000)" fill="#2C3149">
                            <path d="M3.72147002,0 L3.72147002,15.1876209 C3.72147002,15.9419729 4.32495164,16.5454545 5.07930368,16.5454545 L12.7234043,16.5454545 L12.7234043,20.0154739 L3.67117988,20.0154739 C1.60928433,20.0154739 2.23333065e-15,18.3558994 2.23333065e-15,16.344294 L2.23333065e-15,0 L3.72147002,0 Z" id="Path"></path>
                            <polygon id="Path" points="14.2823985 5.88394584 17.7524178 5.88394584 17.7524178 20.1160542 14.2823985 20.1160542"></polygon>
                            <path d="M16.7969052,3.41972921 L15.1373308,3.41972921 C14.6847195,3.41972921 14.2321083,3.01740812 14.2321083,2.51450677 L14.2321083,0.905222437 C14.2321083,0.402321083 14.6344294,-1.11666532e-16 15.1373308,-1.11666532e-16 L16.7969052,-1.11666532e-16 C17.2495164,-1.11666532e-16 17.7021277,0.402321083 17.7021277,0.905222437 L17.7021277,2.46421663 C17.7524178,3.01740812 17.3500967,3.41972921 16.7969052,3.41972921 Z" id="Path"></path>
                            <path d="M54.5647969,3.41972921 L52.9052224,3.41972921 C52.4526112,3.41972921 52,3.01740812 52,2.51450677 L52,0.905222437 C52,0.402321083 52.4023211,-1.11666532e-16 52.9052224,-1.11666532e-16 L54.5647969,-1.11666532e-16 C55.0174081,-1.11666532e-16 55.4700193,0.402321083 55.4700193,0.905222437 L55.4700193,2.46421663 C55.5203095,3.01740812 55.1179884,3.41972921 54.5647969,3.41972921 Z" id="Path"></path>
                            <path d="M30.9787234,26 L30.9787234,18.4061896 C29.9729207,19.9651838 27.7601547,20.3675048 26.2514507,20.3675048 C21.7756286,20.3675048 19.1605416,17.098646 19.1605416,12.9748549 C19.1605416,8.80077369 22.0270793,5.58220503 26.4023211,5.58220503 C27.9613153,5.58220503 29.8723404,6.28626692 30.9787234,7.84526112 L31.1798839,5.88394584 L34.4487427,5.88394584 L34.4487427,25.8994197 L30.9787234,26 Z M30.6266925,13.0251451 C30.6266925,10.8626692 29.1179884,9.00193424 26.6034816,9.00193424 C24.0889749,9.00193424 22.5802708,10.762089 22.5802708,13.0251451 C22.5802708,15.2882012 24.2398453,17.0483559 26.6034816,17.0483559 C28.967118,17.0483559 30.6266925,15.1876209 30.6266925,13.0251451 Z" id="Shape"></path>
                            <path d="M39.6286267,5.88394584 L39.6286267,13.2765957 C39.6286267,15.3887814 40.7852998,17.0483559 43.0483559,17.0483559 C45.1605416,17.0483559 46.6692456,15.2882012 46.6692456,13.0754352 L46.6692456,5.88394584 L50.139265,5.88394584 L50.139265,20.0154739 L46.9709865,20.0154739 L46.7698259,18.1044487 C45.3617021,19.5628627 43.9535783,20.2166344 41.9922631,20.2166344 C38.6731141,20.2166344 36.1083172,17.7021277 36.1083172,13.2263056 L36.1083172,5.88394584 L39.6286267,5.88394584 Z" id="Path"></path>
                            <polygon id="Path" points="52.0502901 5.88394584 52.0502901 20.1160542 55.5203095 20.1160542 55.5203095 5.88394584"></polygon>
                            <path d="M72.4680851,0 L72.4680851,20.0154739 L69.1992263,20.0154739 L68.9980658,18.0541586 C67.8916828,19.7640232 66.131528,20.3172147 64.4216634,20.3172147 C60.2475822,20.3172147 57.1295938,17.6015474 57.1295938,12.9245648 C57.1295938,8.0967118 60.1972921,5.53191489 64.270793,5.53191489 C65.7794971,5.53191489 68.0928433,6.33655706 68.8974855,7.79497099 L68.8974855,0 L72.4680851,0 Z M60.7001934,13.0251451 C60.7001934,15.4893617 62.4603482,17.1992263 64.7234043,17.1992263 C66.8858801,17.1992263 68.7969052,15.6402321 68.7969052,13.0251451 C68.7969052,10.5609284 66.8858801,8.90135397 64.7234043,8.90135397 C62.4603482,8.85106383 60.7001934,10.410058 60.7001934,13.0251451 Z" id="Shape"></path>
                        </g>
                        <path d="M7.94584139,0.251450677 C7.44294004,0.251450677 7.04061896,0.65377176 7.04061896,1.15667311 L7.04061896,4.9787234 C7.04061896,5.73307544 7.64410058,6.33655706 8.39845261,6.33655706 L11.1644101,6.33655706 C11.9187621,6.33655706 12.5222437,6.94003868 12.5222437,7.69439072 L12.5222437,11.9690522 C12.5222437,12.7234043 13.1257253,13.3268859 13.8800774,13.3268859 L18.1044487,13.3268859 C18.8588008,13.3268859 19.4622824,13.9303675 19.4622824,14.6847195 L19.4622824,17.450677 C19.4622824,18.205029 20.065764,18.8085106 20.8201161,18.8085106 L24.6924565,18.8085106 C25.1953578,18.8085106 25.5976789,18.4061896 25.5976789,17.9032882 L25.5976789,1.15667311 C25.5976789,0.65377176 25.1953578,0.251450677 24.6924565,0.251450677 L7.94584139,0.251450677 Z" id="Path" fill="#0157FF"></path>
                        <path d="M7.19148936,17.5512573 L7.19148936,8.70019342 C7.19148936,7.94584139 6.58800774,7.29206963 5.83365571,7.29206963 L0.905222437,7.29206963 C0.402321083,7.29206963 0,7.69439072 0,8.19729207 L0,24.9941973 C0,25.4970986 0.402321083,25.8994197 0.905222437,25.8994197 L17.7524178,25.8994197 C18.2553191,25.8994197 18.6576402,25.4970986 18.6576402,24.9941973 L18.6576402,20.417795 C18.6576402,19.6634429 18.0541586,19.0096712 17.2998066,19.0096712 L8.59961315,19.0096712 C7.79497099,19.0096712 7.19148936,18.3558994 7.19148936,17.5512573 Z" id="Path" fill="#0157FF"></path>
                    </g>
                </g>
            </g>
        </g>
    </g>
</svg>
