<?xml version="1.0" encoding="UTF-8"?>
<svg width="44px" height="55px" viewBox="0 0 44 55" version="1.1" xmlns="http://www.w3.org/2000/svg" xmlns:xlink="http://www.w3.org/1999/xlink">
    <title>location-pin@1x</title>
    <g id="NEW-Domain-Landing---Post-Creation" stroke="none" stroke-width="1" fill="none" fill-rule="evenodd">
        <g id="FIO-Dashboard-Action-Tiles" transform="translate(-100.000000, -343.000000)" fill="#FFFFFF" fill-rule="nonzero">
            <g id="location-pin" transform="translate(100.000000, 343.000000)">
                <path d="M21.7105263,0 C9.72577221,0.0136393748 0.013601592,9.75278872 0,21.7708344 C0,35.8732934 20.0958345,53.9481276 20.9516863,54.7102214 C21.3842159,55.0965929 22.0368368,55.0965929 22.4693663,54.7102214 C23.3252181,53.9481276 43.4210526,35.8732934 43.4210526,21.7708344 C43.407451,9.75278872 33.6952804,0.0136393748 21.7105263,0 L21.7105263,0 Z M21.7105263,36.6666685 C13.5065735,36.6666685 6.85595568,29.9975764 6.85595568,21.7708344 C6.85595568,13.5440924 13.5065735,6.87500034 21.7105263,6.87500034 C29.9144791,6.87500034 36.565097,13.5440924 36.565097,21.7708344 C36.5556517,29.99365 29.9105636,36.657197 21.7105263,36.6666685 L21.7105263,36.6666685 Z" id="Shape"></path>
            </g>
        </g>
    </g>
</svg>