<?xml version="1.0" encoding="UTF-8"?>
<svg width="335px" height="177px" viewBox="0 0 335 177" version="1.1" xmlns="http://www.w3.org/2000/svg" xmlns:xlink="http://www.w3.org/1999/xlink">
    <title>MappingImage</title>
    <defs>
        <polygon id="path-1" points="0 169.554639 335 169.554639 335 0 0 0"></polygon>
    </defs>
    <g id="NEW-Domain-Landing---Post-Creation" stroke="none" stroke-width="1" fill="none" fill-rule="evenodd">
        <g id="FIO_Dashboard---2023-Revised---Main-Tiles---Suppressed" transform="translate(-225.000000, -569.000000)">
            <g id="Group-12-Copy-2" transform="translate(100.000000, 493.000000)">
                <g id="MappingImage" transform="translate(125.000000, 76.000000)">
                    <g id="g580-Clipped" transform="translate(167.500000, 84.777320) scale(-1, 1) rotate(-180.000000) translate(-167.500000, -84.777320) ">
                        <mask id="mask-2" fill="white">
                            <use xlink:href="#path-1"></use>
                        </mask>
                        <g id="path582"></g>
                        <g id="g580" mask="url(#mask-2)">
                            <g transform="translate(3.304530, 3.311614)">
                                <g id="g586" transform="translate(0.000000, 66.232281)" stroke-linecap="round" stroke-linejoin="round">
                                    <path d="M33.0452967,0 L5.55160985,45.2068434 C2.04550387,50.4656865 0,56.7842461 0,63.5829898 C0,81.8730342 14.7943793,96.6991303 33.0452967,96.6991303 C51.2962141,96.6991303 66.0905934,81.8730342 66.0905934,63.5829898 C66.0905934,56.7842461 64.0450896,50.4656865 60.5389836,45.2068434 L33.0452967,0 Z" id="path588" stroke="#000000" stroke-width="6.60165008"></path>
                                </g>
                                <g id="g590" transform="translate(19.827178, 116.568815)" stroke-linecap="round" stroke-linejoin="round">
                                    <path d="M26.4362374,13.2464562 C26.4362374,5.93110076 20.5178247,0 13.2181187,0 C5.91841264,0 0,5.93110076 0,13.2464562 C0,20.5618116 5.91841264,26.4929124 13.2181187,26.4929124 C20.5178247,26.4929124 26.4362374,20.5618116 26.4362374,13.2464562 Z" id="path592" stroke="#000000" stroke-width="6.60165008"></path>
                                </g>
                                <g id="g594" transform="translate(285.352746, 0.000000)" stroke-linecap="round" stroke-linejoin="round">
                                    <path d="M6.60905934,13.2464562 C10.2605646,13.2464562 13.2181187,10.27925 13.2181187,6.6232281 C13.2181187,2.96389458 10.2605646,0 6.60905934,0 C2.95755406,0 0,2.96389458 0,6.6232281 C0,10.27925 2.95755406,13.2464562 6.60905934,13.2464562 Z" id="path596" stroke="#000000" stroke-width="6.60165008"></path>
                                </g>
                                <g id="g598" transform="translate(258.916509, 13.246456)" stroke-linecap="round" stroke-linejoin="round">
                                    <path d="M33.0452967,0 L5.55160985,43.219875 C2.04550387,48.4787181 0,54.7972777 0,61.5960213 C0,79.8860657 14.7943793,94.7121618 33.0452967,94.7121618 C51.2962141,94.7121618 66.0905934,79.8860657 66.0905934,61.5960213 C66.0905934,54.7972777 64.0450896,48.4787181 60.5389836,43.219875 L33.0452967,0 Z" id="path600" stroke="#000000" stroke-width="6.60165008"></path>
                                </g>
                                <g id="g602" transform="translate(278.743687, 61.596021)" stroke-linecap="round" stroke-linejoin="round">
                                    <path d="M26.4362374,13.2464562 C26.4362374,5.93110076 20.5178247,0 13.2181187,0 C5.91841264,0 0,5.93110076 0,13.2464562 C0,20.5618116 5.91841264,26.4929124 13.2181187,26.4929124 C20.5178247,26.4929124 26.4362374,20.5618116 26.4362374,13.2464562 Z" id="path604" stroke="#000000" stroke-width="6.60165008"></path>
                                </g>
                                <g id="g606" transform="translate(26.436237, 52.985825)" stroke-linecap="round" stroke-linejoin="round">
                                    <path d="M13.2181187,6.6232281 C13.2181187,2.96389458 10.2605646,0 6.60905934,0 C2.95755406,0 0,2.96389458 0,6.6232281 C0,10.27925 2.95755406,13.2464562 6.60905934,13.2464562 C10.2605646,13.2464562 13.2181187,10.27925 13.2181187,6.6232281 Z" id="path608" stroke="#000000" stroke-width="6.60165008"></path>
                                </g>
                                <g id="g610" transform="translate(73.030106, 3.311614)">
                                    <path d="M6.60905934,3.31161405 C6.60905934,1.48260961 5.12962141,0 3.30452967,0 C1.47943793,0 0,1.48260961 0,3.31161405 C0,5.14061849 1.47943793,6.6232281 3.30452967,6.6232281 C5.12962141,6.6232281 6.60905934,5.14061849 6.60905934,3.31161405" id="path612" fill="#000000" fill-rule="nonzero"></path>
                                </g>
                                <g id="g614" transform="translate(15.200836, 6.623228)" stroke-linecap="round" stroke-linejoin="round">
                                    <path d="M24.4535196,52.9858248 L52.8724747,52.9858248 C60.1721808,52.9858248 66.0905934,47.054724 66.0905934,39.7393686 C66.0905934,32.4240132 60.1721808,26.4929124 52.8724747,26.4929124 L13.2181187,26.4929124 C5.91841264,26.4929124 0,20.5618116 0,13.2464562 C0,5.93110076 5.91841264,0 13.2181187,0 L46.2634154,0" id="path616" stroke="#000000" stroke-width="6.60165008"></path>
                                </g>
                                <g id="g618" transform="translate(253.629261, 6.457647)" stroke-linecap="round" stroke-linejoin="round">
                                    <line x1="0" y1="0.5" x2="31.7234848" y2="0.5" id="path620" stroke="#000000" stroke-width="6.60165008"></line>
                                </g>
                            </g>
                        </g>
                    </g>
                    <text id="bob@rulez" font-family="ProximaNova-Light, Proxima Nova" font-size="31.5470852" font-weight="300" fill="#4C186E">
                        <tspan x="93.1690583" y="167.022243">bob@</tspan>
                        <tspan x="171.910583" y="167.022243" font-family="ProximaNova-Extrabld, Proxima Nova" font-weight="700">rulez</tspan>
                    </text>
                </g>
            </g>
        </g>
    </g>
</svg>