<?xml version="1.0" encoding="UTF-8"?>
<svg width="130px" height="34px" viewBox="0 0 130 34" version="1.1" xmlns="http://www.w3.org/2000/svg" xmlns:xlink="http://www.w3.org/1999/xlink">
    <g id="Get-FIO" stroke="none" stroke-width="1" fill="none" fill-rule="evenodd">
        <g id="FIO_WalletView---No-FIO---Partners" transform="translate(-723.000000, -635.000000)" fill-rule="nonzero">
            <g id="Group-2" transform="translate(328.000000, 230.000000)">
                <g id="Group-Copy" transform="translate(365.000000, 395.000000)">
                    <g id="monero-xmr-logo-full" transform="translate(30.000000, 10.000000)">
                        <path d="M17.0000691,0 C7.61301633,0 3.2732503e-15,7.612095 3.2732503e-15,16.9996084 C3.2732503e-15,18.876374 0.304041558,20.6812753 0.86605777,22.3696273 L5.95000115,22.3696273 L5.95000115,8.06631466 L17.0000691,19.1163826 L28.050137,8.06631466 L28.050137,22.3696273 L33.1345411,22.3696273 C33.6965573,20.6812753 34.0005988,18.876374 34.0005988,16.9996084 C34.0005988,7.612095 26.3875825,0 17.0000691,0" id="path22" fill="#FF6600"></path>
                        <path d="M9.63691964,16.8340901 L9.63691964,25.8341808 L2.47351627,25.8341808 C5.45773023,30.7301712 10.8475578,34 16.9997927,34 C23.1520275,34 28.5423158,30.7301712 31.5260691,25.8341808 L24.3631264,25.8341808 L24.3631264,16.8340901 L16.9997927,24.1974238 L9.63691964,16.8340901 Z" id="path26" fill="#4C4C4C"></path>
                        <path d="M125.445566,21.8394894 C124.546801,22.7649734 123.456858,23.2261031 122.175276,23.2261031 C121.042952,23.2261031 120.041918,22.8704667 119.165726,22.1555083 C118.03939,21.2438443 117.476913,20.0023413 117.476913,18.4314599 C117.476913,17.0250374 117.924683,15.8627694 118.820224,14.9506447 C119.71254,14.0352954 120.815381,13.5806151 122.12967,13.5806151 C123.427375,13.5806151 124.530677,14.0486548 125.435892,14.9833522 C126.344792,15.9185104 126.799011,17.0618909 126.799011,18.4148758 C126.799011,19.7715461 126.348477,20.9107806 125.445566,21.8394894 M127.332927,13.1158 C125.890111,11.6642319 124.164906,10.9363748 122.155928,10.9363748 C120.831965,10.9363748 119.594148,11.2694386 118.448464,11.934184 C117.298634,12.59939 116.396183,13.50138 115.741112,14.6410752 C115.08558,15.7803097 114.756662,17.0287227 114.756662,18.3849323 C114.756662,20.410494 115.461025,22.158733 116.871133,23.6314919 C118.279859,25.1065541 120.048828,25.8408605 122.175276,25.8408605 C124.207287,25.8408605 125.936639,25.1263629 127.36241,23.6904575 C128.78818,22.2577768 129.499453,20.5030885 129.499453,18.4314599 C129.499453,16.3432472 128.778046,14.5719748 127.332927,13.1158" id="path30" fill="#4C4C4C"></path>
                        <path d="M109.597446,16.4077409 C109.255169,16.6463674 109.093474,16.763838 108.187798,16.763838 L104.624063,16.763838 L104.624063,13.7151304 L108.077238,13.7151304 C108.769623,13.7151304 108.892161,13.767186 109.175933,13.8740612 C109.458784,13.9777118 109.683591,14.1509233 109.853117,14.3890892 C110.022643,14.6277158 110.105564,14.9110272 110.105564,15.2357989 C110.105564,15.7821523 109.936037,16.1727997 109.597446,16.4077409 M110.025868,19.2145973 C110.969779,18.8755449 111.678288,18.3780223 112.14817,17.7215689 C112.618513,17.0614302 112.85023,16.2451247 112.85023,15.2638997 C112.85023,14.3338089 112.639704,13.5248741 112.214046,12.8440053 C111.788848,12.1631365 111.22545,11.6757486 110.527536,11.3818418 C109.829162,11.087935 108.65722,10.9395995 107.008486,10.9395995 L101.789566,10.9395995 L101.789566,25.8376359 L104.624063,25.8376359 L104.624063,19.5292342 L107.097856,19.5292342 L110.451526,25.8376359 L113.551829,25.8376359 L110.025868,19.2145973 L110.025868,19.2145973 Z" id="path34" fill="#4C4C4C"></path>
                        <polygon id="path38" fill="#4C4C4C" points="89.0833011 10.9363748 98.7426092 10.9363748 98.7426092 13.7119057 91.9007529 13.7119057 91.9007529 16.761074 98.7426092 16.761074 98.7426092 19.4882347 91.9007529 19.4882347 91.9007529 23.0482849 98.7426092 23.0482849 98.7426092 25.8348718 89.0833011 25.8348718"></polygon>
                        <polygon id="path42" fill="#4C4C4C" points="74.1169476 10.9363748 76.8307488 10.9363748 83.2220709 20.7394117 83.2220709 10.9363748 86.0565674 10.9363748 86.0565674 25.8344112 83.3326314 25.8344112 76.9514441 16.0626998 76.9514441 25.8344112 74.1169476 25.8344112 74.1169476 10.9363748"></polygon>
                        <g id="use46" transform="translate(57.146039, 10.936375)" fill="#4C4C4C">
                            <path d="M10.6889034,10.9031145 C9.79013815,11.8285986 8.70019524,12.2897283 7.418614,12.2897283 C6.28628954,12.2897283 5.28525574,11.9340918 4.40906325,11.2191335 C3.28272748,10.3074695 2.7202506,9.06596644 2.7202506,7.49508506 C2.7202506,6.08866252 3.1680209,4.92639457 4.06356148,4.0142699 C4.95587739,3.09892054 6.05871904,2.64424021 7.37300777,2.64424021 C8.67071242,2.64424021 9.77401474,3.11227994 10.6792294,4.0469774 C11.5881294,4.98213552 12.042349,6.12551605 12.042349,7.47850098 C12.042349,8.83517126 11.5918147,9.97440576 10.6889034,10.9031145 M12.5762644,2.17942516 C11.133449,0.727857062 9.40824353,0 7.39926591,0 C6.07530312,0 4.83748545,0.333063706 3.69180158,0.997809112 C2.54197169,1.66301519 1.63952107,2.56500514 0.98444971,3.70470031 C0.328917685,4.84393481 0,6.09234788 0,7.44855749 C0,9.4741192 0.704362942,11.2223582 2.11447083,12.695117 C3.52319672,14.1701793 5.29216578,14.9044857 7.418614,14.9044857 C9.45062508,14.9044857 11.1799766,14.189988 12.6057472,12.7540827 C14.0315179,11.321402 14.7427909,9.56671368 14.7427909,7.49508506 C14.7427909,5.40687237 14.0213832,3.63559996 12.5762644,2.17942516" id="path30"></path>
                        </g>
                        <polygon id="path50" fill="#4C4C4C" points="41.1336902 10.9359602 43.9092211 10.9359602 47.3518007 21.3272715 50.8468966 10.9359602 53.5809673 10.9359602 56.0911528 25.8344572 53.3566215 25.8344572 51.7562573 16.4252924 48.5863937 25.8344572 46.0868036 25.8344572 42.9588609 16.4252924 41.3271712 25.8344572 38.561775 25.8344572"></polygon>
                    </g>
                </g>
            </g>
        </g>
    </g>
</svg>
