<?xml version="1.0" encoding="UTF-8"?>
<svg width="425px" height="207px" viewBox="0 0 425 207" version="1.1" xmlns="http://www.w3.org/2000/svg" xmlns:xlink="http://www.w3.org/1999/xlink">
    <title>Monster Man@1.5x</title>
    <defs>
        <filter x="-20.6%" y="-19.5%" width="141.3%" height="139.1%" filterUnits="objectBoundingBox" id="filter-1">
            <feOffset dx="0" dy="0" in="SourceAlpha" result="shadowOffsetOuter1"></feOffset>
            <feGaussianBlur stdDeviation="20" in="shadowOffsetOuter1" result="shadowBlurOuter1"></feGaussianBlur>
            <feColorMatrix values="0 0 0 0 0   0 0 0 0 0   0 0 0 0 0  0 0 0 0.105980933 0" type="matrix" in="shadowBlurOuter1" result="shadowMatrixOuter1"></feColorMatrix>
            <feMerge>
                <feMergeNode in="shadowMatrixOuter1"></feMergeNode>
                <feMergeNode in="SourceGraphic"></feMergeNode>
            </feMerge>
        </filter>
        <linearGradient x1="50.0192604%" y1="94.4860969%" x2="50.0192604%" y2="3.32040495%" id="linearGradient-2">
            <stop stop-color="#A08AEE" offset="0%"></stop>
            <stop stop-color="#F1BBF2" offset="32.76%"></stop>
            <stop stop-color="#FDFF9B" offset="63.59%"></stop>
            <stop stop-color="#6BEFB7" offset="100%"></stop>
        </linearGradient>
        <linearGradient x1="49.9712825%" y1="97.1140191%" x2="49.9712825%" y2="1.11438562%" id="linearGradient-3">
            <stop stop-color="#A08AEE" offset="0%"></stop>
            <stop stop-color="#F1BBF2" offset="32.76%"></stop>
            <stop stop-color="#FDFF9B" offset="63.59%"></stop>
            <stop stop-color="#6BEFB7" offset="100%"></stop>
        </linearGradient>
    </defs>
    <g id="Monster-Man" stroke="none" stroke-width="1" fill="none" fill-rule="evenodd">
        <g id="Group" filter="url(#filter-1)" transform="translate(25.659345, 81.434000)" fill-rule="nonzero">
            <path d="M330.980089,186.065285 C360.939343,270.520467 311.522712,326.408965 314.607294,303.768675 C317.632635,281.187566 308.199127,274.846897 308.199127,274.846897 C305.292266,271.528607 301.970723,274.846897 301.970723,274.846897 C292.063292,285.632361 280.43585,294.99745 267.443837,302.582988 C256.645759,308.925698 244.899836,314.021498 232.500226,317.637741 C218.202884,321.845806 203.016938,324.096774 187.236545,324.096774 C171.456152,324.096774 156.208923,321.845806 141.911581,317.637741 C129.512584,313.962316 117.766252,308.925698 106.968991,302.582988 C94.036219,294.99745 82.4083678,285.632361 72.4419009,274.846897 C72.4419009,274.846897 69.119541,271.528607 66.2126803,274.846897 C66.2126803,274.846897 56.779989,281.128384 59.8055345,303.768675 C62.8905247,326.408965 13.4726679,270.520467 43.4317176,186.065285 C3.14994202,183.398 45.8640429,132.54612 45.8640429,132.54612 C61.2293447,94.8531177 93.3835542,64.9225883 133.784015,50.6984287 C133.784015,50.6984287 164.633303,2.45505919 187.236545,10.8709862 C187.236545,10.8709862 198.269542,14.6047771 187.295785,41.5121114 C188.24363,39.8525581 199.33791,21.1242175 218.975051,21.9539942 C227.458672,22.3094961 232.026304,32.2072255 226.686505,38.7264618 C225.144214,40.6231525 223.068761,42.7567764 220.458101,45.0681513 C270.172977,55.4399513 310.691305,88.7471371 328.549194,132.486938 C328.549194,132.486938 371.263499,183.398 330.980089,186.065285 Z" id="Path" fill="#A08AEE"></path>
            <path d="M283.282197,75.4546004 C283.282197,75.4546004 326.928039,61.5472179 309.291796,0 C309.291796,0 407.61121,37.8752424 327.34031,133.451613" id="Path" fill="url(#linearGradient-2)"></path>
            <path d="M88.3049242,75.4546004 C88.3049242,75.4546004 44.6599103,61.5472179 62.2949671,0 C62.2949671,0 -36.0241046,37.8752424 44.2470345,133.451613" id="Path" fill="url(#linearGradient-3)"></path>
            <path d="M236.303977,151.810036 C254.446777,151.810036 269.153409,137.110611 269.153409,118.976703 C269.153409,100.842794 254.446777,86.1433692 236.303977,86.1433692 C218.161178,86.1433692 203.454545,100.842794 203.454545,118.976703 C203.454545,137.110611 218.161178,151.810036 236.303977,151.810036 Z" id="Path" fill="#FFFFFF"></path>
            <path d="M236.303977,131.333333 C243.131011,131.333333 248.666667,125.800391 248.666667,118.976703 C248.666667,112.153014 243.131011,106.620072 236.303977,106.620072 C229.476943,106.620072 223.941288,112.153014 223.941288,118.976703 C223.941288,125.800391 229.476943,131.333333 236.303977,131.333333 Z" id="Path" fill="#4C3A8F"></path>
            <path d="M136.696328,151.810036 C154.836921,151.810036 169.545455,137.110611 169.545455,118.976703 C169.545455,100.842794 154.836921,86.1433692 136.696328,86.1433692 C118.553698,86.1433692 103.846591,100.842794 103.846591,118.976703 C103.846591,137.110611 118.553698,151.810036 136.696328,151.810036 Z" id="Path" fill="#FFFFFF"></path>
            <path d="M136.696948,131.333333 C143.524607,131.333333 149.058712,125.800391 149.058712,118.976703 C149.058712,112.153014 143.524607,106.620072 136.696948,106.620072 C129.868467,106.620072 124.333333,112.153014 124.333333,118.976703 C124.333333,125.800391 129.868467,131.333333 136.696948,131.333333 Z" id="Path" fill="#4C3A8F"></path>
        </g>
    </g>
</svg>