<?xml version="1.0" encoding="UTF-8"?>
<svg width="205px" height="115px" viewBox="0 0 205 115" version="1.1" xmlns="http://www.w3.org/2000/svg" xmlns:xlink="http://www.w3.org/1999/xlink">
    <title>Signature_Icon</title>
    <g id="FINAL-PAYMENT-PROFILE" stroke="none" stroke-width="1" fill="none" fill-rule="evenodd">
        <g id="FIO---My-Profile---NFT" transform="translate(-252.000000, -1149.000000)" fill="#FFFFFF" fill-rule="nonzero">
            <g id="Group-5" transform="translate(92.000000, 238.000000)">
                <g id="Group-4-Copy-2" transform="translate(84.000000, 81.000000)">
                    <g id="Competitive-Edge" transform="translate(11.000000, 258.000000)">
                        <g id="Group-2-Copy-3" transform="translate(0.000000, 463.000000)">
                            <g id="Signature_Icon" transform="translate(65.704000, 109.000000)">
                                <g id="Multiple-Signatures" transform="translate(0.000000, 93.368000)">
                                    <polygon id="Path" points="13.824 16.632 16.632 16.632 16.632 0.624 12.672 0.624 8.304 11.4 3.96 0.624 0 0.624 0 16.632 2.808 16.632 2.808 4.512 7.704 16.632 8.904 16.632 13.824 4.512"></polygon>
                                    <path d="M27.792,16.632 L30.312,16.632 L30.312,5.04 L27.792,5.04 L27.792,13.176 C27.192,13.968 26.088,14.688 24.816,14.688 C23.4,14.688 22.488,14.136 22.488,12.336 L22.488,5.04 L19.968,5.04 L19.968,13.248 C19.968,15.624 21.192,16.92 23.688,16.92 C25.512,16.92 26.952,16.032 27.792,15.096 L27.792,16.632 Z" id="Path"></path>
                                    <polygon id="Path" points="33.576 16.632 36.096 16.632 36.096 0.624 33.576 0.624"></polygon>
                                    <path d="M42.84,16.92 C44.016,16.92 44.76,16.608 45.216,16.176 L44.616,14.28 C44.424,14.496 43.968,14.688 43.488,14.688 C42.768,14.688 42.384,14.112 42.384,13.32 L42.384,7.248 L44.736,7.248 L44.736,5.04 L42.384,5.04 L42.384,1.872 L39.864,1.872 L39.864,5.04 L37.944,5.04 L37.944,7.248 L39.864,7.248 L39.864,13.944 C39.864,15.864 40.896,16.92 42.84,16.92 Z" id="Path"></path>
                                    <path d="M48.264,3.12 C49.128,3.12 49.824,2.424 49.824,1.56 C49.824,0.696 49.128,0 48.264,0 C47.424,0 46.704,0.696 46.704,1.56 C46.704,2.424 47.424,3.12 48.264,3.12 Z M47.016,16.632 L49.536,16.632 L49.536,5.04 L47.016,5.04 L47.016,16.632 Z" id="Shape"></path>
                                    <path d="M55.32,21.048 L55.32,15.024 C56.256,16.272 57.576,16.92 59.04,16.92 C62.04,16.92 64.176,14.64 64.176,10.824 C64.176,7.008 62.04,4.752 59.04,4.752 C57.528,4.752 56.184,5.472 55.32,6.624 L55.32,5.04 L52.8,5.04 L52.8,21.048 L55.32,21.048 Z M61.56,10.824 C61.56,13.08 60.288,14.688 58.296,14.688 C57.12,14.688 55.872,13.968 55.32,13.128 L55.32,8.544 C55.872,7.68 57.12,6.984 58.296,6.984 C60.288,6.984 61.56,8.592 61.56,10.824 Z" id="Shape"></path>
                                    <polygon id="Path" points="66.72 16.632 69.24 16.632 69.24 0.624 66.72 0.624"></polygon>
                                    <path d="M71.784,10.824 C71.784,14.496 74.376,16.92 77.856,16.92 C79.704,16.92 81.408,16.344 82.56,15.24 L81.408,13.584 C80.592,14.4 79.248,14.856 78.12,14.856 C75.936,14.856 74.616,13.416 74.424,11.664 L83.376,11.664 L83.376,11.064 C83.376,7.416 81.144,4.752 77.664,4.752 C74.232,4.752 71.784,7.464 71.784,10.824 Z M77.664,6.816 C79.944,6.816 80.88,8.52 80.928,9.888 L74.4,9.888 C74.52,8.472 75.504,6.816 77.664,6.816 Z" id="Shape"></path>
                                    <path d="M91.08,14.376 C92.496,15.888 94.632,16.92 97.584,16.92 C101.904,16.92 103.776,14.64 103.776,11.976 C103.776,8.496 100.632,7.68 97.992,7.008 C96.096,6.528 94.464,6.12 94.464,4.872 C94.464,3.672 95.52,2.88 97.176,2.88 C98.856,2.88 100.56,3.456 101.808,4.704 L103.416,2.616 C101.928,1.176 99.912,0.384 97.416,0.384 C93.912,0.384 91.584,2.424 91.584,5.064 C91.584,8.448 94.656,9.216 97.272,9.864 C99.216,10.368 100.92,10.8 100.92,12.24 C100.92,13.296 100.008,14.424 97.704,14.424 C95.472,14.424 93.744,13.392 92.64,12.216 L91.08,14.376 Z" id="Path"></path>
                                    <path d="M107.544,3.12 C108.408,3.12 109.104,2.424 109.104,1.56 C109.104,0.696 108.408,0 107.544,0 C106.704,0 105.984,0.696 105.984,1.56 C105.984,2.424 106.704,3.12 107.544,3.12 Z M106.296,16.632 L108.816,16.632 L108.816,5.04 L106.296,5.04 L106.296,16.632 Z" id="Shape"></path>
                                    <path d="M111.936,19.608 C113.352,20.904 114.816,21.336 116.784,21.336 C119.64,21.336 122.736,20.208 122.736,16.032 L122.736,5.04 L120.216,5.04 L120.216,6.648 C119.28,5.424 117.96,4.752 116.496,4.752 C113.52,4.752 111.36,6.96 111.36,10.704 C111.36,14.52 113.544,16.656 116.496,16.656 C118.008,16.656 119.328,15.888 120.216,14.736 L120.216,16.128 C120.216,18.504 118.44,19.272 116.784,19.272 C115.248,19.272 114.048,18.864 113.112,17.784 L111.936,19.608 Z M120.216,12.864 C119.664,13.728 118.416,14.424 117.24,14.424 C115.248,14.424 113.976,12.936 113.976,10.704 C113.976,8.472 115.248,6.984 117.24,6.984 C118.416,6.984 119.664,7.68 120.216,8.544 L120.216,12.864 Z" id="Shape"></path>
                                    <path d="M133.824,16.632 L136.344,16.632 L136.344,8.472 C136.344,6.096 135.096,4.752 132.6,4.752 C130.776,4.752 129.288,5.712 128.52,6.624 L128.52,5.04 L126,5.04 L126,16.632 L128.52,16.632 L128.52,8.544 C129.096,7.752 130.2,6.984 131.496,6.984 C132.912,6.984 133.824,7.584 133.824,9.384 L133.824,16.632 Z" id="Path"></path>
                                    <path d="M146.688,16.632 L149.208,16.632 L149.208,8.952 C149.208,5.832 146.952,4.752 144.384,4.752 C142.536,4.752 140.856,5.352 139.512,6.624 L140.544,8.376 C141.552,7.392 142.68,6.912 143.976,6.912 C145.584,6.912 146.688,7.728 146.688,9.072 L146.688,10.8 C145.848,9.816 144.504,9.312 142.944,9.312 C141.048,9.312 138.912,10.416 138.912,13.08 C138.912,15.648 141.048,16.92 142.944,16.92 C144.48,16.92 145.824,16.368 146.688,15.384 L146.688,16.632 Z M146.688,13.992 C146.112,14.784 145.032,15.192 143.928,15.192 C142.512,15.192 141.456,14.376 141.456,13.128 C141.456,11.856 142.512,11.04 143.928,11.04 C145.032,11.04 146.112,11.448 146.688,12.24 L146.688,13.992 Z" id="Shape"></path>
                                    <path d="M155.952,16.92 C157.128,16.92 157.872,16.608 158.328,16.176 L157.728,14.28 C157.536,14.496 157.08,14.688 156.6,14.688 C155.88,14.688 155.496,14.112 155.496,13.32 L155.496,7.248 L157.848,7.248 L157.848,5.04 L155.496,5.04 L155.496,1.872 L152.976,1.872 L152.976,5.04 L151.056,5.04 L151.056,7.248 L152.976,7.248 L152.976,13.944 C152.976,15.864 154.008,16.92 155.952,16.92 Z" id="Path"></path>
                                    <path d="M167.952,16.632 L170.472,16.632 L170.472,5.04 L167.952,5.04 L167.952,13.176 C167.352,13.968 166.248,14.688 164.976,14.688 C163.56,14.688 162.648,14.136 162.648,12.336 L162.648,5.04 L160.128,5.04 L160.128,13.248 C160.128,15.624 161.352,16.92 163.848,16.92 C165.672,16.92 167.112,16.032 167.952,15.096 L167.952,16.632 Z" id="Path"></path>
                                    <path d="M173.736,16.632 L176.256,16.632 L176.256,8.736 C176.76,7.92 178.176,7.2 179.232,7.2 C179.544,7.2 179.808,7.224 180.024,7.272 L180.024,4.776 C178.512,4.776 177.12,5.64 176.256,6.744 L176.256,5.04 L173.736,5.04 L173.736,16.632 Z" id="Path"></path>
                                    <path d="M181.344,10.824 C181.344,14.496 183.936,16.92 187.416,16.92 C189.264,16.92 190.968,16.344 192.12,15.24 L190.968,13.584 C190.152,14.4 188.808,14.856 187.68,14.856 C185.496,14.856 184.176,13.416 183.984,11.664 L192.936,11.664 L192.936,11.064 C192.936,7.416 190.704,4.752 187.224,4.752 C183.792,4.752 181.344,7.464 181.344,10.824 Z M187.224,6.816 C189.504,6.816 190.44,8.52 190.488,9.888 L183.96,9.888 C184.08,8.472 185.064,6.816 187.224,6.816 Z" id="Shape"></path>
                                    <path d="M194.424,15.12 C195.624,16.296 197.424,16.92 199.392,16.92 C202.512,16.92 204.216,15.36 204.216,13.32 C204.216,10.584 201.744,10.008 199.728,9.576 C198.36,9.264 197.208,8.952 197.208,8.064 C197.208,7.248 198.048,6.768 199.368,6.768 C200.808,6.768 202.104,7.368 202.8,8.16 L203.856,6.384 C202.8,5.448 201.312,4.752 199.344,4.752 C196.416,4.752 194.784,6.384 194.784,8.28 C194.784,10.872 197.16,11.4 199.152,11.832 C200.568,12.144 201.792,12.504 201.792,13.512 C201.792,14.376 201.024,14.928 199.512,14.928 C198,14.928 196.392,14.136 195.576,13.296 L194.424,15.12 Z" id="Path"></path>
                                </g>
                                <g id="signature-solid" transform="translate(53.296000, 0.000000)">
                                    <path d="M29.172,14.5714286 C29.172,11.8848214 31.3447062,9.71428571 34.034,9.71428571 C36.7232937,9.71428571 38.896,11.8848214 38.896,14.5714286 L38.896,15.7553571 C38.896,19.9598214 38.53135,24.1491071 37.8172437,28.2776786 L24.9937187,32.1178571 C18.8250562,33.9696429 14.6011938,39.6464286 14.6011938,46.0821429 L14.6011938,56.9955357 C14.6011938,63.0669643 19.5391625,68 25.6166625,68 C29.5670375,68 33.2135375,65.8901786 35.1735312,62.4598214 L37.2854625,58.7714286 C41.3573875,51.6375 44.3505562,43.9419643 46.1586125,35.9276786 L60.5015125,31.6321429 L58.6022937,37.3241071 C58.1009,38.8116071 58.3591937,40.4357143 59.2708187,41.6955357 C60.1824437,42.9553571 61.6562375,43.7142857 63.2211937,43.7142857 L82.654,43.7142857 C85.3432937,43.7142857 87.516,41.54375 87.516,38.8571429 C87.516,36.1705357 85.3432937,34 82.654,34 L69.952025,34 L72.6869,25.81875 C73.2642625,24.1035714 72.8236437,22.20625 71.5625625,20.9008929 C70.3014812,19.5955357 68.4174562,19.1098214 66.670175,19.6258929 L48.073025,25.2116071 C48.437675,22.0696429 48.62,18.9276786 48.62,15.7553571 L48.62,14.5714286 C48.62,6.52678571 42.0866875,0 34.034,0 C25.9813125,0 19.448,6.52678571 19.448,14.5714286 L19.448,19.4285714 C19.448,22.1151786 21.6207063,24.2857143 24.31,24.2857143 C26.9992937,24.2857143 29.172,22.1151786 29.172,19.4285714 L29.172,14.5714286 Z M27.774175,41.4375 L35.2191125,39.20625 C33.6389625,44.3366071 31.4966437,49.2848214 28.8225437,53.9598214 L26.7106125,57.6482143 C26.4827062,58.0428571 26.0572812,58.3008929 25.586275,58.3008929 C24.8721688,58.3008929 24.2948063,57.7241071 24.2948063,57.0107143 L24.2948063,46.0821429 C24.2948063,43.9419643 25.707825,42.0446429 27.7589812,41.4223214 L27.774175,41.4375 Z M3.6465,51 C1.62573125,51 0,52.6241071 0,54.6428571 C0,56.6616071 1.62573125,58.2857143 3.6465,58.2857143 L9.76958125,58.2857143 C9.73919375,57.8607143 9.724,57.4357143 9.724,56.9955357 L9.724,51 L3.6465,51 Z M93.5935,58.2857143 C95.6142687,58.2857143 97.24,56.6616071 97.24,54.6428571 C97.24,52.6241071 95.6142687,51 93.5935,51 L46.4776813,51 C45.4597,53.4741071 44.3201688,55.9026786 43.089475,58.2857143 L93.5935,58.2857143 Z" id="Shape"></path>
                                </g>
                            </g>
                        </g>
                    </g>
                </g>
            </g>
        </g>
    </g>
</svg>