<?xml version="1.0" encoding="UTF-8"?>
<svg width="55px" height="55px" viewBox="0 0 55 55" version="1.1" xmlns="http://www.w3.org/2000/svg" xmlns:xlink="http://www.w3.org/1999/xlink">
    <title>network@1x</title>
    <g id="NEW-Domain-Landing---Post-Creation" stroke="none" stroke-width="1" fill="none" fill-rule="evenodd">
        <g id="FIO-Dashboard-Action-Tiles" transform="translate(-100.000000, -849.000000)" fill="#FFFFFF" fill-rule="nonzero">
            <g id="network" transform="translate(100.000000, 849.000000)">
                <path d="M16.476582,21.740791 C16.2124316,19.7692773 14.5314941,18.2928711 12.5326953,18.2928711 C10.4814746,18.2928711 8.79194336,19.8167578 8.57581055,21.8482129 L8.57581055,24.248877 C9.78688477,24.6444043 11.0788477,24.8591406 12.4202246,24.8591406 C13.840127,24.8591406 15.204707,24.6188379 16.476582,24.1777637 L16.476582,21.740791 Z" id="Path"></path>
                <path d="M14.609375,12.9903125 C14.609375,11.8434766 13.6778125,10.9105176 12.5326953,10.9105176 C11.3875781,10.9105176 10.4560156,11.8434766 10.4560156,12.9903125 C10.4560156,14.1371484 11.3875781,15.0701074 12.5326953,15.0701074 C13.6778125,15.0701074 14.609375,14.1371484 14.609375,12.9903125 L14.609375,12.9903125 Z" id="Path"></path>
                <path d="M55,12.4295703 C55,5.57583984 49.4282422,0 42.579668,0 C35.7310937,0 30.1593359,5.57583984 30.1593359,12.4295703 C30.1593359,14.5630762 30.6994531,16.5727246 31.6498145,18.3288574 L27.5296484,22.4490234 L23.3705957,18.2899707 C24.307959,16.5429688 24.8405566,14.5473926 24.8405566,12.4295703 C24.8406641,5.57583984 19.2689063,0 12.420332,0 C5.57175781,0 0,5.57583984 0,12.4295703 C0,16.6574805 2.12083008,20.3984473 5.3531543,22.6448535 L5.3531543,21.7697949 C5.3531543,21.7215625 5.35530273,21.6733301 5.35970703,21.6252051 C5.52051758,19.8398535 6.33756836,18.1866309 7.66025391,16.9699707 C7.90582031,16.7440625 8.16513672,16.5372754 8.43583984,16.349502 C7.68496094,15.4342676 7.2334668,14.2641211 7.2334668,12.9903125 C7.2334668,10.0665039 9.61071289,7.68786133 12.5328027,7.68786133 C15.4548926,7.68786133 17.8320313,10.0665039 17.8320313,12.9903125 C17.8320313,14.2636914 17.3808594,15.4334082 16.6304102,16.3485352 C18.2877148,17.4954785 19.447334,19.323584 19.6890332,21.4611719 C19.6958008,21.5213281 19.6992383,21.5816992 19.6992383,21.6422852 L19.6992383,22.494248 C20.3352832,22.032334 20.9259961,21.5116602 21.4634277,20.9401758 L25.9183203,25.3950684 L25.9183203,30.2453809 C19.828252,31.0384766 15.1094238,36.2631543 15.1094238,42.5704297 C15.1094238,46.7478516 17.1794434,50.4505762 20.3468848,52.7053613 L20.3468848,51.8422266 C20.3468848,51.7981836 20.3487109,51.7541406 20.3522559,51.7102051 C20.5000684,49.9125 21.311748,48.2456348 22.6377637,47.0167285 C22.8891309,46.7837305 23.1548926,46.5706055 23.4326855,46.3778906 C22.6818066,45.4626563 22.2304199,44.2926172 22.2304199,43.0188086 C22.2304199,40.095 24.607666,37.7163574 27.5297559,37.7163574 C30.4518457,37.7163574 32.8290918,40.0951074 32.8290918,43.0188086 C32.8290918,44.2925098 32.3777051,45.4626563 31.6268262,46.3778906 C31.9046191,46.5706055 32.1703809,46.7837305 32.421748,47.0167285 C33.7477637,48.2456348 34.5594434,49.9126074 34.7071484,51.7102051 C34.7108008,51.7541406 34.7125195,51.7981836 34.7125195,51.8422266 L34.7125195,52.7053613 C37.8799609,50.4506836 39.9499805,46.747959 39.9499805,42.5704297 C39.9499805,36.2631543 35.2310449,31.0383691 29.1409766,30.2453809 L29.1409766,25.3950684 L33.5651465,20.9710059 C34.1242773,21.5617187 34.7404492,22.0978613 35.4050684,22.5700879 L35.4050684,21.7060938 C35.4050684,21.6517383 35.4077539,21.5974902 35.4133398,21.5433496 C35.6344141,19.3653711 36.7986523,17.5039648 38.4783008,16.3437012 C37.7302148,15.4293262 37.2804395,14.2614355 37.2804395,12.9903125 C37.2804395,10.0665039 39.6576855,7.68786133 42.5797754,7.68786133 C45.5018652,7.68786133 47.8791113,10.0665039 47.8791113,12.9903125 C47.8791113,14.2614355 47.4294434,15.4293262 46.68125,16.3437012 C48.3608984,17.5039648 49.5251367,19.3653711 49.7462109,21.5433496 C49.7516895,21.5973828 49.7544824,21.6517383 49.7544824,21.7060938 L49.7544824,22.5700879 C52.9263281,20.3159473 55,16.6105371 55,12.4295703 L55,12.4295703 Z" id="Path"></path>
                <path d="M46.5317188,21.7943945 C46.291416,19.7929102 44.6054297,18.2927637 42.579668,18.2927637 C40.5539063,18.2927637 38.8679199,19.7929102 38.6276172,21.7943945 L38.6276172,24.21375 C39.8696289,24.6319434 41.1985449,24.8590332 42.579668,24.8590332 C43.960791,24.8590332 45.289707,24.6320508 46.5317188,24.21375 L46.5317188,21.7943945 Z" id="Path"></path>
                <path d="M44.6563477,12.9903125 C44.6563477,11.8434766 43.7247852,10.9105176 42.579668,10.9105176 C41.4345508,10.9105176 40.5029883,11.8434766 40.5029883,12.9903125 C40.5029883,14.1371484 41.4345508,15.0701074 42.579668,15.0701074 C43.7247852,15.0701074 44.6563477,14.1371484 44.6563477,12.9903125 L44.6563477,12.9903125 Z" id="Path"></path>
                <path d="M31.4899707,51.9139844 C31.2927441,49.8944531 29.5649707,48.3212598 27.5297559,48.3212598 C25.4946484,48.3212598 23.766875,49.8944531 23.569541,51.9139844 L23.569541,54.3520313 C24.8138086,54.7720508 26.145625,55 27.5297559,55 C28.9138867,55 30.2455957,54.7720508 31.4899707,54.3520313 L31.4899707,51.9139844 Z" id="Path"></path>
                <path d="M29.6064355,43.0188086 C29.6064355,41.8719727 28.674873,40.9390137 27.5297559,40.9390137 C26.3846387,40.9390137 25.4530762,41.8720801 25.4530762,43.0188086 C25.4530762,44.1655371 26.3846387,45.0986035 27.5297559,45.0986035 C28.674873,45.0986035 29.6064355,44.1656445 29.6064355,43.0188086 Z" id="Path"></path>
            </g>
        </g>
    </g>
</svg>