<?xml version="1.0" encoding="UTF-8"?>
<svg width="55px" height="55px" viewBox="0 0 55 55" version="1.1" xmlns="http://www.w3.org/2000/svg" xmlns:xlink="http://www.w3.org/1999/xlink">
    <title>Group 8</title>
    <defs>
        <path d="M0.583333336,12.2500001 L13.4166667,12.2500001 L7.00000003,1.16666667 L0.583333336,12.2500001 L0.583333336,12.2500001 Z M7.58333336,10.5 L6.41666669,10.5 L6.41666669,9.33333337 L7.58333336,9.33333337 L7.58333336,10.5 L7.58333336,10.5 Z M7.58333336,8.1666667 L6.41666669,8.1666667 L6.41666669,5.83333336 L7.58333336,5.83333336 L7.58333336,8.1666667 L7.58333336,8.1666667 Z" id="path-1"></path>
    </defs>
    <g id="NEW-Domain-Landing---Post-Creation" stroke="none" stroke-width="1" fill="none" fill-rule="evenodd">
        <g id="FIO-Dashboard-Action-Tiles" transform="translate(-100.000000, -1355.000000)">
            <g id="Group-8" transform="translate(100.000000, 1355.000000)">
                <g id="change" fill="#FFFFFF" fill-rule="nonzero">
                    <path d="M3.4375,27.5 C3.4375,14.2106422 14.2106422,3.4375 27.5,3.4375 C34.4860312,3.4375 40.7773438,6.41356719 45.1751094,11.171875 L41.0109219,11.171875 C40.0616563,11.171875 39.2921719,11.9413938 39.2921719,12.890625 C39.2921719,13.8398562 40.0616563,14.609375 41.0109219,14.609375 L48.7452969,14.609375 C49.6945625,14.609375 50.4640469,13.8398562 50.4640469,12.890625 L50.4640469,5.15625 C50.4640469,4.20701875 49.6945625,3.4375 48.7452969,3.4375 C47.7960313,3.4375 47.0265469,4.20701875 47.0265469,5.15625 L47.0265469,8.13620156 C42.0452656,3.11355 35.1364063,0 27.5,0 C12.3121625,0 0,12.3121625 0,27.5 C0,42.6879063 12.3121625,55 27.5,55 C42.6879063,55 55,42.6879063 55,27.5 C55,26.5507344 54.2305156,25.78125 53.28125,25.78125 C52.3319844,25.78125 51.5625,26.5507344 51.5625,27.5 C51.5625,40.789375 40.789375,51.5625 27.5,51.5625 C14.2106422,51.5625 3.4375,40.789375 3.4375,27.5 Z" id="Path"></path>
                    <path d="M13.75,18.90625 C10.9022891,18.90625 8.59375,21.2147031 8.59375,24.0625 L8.59375,30.9375 C8.59375,33.7852969 10.9022891,36.09375 13.75,36.09375 L27.5,36.09375 C28.4492656,36.09375 29.21875,35.3242656 29.21875,34.375 C29.21875,33.4257344 28.4492656,32.65625 27.5,32.65625 L13.75,32.65625 C12.8007687,32.65625 12.03125,31.8867656 12.03125,30.9375 L12.03125,24.0625 C12.03125,23.1132344 12.8007687,22.34375 13.75,22.34375 L41.25,22.34375 C42.1992656,22.34375 42.96875,23.1132344 42.96875,24.0625 L42.96875,34.375 C42.96875,35.3242656 43.7382344,36.09375 44.6875,36.09375 C45.6367656,36.09375 46.40625,35.3242656 46.40625,34.375 L46.40625,24.0625 C46.40625,21.2147031 44.0977969,18.90625 41.25,18.90625 L13.75,18.90625 Z" id="Path"></path>
                    <path d="M20.625,27.5 C20.625,29.3985313 19.0860312,30.9375 17.1875,30.9375 C15.2890203,30.9375 13.75,29.3985313 13.75,27.5 C13.75,25.6014687 15.2890203,24.0625 17.1875,24.0625 C19.0860312,24.0625 20.625,25.6014688 20.625,27.5 Z" id="Path"></path>
                    <path d="M27.5,30.9375 C29.3985313,30.9375 30.9375,29.3985313 30.9375,27.5 C30.9375,25.6014687 29.3985313,24.0625 27.5,24.0625 C25.6014687,24.0625 24.0625,25.6014688 24.0625,27.5 C24.0625,29.3985312 25.6014688,30.9375 27.5,30.9375 Z" id="Path"></path>
                    <path d="M41.25,27.5 C41.25,29.3985313 39.7110313,30.9375 37.8125,30.9375 C35.9139687,30.9375 34.375,29.3985313 34.375,27.5 C34.375,25.6014687 35.9139687,24.0625 37.8125,24.0625 C39.7110313,24.0625 41.25,25.6014688 41.25,27.5 Z" id="Path"></path>
                </g>
                <g id="warning" transform="translate(27.500000, 31.500000)">
                    <polygon id="Base" points="-3.55271368e-15 0 14.0000001 0 14.0000001 14.0000001 -3.55271368e-15 14.0000001"></polygon>
                    <mask id="mask-2" fill="white">
                        <use xlink:href="#path-1"></use>
                    </mask>
                    <g id="Icon" fill-rule="nonzero"></g>
                    <rect id="↳-🎨-Color" fill="#D40000" mask="url(#mask-2)" x="2.91666531e-08" y="2.91668876e-08" width="14" height="14"></rect>
                </g>
            </g>
        </g>
    </g>
</svg>