<?xml version="1.0" encoding="UTF-8"?>
<svg width="55px" height="55px" viewBox="0 0 55 55" version="1.1" xmlns="http://www.w3.org/2000/svg" xmlns:xlink="http://www.w3.org/1999/xlink">
    <title>Group 31@1x</title>
    <g id="NEW-Domain-Landing---Post-Creation" stroke="none" stroke-width="1" fill="none" fill-rule="evenodd">
        <g id="FIO-Dashboard-Action-Tiles" transform="translate(-495.000000, -1102.000000)" fill-rule="nonzero">
            <g id="Group-5-Copy-4" transform="translate(100.000000, 1102.000000)">
                <g id="Group-30" transform="translate(395.000000, 0.000000)">
                    <path d="M55,27.5 C55,42.686985 42.686985,55 27.5,55 C12.313015,55 0,42.686985 0,27.5 C0,12.313015 12.313015,0 27.5,0 C42.690175,0 55,12.313015 55,27.5 Z" id="Path" fill="#FFFFFF"></path>
                    <path d="M13.4456205,28.4940338 L13.564487,28.3049447 L20.7322929,16.9585978 C20.8370518,16.7924827 21.0833263,16.8096574 21.1625706,16.9901034 C22.3600522,19.7056586 23.3933139,23.0829419 22.9092515,25.1855051 C22.7025991,26.0505973 22.1364268,27.2221576 21.4994415,28.3049447 C21.4173868,28.4625282 21.3267904,28.6172121 21.2305179,28.7661525 C21.1852197,28.8349071 21.1087859,28.875 21.026676,28.875 L13.6550834,28.875 C13.4569175,28.875 13.3408616,28.657305 13.4456205,28.4940338 Z" id="Path" fill="#2B2B2E"></path>
                    <path d="M45.375,30.5545236 L45.375,32.3306485 C45.375,32.4326093 45.3126175,32.5232656 45.2218593,32.5629139 C44.6660478,32.8008592 42.7631058,33.6733435 41.9718971,34.7724687 C39.9526918,37.5797265 38.4099672,41.59375 34.96143,41.59375 L20.5747025,41.59375 C15.4757344,41.59375 11.34375,37.4522893 11.34375,32.341953 L11.34375,32.1776797 C11.34375,32.0416953 11.4543271,31.9312423 11.5904645,31.9312423 L19.6105342,31.9312423 C19.7693059,31.9312423 19.8855692,32.0785313 19.8714366,32.2343124 C19.8146851,32.755531 19.9111295,33.2881093 20.157844,33.772492 C20.6342695,34.7385001 21.6211826,35.341883 22.6874816,35.341883 L26.6578235,35.341883 L26.6578235,32.245672 L22.7328607,32.245672 C22.5315254,32.245672 22.4124466,32.0133514 22.5287099,31.8490782 C22.5712183,31.7838983 22.6194681,31.7159612 22.6704782,31.6394768 C23.0420129,31.1125783 23.5723193,30.2939142 24.0998102,29.3619298 C24.4599724,28.7330705 24.8087623,28.0616954 25.0895387,27.387508 C25.1462903,27.2656955 25.1916142,27.1410155 25.2369933,27.0192029 C25.3135637,26.8039217 25.3930047,26.6028125 25.449701,26.4017033 C25.5064525,26.2316951 25.5517764,26.0532499 25.5971556,25.8861092 C25.7304774,25.3138826 25.7871737,24.7076874 25.7871737,24.0788281 C25.7871737,23.8323907 25.7758566,23.5745937 25.753167,23.3281563 C25.7417946,23.0590548 25.7077879,22.7898982 25.6737259,22.5207967 C25.6510364,22.2828515 25.608528,22.0477185 25.5631488,21.8012811 C25.5064525,21.4415234 25.4270115,21.084633 25.3362532,20.7248201 L25.305062,20.5888908 C25.2369933,20.3423982 25.180297,20.1073204 25.1009111,19.860883 C24.876831,19.087492 24.6187994,18.3340079 24.3465246,17.6286642 C24.2472647,17.3482031 24.1338169,17.0791016 24.0203691,16.8100002 C23.8530957,16.4049142 23.6828964,16.0366643 23.5269401,15.688211 C23.4475543,15.5295624 23.3794856,15.3850858 23.3114169,15.2377968 C23.2348466,15.0706561 23.1554607,14.9035155 23.0760196,14.744922 C23.0193233,14.6231095 22.9540701,14.5097891 22.908691,14.3964687 L22.4237638,13.5013203 C22.3556951,13.3795078 22.4691429,13.2350311 22.6024095,13.2718672 L25.6369037,14.0933435 L25.6454054,14.0933435 C25.6510364,14.0933435 25.6539071,14.096211 25.6567226,14.096211 L26.0565778,14.2066639 L26.4961811,14.331344 L26.6578235,14.376617 L26.6578235,12.5750157 C26.6578235,11.7053436 27.3554585,11 28.2176066,11 C28.6486531,11 29.0400066,11.1756328 29.320783,11.4617186 C29.6015043,11.7478595 29.7773345,12.1387735 29.7773345,12.5750157 L29.7773345,15.2491565 L30.1006746,15.3397576 C30.1261796,15.3483049 30.1516847,15.3596094 30.1743743,15.3765936 C30.2538153,15.4360937 30.3672079,15.5238826 30.511847,15.6315783 C30.6252948,15.7221795 30.7472443,15.8326876 30.8946988,15.946008 C31.1867924,16.1810858 31.5356375,16.4842109 31.9184894,16.8326642 C32.0205648,16.9204531 32.1198247,17.0111094 32.2105829,17.1017657 C32.7040671,17.560672 33.257063,18.0988749 33.7845539,18.6937657 C33.9320085,18.8609064 34.0766475,19.0308594 34.2241021,19.2093045 C34.3715566,19.3906172 34.527568,19.5690623 34.6636502,19.7475626 C34.8423512,19.9855079 35.0351849,20.2319453 35.2025135,20.4897423 C35.2818993,20.6115548 35.3726576,20.7361797 35.449228,20.8579922 C35.6647512,21.1837263 35.8547694,21.5208752 36.0362858,21.8579689 C36.1128562,22.01375 36.1922421,22.183703 36.2603108,22.3508437 C36.4616461,22.8012578 36.620473,23.2601641 36.7225484,23.7190703 C36.7537397,23.8182188 36.7764293,23.9258594 36.7878016,24.0221955 L36.7878016,24.0448596 C36.8218084,24.1807889 36.8331808,24.3252655 36.8444979,24.4725545 C36.8898771,24.9428203 36.8671875,25.413031 36.7651121,25.8861092 C36.7225484,26.0872736 36.6658521,26.2770233 36.5977835,26.4781876 C36.5297148,26.6708047 36.4616461,26.871914 36.3737586,27.0617187 C36.2036145,27.4554451 36.0022239,27.8492266 35.7640111,28.2174765 C35.6874407,28.353461 35.5966825,28.4979376 35.5059243,28.6339221 C35.4066643,28.7783435 35.3045889,28.914328 35.2138307,29.0475002 C35.0890657,29.2174532 34.955799,29.3958984 34.8196616,29.5545469 C34.6977122,29.7216876 34.5729472,29.8888283 34.4368098,30.0361172 C34.2467916,30.2598906 34.0652751,30.4723594 33.875257,30.6763361 C33.7618644,30.8094531 33.6399149,30.9454376 33.5150947,31.0672501 C33.3932004,31.2031795 33.2683802,31.324992 33.1549324,31.4383124 C32.9649694,31.6281172 32.8061425,31.7754061 32.6728206,31.8972186 L32.3609082,32.1833595 C32.3155291,32.2230079 32.2559621,32.245672 32.1935796,32.245672 L29.7773345,32.245672 L29.7773345,35.341883 L32.8174597,35.341883 C33.4980913,35.341883 34.1447162,35.1010703 34.6665209,34.6591483 C34.8451667,34.5033672 35.6250582,33.8291798 36.5467182,32.8122188 C36.5779094,32.7781951 36.6176575,32.7527187 36.6630367,32.7414142 L45.0602168,30.3165783 C45.2162283,30.2712502 45.375,30.3901952 45.375,30.5545236 Z" id="Path" fill="#2B2B2E"></path>
                </g>
            </g>
        </g>
    </g>
</svg>