<svg width="24" height="24" viewBox="0 0 24 24" fill="none" xmlns="http://www.w3.org/2000/svg">
    <path d="M8.04956 18.7632C6.72235 17.1961 5.86317 14.8824 5.80557 12.2832C5.80557 12.2759 5.80557 11.7241 5.80557 11.7168C5.86317 9.11758 6.72235 6.80393 8.04956 5.2368C9.77275 3.00231 12.3311 1.58401 15.1872 1.58401C16.944 1.58401 18.5904 2.12157 19.9968 3.05522C17.8849 1.16393 15.1008 0.011926 12.0455 0C12.0312 0 12.0143 0 12 0C5.37357 0 0 5.37357 0 12C0 18.4368 5.06641 23.688 11.4288 23.9857C11.6184 23.9952 11.808 24 12 24C15.072 24 17.8752 22.8456 19.9968 20.9472C18.5904 21.8784 16.9464 22.416 15.1872 22.416C12.3311 22.416 9.77275 20.9977 8.04956 18.7632Z" fill="url(#paint0_linear_15_474)"/>
    <path d="M8.0498 5.23677C9.15144 3.93595 10.5723 3.15353 12.1275 3.15353C15.6218 3.15353 18.4515 7.1136 18.4515 12C18.4515 16.8864 15.6194 20.8464 12.1275 20.8464C10.5746 20.8464 9.15144 20.0616 8.0498 18.7632C9.77299 20.9977 12.3314 22.416 15.1874 22.416C16.9442 22.416 18.5906 21.8784 19.997 20.9472C22.4547 18.7488 24.0002 15.5544 24.0002 12C24.0002 8.44551 22.4547 5.25111 19.997 3.0552C18.5906 2.12154 16.9466 1.58398 15.1874 1.58398C12.3314 1.58398 9.77299 3.00229 8.0498 5.23677Z" fill="url(#paint1_linear_15_474)"/>
    <defs>
        <linearGradient id="paint0_linear_15_474" x1="9.99896" y1="0.391275" x2="9.99896" y2="23.6507" gradientUnits="userSpaceOnUse">
            <stop offset="0.3" stop-color="#FF1B2D"/>
            <stop offset="0.4381" stop-color="#FA1A2C"/>
            <stop offset="0.5939" stop-color="#ED1528"/>
            <stop offset="0.7581" stop-color="#D60E21"/>
            <stop offset="0.9272" stop-color="#B70519"/>
            <stop offset="1" stop-color="#A70014"/>
        </linearGradient>
        <linearGradient id="paint1_linear_15_474" x1="16.0253" y1="1.76211" x2="16.0253" y2="22.334" gradientUnits="userSpaceOnUse">
            <stop stop-color="#9C0000"/>
            <stop offset="0.7" stop-color="#FF4B4B"/>
        </linearGradient>
    </defs>
</svg>
