<?xml version="1.0" encoding="UTF-8"?>
<svg width="55px" height="55px" viewBox="0 0 55 55" version="1.1" xmlns="http://www.w3.org/2000/svg" xmlns:xlink="http://www.w3.org/1999/xlink">
    <title>package@1x</title>
    <g id="NEW-Domain-Landing---Post-Creation" stroke="none" stroke-width="1" fill="none" fill-rule="evenodd">
        <g id="FIO-Dashboard-Action-Tiles" transform="translate(-100.000000, -1102.000000)" fill="#FFFFFF" fill-rule="nonzero">
            <g id="package" transform="translate(100.000000, 1102.000000)">
                <path d="M11.9521875,7.4443422 L2.02995117,12.7104848 C1.86000977,12.7995375 1.69952148,12.9009438 1.5478418,13.0119106 L26.9199219,26.2423109 L37.5444824,20.9872328 L11.9521875,7.4443422 Z" id="Path"></path>
                <path d="M54.9950586,15.9500063 L42.3017676,22.2281703 L42.3017676,29.3011488 C42.3017676,30.1907094 41.5805371,30.9119399 40.6909766,30.9119399 C39.801416,30.9119399 39.0801855,30.1907094 39.0801855,29.3011488 L39.0801855,23.8216664 L28.511377,29.0491371 L28.511377,54.6472328 C28.5444629,54.6318715 28.5779785,54.6176918 28.6107422,54.6013637 L52.9076367,42.2902797 C54.198418,41.6448891 55,40.3480922 55,38.9044496 L55,16.0923402 C55,16.0445375 54.9967773,15.9973793 54.9950586,15.9500063 Z" id="Path"></path>
                <path d="M52.9076367,12.7064027 L28.6207324,0.40047501 L28.6106348,0.395426182 C27.5292188,-0.142972255 26.2442383,-0.130941005 25.1729199,0.427652745 L15.3908691,5.61924454 L41.1044434,19.226266 L53.5159668,13.0874281 C53.3275488,12.9439125 53.1252734,12.8151137 52.9076367,12.7064027 Z" id="Path"></path>
                <path d="M0.00762695312,15.8420473 C0.00333007813,15.9158461 0,15.9897524 0,16.0643031 L0,38.9323793 C0,40.346266 0.777734375,41.630602 2.02984375,42.2861977 L25.1626074,54.5636586 L25.1730273,54.5691371 C25.2114844,54.589225 25.2508008,54.6069496 25.2897949,54.6255336 L25.2897949,29.0255043 L0.00762695312,15.8420473 Z" id="Path"></path>
            </g>
        </g>
    </g>
</svg>