<?xml version="1.0" encoding="UTF-8"?>
<svg width="132px" height="55px" viewBox="0 0 132 55" version="1.1" xmlns="http://www.w3.org/2000/svg" xmlns:xlink="http://www.w3.org/1999/xlink">
    <title>password</title>
    <g id="NEW-Domain-Landing---Post-Creation" stroke="none" stroke-width="1" fill="none" fill-rule="evenodd">
        <g id="FIO-Dashboard-Action-Tiles" transform="translate(-495.000000, -1355.000000)" fill="#FFFFFF" fill-rule="nonzero">
            <g id="password" transform="translate(495.000000, 1355.000000)">
                <path d="M120.999536,0 L11.0000516,0 C4.93322677,0 0,4.93348458 0,11.0000516 L0,43.9999484 C0,50.0665154 4.93322677,55 11.0000516,55 L120.999794,55 C127.066361,55 131.999588,50.0665154 131.999588,43.9999484 L131.999588,11.0000516 C131.999588,4.93348458 127.066361,0 120.999536,0 Z M33.2685367,29.2428071 C34.5844075,30.0028359 35.035578,31.684026 34.2755491,32.9998969 C33.7653398,33.8834176 32.8413427,34.3748066 31.890791,34.3748066 C31.4233784,34.3748066 30.9508095,34.2567289 30.5184593,34.0069094 L27.5,32.2641023 L27.5,35.7499742 C27.5,37.270032 26.2699804,38.5000516 24.7499227,38.5000516 C23.2298649,38.5000516 21.9998453,37.270032 21.9998453,35.7499742 L21.9998453,32.2641023 L18.981386,34.0069094 C18.5490358,34.2567289 18.0764669,34.3748066 17.6090543,34.3748066 C16.6582448,34.3748066 15.7345055,33.8834176 15.2242962,32.9998969 C14.4642673,31.684026 14.9154378,30.0028359 16.2313087,29.2428071 L19.2495102,27.5 L16.2313087,25.7571929 C14.9154378,24.9971641 14.4642673,23.315974 15.2242962,22.0001031 C15.984325,20.6788182 17.6680932,20.2356399 18.981386,20.9930906 L21.9998453,22.7358977 L21.9998453,19.2500258 C21.9998453,17.729968 23.2298649,16.4999484 24.7499227,16.4999484 C26.2699804,16.4999484 27.5,17.729968 27.5,19.2500258 L27.5,22.7358977 L30.5184593,20.9930906 C31.8237599,20.2356399 33.5129421,20.6788182 34.2755491,22.0001031 C35.035578,23.315974 34.5844075,24.9971641 33.2685367,25.7571929 L30.2503352,27.5 L33.2685367,29.2428071 Z M60.7682788,29.2428071 C62.0841497,30.0028359 62.5353202,31.684026 61.7752913,32.9998969 C61.265082,33.8834176 60.3410849,34.3748066 59.3905332,34.3748066 C58.9231206,34.3748066 58.4505517,34.2567289 58.0182015,34.0069094 L54.9997422,32.2641023 L54.9997422,35.7499742 C54.9997422,37.270032 53.7697226,38.5000516 52.2496648,38.5000516 C50.7296071,38.5000516 49.4995875,37.270032 49.4995875,35.7499742 L49.4995875,32.2641023 L46.4811282,34.0069094 C46.048778,34.2567289 45.5762091,34.3748066 45.1087965,34.3748066 C44.157987,34.3748066 43.2342477,33.8834176 42.7240384,32.9998969 C41.9640095,31.684026 42.41518,30.0028359 43.7310508,29.2428071 L46.7492523,27.5 L43.7310508,25.7571929 C42.41518,24.9971641 41.9640095,23.315974 42.7240384,22.0001031 C43.4814891,20.6788182 45.1652573,20.2356399 46.4811282,20.9930906 L49.4995875,22.7358977 L49.4995875,19.2500258 C49.4995875,17.729968 50.7296071,16.4999484 52.2496648,16.4999484 C53.7697226,16.4999484 54.9997422,17.729968 54.9997422,19.2500258 L54.9997422,22.7358977 L58.0182015,20.9930906 C59.3260802,20.2356399 61.0098484,20.6788182 61.7752913,22.0001031 C62.5353202,23.315974 62.0841497,24.9971641 60.7682788,25.7571929 L57.7500773,27.5 L60.7682788,29.2428071 Z M88.2682788,29.2428071 C89.5841497,30.0028359 90.0353202,31.684026 89.2752913,32.9998969 C88.765082,33.8834176 87.8410849,34.3748066 86.8905332,34.3748066 C86.4231206,34.3748066 85.9505517,34.2567289 85.5182015,34.0069094 L82.4997422,32.2641023 L82.4997422,35.7499742 C82.4997422,37.270032 81.2697226,38.5000516 79.7496648,38.5000516 C78.2296071,38.5000516 76.9995875,37.270032 76.9995875,35.7499742 L76.9995875,32.2641023 L73.9811282,34.0069094 C73.548778,34.2567289 73.0762091,34.3748066 72.6087965,34.3748066 C71.657987,34.3748066 70.7342477,33.8834176 70.2240384,32.9998969 C69.4640095,31.684026 69.91518,30.0028359 71.2310508,29.2428071 L74.2492523,27.5 L71.2310508,25.7571929 C69.91518,24.9971641 69.4640095,23.315974 70.2240384,22.0001031 C70.9840672,20.6788182 72.6678354,20.2356399 73.9811282,20.9930906 L76.9995875,22.7358977 L76.9995875,19.2500258 C76.9995875,17.729968 78.2296071,16.4999484 79.7496648,16.4999484 C81.2697226,16.4999484 82.4997422,17.729968 82.4997422,19.2500258 L82.4997422,22.7358977 L85.5182015,20.9930906 C86.8235021,20.2356399 88.5126843,20.6788182 89.2752913,22.0001031 C90.0353202,23.315974 89.5841497,24.9971641 88.2682788,25.7571929 L85.2500773,27.5 L88.2682788,29.2428071 Z M115.768279,29.2428071 C117.08415,30.0028359 117.53532,31.684026 116.775291,32.9998969 C116.265082,33.8834176 115.341085,34.3748066 114.390533,34.3748066 C113.923121,34.3748066 113.450552,34.2567289 113.018202,34.0069094 L109.999742,32.2641023 L109.999742,35.7499742 C109.999742,37.270032 108.769723,38.5000516 107.249665,38.5000516 C105.729607,38.5000516 104.499588,37.270032 104.499588,35.7499742 L104.499588,32.2641023 L101.481128,34.0069094 C101.048778,34.2567289 100.576209,34.3748066 100.108797,34.3748066 C99.157987,34.3748066 98.2342477,33.8834176 97.7240384,32.9998969 C96.9640095,31.684026 97.41518,30.0028359 98.7310508,29.2428071 L101.749252,27.5 L98.7310508,25.7571929 C97.41518,24.9971641 96.9640095,23.315974 97.7240384,22.0001031 C98.4866454,20.6788182 100.162421,20.2356399 101.481128,20.9930906 L104.499588,22.7358977 L104.499588,19.2500258 C104.499588,17.729968 105.729607,16.4999484 107.249665,16.4999484 C108.769723,16.4999484 109.999742,17.729968 109.999742,19.2500258 L109.999742,22.7358977 L113.018202,20.9930906 C114.32608,20.2356399 116.015262,20.6788182 116.775291,22.0001031 C117.53532,23.315974 117.08415,24.9971641 115.768279,25.7571929 L112.750077,27.5 L115.768279,29.2428071 Z" id="Shape"></path>
            </g>
        </g>
    </g>
</svg>