<?xml version="1.0" encoding="UTF-8"?>
<svg width="223px" height="113px" viewBox="0 0 223 113" version="1.1" xmlns="http://www.w3.org/2000/svg" xmlns:xlink="http://www.w3.org/1999/xlink">
    <title>route@1x</title>
    <defs>
        <polygon id="path-1" points="0 113 223 113 223 0 0 0"></polygon>
    </defs>
    <g id="NEW-Domain-Landing---Post-Creation" stroke="none" stroke-width="1" fill="none" fill-rule="evenodd">
        <g id="FIO_Dashboard---2023-Revised---Ed-Tile---Map" transform="translate(-188.000000, -907.000000)">
            <g id="Group-12" transform="translate(101.000000, 847.000000)">
                <g id="route" transform="translate(87.000000, 60.000000)">
                    <g id="g580-Clipped" transform="translate(111.500000, 56.500000) scale(-1, 1) rotate(-180.000000) translate(-111.500000, -56.500000) ">
                        <mask id="mask-2" fill="white">
                            <use xlink:href="#path-1"></use>
                        </mask>
                        <g id="path582"></g>
                        <g id="g580" mask="url(#mask-2)">
                            <g transform="translate(2.199732, 2.207031)">
                                <g id="g586" transform="translate(0.000000, 44.140625)" stroke-linecap="round" stroke-linejoin="round">
                                    <path d="M21.9973169,0 L3.69554924,30.1281836 C1.36163392,33.6329492 0,37.8439648 0,42.375 C0,54.5644336 9.84819878,64.4453125 21.9973169,64.4453125 C34.1464351,64.4453125 43.9946338,54.5644336 43.9946338,42.375 C43.9946338,37.8439648 42.6329999,33.6329492 40.2990846,30.1281836 L21.9973169,0 Z" id="path588" stroke="#000000" stroke-width="4.39453125"></path>
                                </g>
                                <g id="g590" transform="translate(13.198390, 77.687500)" stroke-linecap="round" stroke-linejoin="round">
                                    <path d="M17.5978535,8.828125 C17.5978535,3.95279297 13.6581341,0 8.79892677,0 C3.93971946,0 0,3.95279297 0,8.828125 C0,13.703457 3.93971946,17.65625 8.79892677,17.65625 C13.6581341,17.65625 17.5978535,13.703457 17.5978535,8.828125 Z" id="path592" stroke="#000000" stroke-width="4.39453125"></path>
                                </g>
                                <g id="g594" transform="translate(189.951231, 0.000000)" stroke-linecap="round" stroke-linejoin="round">
                                    <path d="M4.39946338,8.828125 C6.8301669,8.828125 8.79892677,6.850625 8.79892677,4.4140625 C8.79892677,1.97529297 6.8301669,0 4.39946338,0 C1.96875986,0 0,1.97529297 0,4.4140625 C0,6.850625 1.96875986,8.828125 4.39946338,8.828125 Z" id="path596" stroke="#000000" stroke-width="4.39453125"></path>
                                </g>
                                <g id="g598" transform="translate(172.353378, 8.828125)" stroke-linecap="round" stroke-linejoin="round">
                                    <path d="M21.9973169,0 L3.69554924,28.8039648 C1.36163392,32.3087305 0,36.5197461 0,41.0507812 C0,53.2402148 9.84819878,63.1210938 21.9973169,63.1210938 C34.1464351,63.1210938 43.9946338,53.2402148 43.9946338,41.0507812 C43.9946338,36.5197461 42.6329999,32.3087305 40.2990846,28.8039648 L21.9973169,0 Z" id="path600" stroke="#000000" stroke-width="4.39453125"></path>
                                </g>
                                <g id="g602" transform="translate(185.551768, 41.050781)" stroke-linecap="round" stroke-linejoin="round">
                                    <path d="M17.5978535,8.828125 C17.5978535,3.95279297 13.6581341,0 8.79892677,0 C3.93971946,0 0,3.95279297 0,8.828125 C0,13.703457 3.93971946,17.65625 8.79892677,17.65625 C13.6581341,17.65625 17.5978535,13.703457 17.5978535,8.828125 Z" id="path604" stroke="#000000" stroke-width="4.39453125"></path>
                                </g>
                                <g id="g606" transform="translate(17.597854, 35.312500)" stroke-linecap="round" stroke-linejoin="round">
                                    <path d="M8.79892677,4.4140625 C8.79892677,1.97529297 6.8301669,0 4.39946338,0 C1.96875986,0 0,1.97529297 0,4.4140625 C0,6.850625 1.96875986,8.828125 4.39946338,8.828125 C6.8301669,8.828125 8.79892677,6.850625 8.79892677,4.4140625 Z" id="path608" stroke="#000000" stroke-width="4.39453125"></path>
                                </g>
                                <g id="g610" transform="translate(48.614070, 2.207031)">
                                    <path d="M4.39946338,2.20703125 C4.39946338,0.988087891 3.41464351,0 2.19973169,0 C0.984819878,0 0,0.988087891 0,2.20703125 C0,3.42597461 0.984819878,4.4140625 2.19973169,4.4140625 C3.41464351,4.4140625 4.39946338,3.42597461 4.39946338,2.20703125" id="path612" fill="#000000" fill-rule="nonzero"></path>
                                </g>
                                <g id="g614" transform="translate(10.118766, 4.414062)" stroke-linecap="round" stroke-linejoin="round">
                                    <path d="M16.2780145,35.3125 L35.1957071,35.3125 C40.0549144,35.3125 43.9946338,31.359707 43.9946338,26.484375 C43.9946338,21.609043 40.0549144,17.65625 35.1957071,17.65625 L8.79892677,17.65625 C3.93971946,17.65625 0,13.703457 0,8.828125 C0,3.95279297 3.93971946,0 8.79892677,0 L30.7962437,0" id="path616" stroke="#000000" stroke-width="4.39453125"></path>
                                </g>
                                <g id="g618" transform="translate(168.833807, 4.303711)" stroke-linecap="round" stroke-linejoin="round">
                                    <line x1="0" y1="0.219726562" x2="21.1174242" y2="0.219726562" id="path620" stroke="#000000" stroke-width="4.39453125"></line>
                                </g>
                            </g>
                        </g>
                    </g>
                </g>
            </g>
        </g>
    </g>
</svg>