<?xml version="1.0" encoding="UTF-8"?>
<svg width="44px" height="44px" viewBox="0 0 44 44" version="1.1" xmlns="http://www.w3.org/2000/svg" xmlns:xlink="http://www.w3.org/1999/xlink">
    <title>send copy@1x</title>
    <g id="NEW-Domain-Landing---Post-Creation" stroke="none" stroke-width="1" fill="none" fill-rule="evenodd">
        <g id="FIO_Dashboard---2023-Revised---Ed-Tile---Request" transform="translate(-1130.000000, -372.000000)" fill="#FFFFFF" fill-rule="nonzero">
            <g id="Group-10" transform="translate(965.000000, 260.000000)">
                <g id="send-copy" transform="translate(165.000000, 112.000000)">
                    <g id="Group" transform="translate(0.000000, 22.000000)">
                        <path d="M1.38084943,7.15280006 C1.02796569,7.15280006 0.675081944,7.01778367 0.405049167,6.74775089 C-0.135016389,6.20921961 -0.135016389,5.33468164 0.405049167,4.79615036 L4.79615036,0.405049167 C5.33621591,-0.135016389 6.20921961,-0.135016389 6.74775089,0.405049167 C7.28781644,0.943580445 7.28781644,1.81811842 6.74775089,2.3566497 L2.3566497,6.74775089 C2.0881512,7.01778367 1.73526745,7.15280006 1.38084943,7.15280006 L1.38084943,7.15280006 Z" id="Path"></path>
                        <path d="M4.93576958,18.4450799 C4.58288584,18.4450799 4.23000209,18.3100635 3.95996931,18.0400307 C3.41990376,17.5014994 3.41990376,16.6269614 3.95996931,16.0884302 L12.2205175,7.827882 C12.760583,7.28781644 13.6335867,7.28781644 14.172118,7.827882 C14.7121836,8.36641328 14.7121836,9.24095125 14.172118,9.77948253 L5.91156984,18.041565 C5.64153707,18.3115977 5.28865332,18.4450799 4.93576958,18.4450799 L4.93576958,18.4450799 Z" id="Path"></path>
                        <path d="M16.2280494,22 C15.8751656,22 15.5222819,21.8649836 15.2522491,21.5949508 C14.7121836,21.0564196 14.7121836,20.1818816 15.2522491,19.6433503 L19.6433503,15.2522491 C20.1834159,14.7121836 21.0564196,14.7121836 21.5949508,15.2522491 C22.1350164,15.7907804 22.1350164,16.6653184 21.5949508,17.2038496 L17.2038496,21.5949508 C16.9353511,21.8649836 16.5824674,22 16.2280494,22 L16.2280494,22 Z" id="Path"></path>
                    </g>
                    <path d="M40.2254512,0.125856629 L5.09791294,10.6000932 C2.44511425,11.390517 2.25979198,15.0751771 4.81843499,16.1285775 L19.9012769,22.3428927 C19.9670364,22.1830149 20.0626866,22.0335964 20.1927111,21.9050965 L27.9060035,14.193608 C28.4320797,13.6676549 29.2824698,13.6676549 29.8070514,14.193608 C30.3331275,14.7180669 30.3331275,15.5697523 29.8070514,16.0942112 L22.093759,23.8056998 C21.9637345,23.9356939 21.814281,24.0328159 21.6543658,24.09856 L27.8731238,39.1853455 C28.925276,41.7389076 32.6048199,41.5536287 33.3939341,38.9059329 L43.8736099,3.7731621 C44.5401722,1.54084978 42.4597802,-0.539055676 40.2254512,0.125856629 L40.2254512,0.125856629 Z" id="Path"></path>
                </g>
            </g>
        </g>
    </g>
</svg>