<?xml version="1.0" encoding="UTF-8"?>
<svg width="24px" height="24px" viewBox="0 0 24 24" version="1.1" xmlns="http://www.w3.org/2000/svg" xmlns:xlink="http://www.w3.org/1999/xlink">
    <title>shopping_cart_checkout_black_24dp</title>
    <g id="Final-Files" stroke="none" stroke-width="1" fill="none" fill-rule="evenodd">
        <g id="FIO_Dashboard---Purchase----v4---Added" transform="translate(-834.000000, -671.000000)">
            <g id="Group-7" transform="translate(188.000000, 598.000000)">
                <g id="Group-3-Copy-6" transform="translate(0.000000, 52.000000)">
                    <g id="Group-5-Copy" transform="translate(636.000000, 15.000000)">
                        <g id="shopping_cart_checkout_black_24dp" transform="translate(10.000000, 6.000000)">
                            <rect id="Rectangle" x="0" y="0" width="24" height="24"></rect>
                            <g id="bookmark_added_black_24dp" transform="translate(9.000000, 2.630000)" fill="#FFFFFF" fill-rule="nonzero">
                                <polygon id="Shape" points="2.83 6.37 0 3.54 1.41 2.13 2.82 3.54 6.36 0 7.77 1.41"></polygon>
                            </g>
                            <path d="M7,18 C5.9,18 5.01,18.9 5.01,20 C5.01,21.1 5.9,22 7,22 C8.1,22 9,21.1 9,20 C9,18.9 8.1,18 7,18 Z M17,18 C15.9,18 15.01,18.9 15.01,20 C15.01,21.1 15.9,22 17,22 C18.1,22 19,21.1 19,20 C19,18.9 18.1,18 17,18 Z M8.1,13 L15.55,13 C16.3,13 16.96,12.59 17.3,11.97 L21,4.96 L19.25,4 L15.55,11 L8.53,11 L4.27,2 L1,2 L1,4 L3,4 L6.6,11.59 L5.25,14.03 C4.52,15.37 5.48,17 7,17 L19,17 L19,15 L7,15 L8.1,13 Z" id="Shape" fill="#FFFFFF" fill-rule="nonzero"></path>
                        </g>
                    </g>
                </g>
            </g>
        </g>
    </g>
</svg>