<?xml version="1.0" encoding="UTF-8"?>
<svg width="129px" height="30px" viewBox="0 0 129 30" version="1.1" xmlns="http://www.w3.org/2000/svg" xmlns:xlink="http://www.w3.org/1999/xlink">
    <g id="Get-FIO" stroke="none" stroke-width="1" fill="none" fill-rule="evenodd">
        <g id="FIO_WalletView---No-FIO---Partners" transform="translate(-388.000000, -1075.000000)" fill-rule="nonzero">
            <g id="Group-2" transform="translate(328.000000, 230.000000)">
                <g id="Group-12" transform="translate(30.000000, 833.000000)">
                    <g id="simba-chain-seeklogo.com" transform="translate(30.000000, 12.000000)">
                        <g id="Group" transform="translate(33.811563, 4.582441)" fill="#00557F">
                            <path d="M12.1413276,5.5888651 C11.7344754,5.05353319 11.2205567,4.66809422 10.5353319,4.34689507 C9.87152034,4.04710921 9.25053533,3.89721627 8.62955032,3.89721627 C8.32976445,3.89721627 8.00856531,3.94004283 7.64453961,3.98286938 C7.34475375,4.02569593 7.0235546,4.15417559 6.76659529,4.28265525 C6.50963597,4.45396146 6.27408994,4.64668094 6.10278373,4.90364026 C5.93147752,5.16059957 5.84582441,5.48179872 5.84582441,5.88865096 C5.84582441,6.25267666 5.93147752,6.50963597 6.05995717,6.72376874 C6.18843683,6.9379015 6.42398287,7.13062099 6.68094218,7.30192719 C6.9379015,7.4732334 7.25910064,7.60171306 7.66595289,7.751606 C8.02997859,7.88008565 8.45824411,8.00856531 8.90792291,8.2012848 C9.57173448,8.41541756 10.2783726,8.69379015 10.9850107,8.95074946 C11.6916488,9.20770878 12.3554604,9.57173448 12.9764454,10.0214133 C13.5546039,10.4710921 14.0899358,11.0492505 14.4325482,11.7130621 C14.8394004,12.3768737 15.0107066,13.2119914 15.0107066,14.1970021 C15.0107066,15.3533191 14.7965739,16.3169165 14.3897216,17.1734475 C13.9828694,18.0085653 13.4047109,18.6723769 12.6980728,19.2077088 C11.9914347,19.7430407 11.1991435,20.1284797 10.2569593,20.4068522 C9.33618844,20.6638116 8.39400428,20.8137045 7.43040685,20.8137045 C6.01713062,20.8137045 4.64668094,20.5567452 3.31905782,20.0642398 C1.99143469,19.5717345 0.877944325,18.8650964 6.08601915e-15,17.9443255 L3.14775161,14.7537473 C3.64025696,15.3319058 4.26124197,15.8672377 5.05353319,16.2526767 C5.84582441,16.6595289 6.65952891,16.8736617 7.40899358,16.8736617 C7.77301927,16.8736617 8.11563169,16.8308351 8.43683084,16.745182 C8.80085653,16.6595289 9.05781585,16.5738758 9.31477516,16.3811563 C9.57173448,16.1884368 9.76445396,15.9743041 9.93576017,15.7173448 C10.0642398,15.4603854 10.1498929,15.0963597 10.1498929,14.6895075 C10.1498929,14.3254818 10.0642398,13.9828694 9.89293362,13.7687366 C9.72162741,13.5117773 9.44325482,13.2762313 9.1006424,13.0620985 C8.75802998,12.8479657 8.35117773,12.6552463 7.81584582,12.48394 C7.28051392,12.3126338 6.70235546,12.1199143 6.08137045,11.9057816 C5.46038544,11.6916488 4.83940043,11.4561028 4.21841542,11.1991435 C3.59743041,10.9421842 3.0620985,10.5781585 2.56959315,10.1284797 C2.07708779,9.67880086 1.73447537,9.14346895 1.41327623,8.52248394 C1.11349036,7.90149893 0.96359743,7.15203426 0.96359743,6.25267666 C0.96359743,5.1391863 1.17773019,4.21841542 1.62740899,3.4261242 C2.07708779,2.63383298 2.65524625,2.01284797 3.40471092,1.47751606 C4.11134904,0.985010707 4.94646681,0.599571734 5.88865096,0.364025696 C6.80942184,0.149892934 7.70877944,0 8.67237687,0 C9.78586724,0 10.9421842,0.214132762 12.0770878,0.620985011 C13.2119914,1.02783726 14.2398287,1.64882227 15.1391863,2.44111349 L12.1413276,5.5888651 Z" id="Path"></path>
                            <polygon id="Path" points="19.3147752 20.2569593 19.3147752 0.449678801 24.1541756 0.449678801 24.1541756 20.2569593"></polygon>
                            <polygon id="Path" points="46.745182 20.2569593 46.8736617 6.25267666 46.7880086 6.25267666 41.6059957 20.2569593 38.2441113 20.2569593 33.2334047 6.25267666 33.1477516 6.25267666 33.2762313 20.2569593 28.75803 20.2569593 28.75803 0.449678801 35.5888651 0.449678801 40.1070664 13.1691649 40.235546 13.1691649 44.5396146 0.449678801 51.4561028 0.449678801 51.4561028 20.2569593 46.745182 20.2569593"></polygon>
                            <path d="M71.5203426,14.496788 C71.5203426,15.5674518 71.3062099,16.4882227 70.856531,17.2376874 C70.4068522,17.987152 69.8286938,18.5653105 69.1220557,19.0149893 C68.4154176,19.4646681 67.6231263,19.764454 66.6809422,20 C65.8029979,20.1713062 64.8608137,20.2997859 63.8972163,20.2997859 L56.0171306,20.2997859 L56.0171306,0.449678801 L63.8972163,0.449678801 C64.6466809,0.449678801 65.4389722,0.535331906 66.2526767,0.663811563 C67.0449679,0.835117773 67.7944325,1.11349036 68.4154176,1.45610278 C69.0364026,1.82012848 69.614561,2.33404711 70.0214133,2.99785867 C70.4282655,3.66167024 70.6423983,4.45396146 70.6423983,5.48179872 C70.6423983,6.59528908 70.3426124,7.4732334 69.764454,8.22269807 C69.1862955,8.92933619 68.3940043,9.46466809 67.4089936,9.76445396 L67.4089936,9.80728051 C67.987152,9.89293362 68.5224839,10.0642398 69.0149893,10.3426124 C69.5074946,10.5995717 69.9357602,10.9207709 70.2997859,11.3276231 C70.6638116,11.7344754 70.9635974,12.1627409 71.1777302,12.6980728 C71.391863,13.2334047 71.5203426,13.8329764 71.5203426,14.496788 Z M66.0813704,6.16702355 C66.0813704,5.50321199 65.8244111,5.01070664 65.3319058,4.71092077 C64.7965739,4.4111349 64.0471092,4.26124197 63.0620985,4.26124197 L60.7066381,4.26124197 L60.7066381,8.32976445 L63.2762313,8.32976445 C64.1541756,8.32976445 64.882227,8.15845824 65.3533191,7.79443255 C65.8029979,7.40899358 66.0813704,6.87366167 66.0813704,6.16702355 Z M66.745182,14.0256959 C66.745182,13.1905782 66.4453961,12.6552463 65.8244111,12.2912206 C65.2034261,11.9914347 64.4111349,11.7987152 63.3404711,11.7987152 L60.6852248,11.7987152 L60.6852248,16.3169165 L63.3832976,16.3169165 C63.7473233,16.3169165 64.1327623,16.2740899 64.5396146,16.2312634 C64.9464668,16.1884368 65.2890792,16.0599572 65.6531049,15.8672377 C65.9528908,15.6959315 66.2312634,15.4603854 66.4453961,15.1605996 C66.5952891,14.9036403 66.745182,14.496788 66.745182,14.0256959 Z" id="Shape"></path>
                            <path d="M89.3361884,20.2569593 L87.7944325,16.359743 L80.1284797,16.359743 L78.6723769,20.2569593 L73.4689507,20.2569593 L81.7987152,0.449678801 L86.4453961,0.449678801 L94.6466809,20.2569593 L89.3361884,20.2569593 Z M84.0256959,5.73875803 L81.4989293,12.5267666 L86.4668094,12.5267666 L84.0256959,5.73875803 Z" id="Shape"></path>
                        </g>
                        <path d="M11.1563169,7.96573876 C9.12205567,7.96573876 7.51605996,9.74304069 7.51605996,11.9486081 C7.51605996,14.111349 9.12205567,15.9314775 11.1563169,15.9314775 L18.2869379,15.9314775 C19.2077088,15.9314775 19.9785867,16.509636 19.9785867,17.4304069 C19.9785867,18.3511777 19.2291221,18.9293362 18.2869379,18.9293362 L11.1563169,18.9293362 C7.25910064,18.9293362 4.23982869,15.8672377 4.23982869,11.9700214 C4.23982869,8.07280514 7.30192719,5.01070664 11.1563169,5.01070664 L26.1456103,5.01070664 C23.4047109,1.99143469 19.3576017,-6.08601915e-15 14.882227,-6.08601915e-15 C6.63811563,-6.08601915e-15 0,6.83083512 0,15.0321199 C0,17.4304069 0.578158458,18.8436831 1.54175589,21.8201285 L18.5653105,21.8201285 C20.5995717,21.8201285 22.3340471,20.1713062 22.3340471,17.9657388 C22.3340471,15.7601713 20.5995717,13.8972163 18.5653105,13.8972163 L11.4132762,13.8972163 C10.4925054,13.8972163 9.72162741,13.3190578 9.72162741,12.3982869 C9.72162741,11.4775161 10.4710921,10.8993576 11.4132762,10.8993576 L18.5438972,10.8993576 C22.4411135,10.8993576 25.5888651,13.9614561 25.5888651,17.8158458 C25.5888651,21.6702355 22.3982869,24.8608137 18.5438972,24.8608137 L3.79014989,24.8608137 L2.50535332,29.7858672 L7.64453961,28.0513919 L7.64453961,28.0942184 C9.76445396,29.2933619 12.248394,30 14.8608137,30 C23.0620985,30 29.7430407,22.9550321 29.7430407,14.7537473 C29.7430407,12.48394 29.2077088,10.9850107 28.3297645,8.00856531 L11.1563169,8.00856531 L11.1563169,7.96573876 Z" id="Path" fill="#09A6E0"></path>
                    </g>
                </g>
            </g>
        </g>
    </g>
</svg>
