<?xml version="1.0" encoding="UTF-8"?>
<svg width="133px" height="30px" viewBox="0 0 133 30" version="1.1" xmlns="http://www.w3.org/2000/svg" xmlns:xlink="http://www.w3.org/1999/xlink">
    <g id="Get-FIO" stroke="none" stroke-width="1" fill="none" fill-rule="evenodd">
        <g id="FIO_WalletView---No-FIO---Partners" transform="translate(-723.000000, -1075.000000)" fill-rule="nonzero">
            <g id="Group-2" transform="translate(328.000000, 230.000000)">
                <g id="Group-Copy-13" transform="translate(365.000000, 833.000000)">
                    <g id="download" transform="translate(30.000000, 12.000000)">
                        <path d="M5.3963847,22.4661029 L5.32732909,22.622629 C4.77816724,23.928402 4.77816724,25.4003446 5.32732909,26.7061176 C5.60023635,27.3548926 5.99891202,27.9432052 6.50035377,28.4371117 C7.0047929,28.9336366 7.60162571,29.3265202 8.25712858,29.593563 C9.58508207,30.135479 11.0725119,30.135479 12.4004654,29.593563 C13.0556403,29.3264146 13.652152,28.9335365 14.1563194,28.4371117 L24.1187426,18.6210864 C25.153898,17.6044966 25.7377083,16.2149617 25.7392477,14.7641002 C25.7392477,13.4658547 25.3313592,12.2136462 24.4400814,11.231215 C23.9999661,11.043009 23.5141737,10.9885695 23.0433165,11.074689 C22.6225377,11.1520312 22.236747,11.3978692 21.9154082,11.6869821 L12.4511062,21.2580901 C12.2761653,21.4367139 12.0736021,21.5849533 11.8544657,21.6991253 C11.9704791,21.6282282 12.084651,21.5545688 12.1979023,21.4781473 L12.1684385,21.4901169 L12.1960608,21.4717021 C12.1868212,21.4777921 12.1776137,21.4839304 12.1684385,21.4901169 C10.1710312,22.8128631 7.68601559,23.1710027 5.3963847,22.4661029 Z" id="Path" fill="#104ADE"></path>
                        <path d="M12.1684385,21.4901169 L12.2255245,21.4514458 C11.486707,21.7463119 10.6494735,21.6530557 9.99364707,21.2028456 C9.70937295,21.0057681 9.47151003,20.7490521 9.29664575,20.4505998 C8.75698224,19.5290686 8.90923551,18.3591423 9.66678383,17.6064292 L12.8166405,14.4759081 L17.4175859,9.94217689 L17.4360007,9.92560354 C17.4491713,9.91444866 17.4626819,9.90370159 17.4765133,9.89337759 L18.168911,9.21018739 C18.5213569,9.1416797 18.8797827,9.10867492 19.2388126,9.11166805 C20.0481444,9.11166805 20.7359383,9.18993108 21.4218907,9.38512828 C22.6126559,9.63845707 23.6809304,10.2915081 24.4492888,11.2358187 C24.0069629,11.0439751 23.5176878,10.9875819 23.0433165,11.0737682 C22.6216169,11.1520312 22.2358262,11.3978692 21.9144874,11.6869821 L12.4511062,21.2580901 C12.2752445,21.4367139 12.0736021,21.5849533 11.8535449,21.6991253 C11.9695584,21.6282282 12.0837303,21.5545688 12.1969815,21.4781473 L12.1684385,21.4901169 L12.1684385,21.4901169 Z" id="Path" fill="#0038C7"></path>
                        <path d="M19.8041479,3.28153279 C19.5507361,2.68010384 19.1805085,2.13493355 18.7149107,1.67760108 C18.1743174,1.14492559 17.5346414,0.723271185 16.8319943,0.436441517 C15.4067096,-0.145480506 13.8100974,-0.145480506 12.3848128,0.436441517 C11.6815321,0.723102241 11.0412215,1.14476255 10.5000549,1.67760108 L2.29808951,9.75802859 C0.860879895,11.1682197 0.035772301,13.0869669 0.000839437026,15.1001708 C-0.0289283901,17.112541 0.734049069,19.0558681 2.12499011,20.510448 L2.21061907,20.592394 L2.29901025,20.6826266 C2.38003551,20.7608897 2.46474372,20.834549 2.55313491,20.9036046 C3.88208579,22.0405336 5.5478365,22.7092278 7.29403296,22.8067773 C9.04156137,22.9064731 10.7735707,22.4303727 12.2246038,21.4514458 C11.4857862,21.7463119 10.6485527,21.6530557 9.99272633,21.2028456 C9.70845221,21.0057681 9.47058929,20.7490521 9.295725,20.4505998 C8.7560615,19.5290686 8.90831477,18.3591423 9.66586309,17.6064292 L12.8157198,14.4759081 L17.4166651,9.94217689 L17.4755926,9.89337759 L18.7139899,8.6715536 C19.414632,7.98363993 19.8933903,7.101801 20.088657,6.13951444 C20.2822799,5.18039594 20.1828253,4.18520764 19.8032271,3.28337427 L19.8032271,3.28153279 L19.8041479,3.28153279 Z" id="Path" fill="#0F75FC"></path>
                        <path d="M94.2875325,21.9090543 C93.5260793,21.9090543 92.8373646,21.778309 92.2213886,21.5177392 C91.6164614,21.2562486 91.1358343,20.8805861 90.7813489,20.3907516 C90.4268634,19.8999963 90.2436358,19.3208499 90.2335077,18.6533123 L92.5813985,18.6533123 C92.6127037,19.1017135 92.7692298,19.4561989 93.0509767,19.7176895 C93.3428517,19.9782594 93.7396913,20.1090047 94.2405747,20.1090047 C94.7515863,20.1090047 95.1539503,19.9893083 95.4458254,19.7489947 C95.7377004,19.498553 95.8840983,19.174452 95.8840983,18.7785332 C95.8840983,18.4544322 95.7846582,18.1892586 95.5866988,17.9802503 C95.3763669,17.7635354 95.1194225,17.5975921 94.8353737,17.4950195 C94.4373276,17.3339367 94.0295571,17.1980132 93.6144705,17.0880518 C92.9045788,16.8790434 92.3254324,16.6755596 91.8770313,16.4776001 C91.4300534,16.2619644 91.0389882,15.9458981 90.734391,15.5540964 C90.4213389,15.1360798 90.2648129,14.5836349 90.2648129,13.8949202 C90.2648129,13.2476389 90.4268634,12.6841451 90.7500436,12.2044388 C91.0732239,11.7238117 91.5271495,11.3591981 92.1118203,11.1087564 C92.6964912,10.8472658 93.3640288,10.7174412 94.1153539,10.7174412 C95.2423415,10.7174412 96.1557171,10.9936637 96.8545599,11.5461086 C97.5644516,12.0893461 97.9557667,12.8507993 98.0285053,13.8323098 L95.618004,13.8323098 C95.6027989,13.4673218 95.4247158,13.1283895 95.1327732,12.908806 C94.8408982,12.6583644 94.449583,12.5331435 93.9588278,12.5331435 C93.530683,12.5331435 93.1863257,12.6427117 92.9257558,12.8618482 C92.6753141,13.0809847 92.5500933,13.3986405 92.5500933,13.8166572 C92.5500933,14.1085322 92.6440089,14.3534495 92.8318402,14.5523296 C93.0297996,14.7401609 93.2701132,14.896687 93.5518601,15.0219078 C93.8437351,15.1360798 94.2507029,15.2723495 94.7727633,15.4288756 C95.482655,15.6369631 96.0618014,15.8459715 96.5102025,16.0549798 C96.9665074,16.2698513 97.3639463,16.5920991 97.6684954,16.9941361 C97.9916756,17.411232 98.1537261,17.9590732 98.1537261,18.6376597 C98.1537261,19.2214099 98.0027245,19.7646473 97.6998006,20.2655307 C97.3968766,20.7664141 96.954,21.1678574 96.3693291,21.4707814 C95.7846582,21.7626564 95.0913399,21.9090543 94.2875325,21.9090543 L94.2875325,21.9090543 Z M112.074417,13.1279425 L109.538695,21.7994861 L107.175151,21.7994861 L105.594238,15.7410069 L104.013325,21.7994861 L101.634129,21.7994861 L99.0827543,13.1279425 L101.305424,13.1279425 L102.83938,19.7333421 L104.498556,13.1279425 L106.815142,13.1279425 L108.443013,19.7176895 L109.976968,13.1279425 L112.074417,13.1279425 L112.074417,13.1279425 Z M112.696838,17.4324091 C112.696838,16.5558632 112.869017,15.7778366 113.213374,15.1001708 C113.56786,14.4215843 114.042962,13.8995239 114.637761,13.5349103 C115.24696,13.1684975 115.946093,12.9788103 116.656948,12.9870691 C117.304229,12.9870691 117.867723,13.1168936 118.347429,13.3783842 C118.838184,13.6389541 119.229499,13.9676588 119.521374,14.3635776 L119.521374,13.1279425 L121.728392,13.1279425 L121.728392,21.7994861 L119.521374,21.7994861 L119.521374,20.531625 C119.239628,20.9385928 118.848312,21.2774257 118.347429,21.5490444 C117.856674,21.8096142 117.288576,21.9403595 116.641295,21.9403595 C115.933472,21.9467385 115.238488,21.7512743 114.637761,21.3768657 C114.042962,21.0012032 113.56786,20.4745391 113.213374,19.7959526 C112.869017,19.1072379 112.696838,18.3190832 112.696838,17.4324091 L112.696838,17.4324091 Z M119.521374,17.4637143 C119.521374,16.9315257 119.417331,16.4776001 119.208322,16.1010169 C119.017007,15.7336695 118.723446,15.4295555 118.363082,15.2253917 C118.017686,15.0192398 117.622679,14.9110187 117.220441,14.9123276 C116.813474,14.9123276 116.437811,15.0108589 116.093454,15.2097391 C115.737269,15.4196595 115.445047,15.7227049 115.248213,16.086285 C115.039205,16.4619475 114.935161,16.9103487 114.935161,17.4324091 C114.935161,17.9535488 115.039205,18.4129988 115.248213,18.8098384 C115.46735,19.1956291 115.749096,19.4930286 116.093454,19.7020369 C116.447939,19.9101245 116.823602,20.015089 117.220441,20.015089 C117.627409,20.015089 118.008596,19.915649 118.363082,19.7176895 C118.718977,19.5074023 119.011111,19.2044476 119.208322,18.8411436 C119.417331,18.4544322 119.521374,17.9959029 119.521374,17.4637143 Z M126.060481,14.380151 C126.342228,13.9833114 126.728018,13.6546067 127.218773,13.3940368 C127.719657,13.1224181 128.287754,12.9870691 128.924907,12.9870691 C129.665184,12.9870691 130.333642,13.1693759 130.928441,13.5349103 C131.533368,13.8995239 132.008471,14.4215843 132.352828,15.1001708 C132.707314,15.7677084 132.885017,16.545735 132.885017,17.4324091 C132.885017,18.3190832 132.707314,19.1072379 132.352828,19.7959526 C132.008471,20.4736183 131.533368,21.0012032 130.928441,21.3768657 C130.328855,21.7538511 129.6331,21.9495322 128.924907,21.9403595 C128.287754,21.9403595 127.724261,21.8096142 127.234426,21.5490444 C126.777184,21.3079404 126.376889,20.9716932 126.060481,20.5629302 L126.060481,25.9308533 L123.869116,25.9308533 L123.869116,13.1288633 L126.060481,13.1288633 L126.060481,14.3810717 L126.060481,14.380151 Z M130.646694,17.4324091 C130.646694,16.9103487 130.537126,16.4619475 130.317989,16.086285 C130.126818,15.7185977 129.833244,15.4141501 129.472749,15.2097391 C129.130299,15.0119522 128.741213,14.9092768 128.345761,14.9123396 C127.948921,14.9123396 127.573259,15.0163834 127.218773,15.2253917 C126.862589,15.4353121 126.570367,15.7383575 126.373533,16.1019376 C126.164524,16.4877283 126.060481,16.9416539 126.060481,17.4637143 C126.060481,17.984854 126.164524,18.4397003 126.373533,18.825491 C126.592669,19.2112817 126.874416,19.5086812 127.218773,19.7176895 C127.562223,19.9130395 127.950642,20.015539 128.345761,20.0150905 C128.752729,20.0150905 129.128391,19.9101245 129.472749,19.7020369 C129.827234,19.4930286 130.108981,19.1956291 130.317989,18.8089177 C130.537126,18.423127 130.646694,17.9645977 130.646694,17.4324091 L130.646694,17.4324091 Z M38.9205832,21.9090543 C38.1591299,21.9090543 37.4704153,21.778309 36.8544392,21.5177392 C36.249512,21.2562486 35.768885,20.8805861 35.4143995,20.3907516 C35.059914,19.8999963 34.8766864,19.3208499 34.8665583,18.6533123 L37.2144491,18.6533123 C37.2457544,19.1017135 37.4022804,19.4561989 37.6840273,19.7176895 C37.9768231,19.9782594 38.372742,20.1090047 38.8736253,20.1090047 C39.3855576,20.1090047 39.7870009,19.9893083 40.0797967,19.7489947 C40.370751,19.498553 40.5171489,19.174452 40.5171489,18.7785332 C40.5171489,18.4544322 40.4186296,18.1892586 40.2197494,17.9802503 C40.0093764,17.7635856 39.7524443,17.5976503 39.4684244,17.4950195 C39.1765493,17.3697987 38.7686608,17.2335289 38.2475211,17.0880518 C37.6561229,16.921278 37.0758258,16.7173898 36.5100819,16.4776001 C36.0634553,16.261817 35.6727214,15.9457637 35.3683624,15.5540964 C35.0553103,15.1360798 34.8987842,14.5836349 34.8987842,13.8949202 C34.8987842,13.2476389 35.059914,12.6841451 35.3830943,12.2044388 C35.7071953,11.7238117 36.1611209,11.3591981 36.7457917,11.1087564 C37.3295418,10.8472658 37.9980002,10.7174412 38.7484045,10.7174412 C39.8753921,10.7174412 40.7887677,10.9936637 41.4876105,11.5461086 C42.1965815,12.0893461 42.5888174,12.8507993 42.6615559,13.8323098 L40.2510547,13.8323098 C40.2358495,13.4673218 40.0577665,13.1283895 39.7658239,12.908806 C39.4739488,12.6583644 39.0826337,12.5331435 38.5918784,12.5331435 C38.1646544,12.5331435 37.8202971,12.6427117 37.5588065,12.8618482 C37.3083648,13.0809847 37.1831439,13.3986405 37.1831439,13.8166572 C37.1831439,14.1085322 37.2770596,14.3534495 37.4648908,14.5523296 C37.6628503,14.7401609 37.9031638,14.896687 38.1849107,15.0219078 C38.4777065,15.1360798 38.8846742,15.2723495 39.4058139,15.4288756 C40.1147849,15.6369631 40.6948521,15.8459715 41.1432532,16.0549798 C41.592575,16.2630674 41.9783657,16.5761195 42.301546,16.9941361 C42.625647,17.411232 42.7867768,17.9590732 42.7867768,18.6376597 C42.7867768,19.2214099 42.6357752,19.7646473 42.3328512,20.2655307 C42.030848,20.7664141 41.5870506,21.1678574 41.0023797,21.4707814 C40.4186296,21.7626564 39.7243905,21.9090543 38.9215039,21.9090543 L38.9205832,21.9090543 Z M45.7985223,12.0948705 C45.4118108,12.0948705 45.0886306,11.9751742 44.8280607,11.7348606 C44.5806897,11.4921063 44.4447244,11.1578582 44.4523982,10.8113569 C44.4523982,10.4458225 44.577619,10.1428985 44.8280607,9.90350575 C45.0881665,9.65334387 45.4377739,9.51801198 45.7985223,9.52784321 C46.184313,9.52784321 46.5028895,9.65306406 46.7533312,9.90350575 C47.0139011,10.1428985 47.1446464,10.4458225 47.1446464,10.8113569 C47.1446464,11.1759705 47.0139011,11.4834982 46.7533312,11.7348606 C46.5028895,11.9742534 46.184313,12.0939498 45.7985223,12.0939498 L45.7985223,12.0948705 Z M46.8785521,13.1279425 L46.8785521,21.7994861 L44.6871873,21.7994861 L44.6871873,13.1279425 L46.8785521,13.1279425 Z M59.8122081,13.0027217 C60.8765853,13.0027217 61.7319541,13.3314264 62.3792354,13.9879151 C63.0366449,14.6351964 63.3653496,15.5439683 63.3653496,16.7123892 L63.3653496,21.7994861 L61.1739848,21.7994861 L61.1739848,17.0097887 C61.1739848,16.3312022 61.0018061,15.8146663 60.6574488,15.4601808 C60.3130915,15.0946464 59.8435133,14.9123396 59.2487143,14.9123396 C58.6539153,14.9123396 58.1788126,15.0946464 57.8243272,15.4601808 C57.4799698,15.8146663 57.3077912,16.3312022 57.3077912,17.0097887 L57.3077912,21.7994861 L55.1164264,21.7994861 L55.1164264,17.0097887 C55.1164264,16.3312022 54.9442477,15.8146663 54.5998904,15.4601808 C54.2555331,15.0946464 53.7859549,14.9123396 53.1911559,14.9123396 C52.5862287,14.9123396 52.1056016,15.0946464 51.7511161,15.4601808 C51.4067588,15.8146663 51.2345802,16.3312022 51.2345802,17.0097887 L51.2345802,21.7994861 L49.0432154,21.7994861 L49.0432154,13.1279425 L51.2345802,13.1279425 L51.2345802,14.1766671 C51.5208646,13.8077583 51.8911566,13.512598 52.3146099,13.3157738 C52.7760136,13.1043243 53.2784352,12.997426 53.7859549,13.0027217 C54.4645414,13.0027217 55.0694686,13.1481988 55.6016571,13.4409946 C56.1264664,13.7154134 56.5571313,14.1406268 56.838213,14.6618979 C57.1199599,14.1610145 57.5269276,13.7595712 58.0591162,13.4557265 C58.5943485,13.1553532 59.1984609,12.9992485 59.8122081,13.0027217 L59.8122081,13.0027217 Z M67.6357487,14.380151 C67.9174956,13.9833114 68.3042071,13.6546067 68.7949623,13.3940368 C69.2958457,13.1224181 69.8639432,12.9870691 70.5010963,12.9870691 C71.9562882,12.9673778 73.2916084,13.7909628 73.9271755,15.1001708 C74.2825817,15.7677084 74.4602848,16.545735 74.4602848,17.4324091 C74.4602848,18.3190832 74.2825817,19.1072379 73.9271755,19.7959526 C73.5837389,20.4736183 73.1077155,21.0012032 72.5037091,21.3768657 C71.9038807,21.7540706 71.2077667,21.9497627 70.4992548,21.9403595 C69.8639432,21.9403595 69.2995286,21.8096142 68.8096941,21.5490444 C68.3524062,21.3076226 67.9518732,20.9714386 67.634828,20.5629302 L67.634828,25.9308533 L65.4434632,25.9308533 L65.4434632,13.1288633 L67.634828,13.1288633 L67.634828,14.3810717 L67.6357487,14.380151 Z M72.2228829,17.4324091 C72.2228829,16.9103487 72.1123939,16.4619475 71.8941782,16.086285 C71.70318,15.7184733 71.409563,15.4139817 71.0489375,15.2097391 C70.7062177,15.0117934 70.3167929,14.9091124 69.9210291,14.9123396 C69.5251103,14.9123396 69.1494478,15.0163834 68.7949623,15.2253917 C68.4387777,15.4353121 68.1465554,15.7383575 67.9497216,16.1019376 C67.7407132,16.4877283 67.6366695,16.9416539 67.6366695,17.4637143 C67.6366695,17.984854 67.7407132,18.4397003 67.9497216,18.825491 C68.1490271,19.1913776 68.4403752,19.4989118 68.7949623,19.7176895 C69.1494478,19.915649 69.5251103,20.015089 69.9219499,20.015089 C70.3289176,20.015089 70.7045802,19.9101245 71.0489375,19.7020369 C71.403423,19.4930286 71.6842491,19.1956291 71.8941782,18.8089177 C72.1133147,18.423127 72.2228829,17.9645977 72.2228829,17.4324091 L72.2228829,17.4324091 Z M78.2445324,10.2165579 L78.2445324,21.7994861 L76.0531676,21.7994861 L76.0531676,10.2165579 L78.2445324,10.2165579 Z M88.4702877,17.275883 C88.4702877,17.5889352 88.4500313,17.8706821 88.4076772,18.1211237 L82.0683719,18.1211237 C82.1208542,18.747228 82.3399907,19.2370625 82.7257814,19.5924687 C83.1124928,19.9469542 83.5866747,20.1246573 84.1501685,20.1246573 C84.964104,20.1246573 85.5432504,19.7747755 85.8876077,19.075012 L88.2511512,19.075012 C88.0069272,19.9014505 87.5017294,20.6266226 86.8111115,21.1420766 C86.1021405,21.6742652 85.2301983,21.9403595 84.1971263,21.9403595 C83.3629345,21.9403595 82.6116094,21.757132 81.9431511,21.3925183 C81.2892625,21.0204084 80.7525022,20.4728045 80.3935431,19.8116052 C80.0289295,19.1330187 79.8457019,18.3503884 79.8457019,17.4637143 C79.8457019,16.5659913 80.0289295,15.7787573 80.3935431,15.1001708 C80.7411006,14.4398623 81.2743453,13.895735 81.9274985,13.5349103 C82.5849079,13.1693759 83.3417574,12.9870691 84.1971263,12.9870691 C85.0221107,12.9870691 85.7577832,13.1638514 86.4041437,13.5192577 C87.0505944,13.862581 87.579652,14.3913179 87.9233672,15.0375604 C88.2879808,15.683921 88.4702877,16.4306423 88.4702877,17.2749623 L88.4702877,17.275883 Z M86.2006598,16.6497788 C86.1914524,16.086285 85.9870478,15.6369631 85.5902082,15.3036547 C85.1942894,14.9592974 84.7090586,14.7871187 84.1354366,14.7871187 C83.5921991,14.7871187 83.1327491,14.9537729 82.7570866,15.2880021 C82.3924729,15.6111824 82.167812,16.0651079 82.0849453,16.6497788 L86.2006598,16.6497788 Z" id="Shape" fill="#121212"></path>
                    </g>
                </g>
            </g>
        </g>
    </g>
</svg>
