<?xml version="1.0" encoding="UTF-8"?>
<svg width="68px" height="44px" viewBox="0 0 68 44" version="1.1" xmlns="http://www.w3.org/2000/svg" xmlns:xlink="http://www.w3.org/1999/xlink">
    <title>block</title>
    <defs>
        <path d="M66.6666667,10.6666667 L13.3333334,10.6666667 C9.66666669,10.6666667 6.70000003,13.0666667 6.70000003,16.0000001 L6.66666669,48.0000002 C6.66666669,50.9333335 9.66666669,53.3333336 13.3333334,53.3333336 L66.6666667,53.3333336 C70.3333336,53.3333336 73.3333336,50.9333335 73.3333336,48.0000002 L73.3333336,16.0000001 C73.3333336,13.0666667 70.3333336,10.6666667 66.6666667,10.6666667 L66.6666667,10.6666667 Z M50.0000002,48.0000002 L13.3333334,48.0000002 L13.3333334,37.3333335 L50.0000002,37.3333335 L50.0000002,48.0000002 L50.0000002,48.0000002 Z M50.0000002,34.6666668 L13.3333334,34.6666668 L13.3333334,24.0000001 L50.0000002,24.0000001 L50.0000002,34.6666668 L50.0000002,34.6666668 Z M66.6666669,48.0000001 L53.3333336,48.0000001 L53.3333336,24.0000001 L66.6666669,24.0000001 L66.6666669,48.0000001 L66.6666669,48.0000001 Z" id="path-1"></path>
    </defs>
    <g id="Page-1" stroke="none" stroke-width="1" fill="none" fill-rule="evenodd">
        <g id="Close_Window" transform="translate(-649.000000, -296.000000)">
            <g id="Tile" transform="translate(450.000000, 246.000000)">
                <g id="block" transform="translate(193.000000, 40.000000)">
                    <polygon id="Base" fill-rule="nonzero" points="0 0 80.0000003 0 80.0000003 64.0000003 0 64.0000003"></polygon>
                    <mask id="mask-2" fill="white">
                        <use xlink:href="#path-1"></use>
                    </mask>
                    <g id="Icon" fill-rule="nonzero"></g>
                    <rect id="↳-🎨-Color" fill="#FFFFFF" mask="url(#mask-2)" x="1.66666609e-07" y="1.33334346e-07" width="80" height="64"></rect>
                </g>
            </g>
        </g>
    </g>
</svg>