<svg width="24" height="24" viewBox="0 0 24 24" fill="none" xmlns="http://www.w3.org/2000/svg">
<path d="M12.207 2.29279C12.0195 2.10532 11.7652 2 11.5 2C11.2348 2 10.9805 2.10532 10.793 2.29279L7.793 5.29282C7.60553 5.48035 7.50021 5.73466 7.50021 5.99983C7.50021 6.265 7.60553 6.51931 7.793 6.70684L10.793 9.70687C10.9816 9.88903 11.2342 9.98982 11.4964 9.98755C11.7586 9.98527 12.0094 9.8801 12.1948 9.69469C12.3802 9.50928 12.4854 9.25846 12.4877 8.99626C12.49 8.73406 12.3892 8.48146 12.207 8.29285L10.914 6.99984H12.5C16.048 6.99984 19 9.95187 19 13.4999C19 17.0479 16.048 20 12.5 20C8.952 20 6 17.0479 6 13.4999C6 13.2347 5.89464 12.9803 5.70711 12.7928C5.51957 12.6053 5.26522 12.4999 5 12.4999C4.73478 12.4999 4.48043 12.6053 4.29289 12.7928C4.10536 12.9803 4 13.2347 4 13.4999C4 18.152 7.848 22 12.5 22C17.152 22 21 18.152 21 13.4999C21 8.84786 17.152 4.99982 12.5 4.99982H10.914L12.207 3.7068C12.3945 3.51928 12.4998 3.26496 12.4998 2.9998C12.4998 2.73463 12.3945 2.48032 12.207 2.29279V2.29279Z" fill="white"/>
</svg>
