<svg width="125" height="125" viewBox="0 0 125 125" fill="none" xmlns="http://www.w3.org/2000/svg">
    <path d="M112.793 110.352H81.9292L123.146 69.1348C125.613 66.6682 125.613 62.6553 123.146 60.189L74.5757 11.6184C73.3809 10.4236 71.7925 9.76562 70.1028 9.76562C68.4131 9.76562 66.8245 10.4236 65.6299 11.6184L1.854 75.394C0.65918 76.5889 0.0012207 78.1772 0.0012207 79.8669C0.0012207 81.5566 0.65918 83.1453 1.854 84.3398L27.8655 110.352H2.44141C1.09302 110.352 0 111.445 0 112.793C0 114.141 1.09302 115.234 2.44141 115.234H112.793C114.141 115.234 115.234 114.141 115.234 112.793C115.234 111.445 114.141 110.352 112.793 110.352ZM34.7708 110.352L5.30664 80.8872C5.03418 80.6147 4.88403 80.2524 4.88403 79.8669C4.88403 79.4814 5.03418 79.1191 5.30664 78.8467L69.0825 15.071C69.355 14.7986 69.7173 14.6484 70.1028 14.6484C70.4883 14.6484 70.8506 14.7986 71.123 15.071L119.693 63.6414C120.256 64.2039 120.256 65.1191 119.693 65.6819L75.0237 110.352H34.7708Z" fill="white"/>
    <path d="M43.3031 82.3491C42.7181 81.134 41.2587 80.6238 40.0443 81.2085C38.8292 81.7935 38.3187 83.2524 38.9037 84.4673L43.9569 94.9624L33.462 89.9092C32.2469 89.3242 30.788 89.8352 30.2032 91.0498C29.6183 92.2647 30.1288 93.7239 31.3436 94.3086L48.1234 102.388C48.4613 102.551 48.8231 102.63 49.1818 102.63C49.8155 102.63 50.4403 102.383 50.9088 101.915C51.6425 101.181 51.8324 100.064 51.3822 99.1292L43.3031 82.3491Z" fill="white"/>
    <path d="M61.186 72.0226C57.8355 68.6723 52.3835 68.672 49.0325 72.0226C45.6819 75.3734 45.6819 80.8253 49.0325 84.1762L52.7612 87.9049C54.4365 89.5802 56.6372 90.4179 58.8381 90.4179C61.0388 90.4179 63.2395 89.5802 64.9148 87.9049C68.2654 84.5541 68.2654 79.1022 64.9148 75.7514L61.186 72.0226ZM61.4622 84.4523C60.0154 85.8993 57.6609 85.8991 56.2141 84.4523L52.4854 80.7235C51.0383 79.2768 51.0383 76.9225 52.4854 75.4755C53.2087 74.7521 54.1589 74.3903 55.1094 74.3903C56.0598 74.3903 57.01 74.7521 57.7334 75.4755L61.4622 79.2043C62.9092 80.6513 62.9092 83.0055 61.4622 84.4523Z" fill="white"/>
    <path d="M90.8714 55.0441L86.9034 59.0121C86.6834 59.2326 86.3253 59.2324 86.1048 59.0121L83.742 56.6494L86.366 54.0253C87.3194 53.072 87.3194 51.5261 86.366 50.5724C85.4127 49.6191 83.8668 49.6191 82.9131 50.5724L80.2891 53.1965L77.9263 50.8337C77.7061 50.6135 77.7061 50.2553 77.9263 50.0351L81.8946 46.0671C82.848 45.1137 82.8482 43.5678 81.8946 42.6144C80.941 41.6611 79.3953 41.6611 78.442 42.6144L74.4737 46.5827C72.3499 48.7067 72.3499 52.1623 74.4737 54.2866L82.6522 62.465C83.6812 63.4938 85.0491 64.0605 86.5042 64.0605C87.959 64.0605 89.3272 63.4938 90.356 62.465L94.324 58.497C95.2774 57.5436 95.2774 55.9977 94.324 55.0441C93.3709 54.0908 91.825 54.0908 90.8714 55.0441Z" fill="white"/>
    <path d="M68.0165 59.9467L70.278 57.6852C71.2314 56.7319 71.2314 55.186 70.278 54.2326C69.3246 53.2792 67.7787 53.2792 66.8254 54.2326L62.8381 58.2199L62.8376 58.2204L62.8371 58.2211L58.8498 62.2084C57.8964 63.1618 57.8964 64.7077 58.8498 65.6611C59.3266 66.1379 59.9514 66.3762 60.5761 66.3762C61.2009 66.3762 61.8259 66.1376 62.3024 65.6611L64.5637 63.3996L75.267 74.103C75.7438 74.5798 76.3686 74.8181 76.9933 74.8181C77.6181 74.8181 78.2431 74.5798 78.7197 74.103C79.673 73.1496 79.673 71.6037 78.7197 70.6501L68.0165 59.9467Z" fill="white"/>
    <path d="M124.285 111.067C123.831 110.613 123.201 110.352 122.559 110.352C121.917 110.352 121.287 110.613 120.833 111.067C120.378 111.521 120.117 112.151 120.117 112.793C120.117 113.435 120.378 114.065 120.833 114.519C121.287 114.973 121.917 115.234 122.559 115.234C123.201 115.234 123.831 114.973 124.285 114.519C124.739 114.065 125 113.435 125 112.793C125 112.151 124.739 111.521 124.285 111.067Z" fill="white"/>
</svg>
