<svg width="195" height="192" viewBox="0 0 195 192" fill="none" xmlns="http://www.w3.org/2000/svg">
    <path opacity="0.4" d="M14.8005 20.9896C14.8005 16.985 16.5694 12.5382 21.0653 12.5382C25.5367 12.5382 27.3302 16.985 27.3302 20.9896C27.3302 24.9697 25.5367 29.4657 21.0653 29.4657C16.5694 29.4657 14.8005 24.9697 14.8005 20.9896ZM25.2419 20.9896C25.2419 17.7221 24.1855 14.3562 21.0653 14.3562C17.9452 14.3562 16.8888 17.7221 16.8888 20.9896C16.8888 24.2572 17.9452 27.6476 21.0653 27.6476C24.1855 27.6476 25.2419 24.2572 25.2419 20.9896ZM38.1231 29.1708L34.5607 24.3063L30.9984 29.1708H28.8855L33.4306 23.0779L29.1312 17.3044H31.2686L34.5607 21.825L37.8529 17.3044H39.9903L35.6909 23.0779L40.2605 29.1708H38.1231ZM41.8164 25.0188C41.8164 22.8323 43.6836 21.3336 45.7227 20.7194C43.831 20.1789 42.0866 18.9505 42.0866 16.7885C42.0866 13.8403 44.9611 12.5382 47.6882 12.5382C50.3907 12.5382 53.3143 13.8403 53.3143 16.7885C53.3143 18.9505 51.5454 20.1789 49.6536 20.7194C51.6928 21.3336 53.56 22.8323 53.56 25.0188C53.56 27.795 50.9066 29.4657 47.6882 29.4657C44.4452 29.4657 41.8164 27.8196 41.8164 25.0188ZM51.2506 17.0587C51.2506 15.3635 49.6536 14.3562 47.6882 14.3562C45.6982 14.3562 44.1258 15.3635 44.1258 17.0587C44.1258 19.0488 46.7055 19.7121 47.6882 19.8841C48.6955 19.7121 51.2506 19.0488 51.2506 17.0587ZM51.4962 24.7977C51.4962 22.6603 48.6955 21.7513 47.6882 21.6284C46.6809 21.7513 43.8555 22.6603 43.8555 24.7977C43.8555 26.5666 45.649 27.6476 47.6882 27.6476C49.7028 27.6476 51.4962 26.5666 51.4962 24.7977ZM55.625 27.5985L56.5832 26.2718C57.3694 27.1808 58.868 27.967 60.4895 27.967C62.3076 27.967 63.2903 27.1562 63.2903 26.0015C63.2903 24.6994 61.8408 24.2818 60.2438 23.8887C58.2293 23.4219 55.9444 22.8814 55.9444 20.4246C55.9444 18.582 57.5413 17.0096 60.3667 17.0096C62.3813 17.0096 63.8062 17.7712 64.7644 18.7294L63.9045 20.0069C63.192 19.147 61.8899 18.5083 60.3667 18.5083C58.7452 18.5083 57.7379 19.2453 57.7379 20.3017C57.7379 21.4564 59.0891 21.825 60.6369 22.1935C62.7007 22.6603 65.0838 23.2499 65.0838 25.8787C65.0838 27.8687 63.4868 29.4657 60.4158 29.4657C58.4749 29.4657 56.8289 28.876 55.625 27.5985ZM69.9198 33.6914H68.0772V17.3044H69.9198V19.0733C70.7797 17.8695 72.2538 17.0096 73.9245 17.0096C77.0446 17.0096 79.2066 19.3681 79.2066 23.2253C79.2066 27.058 77.0446 29.4657 73.9245 29.4657C72.303 29.4657 70.878 28.704 69.9198 27.3774V33.6914ZM77.2657 23.2253C77.2657 20.5966 75.8408 18.6557 73.4577 18.6557C72.0081 18.6557 70.5586 19.5156 69.9198 20.5474V25.9033C70.5586 26.9351 72.0081 27.8196 73.4577 27.8196C75.8408 27.8196 77.2657 25.8541 77.2657 23.2253ZM90.7836 29.1708V27.4019C89.8991 28.6058 88.4496 29.4657 86.779 29.4657C83.6834 29.4657 81.4968 27.1071 81.4968 23.2499C81.4968 19.4664 83.6588 17.0096 86.779 17.0096C88.3759 17.0096 89.8254 17.7958 90.7836 19.0979V12.7839H92.6262V29.1708H90.7836ZM90.7836 25.9524V20.572C90.1202 19.5401 88.6953 18.6557 87.2212 18.6557C84.8381 18.6557 83.4131 20.6211 83.4131 23.2499C83.4131 25.8787 84.8381 27.8196 87.2212 27.8196C88.6953 27.8196 90.1202 26.9843 90.7836 25.9524ZM107.716 29.1708L102.483 22.1935L97.2498 29.1708H94.7684L101.156 20.7685L95.1369 12.7839H97.6183L102.483 19.3436L107.323 12.7839H109.804L103.809 20.744L110.173 29.1708H107.716ZM111.778 25.0188C111.778 22.8323 113.645 21.3336 115.684 20.7194C113.793 20.1789 112.048 18.9505 112.048 16.7885C112.048 13.8403 114.923 12.5382 117.65 12.5382C120.352 12.5382 123.276 13.8403 123.276 16.7885C123.276 18.9505 121.507 20.1789 119.615 20.7194C121.654 21.3336 123.522 22.8323 123.522 25.0188C123.522 27.795 120.868 29.4657 117.65 29.4657C114.407 29.4657 111.778 27.8196 111.778 25.0188ZM121.212 17.0587C121.212 15.3635 119.615 14.3562 117.65 14.3562C115.66 14.3562 114.087 15.3635 114.087 17.0587C114.087 19.0488 116.667 19.7121 117.65 19.8841C118.657 19.7121 121.212 19.0488 121.212 17.0587ZM121.458 24.7977C121.458 22.6603 118.657 21.7513 117.65 21.6284C116.643 21.7513 113.817 22.6603 113.817 24.7977C113.817 26.5666 115.611 27.6476 117.65 27.6476C119.664 27.6476 121.458 26.5666 121.458 24.7977ZM130.338 29.1708V14.6019H125.154V12.7839H137.586V14.6019H132.377V29.1708H130.338ZM150.197 29.1708L143.981 21.8004L142.335 23.6676V29.1708H140.296V12.7839H142.335V21.2599L149.583 12.7839H152.138L145.308 20.572L152.727 29.1708H150.197ZM154.846 29.1708V18.9259H152.88V17.3044H154.846V16.3954C154.846 13.9386 156.221 12.5382 158.285 12.5382C158.973 12.5382 159.612 12.661 160.079 12.9559L159.612 14.3317C159.317 14.1597 158.973 14.0614 158.555 14.0614C157.352 14.0614 156.688 14.8967 156.688 16.3954V17.3044H159.096V18.9259H156.688V29.1708H154.846ZM161.361 29.1708V12.7839H172.097V14.6019H163.4V19.8841H171.925V21.7021H163.4V27.3528H172.097V29.1708H161.361ZM23.3993 51.1708V43.4073C23.3993 41.319 22.3429 40.6557 20.746 40.6557C19.2964 40.6557 17.9206 41.5401 17.2327 42.4983V51.1708H15.3901V39.3044H17.2327V41.0242C18.068 40.0415 19.6895 39.0096 21.4584 39.0096C23.9398 39.0096 25.2419 40.2626 25.2419 42.8422V51.1708H23.3993ZM35.6534 51.1708V47.0188H27.8653V45.3236L34.8918 34.7839H37.6926V45.2253H40.002V47.0188H37.6926V51.1708H35.6534ZM35.6534 36.6756L29.9045 45.2253H35.6534V36.6756ZM54.021 51.1708L48.788 44.1935L43.555 51.1708H41.0736L47.4613 42.7685L41.4421 34.7839H43.9235L48.788 41.3436L53.6279 34.7839H56.1093L50.1147 42.744L56.4778 51.1708H54.021ZM68.2053 51.1708L64.0287 44.6603H60.7611V51.1708H58.722V34.7839H65.3062C68.3035 34.7839 70.441 36.7002 70.441 39.7221C70.441 42.6703 68.4264 44.2918 66.1907 44.4883L70.6129 51.1708H68.2053ZM68.3281 39.7221C68.3281 37.8795 67.0014 36.6019 65.0605 36.6019H60.7611V42.8668H65.0605C67.0014 42.8668 68.3281 41.5647 68.3281 39.7221ZM81.6047 51.1708V43.4073C81.6047 41.319 80.5483 40.6557 78.9513 40.6557C77.5018 40.6557 76.126 41.5401 75.4381 42.4983V51.1708H73.5955V39.3044H75.4381V41.0242C76.2734 40.0415 77.8949 39.0096 79.6638 39.0096C82.1452 39.0096 83.4473 40.2626 83.4473 42.8422V51.1708H81.6047ZM86.5621 51.1708V49.7459L93.0972 40.9259H86.5621V39.3044H95.5049V40.7048L88.9206 49.5739H95.6031V51.1708H86.5621ZM97.8064 48.8614L99.0103 47.3136C100.091 48.5175 101.86 49.6476 104.17 49.6476C107.093 49.6476 108.027 48.0753 108.027 46.8223C108.027 44.8568 106.037 44.3163 103.875 43.7267C101.246 43.0388 98.3223 42.3017 98.3223 39.0833C98.3223 36.3808 100.73 34.5382 103.948 34.5382C106.454 34.5382 108.395 35.3735 109.771 36.823L108.543 38.3217C107.314 36.9705 105.595 36.3562 103.801 36.3562C101.836 36.3562 100.435 37.4127 100.435 38.9605C100.435 40.6065 102.327 41.0979 104.415 41.663C107.093 42.3754 110.14 43.2108 110.14 46.6503C110.14 49.0334 108.518 51.4657 104.096 51.4657C101.246 51.4657 99.1577 50.3847 97.8064 48.8614ZM112.521 43.0142C112.521 38.5674 114.585 34.5382 119.179 34.5382C121.292 34.5382 122.717 35.349 123.724 36.5037L122.692 38.0269C121.857 37.0442 120.899 36.3562 119.179 36.3562C116.01 36.3562 114.56 39.5747 114.56 42.7931C114.56 43.0142 114.56 43.2108 114.585 43.4319C115.297 42.3017 117.115 40.8768 119.228 40.8768C122.176 40.8768 124.584 42.6211 124.584 46.1098C124.584 48.9597 122.422 51.4657 118.835 51.4657C114.266 51.4657 112.521 47.461 112.521 43.0142ZM122.52 46.1835C122.52 43.7758 120.85 42.6457 118.737 42.6457C117.115 42.6457 115.543 43.653 114.634 45.1025C114.831 47.1417 115.912 49.6476 118.762 49.6476C121.292 49.6476 122.52 47.7559 122.52 46.1835ZM135.39 51.4657C130.746 51.4657 127.037 48.0261 127.037 42.9896C127.037 37.9532 130.746 34.5136 135.39 34.5136C138.362 34.5136 140.377 35.914 141.679 37.7566L139.959 38.7148C139.026 37.339 137.331 36.3317 135.39 36.3317C131.876 36.3317 129.149 39.0833 129.149 42.9896C129.149 46.8714 131.876 49.6476 135.39 49.6476C137.331 49.6476 139.026 48.6649 139.959 47.2645L141.704 48.2227C140.328 50.0898 138.362 51.4657 135.39 51.4657ZM143.713 51.1708V49.5493C149.609 44.906 152.803 42.1789 152.803 39.3536C152.803 37.2653 151.083 36.3562 149.388 36.3562C147.423 36.3562 145.9 37.1916 144.941 38.42L143.688 37.1179C144.941 35.4718 147.079 34.5382 149.388 34.5382C152.115 34.5382 154.891 36.086 154.891 39.3536C154.891 42.6948 151.501 45.7413 146.931 49.3528H154.965V51.1708H143.713ZM162.8 51.1708V36.6019H157.616V34.7839H170.047V36.6019H164.839V51.1708H162.8ZM14.8005 65.0142C14.8005 60.5674 16.8642 56.5382 21.4584 56.5382C23.5713 56.5382 24.9962 57.349 26.0035 58.5037L24.9717 60.0269C24.1364 59.0442 23.1782 58.3562 21.4584 58.3562C18.2891 58.3562 16.8396 61.5747 16.8396 64.7931C16.8396 65.0142 16.8396 65.2108 16.8642 65.4319C17.5767 64.3017 19.3947 62.8768 21.5076 62.8768C24.4557 62.8768 26.8634 64.6211 26.8634 68.1098C26.8634 70.9597 24.7014 73.4657 21.1145 73.4657C16.5448 73.4657 14.8005 69.461 14.8005 65.0142ZM24.7997 68.1835C24.7997 65.7758 23.1291 64.6457 21.0162 64.6457C19.3947 64.6457 17.8223 65.653 16.9133 67.1025C17.1099 69.1417 18.1909 71.6476 21.0408 71.6476C23.5713 71.6476 24.7997 69.7559 24.7997 68.1835ZM29.6843 70.8369L30.9373 69.4856C32.0183 70.8614 33.4433 71.6476 35.4579 71.6476C37.6936 71.6476 39.2413 70.1244 39.2413 68.1344C39.2413 65.9724 37.6936 64.5966 35.4824 64.5966C34.0329 64.5966 32.8045 65.0634 31.6989 66.1443L30.2003 65.6284V56.7839H40.2241V58.6019H32.2394V64.3017C33.0256 63.5156 34.426 62.8276 36.0721 62.8276C38.7991 62.8276 41.2805 64.6948 41.2805 68.0607C41.2805 71.4019 38.75 73.4657 35.4579 73.4657C32.6817 73.4657 30.9127 72.4584 29.6843 70.8369ZM60.0713 64.9896C60.0713 67.3973 59.2605 69.5102 57.8356 71.0334L59.3834 72.704L57.9584 73.9324L56.3861 72.2372C55.1331 73.0234 53.6344 73.4657 51.9392 73.4657C47.0747 73.4657 43.8072 69.8296 43.8072 64.9896C43.8072 60.1497 47.0747 56.5136 51.9392 56.5136C56.7792 56.5136 60.0713 60.1497 60.0713 64.9896ZM51.9392 71.6476C53.1431 71.6476 54.1749 71.3528 55.0594 70.8123L52.7254 68.2818L54.1504 67.0779L56.4598 69.5593C57.4179 68.4046 57.9584 66.8077 57.9584 64.9896C57.9584 61.157 55.5999 58.3317 51.9392 58.3317C48.254 58.3317 45.92 61.157 45.92 64.9896C45.92 68.7977 48.254 71.6476 51.9392 71.6476ZM75.3064 73.1708L71.6949 59.9532L68.0834 73.1708H65.8722L61.2043 56.7839H63.4646L67.1007 70.4438L70.8596 56.7839H72.5548L76.3137 70.4438L79.9252 56.7839H82.1855L77.5175 73.1708H75.3064ZM83.8761 73.1708V71.5493C89.7724 66.906 92.9663 64.1789 92.9663 61.3536C92.9663 59.2653 91.2465 58.3562 89.5513 58.3562C87.5859 58.3562 86.0627 59.1916 85.1045 60.42L83.8515 59.1179C85.1045 57.4718 87.2419 56.5382 89.5513 56.5382C92.2784 56.5382 95.0546 58.086 95.0546 61.3536C95.0546 64.6948 91.6642 67.7413 87.0945 71.3528H95.1283V73.1708H83.8761ZM108.392 73.1708L104.216 66.6603H100.948V73.1708H98.9091V56.7839H105.493C108.491 56.7839 110.628 58.7002 110.628 61.7221C110.628 64.6703 108.614 66.2918 106.378 66.4883L110.8 73.1708H108.392ZM108.515 61.7221C108.515 59.8795 107.189 58.6019 105.248 58.6019H100.948V64.8668H105.248C107.189 64.8668 108.515 63.5647 108.515 61.7221ZM116.78 73.4657C115.036 73.4657 114.151 72.4584 114.151 70.6895V62.9259H112.186V61.3044H114.151V58.0614H115.994V61.3044H118.401V62.9259H115.994V70.2964C115.994 71.1808 116.387 71.8196 117.198 71.8196C117.714 71.8196 118.205 71.5985 118.451 71.3282L118.991 72.704C118.524 73.1463 117.861 73.4657 116.78 73.4657ZM121.004 73.1708V61.3044H122.847V63.2207C123.805 61.9678 125.181 61.0587 126.802 61.0587V62.9505C126.581 62.9014 126.36 62.8768 126.065 62.8768C124.935 62.8768 123.387 63.8104 122.847 64.7685V73.1708H121.004ZM129.187 73.1708V56.7839H134.789C139.875 56.7839 143.191 60.3463 143.191 64.9896C143.191 69.6576 139.875 73.1708 134.789 73.1708H129.187ZM131.227 71.3528H134.789C138.769 71.3528 141.078 68.5029 141.078 64.9896C141.078 61.4518 138.843 58.6019 134.789 58.6019H131.227V71.3528ZM157.986 73.1708L148.429 59.9532V73.1708H146.39V56.7839H148.478L157.912 69.7313V56.7839H159.952V73.1708H157.986ZM163.784 73.1708V56.7839H171.081C173.931 56.7839 175.675 58.5037 175.675 60.9605C175.675 63.0242 174.3 64.4 172.801 64.7194C174.545 64.9896 175.995 66.7831 175.995 68.7486C175.995 71.3774 174.25 73.1708 171.253 73.1708H163.784ZM165.823 63.8841H170.737C172.58 63.8841 173.562 62.7539 173.562 61.2553C173.562 59.7812 172.58 58.6019 170.737 58.6019H165.823V63.8841ZM165.823 71.3528H170.835C172.752 71.3528 173.882 70.2718 173.882 68.5275C173.882 67.0288 172.85 65.7021 170.835 65.7021H165.823V71.3528ZM27.06 95.1708L17.503 81.9532V95.1708H15.4638V78.7839H17.5521L26.9863 91.7313V78.7839H29.0254V95.1708H27.06ZM32.2195 95.1708V93.7459L38.7546 84.9259H32.2195V83.3044H41.1623V84.7048L34.578 93.5739H41.2605V95.1708H32.2195ZM49.5567 95.4657C45.9452 95.4657 43.6849 92.6649 43.6849 89.2253C43.6849 85.7858 45.9452 83.0096 49.5567 83.0096C53.1682 83.0096 55.4285 85.7858 55.4285 89.2253C55.4285 92.6649 53.1682 95.4657 49.5567 95.4657ZM49.5567 93.8196C52.0872 93.8196 53.4876 91.6576 53.4876 89.2253C53.4876 86.8177 52.0872 84.6557 49.5567 84.6557C47.0262 84.6557 45.6012 86.8177 45.6012 89.2253C45.6012 91.6576 47.0262 93.8196 49.5567 93.8196ZM70.2742 95.1708L68.8246 91.5348H60.5206L59.0711 95.1708H56.8108L63.3951 78.7839H65.9256L72.5344 95.1708H70.2742ZM64.6726 80.6019L61.1103 89.7167H68.2104L64.6726 80.6019ZM77.8836 95.1708V88.2426L71.4222 78.7839H73.8053L78.8909 86.4L83.9765 78.7839H86.3596L79.9227 88.2426V95.1708H77.8836ZM92.5502 95.1708V80.6019H87.3663V78.7839H99.7978V80.6019H94.5893V95.1708H92.5502Z" fill="#979797"/>
    <path opacity="0.3" d="M14.6961 118.04V101.653H25.4324V103.471H16.7353V108.754H25.2604V110.572H16.7353V118.04H14.6961ZM28.2038 118.04V101.653H30.2429V118.04H28.2038ZM33.4186 109.859C33.4186 105.019 36.6861 101.383 41.5506 101.383C46.3905 101.383 49.6827 105.019 49.6827 109.859C49.6827 114.699 46.3905 118.335 41.5506 118.335C36.6861 118.335 33.4186 114.699 33.4186 109.859ZM47.5698 109.859C47.5698 106.026 45.2113 103.201 41.5506 103.201C37.8654 103.201 35.5314 106.026 35.5314 109.859C35.5314 113.667 37.8654 116.517 41.5506 116.517C45.2113 116.517 47.5698 113.667 47.5698 109.859ZM52.2291 113.888C52.2291 111.702 54.0963 110.203 56.1355 109.589C54.2437 109.048 52.4994 107.82 52.4994 105.658C52.4994 102.71 55.3738 101.408 58.1009 101.408C60.8034 101.408 63.727 102.71 63.727 105.658C63.727 107.82 61.9581 109.048 60.0664 109.589C62.1055 110.203 63.9727 111.702 63.9727 113.888C63.9727 116.664 61.3193 118.335 58.1009 118.335C54.8579 118.335 52.2291 116.689 52.2291 113.888ZM61.6633 105.928C61.6633 104.233 60.0664 103.226 58.1009 103.226C56.1109 103.226 54.5385 104.233 54.5385 105.928C54.5385 107.918 57.1182 108.582 58.1009 108.754C59.1082 108.582 61.6633 107.918 61.6633 105.928ZM61.909 113.667C61.909 111.53 59.1082 110.621 58.1009 110.498C57.0936 110.621 54.2683 111.53 54.2683 113.667C54.2683 115.436 56.0617 116.517 58.1009 116.517C60.1155 116.517 61.909 115.436 61.909 113.667ZM66.0378 116.468L66.9959 115.141C67.7821 116.05 69.2807 116.836 70.9022 116.836C72.7203 116.836 73.703 116.026 73.703 114.871C73.703 113.569 72.2535 113.151 70.6566 112.758C68.642 112.291 66.3571 111.751 66.3571 109.294C66.3571 107.451 67.9541 105.879 70.7794 105.879C72.794 105.879 74.2189 106.641 75.1771 107.599L74.3172 108.876C73.6047 108.016 72.3026 107.378 70.7794 107.378C69.1579 107.378 68.1506 108.115 68.1506 109.171C68.1506 110.326 69.5019 110.694 71.0497 111.063C73.1134 111.53 75.4965 112.119 75.4965 114.748C75.4965 116.738 73.8996 118.335 70.8285 118.335C68.8877 118.335 67.2416 117.745 66.0378 116.468ZM80.3326 122.561H78.49V106.174H80.3326V107.943C81.1925 106.739 82.6665 105.879 84.3372 105.879C87.4573 105.879 89.6193 108.238 89.6193 112.095C89.6193 115.927 87.4573 118.335 84.3372 118.335C82.7157 118.335 81.2907 117.573 80.3326 116.247V122.561ZM87.6784 112.095C87.6784 109.466 86.2535 107.525 83.8704 107.525C82.4209 107.525 80.9713 108.385 80.3326 109.417V114.773C80.9713 115.805 82.4209 116.689 83.8704 116.689C86.2535 116.689 87.6784 114.724 87.6784 112.095ZM101.196 118.04V116.271C100.312 117.475 98.8623 118.335 97.1917 118.335C94.0961 118.335 91.9095 115.977 91.9095 112.119C91.9095 108.336 94.0715 105.879 97.1917 105.879C98.7886 105.879 100.238 106.665 101.196 107.967V101.653H103.039V118.04H101.196ZM101.196 114.822V109.441C100.533 108.41 99.108 107.525 97.6339 107.525C95.2508 107.525 93.8259 109.491 93.8259 112.119C93.8259 114.748 95.2508 116.689 97.6339 116.689C99.108 116.689 100.533 115.854 101.196 114.822ZM118.129 118.04L112.896 111.063L107.663 118.04H105.181L111.569 109.638L105.55 101.653H108.031L112.896 108.213L117.735 101.653H120.217L114.222 109.613L120.585 118.04H118.129ZM122.191 113.888C122.191 111.702 124.058 110.203 126.097 109.589C124.205 109.048 122.461 107.82 122.461 105.658C122.461 102.71 125.335 101.408 128.063 101.408C130.765 101.408 133.689 102.71 133.689 105.658C133.689 107.82 131.92 109.048 130.028 109.589C132.067 110.203 133.934 111.702 133.934 113.888C133.934 116.664 131.281 118.335 128.063 118.335C124.82 118.335 122.191 116.689 122.191 113.888ZM131.625 105.928C131.625 104.233 130.028 103.226 128.063 103.226C126.073 103.226 124.5 104.233 124.5 105.928C124.5 107.918 127.08 108.582 128.063 108.754C129.07 108.582 131.625 107.918 131.625 105.928ZM131.871 113.667C131.871 111.53 129.07 110.621 128.063 110.498C127.055 110.621 124.23 111.53 124.23 113.667C124.23 115.436 126.023 116.517 128.063 116.517C130.077 116.517 131.871 115.436 131.871 113.667ZM140.751 118.04V103.471H135.567V101.653H147.998V103.471H142.79V118.04H140.751ZM160.61 118.04L154.394 110.67L152.748 112.537V118.04H150.709V101.653H152.748V110.129L159.995 101.653H162.55L155.72 109.441L163.14 118.04H160.61ZM165.258 118.04V107.795H163.293V106.174H165.258V105.265C165.258 102.808 166.634 101.408 168.698 101.408C169.386 101.408 170.025 101.53 170.491 101.825L170.025 103.201C169.73 103.029 169.386 102.931 168.968 102.931C167.764 102.931 167.101 103.766 167.101 105.265V106.174H169.509V107.795H167.101V118.04H165.258ZM14.6961 140.04V123.653H25.4324V125.471H16.7353V130.754H25.2604V132.572H16.7353V138.222H25.4324V140.04H14.6961ZM36.6191 140.04V132.277C36.6191 130.188 35.5627 129.525 33.9658 129.525C32.5163 129.525 31.1404 130.41 30.4525 131.368V140.04H28.6099V128.174H30.4525V129.894C31.2878 128.911 32.9093 127.879 34.6783 127.879C37.1596 127.879 38.4617 129.132 38.4617 131.712V140.04H36.6191ZM48.8733 140.04V135.888H41.0852V134.193L48.1116 123.653H50.9124V134.095H53.2218V135.888H50.9124V140.04H48.8733ZM48.8733 125.545L43.1243 134.095H48.8733V125.545ZM67.2408 140.04L62.0078 133.063L56.7748 140.04H54.2934L60.6811 131.638L54.6619 123.653H57.1433L62.0078 130.213L66.8477 123.653H69.3291L63.3345 131.613L69.6976 140.04H67.2408ZM81.4251 140.04L77.2485 133.53H73.9809V140.04H71.9418V123.653H78.526C81.5234 123.653 83.6608 125.57 83.6608 128.592C83.6608 131.54 81.6462 133.161 79.4105 133.358L83.8328 140.04H81.4251ZM81.5479 128.592C81.5479 126.749 80.2212 125.471 78.2804 125.471H73.9809V131.736H78.2804C80.2212 131.736 81.5479 130.434 81.5479 128.592ZM94.8245 140.04V132.277C94.8245 130.188 93.7681 129.525 92.1712 129.525C90.7216 129.525 89.3458 130.41 88.6579 131.368V140.04H86.8153V128.174H88.6579V129.894C89.4932 128.911 91.1147 127.879 92.8836 127.879C95.365 127.879 96.6671 129.132 96.6671 131.712V140.04H94.8245ZM99.7819 140.04V138.615L106.317 129.795H99.7819V128.174H108.725V129.574L102.14 138.443H108.823V140.04H99.7819ZM111.026 137.731L112.23 136.183C113.311 137.387 115.08 138.517 117.389 138.517C120.313 138.517 121.247 136.945 121.247 135.692C121.247 133.726 119.257 133.186 117.095 132.596C114.466 131.908 111.542 131.171 111.542 127.953C111.542 125.25 113.95 123.408 117.168 123.408C119.674 123.408 121.615 124.243 122.991 125.692L121.763 127.191C120.534 125.84 118.814 125.226 117.021 125.226C115.055 125.226 113.655 126.282 113.655 127.83C113.655 129.476 115.547 129.967 117.635 130.532C120.313 131.245 123.359 132.08 123.359 135.52C123.359 137.903 121.738 140.335 117.316 140.335C114.466 140.335 112.377 139.254 111.026 137.731ZM125.741 131.884C125.741 127.437 127.805 123.408 132.399 123.408C134.512 123.408 135.937 124.218 136.944 125.373L135.912 126.896C135.077 125.914 134.119 125.226 132.399 125.226C129.23 125.226 127.78 128.444 127.78 131.663C127.78 131.884 127.78 132.08 127.805 132.301C128.517 131.171 130.335 129.746 132.448 129.746C135.396 129.746 137.804 131.491 137.804 134.979C137.804 137.829 135.642 140.335 132.055 140.335C127.485 140.335 125.741 136.33 125.741 131.884ZM135.74 135.053C135.74 132.645 134.07 131.515 131.957 131.515C130.335 131.515 128.763 132.522 127.854 133.972C128.05 136.011 129.131 138.517 131.981 138.517C134.512 138.517 135.74 136.625 135.74 135.053ZM148.61 140.335C143.966 140.335 140.256 136.896 140.256 131.859C140.256 126.823 143.966 123.383 148.61 123.383C151.582 123.383 153.597 124.783 154.899 126.626L153.179 127.584C152.246 126.208 150.55 125.201 148.61 125.201C145.096 125.201 142.369 127.953 142.369 131.859C142.369 135.741 145.096 138.517 148.61 138.517C150.55 138.517 152.246 137.534 153.179 136.134L154.924 137.092C153.548 138.959 151.582 140.335 148.61 140.335ZM156.933 140.04V138.419C162.829 133.775 166.023 131.048 166.023 128.223C166.023 126.135 164.303 125.226 162.608 125.226C160.643 125.226 159.119 126.061 158.161 127.289L156.908 125.987C158.161 124.341 160.299 123.408 162.608 123.408C165.335 123.408 168.111 124.955 168.111 128.223C168.111 131.564 164.721 134.611 160.151 138.222H168.185V140.04H156.933ZM18.7498 162.04V147.471H13.566V145.653H25.9974V147.471H20.789V162.04H18.7498ZM28.0443 153.884C28.0443 149.437 30.108 145.408 34.7022 145.408C36.8151 145.408 38.2401 146.218 39.2474 147.373L38.2155 148.896C37.3802 147.914 36.422 147.226 34.7022 147.226C31.533 147.226 30.0834 150.444 30.0834 153.663C30.0834 153.884 30.0834 154.08 30.108 154.301C30.8205 153.171 32.6385 151.746 34.7514 151.746C37.6996 151.746 40.1072 153.491 40.1072 156.979C40.1072 159.829 37.9452 162.335 34.3583 162.335C29.7886 162.335 28.0443 158.33 28.0443 153.884ZM38.0435 157.053C38.0435 154.645 36.3729 153.515 34.26 153.515C32.6385 153.515 31.0662 154.522 30.1571 155.972C30.3537 158.011 31.4347 160.517 34.2846 160.517C36.8151 160.517 38.0435 158.625 38.0435 157.053ZM42.9282 159.706L44.1811 158.355C45.2621 159.731 46.6871 160.517 48.7017 160.517C50.9374 160.517 52.4852 158.994 52.4852 157.004C52.4852 154.842 50.9374 153.466 48.7262 153.466C47.2767 153.466 46.0483 153.933 44.9427 155.014L43.4441 154.498V145.653H53.4679V147.471H45.4832V153.171C46.2694 152.385 47.6698 151.697 49.3159 151.697C52.0429 151.697 54.5243 153.564 54.5243 156.93C54.5243 160.271 51.9938 162.335 48.7017 162.335C45.9255 162.335 44.1566 161.328 42.9282 159.706ZM73.3151 153.859C73.3151 156.267 72.5044 158.38 71.0794 159.903L72.6272 161.573L71.2022 162.802L69.6299 161.107C68.3769 161.893 66.8783 162.335 65.1831 162.335C60.3186 162.335 57.051 158.699 57.051 153.859C57.051 149.019 60.3186 145.383 65.1831 145.383C70.023 145.383 73.3151 149.019 73.3151 153.859ZM65.1831 160.517C66.3869 160.517 67.4188 160.222 68.3032 159.682L65.9692 157.151L67.3942 155.947L69.7036 158.429C70.6617 157.274 71.2022 155.677 71.2022 153.859C71.2022 150.026 68.8437 147.201 65.1831 147.201C61.4978 147.201 59.1639 150.026 59.1639 153.859C59.1639 157.667 61.4978 160.517 65.1831 160.517ZM88.5502 162.04L84.9387 148.823L81.3272 162.04H79.1161L74.4481 145.653H76.7084L80.3445 159.313L84.1034 145.653H85.7986L89.5575 159.313L93.169 145.653H95.4293L90.7614 162.04H88.5502ZM97.1199 162.04V160.419C103.016 155.775 106.21 153.048 106.21 150.223C106.21 148.135 104.49 147.226 102.795 147.226C100.83 147.226 99.3065 148.061 98.3483 149.289L97.0953 147.987C98.3483 146.341 100.486 145.408 102.795 145.408C105.522 145.408 108.298 146.955 108.298 150.223C108.298 153.564 104.908 156.611 100.338 160.222H108.372V162.04H97.1199ZM121.636 162.04L117.46 155.53H114.192V162.04H112.153V145.653H118.737C121.734 145.653 123.872 147.57 123.872 150.592C123.872 153.54 121.857 155.161 119.622 155.358L124.044 162.04H121.636ZM121.759 150.592C121.759 148.749 120.432 147.471 118.491 147.471H114.192V153.736H118.491C120.432 153.736 121.759 152.434 121.759 150.592ZM130.024 162.335C128.279 162.335 127.395 161.328 127.395 159.559V151.795H125.43V150.174H127.395V146.931H129.238V150.174H131.645V151.795H129.238V159.166C129.238 160.05 129.631 160.689 130.441 160.689C130.957 160.689 131.449 160.468 131.694 160.198L132.235 161.573C131.768 162.016 131.105 162.335 130.024 162.335ZM134.248 162.04V150.174H136.091V152.09C137.049 150.837 138.425 149.928 140.046 149.928V151.82C139.825 151.771 139.604 151.746 139.309 151.746C138.179 151.746 136.631 152.68 136.091 153.638V162.04H134.248ZM142.431 162.04V145.653H148.033C153.118 145.653 156.435 149.216 156.435 153.859C156.435 158.527 153.118 162.04 148.033 162.04H142.431ZM144.47 160.222H148.033C152.013 160.222 154.322 157.372 154.322 153.859C154.322 150.321 152.087 147.471 148.033 147.471H144.47V160.222ZM171.23 162.04L161.673 148.823V162.04H159.634V145.653H161.722L171.156 158.601V145.653H173.195V162.04H171.23ZM14.6961 184.04V167.653H21.9928C24.8427 167.653 26.5871 169.373 26.5871 171.83C26.5871 173.894 25.2113 175.269 23.7126 175.589C25.4569 175.859 26.9065 177.653 26.9065 179.618C26.9065 182.247 25.1621 184.04 22.1648 184.04H14.6961ZM16.7353 174.754H21.6489C23.4915 174.754 24.4742 173.623 24.4742 172.125C24.4742 170.651 23.4915 169.471 21.6489 169.471H16.7353V174.754ZM16.7353 182.222H21.7472C23.6635 182.222 24.7936 181.141 24.7936 179.397C24.7936 177.898 23.7617 176.572 21.7472 176.572H16.7353V182.222ZM41.7433 184.04L32.1863 170.823V184.04H30.1472V167.653H32.2354L41.6696 180.601V167.653H43.7088V184.04H41.7433ZM46.9028 184.04V182.615L53.4379 173.795H46.9028V172.174H55.8456V173.574L49.2614 182.443H55.9439V184.04H46.9028ZM64.2401 184.335C60.6285 184.335 58.3683 181.534 58.3683 178.095C58.3683 174.655 60.6285 171.879 64.2401 171.879C67.8516 171.879 70.1118 174.655 70.1118 178.095C70.1118 181.534 67.8516 184.335 64.2401 184.335ZM64.2401 182.689C66.7706 182.689 68.171 180.527 68.171 178.095C68.171 175.687 66.7706 173.525 64.2401 173.525C61.7095 173.525 60.2846 175.687 60.2846 178.095C60.2846 180.527 61.7095 182.689 64.2401 182.689ZM84.9575 184.04L83.508 180.404H75.204L73.7545 184.04H71.4942L78.0784 167.653H80.609L87.2178 184.04H84.9575ZM79.356 169.471L75.7936 178.586H82.8938L79.356 169.471ZM92.5669 184.04V177.112L86.1055 167.653H88.4886L93.5742 175.269L98.6598 167.653H101.043L94.6061 177.112V184.04H92.5669ZM107.234 184.04V169.471H102.05V167.653H114.481V169.471H109.273V184.04H107.234Z" fill="#979797"/>
    <rect x="84.5648" y="135.67" width="51.8234" height="56.0461" rx="3.70167" fill="#765CD6"/>
    <g clip-path="url(#clip0_2_552)">
        <path d="M114.21 153.36C113.409 153.359 112.625 153.591 111.952 154.027C111.694 153.756 111.278 153.565 110.907 153.438V152.329C110.907 151.996 110.677 151.522 109.583 151.157C108.82 150.903 107.812 150.763 106.743 150.763C105.675 150.763 104.666 150.903 103.904 151.157C102.809 151.522 102.58 151.996 102.58 152.329V153.628C102.58 153.959 102.806 154.428 103.878 154.791V155.386C102.811 155.747 102.58 156.213 102.58 156.55V157.848C102.58 158.179 102.806 158.648 103.878 159.012V160.121C103.878 160.454 104.108 160.928 105.202 161.293C105.965 161.547 106.973 161.687 108.042 161.687C109.653 161.687 111.061 161.374 111.744 160.876C113.596 162.238 116.202 161.841 117.564 159.989C118.926 158.137 118.529 155.532 116.677 154.17C115.962 153.644 115.098 153.36 114.21 153.36L114.21 153.36ZM105.712 160.139C105.952 160.196 106.208 160.244 106.476 160.282V161.04C106.219 161.002 105.964 160.95 105.712 160.886V160.139ZM107.011 161.095V160.344C107.259 160.366 107.514 160.38 107.774 160.385V161.149C107.513 161.143 107.258 161.128 107.01 161.105C107.011 161.102 107.011 161.098 107.011 161.095ZM108.31 160.386C108.569 160.38 108.824 160.366 109.073 160.343V161.095C109.073 161.099 109.073 161.102 109.073 161.106C108.833 161.128 108.578 161.143 108.31 161.149V160.386ZM109.608 160.282C109.876 160.243 110.132 160.195 110.371 160.138V160.886C110.12 160.951 109.865 161.003 109.608 161.041V160.282ZM108.042 159.853C107.029 159.853 106.081 159.723 105.372 159.487C105.18 159.425 104.994 159.346 104.818 159.25C105.453 159.362 106.098 159.417 106.743 159.415C108.188 159.415 109.488 159.157 110.228 158.742C110.313 159.016 110.425 159.281 110.564 159.533C109.879 159.738 108.982 159.853 108.042 159.853V159.853ZM107.774 158.072V158.822C107.774 158.825 107.774 158.828 107.775 158.831C107.527 158.854 107.271 158.87 107.011 158.876V158.113C107.272 158.107 107.527 158.094 107.774 158.072V158.072ZM107.774 153.85V154.602C107.774 154.605 107.775 154.609 107.775 154.612C107.528 154.635 107.272 154.649 107.011 154.655V153.892C107.271 153.887 107.526 153.873 107.774 153.851V153.85ZM110.371 153.605C110.37 153.619 110.37 153.632 110.37 153.646C110.354 153.79 110.144 154.014 109.608 154.222V153.493C109.935 153.382 110.184 153.261 110.371 153.137V153.605ZM109.073 154.392C108.821 154.457 108.566 154.509 108.31 154.547V153.789C108.578 153.751 108.833 153.703 109.073 153.646V154.392ZM106.476 154.655C106.215 154.649 105.959 154.635 105.712 154.612C105.712 154.608 105.712 154.605 105.712 154.602V153.851C105.96 153.873 106.216 153.887 106.476 153.892V154.655ZM105.177 154.547C104.92 154.509 104.665 154.457 104.414 154.392V153.646C104.653 153.703 104.909 153.751 105.177 153.789V154.547ZM104.414 155.41C104.601 155.534 104.85 155.654 105.177 155.765V156.495C104.618 156.278 104.414 156.044 104.414 155.901V155.41ZM105.712 155.918C105.952 155.976 106.208 156.024 106.476 156.062V156.82C106.219 156.781 105.964 156.73 105.712 156.665V155.918ZM107.011 156.874V156.123C107.259 156.145 107.514 156.159 107.774 156.165V156.928C107.513 156.922 107.258 156.907 107.01 156.884C107.011 156.881 107.011 156.878 107.011 156.874V156.874ZM108.31 156.165C108.57 156.159 108.825 156.146 109.073 156.124V156.874C109.073 156.878 109.073 156.881 109.073 156.884C108.825 156.907 108.57 156.922 108.31 156.928V156.165ZM110.047 157.538C110.048 157.757 110.066 157.976 110.101 158.193C109.947 158.295 109.781 158.379 109.608 158.443V157.714C109.758 157.664 109.904 157.605 110.047 157.538V157.538ZM110.124 156.725C109.959 156.761 109.786 156.792 109.608 156.819V156.062C109.875 156.024 110.13 155.976 110.368 155.919C110.26 156.179 110.178 156.448 110.124 156.724L110.124 156.725ZM109.073 158.612C108.821 158.676 108.566 158.727 108.309 158.765V158.011C108.579 157.972 108.834 157.925 109.073 157.868V158.612ZM106.475 158.876C106.214 158.87 105.959 158.855 105.712 158.832C105.712 158.829 105.712 158.826 105.712 158.822V158.071C105.96 158.093 106.215 158.107 106.475 158.113V158.876ZM105.177 158.768C104.92 158.729 104.665 158.678 104.414 158.613V157.866C104.653 157.923 104.909 157.972 105.177 158.01V158.768ZM110.714 155.265C110.014 155.499 109.045 155.633 108.042 155.633C107.029 155.633 106.081 155.503 105.371 155.266C105.18 155.205 104.994 155.126 104.818 155.029C105.453 155.142 106.098 155.197 106.743 155.194C107.812 155.194 108.82 155.054 109.582 154.8C110.334 154.55 110.677 154.248 110.819 153.975C111.13 154.088 111.371 154.218 111.518 154.35C111.207 154.615 110.936 154.923 110.714 155.265ZM104.073 151.665C104.783 151.429 105.731 151.298 106.743 151.298C107.756 151.298 108.704 151.429 109.414 151.665C110.121 151.901 110.372 152.17 110.372 152.329C110.372 152.488 110.121 152.758 109.414 152.994C108.704 153.23 107.756 153.36 106.743 153.36C105.731 153.36 104.783 153.23 104.073 152.994C103.366 152.758 103.115 152.488 103.115 152.329C103.115 152.17 103.366 151.901 104.073 151.665ZM103.115 153.628V153.137C103.302 153.261 103.551 153.382 103.878 153.493V154.222C103.319 154.005 103.115 153.772 103.115 153.628ZM103.881 155.955C103.905 156.284 104.166 156.727 105.202 157.073C105.965 157.327 106.973 157.467 108.042 157.467C108.139 157.467 108.236 157.466 108.332 157.463C107.806 157.543 107.275 157.582 106.743 157.581C105.73 157.581 104.782 157.451 104.073 157.214C103.366 156.978 103.115 156.709 103.115 156.55C103.115 156.391 103.355 156.16 103.881 155.955ZM103.115 157.848V157.358C103.302 157.482 103.551 157.602 103.878 157.713V158.443C103.319 158.225 103.115 157.992 103.115 157.848ZM104.414 160.121V159.63C104.601 159.754 104.85 159.875 105.177 159.986V160.715C104.618 160.498 104.414 160.265 104.414 160.121ZM110.907 160.714V160.055C111.033 160.219 111.17 160.373 111.319 160.516C111.187 160.594 111.049 160.66 110.907 160.714ZM114.21 161.152C113.018 161.152 111.902 160.565 111.225 159.584C111.225 159.583 111.225 159.583 111.225 159.582C111.21 159.544 111.187 159.509 111.157 159.482C110.076 157.795 110.567 155.551 112.254 154.471C113.941 153.39 116.185 153.881 117.265 155.568C118.346 157.255 117.855 159.498 116.168 160.579C115.584 160.953 114.904 161.152 114.21 161.152L114.21 161.152Z" fill="white"/>
        <path d="M114.21 154.659C112.628 154.659 111.345 155.941 111.345 157.524C111.345 159.106 112.628 160.389 114.21 160.389C115.792 160.389 117.075 159.106 117.075 157.524V157.524C117.073 155.942 115.792 154.661 114.21 154.659ZM114.21 159.853C112.923 159.853 111.881 158.81 111.88 157.524C111.88 156.237 112.923 155.194 114.21 155.194C115.497 155.194 116.54 156.237 116.54 157.524V157.524C116.538 158.81 115.496 159.852 114.21 159.853Z" fill="white"/>
        <path d="M115.399 156.709L114.371 156.115C114.288 156.067 114.186 156.067 114.103 156.115L113.074 156.709C112.992 156.757 112.941 156.845 112.941 156.941V158.128C112.941 158.224 112.992 158.312 113.074 158.36L114.103 158.954C114.186 159.002 114.288 159.002 114.371 158.954L115.399 158.36C115.482 158.313 115.533 158.224 115.533 158.128V156.941C115.533 156.845 115.482 156.757 115.399 156.709ZM114.998 157.974L114.237 158.413L113.476 157.974V157.095L114.237 156.656L114.998 157.095V157.974Z" fill="white"/>
    </g>
    <path d="M92.9251 177.058V171.239H94.8029C95.2158 171.239 95.5605 171.314 95.837 171.464C96.1154 171.612 96.3247 171.817 96.4648 172.08C96.6069 172.342 96.6779 172.642 96.6779 172.981C96.6779 173.32 96.6069 173.619 96.4648 173.879C96.3247 174.138 96.1164 174.341 95.8398 174.487C95.5633 174.632 95.2205 174.705 94.8114 174.705H93.212V174.22H94.7972C95.1003 174.22 95.3522 174.169 95.5529 174.069C95.7556 173.969 95.9061 173.826 96.0046 173.64C96.105 173.454 96.1552 173.235 96.1552 172.981C96.1552 172.727 96.105 172.506 96.0046 172.316C95.9042 172.125 95.7527 171.977 95.5501 171.873C95.3493 171.769 95.0955 171.717 94.7887 171.717H93.4563V177.058H92.9251ZM95.4904 174.433L96.9222 177.058H96.3086L94.891 174.433H95.4904ZM97.9719 177.058V171.239H101.347V171.717H98.5032V173.907H101.168V174.384H98.5032V176.58H101.404V177.058H97.9719ZM104.901 175.239H105.492L106.236 176.225L106.361 176.39L107.276 177.603H106.685L106.015 176.708L105.895 176.549L104.901 175.239ZM107.492 174.148C107.492 174.755 107.384 175.282 107.168 175.731C106.952 176.178 106.655 176.524 106.276 176.771C105.899 177.015 105.465 177.137 104.975 177.137C104.484 177.137 104.05 177.015 103.671 176.771C103.294 176.524 102.998 176.178 102.782 175.731C102.568 175.282 102.461 174.755 102.461 174.148C102.461 173.542 102.568 173.016 102.782 172.569C102.998 172.12 103.295 171.773 103.674 171.529C104.052 171.283 104.486 171.16 104.975 171.16C105.465 171.16 105.899 171.283 106.276 171.529C106.655 171.773 106.952 172.12 107.168 172.569C107.384 173.016 107.492 173.542 107.492 174.148ZM106.975 174.148C106.975 173.628 106.888 173.182 106.713 172.81C106.539 172.437 106.301 172.152 106 171.955C105.699 171.758 105.357 171.66 104.975 171.66C104.594 171.66 104.253 171.758 103.952 171.955C103.651 172.152 103.412 172.436 103.236 172.808C103.062 173.179 102.975 173.626 102.975 174.148C102.975 174.669 103.062 175.115 103.236 175.487C103.41 175.858 103.648 176.143 103.949 176.342C104.25 176.539 104.592 176.637 104.975 176.637C105.357 176.637 105.699 176.539 106 176.342C106.303 176.145 106.542 175.861 106.716 175.489C106.891 175.116 106.977 174.669 106.975 174.148ZM112.654 171.239H113.186V175.092C113.186 175.488 113.093 175.842 112.907 176.154C112.722 176.465 112.463 176.71 112.132 176.89C111.802 177.068 111.419 177.157 110.981 177.157C110.546 177.157 110.162 177.067 109.831 176.887C109.499 176.707 109.241 176.462 109.055 176.151C108.869 175.841 108.777 175.488 108.777 175.092V171.239H109.308V175.055C109.308 175.363 109.377 175.639 109.515 175.881C109.654 176.122 109.848 176.311 110.098 176.45C110.35 176.588 110.644 176.657 110.981 176.657C111.318 176.657 111.613 176.588 111.865 176.45C112.117 176.311 112.311 176.122 112.447 175.881C112.585 175.639 112.654 175.363 112.654 175.055V171.239ZM114.73 177.058V171.239H118.105V171.717H115.261V173.907H117.926V174.384H115.261V176.58H118.162V177.058H114.73ZM122.639 172.694C122.607 172.37 122.464 172.113 122.21 171.921C121.956 171.73 121.637 171.634 121.252 171.634C120.982 171.634 120.743 171.681 120.537 171.773C120.332 171.866 120.171 171.995 120.054 172.16C119.938 172.323 119.88 172.508 119.88 172.717C119.88 172.87 119.913 173.005 119.98 173.12C120.046 173.236 120.135 173.335 120.247 173.418C120.36 173.5 120.485 173.57 120.622 173.629C120.76 173.687 120.899 173.737 121.039 173.776L121.653 173.952C121.839 174.004 122.024 174.069 122.21 174.148C122.395 174.228 122.565 174.328 122.718 174.45C122.874 174.569 122.998 174.716 123.091 174.89C123.185 175.062 123.233 175.27 123.233 175.512C123.233 175.823 123.152 176.102 122.991 176.35C122.83 176.598 122.599 176.795 122.298 176.941C121.997 177.085 121.636 177.157 121.216 177.157C120.82 177.157 120.476 177.092 120.184 176.961C119.893 176.828 119.663 176.646 119.497 176.413C119.33 176.18 119.236 175.91 119.216 175.603H119.761C119.78 175.832 119.856 176.026 119.988 176.185C120.121 176.345 120.293 176.466 120.505 176.549C120.717 176.631 120.954 176.671 121.216 176.671C121.505 176.671 121.763 176.623 121.988 176.526C122.216 176.428 122.394 176.291 122.522 176.117C122.653 175.941 122.718 175.737 122.718 175.504C122.718 175.307 122.667 175.142 122.565 175.009C122.463 174.875 122.32 174.762 122.136 174.671C121.954 174.58 121.743 174.5 121.502 174.43L120.806 174.225C120.35 174.089 119.996 173.9 119.744 173.66C119.492 173.419 119.366 173.113 119.366 172.739C119.366 172.427 119.449 172.152 119.616 171.916C119.785 171.677 120.012 171.491 120.298 171.359C120.586 171.224 120.909 171.157 121.267 171.157C121.628 171.157 121.949 171.223 122.227 171.356C122.505 171.488 122.726 171.671 122.889 171.904C123.054 172.135 123.142 172.398 123.153 172.694H122.639ZM124.159 171.717V171.239H128.377V171.717H126.534V177.058H126.002V171.717H124.159Z" fill="white"/>
    <rect x="40.8029" y="16.6679" width="51.0557" height="38.0038" rx="2.99181" fill="#B65CD6"/>
    <g clip-path="url(#clip1_2_552)">
        <path d="M62.0079 34.2181C62.0079 34.4249 61.8402 34.5926 61.6333 34.5926C61.4265 34.5926 61.2588 34.4249 61.2588 34.2181C61.2588 33.7129 61.2726 33.229 61.3001 32.7721C61.1268 32.8213 60.95 32.8642 60.7705 32.9001C60.5677 32.9407 60.3704 32.8091 60.3299 32.6063C60.2893 32.4035 60.4208 32.2062 60.6237 32.1656C60.8786 32.1146 61.127 32.048 61.3658 31.968C61.4465 31.2015 61.5728 30.536 61.7454 30.0061C62.1578 28.7392 62.8952 28.1575 63.8606 28.6402C64.825 29.1224 64.8522 30.1286 64.1016 31.0593C63.6357 31.6371 62.9183 32.1466 62.0694 32.5028C62.0286 33.0327 62.0079 33.6087 62.0079 34.2181ZM63.5186 30.5891C64.0033 29.9881 63.9912 29.5429 63.5256 29.3101C63.0773 29.0859 62.7481 29.3457 62.4576 30.238C62.3328 30.6213 62.2333 31.0938 62.1599 31.6362C62.7282 31.3472 63.2012 30.9828 63.5186 30.5891ZM67.4702 28.9742L70.8407 25.6038C71.1332 25.3113 71.6074 25.3113 71.8999 25.6038L72.4938 26.1976C72.7863 26.4901 72.7863 26.9644 72.4938 27.2569L69.1233 30.6274C68.9829 30.7678 68.7923 30.8467 68.5937 30.8467H67.6253C67.4185 30.8467 67.2508 30.6791 67.2508 30.4722V29.5038C67.2508 29.3052 67.3298 29.1147 67.4702 28.9742ZM68.5937 30.0977L70.8407 27.8508L70.2468 27.2569L67.9998 29.5039V30.0977H68.5937ZM71.9642 26.7273L71.3703 26.1334L70.7764 26.7273L71.3703 27.3211L71.9642 26.7273ZM64.1622 32.9667C64.026 33.1224 63.7894 33.1381 63.6338 33.0019C63.4781 32.8657 63.4623 32.6291 63.5985 32.4735L64.6343 31.2897C64.8386 31.0562 65.1935 31.0326 65.427 31.2369C65.5307 31.3276 65.5974 31.4533 65.6145 31.59L65.6516 31.8871L65.8851 31.6407C66.0985 31.4155 66.454 31.4059 66.6793 31.6193C66.7066 31.6452 66.7312 31.6737 66.7528 31.7045L67.03 32.0997L68.2718 31.7463C68.4707 31.6896 68.6779 31.805 68.7345 32.0039C68.7912 32.2028 68.6758 32.41 68.4769 32.4666L67.107 32.8566C66.8769 32.9221 66.6306 32.8347 66.4933 32.6389L66.2712 32.3222L65.9228 32.69C65.8333 32.7844 65.7138 32.8449 65.5846 32.861C65.2768 32.8995 64.996 32.6812 64.9576 32.3733L64.923 32.0971L64.1622 32.9667ZM70.8086 30.4722C70.8086 30.2654 70.9762 30.0977 71.1831 30.0977C71.3899 30.0977 71.5576 30.2654 71.5576 30.4722V33.8427C71.5576 34.4632 71.0546 34.9662 70.4341 34.9662H63.1314C62.9245 34.9662 62.7568 34.7985 62.7568 34.5917C62.7568 34.3849 62.9245 34.2172 63.1314 34.2172H70.4341C70.6409 34.2172 70.8086 34.0495 70.8086 33.8427V30.4722ZM67.9998 26.3528C68.2066 26.3528 68.3743 26.5204 68.3743 26.7273C68.3743 26.9341 68.2067 27.1018 67.9998 27.1018H61.0716C60.8648 27.1018 60.6971 27.2694 60.6971 27.4763V30.4723C60.6971 30.6791 60.5295 30.8468 60.3226 30.8468C60.1158 30.8468 59.9481 30.6791 59.9481 30.4722V27.4763C59.9481 26.8558 60.4511 26.3528 61.0716 26.3528H67.9998Z" fill="white"/>
    </g>
    <path d="M53.4446 43.2742C53.4204 43.0313 53.3132 42.8381 53.1229 42.6947C52.9325 42.5512 52.6932 42.4795 52.4048 42.4795C52.2017 42.4795 52.0227 42.5143 51.8679 42.5839C51.7145 42.6535 51.5937 42.7501 51.5057 42.8736C51.419 42.9958 51.3757 43.135 51.3757 43.2913C51.3757 43.4063 51.4006 43.5072 51.4503 43.5938C51.5 43.6805 51.5668 43.755 51.6506 43.8175C51.7358 43.8786 51.8295 43.9312 51.9318 43.9752C52.0355 44.0192 52.1399 44.0562 52.245 44.086L52.7052 44.2181C52.8444 44.2565 52.9837 44.3055 53.1229 44.3651C53.2621 44.4248 53.3892 44.5001 53.5043 44.591C53.6207 44.6805 53.7138 44.7905 53.7834 44.9212C53.8544 45.0505 53.8899 45.206 53.8899 45.3878C53.8899 45.6208 53.8295 45.8303 53.7088 46.0164C53.5881 46.2025 53.4148 46.3502 53.1889 46.4596C52.9631 46.5675 52.6925 46.6215 52.3771 46.6215C52.0802 46.6215 51.8224 46.5725 51.6037 46.4745C51.3849 46.3751 51.2131 46.238 51.0881 46.0633C50.9631 45.8886 50.8927 45.6861 50.8771 45.456H51.2862C51.3004 45.6279 51.3572 45.7735 51.4567 45.8928C51.5561 46.0121 51.6854 46.103 51.8444 46.1655C52.0035 46.2266 52.1811 46.2572 52.3771 46.2572C52.5944 46.2572 52.7876 46.2209 52.9567 46.1485C53.1271 46.0746 53.2606 45.9724 53.3572 45.8417C53.4552 45.7096 53.5043 45.5562 53.5043 45.3815C53.5043 45.2337 53.4659 45.1101 53.3892 45.0107C53.3125 44.9099 53.2052 44.8253 53.0675 44.7572C52.9311 44.689 52.7727 44.6286 52.5923 44.5761L52.0703 44.4226C51.728 44.3204 51.4623 44.179 51.2734 43.9986C51.0845 43.8182 50.99 43.5881 50.99 43.3083C50.99 43.0739 51.0525 42.868 51.1775 42.6904C51.304 42.5114 51.4744 42.3722 51.6889 42.2728C51.9048 42.1719 52.147 42.1215 52.4155 42.1215C52.6868 42.1215 52.9268 42.1712 53.1356 42.2707C53.3444 42.3701 53.5099 42.5072 53.6321 42.6819C53.7557 42.8552 53.8217 43.0526 53.8302 43.2742H53.4446ZM55.2471 42.1833V46.5469H54.8487V42.1833H55.2471ZM59.4265 43.5469C59.3867 43.402 59.3285 43.2664 59.2518 43.14C59.1751 43.0121 59.0799 42.9006 58.9663 42.8055C58.854 42.7089 58.7241 42.6336 58.5763 42.5796C58.43 42.5256 58.2667 42.4986 58.0863 42.4986C57.8022 42.4986 57.5479 42.5725 57.3235 42.7202C57.0991 42.868 56.9215 43.081 56.7908 43.3594C56.6616 43.6378 56.5969 43.9731 56.5969 44.3651C56.5969 44.7557 56.6623 45.0903 56.793 45.3687C56.9236 45.6471 57.1026 45.8609 57.3299 46.01C57.5586 46.1577 57.8199 46.2316 58.114 46.2316C58.3824 46.2316 58.6197 46.1719 58.8256 46.0526C59.0316 45.9333 59.1921 45.7628 59.3072 45.5413C59.4236 45.3197 59.4805 45.0562 59.4776 44.7508L59.6055 44.7913H58.2077V44.4333H59.8654V44.7913C59.8654 45.1634 59.7901 45.4851 59.6395 45.7565C59.489 46.0278 59.2823 46.2373 59.0195 46.385C58.7567 46.5327 58.4549 46.6066 58.114 46.6066C57.7333 46.6066 57.4002 46.515 57.1147 46.3317C56.8292 46.1471 56.6069 45.8871 56.4478 45.5519C56.2901 45.2153 56.2113 44.8197 56.2113 44.3651C56.2113 44.0228 56.2567 43.7138 56.3476 43.4383C56.4386 43.1627 56.5671 42.9269 56.7333 42.7309C56.9009 42.5349 57.0991 42.385 57.3278 42.2813C57.5565 42.1762 57.8093 42.1236 58.0863 42.1236C58.3249 42.1236 58.543 42.1613 58.7404 42.2366C58.9393 42.3119 59.114 42.4155 59.2645 42.5476C59.4165 42.6783 59.5408 42.8296 59.6374 43.0015C59.7354 43.1719 59.8015 43.3538 59.8356 43.5469H59.4265ZM64.253 42.1833V46.5469H63.8652L61.2871 42.8928H61.253V46.5469H60.8546V42.1833H61.2402L63.8269 45.8417H63.861V42.1833H64.253ZM70.4991 42.1833V46.5469H70.1113L67.5332 42.8928H67.4991V46.5469H67.1007V42.1833H67.4863L70.073 45.8417H70.1071V42.1833H70.4991ZM71.6593 46.5469V42.1833H74.1841V42.5413H72.0577V44.184H73.986V44.542H72.0577V46.5469H71.6593ZM74.9107 42.5413V42.1833H78.0747V42.5413H76.6919V46.5469H76.2935V42.5413H74.9107ZM81.3411 43.2742C81.3169 43.0313 81.2097 42.8381 81.0193 42.6947C80.829 42.5512 80.5897 42.4795 80.3013 42.4795C80.0982 42.4795 79.9192 42.5143 79.7644 42.5839C79.611 42.6535 79.4902 42.7501 79.4022 42.8736C79.3155 42.9958 79.2722 43.135 79.2722 43.2913C79.2722 43.4063 79.297 43.5072 79.3468 43.5938C79.3965 43.6805 79.4632 43.755 79.547 43.8175C79.6323 43.8786 79.726 43.9312 79.8283 43.9752C79.932 44.0192 80.0364 44.0562 80.1415 44.086L80.6017 44.2181C80.7409 44.2565 80.8801 44.3055 81.0193 44.3651C81.1585 44.4248 81.2857 44.5001 81.4007 44.591C81.5172 44.6805 81.6103 44.7905 81.6799 44.9212C81.7509 45.0505 81.7864 45.206 81.7864 45.3878C81.7864 45.6208 81.726 45.8303 81.6053 46.0164C81.4845 46.2025 81.3112 46.3502 81.0854 46.4596C80.8595 46.5675 80.5889 46.6215 80.2736 46.6215C79.9767 46.6215 79.7189 46.5725 79.5002 46.4745C79.2814 46.3751 79.1095 46.238 78.9845 46.0633C78.8595 45.8886 78.7892 45.6861 78.7736 45.456H79.1827C79.1969 45.6279 79.2537 45.7735 79.3531 45.8928C79.4526 46.0121 79.5818 46.103 79.7409 46.1655C79.9 46.2266 80.0776 46.2572 80.2736 46.2572C80.4909 46.2572 80.6841 46.2209 80.8531 46.1485C81.0236 46.0746 81.1571 45.9724 81.2537 45.8417C81.3517 45.7096 81.4007 45.5562 81.4007 45.3815C81.4007 45.2337 81.3624 45.1101 81.2857 45.0107C81.209 44.9099 81.1017 44.8253 80.9639 44.7572C80.8276 44.689 80.6692 44.6286 80.4888 44.5761L79.9668 44.4226C79.6245 44.3204 79.3588 44.179 79.1699 43.9986C78.981 43.8182 78.8865 43.5881 78.8865 43.3083C78.8865 43.0739 78.949 42.868 79.074 42.6904C79.2005 42.5114 79.3709 42.3722 79.5854 42.2728C79.8013 42.1719 80.0435 42.1215 80.312 42.1215C80.5833 42.1215 80.8233 42.1712 81.0321 42.2707C81.2409 42.3701 81.4064 42.5072 81.5286 42.6819C81.6522 42.8552 81.7182 43.0526 81.7267 43.2742H81.3411Z" fill="white"/>
    <g filter="url(#filter0_d_2_552)">
        <rect x="21.2251" y="53.1363" width="153.551" height="85.9885" rx="4.60653" fill="#B65CD6" shape-rendering="crispEdges"/>
        <path d="M29.8167 96.3196C29.6036 96.3196 29.4136 96.3019 29.2467 96.2664C29.0798 96.2344 28.9644 96.2025 28.9005 96.1705L29.2201 95.0625C29.5255 95.1407 29.7954 95.1691 30.0297 95.1478C30.2641 95.1265 30.4719 95.0217 30.653 94.8335C30.8376 94.6488 31.0063 94.3488 31.159 93.9333L31.3934 93.2941L28.3678 85.0696H29.7314L31.99 91.5895H32.0752L34.3337 85.0696H35.6974L32.2243 94.4446C32.0681 94.8672 31.8746 95.217 31.6437 95.494C31.4129 95.7745 31.1448 95.9823 30.8394 96.1172C30.5376 96.2522 30.1966 96.3196 29.8167 96.3196ZM40.3875 93.4219C39.6489 93.4219 39.0008 93.2461 38.4433 92.8946C37.8893 92.543 37.4561 92.0512 37.1436 91.4191C36.8346 90.787 36.6801 90.0483 36.6801 89.2032C36.6801 88.3509 36.8346 87.6069 37.1436 86.9713C37.4561 86.3356 37.8893 85.842 38.4433 85.4905C39.0008 85.1389 39.6489 84.9631 40.3875 84.9631C41.1262 84.9631 41.7725 85.1389 42.3264 85.4905C42.884 85.842 43.3172 86.3356 43.6262 86.9713C43.9387 87.6069 44.0949 88.3509 44.0949 89.2032C44.0949 90.0483 43.9387 90.787 43.6262 91.4191C43.3172 92.0512 42.884 92.543 42.3264 92.8946C41.7725 93.2461 41.1262 93.4219 40.3875 93.4219ZM40.3875 92.2927C40.9486 92.2927 41.4102 92.1488 41.7725 91.8612C42.1347 91.5736 42.4028 91.1954 42.5768 90.7266C42.7508 90.2579 42.8378 89.75 42.8378 89.2032C42.8378 88.6563 42.7508 88.1467 42.5768 87.6744C42.4028 87.2021 42.1347 86.8204 41.7725 86.5292C41.4102 86.238 40.9486 86.0924 40.3875 86.0924C39.8264 86.0924 39.3648 86.238 39.0026 86.5292C38.6404 86.8204 38.3722 87.2021 38.1982 87.6744C38.0242 88.1467 37.9372 88.6563 37.9372 89.2032C37.9372 89.75 38.0242 90.2579 38.1982 90.7266C38.3722 91.1954 38.6404 91.5736 39.0026 91.8612C39.3648 92.1488 39.8264 92.2927 40.3875 92.2927ZM51.1701 89.9063V85.0696H52.4272V93.2515H51.1701V91.8665H51.0849C50.8931 92.282 50.5948 92.6353 50.19 92.9265C49.7852 93.2142 49.2738 93.358 48.6559 93.358C48.1445 93.358 47.69 93.2461 47.2923 93.0224C46.8945 92.7951 46.582 92.4542 46.3548 91.9997C46.1275 91.5416 46.0138 90.9645 46.0138 90.2685V85.0696H47.271V90.1833C47.271 90.7799 47.4379 91.2557 47.7717 91.6108C48.109 91.966 48.5387 92.1435 49.0607 92.1435C49.3732 92.1435 49.6911 92.0636 50.0142 91.9038C50.3409 91.744 50.6143 91.499 50.8345 91.1687C51.0582 90.8385 51.1701 90.4177 51.1701 89.9063ZM54.7297 93.2515V85.0696H55.9442V86.3054H56.0294C56.1785 85.9006 56.4484 85.5721 56.839 85.32C57.2297 85.0679 57.67 84.9418 58.1601 84.9418C58.2524 84.9418 58.3678 84.9436 58.5063 84.9471C58.6448 84.9507 58.7496 84.956 58.8206 84.9631V86.2415C58.778 86.2309 58.6803 86.2149 58.5276 86.1936C58.3785 86.1687 58.2204 86.1563 58.0535 86.1563C57.6558 86.1563 57.3007 86.2397 56.9882 86.4066C56.6792 86.57 56.4342 86.7973 56.2531 87.0885C56.0756 87.3761 55.9868 87.7046 55.9868 88.0739V93.2515H54.7297ZM61.5678 88.3296V93.2515H60.3107V85.0696H61.5252V86.3481H61.6317C61.8235 85.9326 62.1147 85.5988 62.5053 85.3466C62.896 85.091 63.4002 84.9631 64.0181 84.9631C64.5721 84.9631 65.0568 85.0767 65.4723 85.304C65.8878 85.5277 66.2109 85.8687 66.4418 86.3267C66.6726 86.7813 66.788 87.3566 66.788 88.0526V93.2515H65.5309V88.1378C65.5309 87.4951 65.364 86.9944 65.0302 86.6357C64.6964 86.2735 64.2383 86.0924 63.6559 86.0924C63.2546 86.0924 62.896 86.1794 62.5799 86.3534C62.2674 86.5274 62.0206 86.7813 61.8395 87.1151C61.6584 87.4489 61.5678 87.8537 61.5678 88.3296ZM71.4928 93.4432C70.9743 93.4432 70.5038 93.3456 70.0812 93.1503C69.6586 92.9514 69.3231 92.6655 69.0745 92.2927C68.8259 91.9162 68.7016 91.4617 68.7016 90.929C68.7016 90.4603 68.7939 90.0803 68.9786 89.7891C69.1633 89.4944 69.4101 89.2635 69.719 89.0966C70.028 88.9297 70.3689 88.8054 70.7417 88.7238C71.1182 88.6385 71.4964 88.5711 71.8763 88.5214C72.3735 88.4574 72.7765 88.4095 73.0855 88.3775C73.398 88.342 73.6253 88.2834 73.7673 88.2017C73.9129 88.1201 73.9857 87.978 73.9857 87.7756V87.733C73.9857 87.2074 73.8419 86.799 73.5542 86.5079C73.2702 86.2167 72.8387 86.0711 72.2599 86.0711C71.6597 86.0711 71.1892 86.2025 70.8483 86.4652C70.5074 86.728 70.2677 87.0086 70.1292 87.3069L68.936 86.8807C69.1491 86.3836 69.4331 85.9965 69.7883 85.7195C70.1469 85.439 70.5376 85.2437 70.9601 85.1336C71.3863 85.0199 71.8053 84.9631 72.2172 84.9631C72.48 84.9631 72.7819 84.9951 73.1228 85.059C73.4672 85.1194 73.7993 85.2454 74.1189 85.4372C74.442 85.629 74.7101 85.9184 74.9232 86.3054C75.1363 86.6925 75.2428 87.211 75.2428 87.8608V93.2515H73.9857V92.1435H73.9218C73.8366 92.3211 73.6945 92.5111 73.4957 92.7135C73.2968 92.9159 73.0322 93.0881 72.702 93.2302C72.3717 93.3722 71.9687 93.4432 71.4928 93.4432ZM71.6846 92.314C72.1817 92.314 72.6008 92.2163 72.9417 92.021C73.2861 91.8257 73.5454 91.5736 73.7194 91.2646C73.8969 90.9557 73.9857 90.6307 73.9857 90.2898V89.1392C73.9324 89.2032 73.8153 89.2618 73.6341 89.315C73.4566 89.3647 73.2506 89.4091 73.0162 89.4482C72.7854 89.4837 72.5599 89.5157 72.3398 89.5441C72.1231 89.5689 71.9474 89.5902 71.8124 89.608C71.4857 89.6506 71.1803 89.7199 70.8962 89.8157C70.6157 89.9081 70.3884 90.0483 70.2144 90.2365C70.0439 90.4212 69.9587 90.6733 69.9587 90.9929C69.9587 91.4297 70.1203 91.76 70.4434 91.9837C70.7702 92.2039 71.1839 92.314 71.6846 92.314ZM77.5373 93.2515V85.0696H78.7518V86.3481H78.8583C79.0288 85.9113 79.304 85.5721 79.6839 85.3307C80.0639 85.0856 80.5202 84.9631 81.0529 84.9631C81.5927 84.9631 82.0419 85.0856 82.4006 85.3307C82.7628 85.5721 83.0451 85.9113 83.2475 86.3481H83.3327C83.5423 85.9255 83.8565 85.5899 84.2756 85.3413C84.6946 85.0892 85.1971 84.9631 85.783 84.9631C86.5146 84.9631 87.1129 85.1922 87.5781 85.6503C88.0433 86.1048 88.2759 86.8133 88.2759 87.7756V93.2515H87.0188V87.7756C87.0188 87.1719 86.8537 86.7405 86.5234 86.4812C86.1932 86.222 85.8043 86.0924 85.3569 86.0924C84.7816 86.0924 84.3359 86.2664 84.0199 86.6144C83.7038 86.9589 83.5458 87.3956 83.5458 87.9248V93.2515H82.2674V87.6478C82.2674 87.1826 82.1165 86.8079 81.8146 86.5238C81.5128 86.2362 81.1239 86.0924 80.6481 86.0924C80.3214 86.0924 80.016 86.1794 79.7319 86.3534C79.4513 86.5274 79.2241 86.7689 79.0501 87.0778C78.8796 87.3832 78.7944 87.7366 78.7944 88.1378V93.2515H77.5373ZM94.0048 93.4219C93.2164 93.4219 92.5364 93.2479 91.9647 92.8999C91.3965 92.5483 90.9579 92.0583 90.649 91.4297C90.3436 90.7976 90.1909 90.0625 90.1909 89.2245C90.1909 88.3864 90.3436 87.6478 90.649 87.0086C90.9579 86.3658 91.3876 85.8651 91.938 85.5064C92.492 85.1442 93.1383 84.9631 93.877 84.9631C94.3031 84.9631 94.7239 85.0341 95.1394 85.1762C95.5549 85.3182 95.9331 85.549 96.274 85.8687C96.6149 86.1847 96.8865 86.6037 97.089 87.1258C97.2914 87.6478 97.3926 88.2905 97.3926 89.054V89.5867H91.0858V88.5H96.1142C96.1142 88.0384 96.0218 87.6265 95.8372 87.2642C95.6561 86.902 95.3968 86.6162 95.0595 86.4066C94.7257 86.1971 94.3315 86.0924 93.877 86.0924C93.3762 86.0924 92.943 86.2167 92.5772 86.4652C92.215 86.7103 91.9363 87.0299 91.7409 87.424C91.5456 87.8182 91.448 88.2408 91.448 88.6918V89.4162C91.448 90.0341 91.5545 90.5579 91.7676 90.9876C91.9842 91.4138 92.2843 91.7387 92.6678 91.9624C93.0513 92.1826 93.497 92.2927 94.0048 92.2927C94.335 92.2927 94.6333 92.2465 94.8997 92.1542C95.1696 92.0583 95.4022 91.9162 95.5975 91.728C95.7928 91.5363 95.9437 91.2983 96.0502 91.0142L97.2647 91.3552C97.1369 91.7671 96.9221 92.1293 96.6202 92.4418C96.3184 92.7508 95.9455 92.9922 95.5016 93.1662C95.0577 93.3367 94.5588 93.4219 94.0048 93.4219ZM106.203 96.3942C105.07 96.3942 104.062 96.2397 103.177 95.9308C102.293 95.6254 101.546 95.1762 100.935 94.5831C100.324 93.9937 99.8588 93.2728 99.5392 92.4205C99.2196 91.5682 99.0598 90.5988 99.0598 89.5121C99.0598 88.4397 99.2196 87.4667 99.5392 86.5931C99.8624 85.7195 100.333 84.9702 100.951 84.3452C101.569 83.7167 102.323 83.2337 103.215 82.8964C104.11 82.559 105.129 82.3903 106.272 82.3903C107.33 82.3903 108.275 82.5448 109.106 82.8537C109.941 83.1627 110.647 83.603 111.226 84.1748C111.808 84.7429 112.251 85.4194 112.552 86.2042C112.858 86.9855 113.009 87.8502 113.005 88.7983C113.009 89.4517 112.952 90.0519 112.835 90.5988C112.718 91.1456 112.533 91.6233 112.281 92.0316C112.032 92.4365 111.705 92.7579 111.301 92.9958C110.896 93.2302 110.406 93.3633 109.83 93.3953C109.419 93.4272 109.085 93.3971 108.829 93.3047C108.573 93.2124 108.378 93.0757 108.243 92.8946C108.112 92.7099 108.026 92.4951 107.987 92.25H107.923C107.838 92.4631 107.671 92.6566 107.423 92.8307C107.174 93.0011 106.871 93.1343 106.512 93.2302C106.157 93.3225 105.779 93.3562 105.377 93.3314C104.958 93.3065 104.561 93.2089 104.184 93.0384C103.811 92.8679 103.479 92.6211 103.188 92.298C102.9 91.9748 102.673 91.5753 102.506 91.0995C102.343 90.6236 102.259 90.0732 102.256 89.4482C102.259 88.8303 102.346 88.2923 102.517 87.8342C102.691 87.3761 102.92 86.9908 103.204 86.6783C103.492 86.3658 103.811 86.1208 104.163 85.9432C104.514 85.7657 104.868 85.652 105.223 85.6023C105.624 85.5419 106.004 85.5419 106.363 85.6023C106.721 85.6627 107.023 85.7603 107.268 85.8953C107.517 86.0302 107.671 86.1758 107.732 86.3321H107.806V85.7355H109.474V90.9343C109.477 91.1794 109.532 91.3694 109.639 91.5043C109.745 91.6392 109.889 91.7067 110.07 91.7067C110.315 91.7067 110.519 91.5984 110.683 91.3818C110.85 91.1652 110.974 90.8331 111.056 90.3857C111.141 89.9383 111.183 89.3683 111.183 88.6758C111.183 88.0082 111.095 87.4223 110.917 86.918C110.743 86.4102 110.498 85.9787 110.182 85.6236C109.869 85.265 109.506 84.9738 109.09 84.75C108.675 84.5263 108.224 84.363 107.737 84.26C107.254 84.157 106.757 84.1055 106.246 84.1055C105.361 84.1055 104.589 84.2405 103.928 84.5103C103.268 84.7767 102.718 85.1513 102.277 85.6343C101.837 86.1172 101.507 86.6836 101.286 87.3335C101.07 87.9798 100.96 88.6847 100.956 89.4482C100.96 90.2898 101.077 91.0356 101.308 91.6854C101.542 92.3317 101.887 92.875 102.341 93.3154C102.796 93.7557 103.357 94.0895 104.024 94.3168C104.692 94.5441 105.459 94.6577 106.325 94.6577C106.734 94.6577 107.133 94.6275 107.524 94.5672C107.915 94.5103 108.268 94.4393 108.584 94.3541C108.9 94.2724 109.154 94.1925 109.346 94.1144L109.873 95.6591C109.649 95.787 109.346 95.9059 108.962 96.016C108.582 96.1297 108.153 96.2202 107.673 96.2877C107.197 96.3587 106.707 96.3942 106.203 96.3942ZM105.958 91.5789C106.391 91.5789 106.736 91.4954 106.991 91.3285C107.251 91.1616 107.435 90.9148 107.545 90.5881C107.659 90.2579 107.712 89.8513 107.705 89.3683C107.702 88.9422 107.646 88.5817 107.54 88.287C107.437 87.9887 107.258 87.7632 107.002 87.6105C106.75 87.4542 106.398 87.3761 105.947 87.3761C105.553 87.3761 105.218 87.4596 104.941 87.6265C104.667 87.7934 104.458 88.0277 104.312 88.3296C104.17 88.6279 104.097 88.9794 104.094 89.3843C104.097 89.7607 104.157 90.1176 104.275 90.4549C104.392 90.7888 104.585 91.0604 104.855 91.2699C105.125 91.4759 105.493 91.5789 105.958 91.5789ZM117.529 93.3846C116.907 93.3846 116.345 93.2248 115.84 92.9052C115.34 92.5821 114.942 92.108 114.647 91.483C114.356 90.8544 114.21 90.0839 114.21 89.1712C114.21 88.2337 114.361 87.4542 114.663 86.8328C114.965 86.2078 115.366 85.7408 115.867 85.4319C116.371 85.1194 116.923 84.9631 117.524 84.9631C117.982 84.9631 118.363 85.0412 118.669 85.1975C118.978 85.3502 119.226 85.5419 119.415 85.7728C119.606 86 119.752 86.2238 119.851 86.4439H119.921V82.3424H122.184V93.2515H119.947V91.9411H119.851C119.745 92.1684 119.594 92.3939 119.399 92.6176C119.207 92.8378 118.956 93.0206 118.647 93.1662C118.342 93.3118 117.969 93.3846 117.529 93.3846ZM118.248 91.5789C118.614 91.5789 118.923 91.4794 119.175 91.2806C119.43 91.0782 119.626 90.7959 119.761 90.4336C119.899 90.0714 119.968 89.6471 119.968 89.1606C119.968 88.6741 119.901 88.2515 119.766 87.8928C119.631 87.5341 119.436 87.2571 119.18 87.0618C118.924 86.8665 118.614 86.7689 118.248 86.7689C117.875 86.7689 117.561 86.8701 117.305 87.0725C117.049 87.2749 116.856 87.5554 116.725 87.9141C116.593 88.2728 116.527 88.6883 116.527 89.1606C116.527 89.6364 116.593 90.0572 116.725 90.423C116.859 90.7852 117.053 91.0693 117.305 91.2753C117.561 91.4777 117.875 91.5789 118.248 91.5789ZM127.747 93.4113C126.919 93.4113 126.204 93.2355 125.6 92.8839C125 92.5288 124.537 92.0352 124.21 91.4031C123.883 90.7674 123.72 90.0306 123.72 89.1925C123.72 88.3473 123.883 87.6087 124.21 86.9766C124.537 86.341 125 85.8473 125.6 85.4958C126.204 85.1407 126.919 84.9631 127.747 84.9631C128.574 84.9631 129.288 85.1407 129.888 85.4958C130.492 85.8473 130.957 86.341 131.284 86.9766C131.61 87.6087 131.774 88.3473 131.774 89.1925C131.774 90.0306 131.61 90.7674 131.284 91.4031C130.957 92.0352 130.492 92.5288 129.888 92.8839C129.288 93.2355 128.574 93.4113 127.747 93.4113ZM127.757 91.6535C128.134 91.6535 128.448 91.5469 128.7 91.3339C128.952 91.1172 129.142 90.8225 129.27 90.4496C129.402 90.0767 129.467 89.6524 129.467 89.1765C129.467 88.7007 129.402 88.2763 129.27 87.9035C129.142 87.5306 128.952 87.2358 128.7 87.0192C128.448 86.8026 128.134 86.6943 127.757 86.6943C127.377 86.6943 127.058 86.8026 126.799 87.0192C126.543 87.2358 126.349 87.5306 126.218 87.9035C126.09 88.2763 126.026 88.7007 126.026 89.1765C126.026 89.6524 126.09 90.0767 126.218 90.4496C126.349 90.8225 126.543 91.1172 126.799 91.3339C127.058 91.5469 127.377 91.6535 127.757 91.6535ZM133.249 93.2515V85.0696H135.412V86.5132H135.508C135.678 86.0338 135.962 85.6556 136.36 85.3786C136.758 85.1016 137.234 84.9631 137.788 84.9631C138.349 84.9631 138.826 85.1034 139.221 85.3839C139.615 85.6609 139.877 86.0373 140.009 86.5132H140.094C140.261 86.0444 140.563 85.6698 141 85.3892C141.44 85.1052 141.96 84.9631 142.56 84.9631C143.324 84.9631 143.944 85.2064 144.419 85.6929C144.899 86.1758 145.138 86.8612 145.138 87.749V93.2515H142.875V88.1964C142.875 87.7419 142.754 87.401 142.512 87.1737C142.271 86.9464 141.969 86.8328 141.607 86.8328C141.195 86.8328 140.874 86.9642 140.643 87.227C140.412 87.4862 140.297 87.8289 140.297 88.255V93.2515H138.097V88.1485C138.097 87.7472 137.981 87.4276 137.75 87.1897C137.523 86.9517 137.223 86.8328 136.85 86.8328C136.598 86.8328 136.371 86.8967 136.168 87.0245C135.969 87.1488 135.811 87.3246 135.694 87.5519C135.577 87.7756 135.518 88.0384 135.518 88.3402V93.2515H133.249ZM149.264 93.4059C148.742 93.4059 148.277 93.3154 147.868 93.1343C147.46 92.9496 147.137 92.678 146.899 92.3193C146.665 91.9571 146.547 91.5061 146.547 90.9663C146.547 90.5118 146.631 90.13 146.798 89.8211C146.965 89.5121 147.192 89.2635 147.48 89.0753C147.767 88.8871 148.094 88.7451 148.46 88.6492C148.829 88.5533 149.216 88.4858 149.621 88.4468C150.097 88.3971 150.48 88.3509 150.771 88.3083C151.063 88.2621 151.274 88.1946 151.405 88.1059C151.537 88.0171 151.602 87.8857 151.602 87.7117V87.6797C151.602 87.3424 151.496 87.0814 151.283 86.8967C151.073 86.712 150.775 86.6197 150.388 86.6197C149.98 86.6197 149.655 86.7103 149.413 86.8914C149.172 87.0689 149.012 87.2927 148.934 87.5625L146.835 87.3921C146.942 86.8949 147.151 86.4652 147.464 86.103C147.776 85.7373 148.179 85.4567 148.673 85.2614C149.17 85.0625 149.745 84.9631 150.399 84.9631C150.853 84.9631 151.288 85.0164 151.704 85.1229C152.123 85.2294 152.494 85.3946 152.817 85.6183C153.144 85.842 153.401 86.1297 153.589 86.4812C153.778 86.8292 153.872 87.2465 153.872 87.733V93.2515H151.72V92.1169H151.656C151.524 92.3726 151.349 92.5981 151.128 92.7934C150.908 92.9851 150.644 93.1361 150.335 93.2461C150.026 93.3527 149.669 93.4059 149.264 93.4059ZM149.914 91.8399C150.248 91.8399 150.542 91.7742 150.798 91.6428C151.054 91.5079 151.254 91.3267 151.4 91.0995C151.546 90.8722 151.618 90.6147 151.618 90.3271V89.4589C151.547 89.505 151.45 89.5476 151.325 89.5867C151.205 89.6222 151.068 89.6559 150.915 89.6879C150.763 89.7163 150.61 89.7429 150.457 89.7678C150.305 89.7891 150.166 89.8086 150.042 89.8264C149.775 89.8655 149.543 89.9276 149.344 90.0128C149.145 90.0981 148.991 90.2135 148.881 90.3591C148.77 90.5011 148.715 90.6787 148.715 90.8917C148.715 91.2007 148.827 91.4368 149.051 91.6002C149.278 91.76 149.566 91.8399 149.914 91.8399ZM155.632 93.2515V85.0696H157.901V93.2515H155.632ZM156.772 84.015C156.435 84.015 156.145 83.9031 155.904 83.6794C155.666 83.4521 155.547 83.1804 155.547 82.8644C155.547 82.5519 155.666 82.2838 155.904 82.0601C156.145 81.8328 156.435 81.7191 156.772 81.7191C157.109 81.7191 157.397 81.8328 157.635 82.0601C157.876 82.2838 157.997 82.5519 157.997 82.8644C157.997 83.1804 157.876 83.4521 157.635 83.6794C157.397 83.9031 157.109 84.015 156.772 84.015ZM161.988 88.5214V93.2515H159.719V85.0696H161.882V86.5132H161.978C162.159 86.0373 162.462 85.6609 162.888 85.3839C163.315 85.1034 163.831 84.9631 164.438 84.9631C165.007 84.9631 165.502 85.0874 165.925 85.336C166.347 85.5846 166.676 85.9397 166.91 86.4013C167.144 86.8594 167.262 87.4063 167.262 88.0419V93.2515H164.992V88.4468C164.996 87.9461 164.868 87.5554 164.609 87.2749C164.35 86.9908 163.993 86.8488 163.538 86.8488C163.233 86.8488 162.963 86.9145 162.729 87.0459C162.498 87.1772 162.317 87.369 162.185 87.6211C162.057 87.8697 161.992 88.1698 161.988 88.5214Z" fill="white"/>
        <path d="M76.0468 110.01V104.426H79.2776V104.884H76.5567V106.986H79.0241V107.444H76.5567V110.01H76.0468ZM81.0552 104.426V110.01H80.5454V104.426H81.0552ZM87.1174 107.218C87.1174 107.799 87.0138 108.306 86.8066 108.736C86.5994 109.165 86.314 109.498 85.9505 109.734C85.5888 109.969 85.1725 110.086 84.7018 110.086C84.231 110.086 83.8139 109.969 83.4504 109.734C83.0887 109.498 82.8042 109.165 82.597 108.736C82.3916 108.306 82.2889 107.799 82.2889 107.218C82.2889 106.636 82.3916 106.131 82.597 105.702C82.8042 105.271 83.0896 104.939 83.4531 104.704C83.8166 104.468 84.2328 104.35 84.7018 104.35C85.1725 104.35 85.5888 104.468 85.9505 104.704C86.314 104.939 86.5994 105.271 86.8066 105.702C87.0138 106.131 87.1174 106.636 87.1174 107.218ZM86.6212 107.218C86.6212 106.718 86.5376 106.29 86.3703 105.934C86.2031 105.576 85.975 105.302 85.686 105.113C85.397 104.924 85.0689 104.829 84.7018 104.829C84.3365 104.829 84.0093 104.924 83.7203 105.113C83.4313 105.302 83.2023 105.575 83.0332 105.931C82.866 106.287 82.7824 106.716 82.7824 107.218C82.7824 107.718 82.866 108.146 83.0332 108.502C83.2005 108.858 83.4286 109.132 83.7176 109.323C84.0066 109.512 84.3346 109.606 84.7018 109.606C85.0689 109.606 85.397 109.512 85.686 109.323C85.9768 109.134 86.2059 108.861 86.3731 108.505C86.5403 108.147 86.623 107.718 86.6212 107.218ZM90.5097 110.01V104.426H91.0195V106.986H94.1876V104.426H94.6975V110.01H94.1876V107.444H91.0195V110.01H90.5097ZM96.1861 110.01H95.6517L97.6829 104.426H98.2281L100.259 110.01H99.7249L97.9746 105.088H97.9364L96.1861 110.01ZM96.5705 107.869H99.3405V108.327H96.5705V107.869ZM105.565 104.426V110.01H105.069L101.77 105.334H101.726V110.01H101.216V104.426H101.71L105.02 109.107H105.063V104.426H105.565ZM108.685 110.01H107.049V104.426H108.783C109.316 104.426 109.771 104.537 110.149 104.759C110.529 104.98 110.82 105.298 111.022 105.713C111.224 106.127 111.324 106.624 111.324 107.204C111.324 107.789 111.221 108.292 111.014 108.712C110.808 109.13 110.508 109.451 110.114 109.674C109.721 109.898 109.245 110.01 108.685 110.01ZM107.559 109.552H108.655C109.135 109.552 109.537 109.457 109.86 109.268C110.184 109.079 110.427 108.809 110.588 108.458C110.75 108.107 110.831 107.689 110.831 107.204C110.829 106.722 110.749 106.308 110.591 105.961C110.435 105.614 110.202 105.347 109.893 105.162C109.586 104.977 109.206 104.884 108.753 104.884H107.559V109.552ZM112.56 110.01V104.426H113.07V109.552H115.731V110.01H112.56ZM116.879 110.01V104.426H120.118V104.884H117.389V106.986H119.946V107.444H117.389V109.552H120.172V110.01H116.879Z" fill="white"/>
    </g>
    <g filter="url(#filter1_d_2_552)">
        <rect x="4.24426" y="123.689" width="73.9712" height="51.0557" rx="2.87908" fill="#227AFF"/>
        <path d="M36.2188 149.402L46.7434 146.264C47.5382 146.027 47.5937 144.923 46.8271 144.607L42.3081 142.745C42.2884 142.793 42.2598 142.838 42.2208 142.877L39.9098 145.187C39.7522 145.345 39.4974 145.345 39.3402 145.187C39.1826 145.03 39.1826 144.775 39.3402 144.618L41.6512 142.307C41.6902 142.268 41.735 142.239 41.7829 142.219L39.9197 137.699C39.6044 136.934 38.502 136.99 38.2656 137.783L35.1257 148.309C34.926 148.978 35.5493 149.601 36.2188 149.402Z" fill="white"/>
        <path d="M12.8704 160.278V155.187H14.5135C14.8747 155.187 15.1763 155.253 15.4183 155.384C15.6619 155.513 15.845 155.693 15.9677 155.923C16.0919 156.152 16.1541 156.415 16.1541 156.711C16.1541 157.008 16.0919 157.27 15.9677 157.497C15.845 157.724 15.6627 157.901 15.4208 158.029C15.1788 158.156 14.8789 158.22 14.5209 158.22H13.1214V157.795H14.5085C14.7736 157.795 14.994 157.751 15.1697 157.663C15.347 157.575 15.4788 157.45 15.565 157.288C15.6528 157.125 15.6967 156.933 15.6967 156.711C15.6967 156.489 15.6528 156.295 15.565 156.129C15.4771 155.962 15.3445 155.833 15.1672 155.742C14.9916 155.651 14.7695 155.605 14.501 155.605H13.3352V160.278H12.8704ZM15.115 157.981L16.3679 160.278H15.8309L14.5905 157.981H15.115ZM17.2864 160.278V155.187H20.2395V155.605H17.7512V157.522H20.0829V157.939H17.7512V159.861H20.2892V160.278H17.2864ZM25.4298 156.778H24.9625C24.9277 156.604 24.8647 156.444 24.7736 156.296C24.6841 156.147 24.5714 156.017 24.4355 155.906C24.2996 155.795 24.1455 155.709 23.9732 155.647C23.8008 155.586 23.6144 155.555 23.4139 155.555C23.0924 155.555 22.799 155.639 22.5339 155.806C22.2704 155.974 22.0591 156.22 21.9 156.545C21.7426 156.868 21.6639 157.264 21.6639 157.733C21.6639 158.205 21.7426 158.603 21.9 158.926C22.0591 159.249 22.2704 159.494 22.5339 159.662C22.799 159.828 23.0924 159.91 23.4139 159.91C23.6144 159.91 23.8008 159.88 23.9732 159.818C24.1455 159.757 24.2996 159.672 24.4355 159.562C24.5714 159.451 24.6841 159.321 24.7736 159.172C24.8647 159.023 24.9277 158.861 24.9625 158.687H25.4298C25.3884 158.921 25.3105 159.139 25.1962 159.341C25.0835 159.542 24.9393 159.717 24.7636 159.868C24.5896 160.019 24.3891 160.137 24.1621 160.221C23.935 160.306 23.6856 160.348 23.4139 160.348C22.9863 160.348 22.6068 160.241 22.2754 160.027C21.9439 159.812 21.6837 159.509 21.4948 159.117C21.3076 158.726 21.2139 158.265 21.2139 157.733C21.2139 157.201 21.3076 156.739 21.4948 156.348C21.6837 155.957 21.9439 155.655 22.2754 155.441C22.6068 155.225 22.9863 155.118 23.4139 155.118C23.6856 155.118 23.935 155.16 24.1621 155.245C24.3891 155.327 24.5896 155.445 24.7636 155.598C24.9393 155.748 25.0835 155.924 25.1962 156.125C25.3105 156.325 25.3884 156.543 25.4298 156.778ZM26.5217 160.278V155.187H29.4748V155.605H26.9866V157.522H29.3182V157.939H26.9866V159.861H29.5246V160.278H26.5217ZM31.1428 155.187V160.278H30.678V155.187H31.1428ZM32.5038 155.187L34.0947 159.674H34.1394L35.7303 155.187H36.2176L34.3656 160.278H33.8685L32.0166 155.187H32.5038ZM37.0901 160.278V155.187H40.0432V155.605H37.5549V157.522H39.8866V157.939H37.5549V159.861H40.0929V160.278H37.0901ZM47.2023 156.778H46.735C46.7002 156.604 46.6372 156.444 46.546 156.296C46.4566 156.147 46.3439 156.017 46.208 155.906C46.0721 155.795 45.918 155.709 45.7456 155.647C45.5733 155.586 45.3868 155.555 45.1863 155.555C44.8648 155.555 44.5715 155.639 44.3063 155.806C44.0428 155.974 43.8316 156.22 43.6725 156.545C43.515 156.868 43.4363 157.264 43.4363 157.733C43.4363 158.205 43.515 158.603 43.6725 158.926C43.8316 159.249 44.0428 159.494 44.3063 159.662C44.5715 159.828 44.8648 159.91 45.1863 159.91C45.3868 159.91 45.5733 159.88 45.7456 159.818C45.918 159.757 46.0721 159.672 46.208 159.562C46.3439 159.451 46.4566 159.321 46.546 159.172C46.6372 159.023 46.7002 158.861 46.735 158.687H47.2023C47.1609 158.921 47.083 159.139 46.9686 159.341C46.8559 159.542 46.7118 159.717 46.5361 159.868C46.3621 160.019 46.1616 160.137 45.9345 160.221C45.7075 160.306 45.4581 160.348 45.1863 160.348C44.7588 160.348 44.3793 160.241 44.0478 160.027C43.7164 159.812 43.4562 159.509 43.2673 159.117C43.08 158.726 42.9864 158.265 42.9864 157.733C42.9864 157.201 43.08 156.739 43.2673 156.348C43.4562 155.957 43.7164 155.655 44.0478 155.441C44.3793 155.225 44.7588 155.118 45.1863 155.118C45.4581 155.118 45.7075 155.16 45.9345 155.245C46.1616 155.327 46.3621 155.445 46.5361 155.598C46.7118 155.748 46.8559 155.924 46.9686 156.125C47.083 156.325 47.1609 156.543 47.2023 156.778ZM48.2942 160.278V155.187H49.9373C50.2986 155.187 50.6002 155.253 50.8421 155.384C51.0857 155.513 51.2688 155.693 51.3915 155.923C51.5158 156.152 51.5779 156.415 51.5779 156.711C51.5779 157.008 51.5158 157.27 51.3915 157.497C51.2688 157.724 51.0866 157.901 50.8446 158.029C50.6027 158.156 50.3027 158.22 49.9447 158.22H48.5452V157.795H49.9323C50.1975 157.795 50.4179 157.751 50.5935 157.663C50.7709 157.575 50.9026 157.45 50.9888 157.288C51.0766 157.125 51.1205 156.933 51.1205 156.711C51.1205 156.489 51.0766 156.295 50.9888 156.129C50.9009 155.962 50.7684 155.833 50.5911 155.742C50.4154 155.651 50.1933 155.605 49.9249 155.605H48.759V160.278H48.2942ZM50.5389 157.981L51.7917 160.278H51.2548L50.0143 157.981H50.5389ZM52.0415 155.187H52.5784L54.0873 157.604H54.1321L55.6409 155.187H56.1779L54.3409 158.073V160.278H53.8785V158.073L52.0415 155.187ZM57.051 160.278V155.187H58.6941C59.0554 155.187 59.357 155.257 59.599 155.396C59.8426 155.534 60.0257 155.721 60.1483 155.958C60.2726 156.195 60.3348 156.462 60.3348 156.758C60.3348 157.055 60.2734 157.323 60.1508 157.561C60.0282 157.798 59.8459 157.986 59.6039 158.126C59.362 158.263 59.0612 158.332 58.7016 158.332H57.409V157.914H58.6892C58.956 157.914 59.1772 157.865 59.3529 157.765C59.5285 157.664 59.6594 157.527 59.7456 157.353C59.8334 157.179 59.8774 156.98 59.8774 156.758C59.8774 156.536 59.8334 156.338 59.7456 156.164C59.6594 155.99 59.5277 155.854 59.3504 155.754C59.1747 155.655 58.9518 155.605 58.6817 155.605H57.5159V160.278H57.051ZM61.1178 155.605V155.187H64.8092V155.605H63.1959V160.278H62.7311V155.605H61.1178ZM69.8174 157.733C69.8174 158.263 69.723 158.725 69.5341 159.117C69.3451 159.509 69.085 159.812 68.7535 160.027C68.4237 160.241 68.0442 160.348 67.615 160.348C67.1858 160.348 66.8055 160.241 66.474 160.027C66.1443 159.812 65.8849 159.509 65.696 159.117C65.5087 158.725 65.4151 158.263 65.4151 157.733C65.4151 157.203 65.5087 156.742 65.696 156.351C65.8849 155.958 66.1451 155.655 66.4765 155.441C66.808 155.225 67.1875 155.118 67.615 155.118C68.0442 155.118 68.4237 155.225 68.7535 155.441C69.085 155.655 69.3451 155.958 69.5341 156.351C69.723 156.742 69.8174 157.203 69.8174 157.733ZM69.365 157.733C69.365 157.277 69.2888 156.887 69.1363 156.562C68.9839 156.236 68.7759 155.986 68.5124 155.814C68.2489 155.641 67.9498 155.555 67.615 155.555C67.2819 155.555 66.9836 155.641 66.7201 155.814C66.4566 155.986 66.2478 156.235 66.0937 156.56C65.9413 156.884 65.865 157.275 65.865 157.733C65.865 158.189 65.9413 158.579 66.0937 158.904C66.2462 159.228 66.4542 159.478 66.7177 159.652C66.9811 159.824 67.2803 159.91 67.615 159.91C67.9498 159.91 68.2489 159.824 68.5124 159.652C68.7775 159.48 68.9864 159.231 69.1388 158.906C69.2913 158.58 69.3667 158.189 69.365 157.733Z" fill="white"/>
    </g>
    <g filter="url(#filter2_d_2_552)">
        <rect x="141.985" y="129.528" width="50.7706" height="29.646" rx="2.07128" fill="#7B5BF4"/>
        <g clip-path="url(#clip2_2_552)">
            <path d="M167.37 135.788C165.338 135.788 163.688 137.437 163.688 139.47C163.688 141.503 165.338 143.152 167.37 143.152H169.212V142.416H167.37C165.772 142.416 164.425 141.068 164.425 139.47C164.425 137.872 165.772 136.524 167.37 136.524C168.968 136.524 170.316 137.872 170.316 139.47V139.997C170.316 140.287 170.055 140.575 169.764 140.575C169.473 140.575 169.212 140.287 169.212 139.997V139.47C169.212 138.454 168.387 137.629 167.37 137.629C166.354 137.629 165.529 138.454 165.529 139.47C165.529 140.486 166.354 141.311 167.37 141.311C167.879 141.311 168.343 141.105 168.674 140.77C168.913 141.098 169.326 141.311 169.764 141.311C170.489 141.311 171.053 140.722 171.053 139.997V139.47C171.053 137.437 169.403 135.788 167.37 135.788ZM167.37 140.575C166.759 140.575 166.266 140.081 166.266 139.47C166.266 138.859 166.759 138.365 167.37 138.365C167.982 138.365 168.475 138.859 168.475 139.47C168.475 140.081 167.982 140.575 167.37 140.575Z" fill="white"/>
        </g>
        <path d="M147.964 148.287H148.424L150.007 152.088H150.045L151.628 148.287H152.089V152.65H151.714V149.128H151.68L150.207 152.65H149.845L148.373 149.128H148.339V152.65H147.964V148.287ZM153.255 152.65H152.838L154.425 148.287H154.851L156.438 152.65H156.021L154.653 148.805H154.623L153.255 152.65ZM153.556 150.978H155.72V151.336H153.556V150.978ZM157.186 152.65V148.287H158.595C158.904 148.287 159.163 148.346 159.37 148.466C159.579 148.584 159.736 148.744 159.841 148.947C159.948 149.15 160.001 149.379 160.001 149.633C160.001 149.888 159.948 150.117 159.843 150.322C159.738 150.525 159.582 150.686 159.375 150.805C159.167 150.923 158.909 150.982 158.601 150.982H157.493V150.624H158.59C158.819 150.624 159.009 150.582 159.159 150.496C159.31 150.41 159.422 150.292 159.496 150.143C159.571 149.993 159.609 149.824 159.609 149.633C159.609 149.443 159.571 149.273 159.496 149.124C159.422 148.975 159.309 148.858 159.157 148.773C159.007 148.687 158.816 148.645 158.584 148.645H157.585V152.65H157.186ZM164.993 149.378C164.969 149.135 164.862 148.942 164.671 148.798C164.481 148.655 164.242 148.583 163.953 148.583C163.75 148.583 163.571 148.618 163.416 148.687C163.263 148.757 163.142 148.854 163.054 148.977C162.968 149.099 162.924 149.238 162.924 149.395C162.924 149.51 162.949 149.611 162.999 149.697C163.049 149.784 163.115 149.859 163.199 149.921C163.284 149.982 163.378 150.035 163.48 150.079C163.584 150.123 163.688 150.16 163.794 150.189L164.254 150.322C164.393 150.36 164.532 150.409 164.671 150.469C164.811 150.528 164.938 150.604 165.053 150.694C165.169 150.784 165.262 150.894 165.332 151.025C165.403 151.154 165.438 151.309 165.438 151.491C165.438 151.724 165.378 151.934 165.257 152.12C165.137 152.306 164.963 152.454 164.737 152.563C164.512 152.671 164.241 152.725 163.926 152.725C163.629 152.725 163.371 152.676 163.152 152.578C162.934 152.479 162.762 152.341 162.637 152.167C162.512 151.992 162.441 151.79 162.426 151.559H162.835C162.849 151.731 162.906 151.877 163.005 151.996C163.105 152.116 163.234 152.207 163.393 152.269C163.552 152.33 163.73 152.361 163.926 152.361C164.143 152.361 164.336 152.324 164.505 152.252C164.676 152.178 164.809 152.076 164.906 151.945C165.004 151.813 165.053 151.66 165.053 151.485C165.053 151.337 165.014 151.214 164.938 151.114C164.861 151.013 164.754 150.929 164.616 150.861C164.48 150.792 164.321 150.732 164.141 150.68L163.619 150.526C163.277 150.424 163.011 150.283 162.822 150.102C162.633 149.922 162.539 149.692 162.539 149.412C162.539 149.177 162.601 148.971 162.726 148.794C162.853 148.615 163.023 148.476 163.237 148.376C163.453 148.275 163.696 148.225 163.964 148.225C164.235 148.225 164.475 148.275 164.684 148.374C164.893 148.474 165.059 148.611 165.181 148.785C165.304 148.959 165.37 149.156 165.379 149.378H164.993ZM169.975 150.469C169.975 150.923 169.894 151.319 169.732 151.655C169.57 151.991 169.347 152.251 169.063 152.435C168.78 152.618 168.455 152.71 168.087 152.71C167.719 152.71 167.393 152.618 167.109 152.435C166.826 152.251 166.604 151.991 166.442 151.655C166.282 151.319 166.201 150.923 166.201 150.469C166.201 150.014 166.282 149.619 166.442 149.284C166.604 148.947 166.827 148.687 167.111 148.504C167.395 148.319 167.72 148.227 168.087 148.227C168.455 148.227 168.78 148.319 169.063 148.504C169.347 148.687 169.57 148.947 169.732 149.284C169.894 149.619 169.975 150.014 169.975 150.469ZM169.587 150.469C169.587 150.078 169.522 149.743 169.391 149.465C169.26 149.185 169.082 148.971 168.856 148.824C168.63 148.676 168.374 148.602 168.087 148.602C167.801 148.602 167.546 148.676 167.32 148.824C167.094 148.971 166.915 149.184 166.783 149.463C166.652 149.741 166.587 150.077 166.587 150.469C166.587 150.859 166.652 151.194 166.783 151.472C166.914 151.751 167.092 151.964 167.318 152.113C167.544 152.261 167.8 152.335 168.087 152.335C168.374 152.335 168.63 152.261 168.856 152.113C169.083 151.966 169.262 151.753 169.393 151.474C169.524 151.194 169.588 150.859 169.587 150.469ZM174.356 149.65H173.955C173.926 149.501 173.872 149.363 173.793 149.237C173.717 149.109 173.62 148.998 173.504 148.903C173.387 148.807 173.255 148.734 173.107 148.681C172.96 148.628 172.8 148.602 172.628 148.602C172.352 148.602 172.101 148.674 171.874 148.817C171.648 148.961 171.467 149.172 171.33 149.45C171.195 149.727 171.128 150.067 171.128 150.469C171.128 150.873 171.195 151.214 171.33 151.491C171.467 151.768 171.648 151.979 171.874 152.122C172.101 152.264 172.352 152.335 172.628 152.335C172.8 152.335 172.96 152.309 173.107 152.256C173.255 152.204 173.387 152.131 173.504 152.037C173.62 151.942 173.717 151.83 173.793 151.702C173.872 151.574 173.926 151.436 173.955 151.287H174.356C174.32 151.487 174.254 151.674 174.156 151.847C174.059 152.019 173.935 152.17 173.785 152.299C173.636 152.428 173.464 152.529 173.269 152.601C173.075 152.674 172.861 152.71 172.628 152.71C172.261 152.71 171.936 152.618 171.652 152.435C171.368 152.251 171.145 151.991 170.983 151.655C170.823 151.32 170.742 150.925 170.742 150.469C170.742 150.013 170.823 149.617 170.983 149.282C171.145 148.947 171.368 148.687 171.652 148.504C171.936 148.319 172.261 148.227 172.628 148.227C172.861 148.227 173.075 148.263 173.269 148.336C173.464 148.407 173.636 148.508 173.785 148.638C173.935 148.768 174.059 148.918 174.156 149.09C174.254 149.262 174.32 149.449 174.356 149.65ZM175.69 148.287V152.65H175.292V148.287H175.69ZM176.857 152.65H176.439L178.027 148.287H178.453L180.04 152.65H179.622L178.255 148.805H178.225L176.857 152.65ZM177.157 150.978H179.322V151.336H177.157V150.978ZM180.788 152.65V148.287H181.186V152.292H183.266V152.65H180.788ZM186.532 149.378C186.508 149.135 186.401 148.942 186.211 148.798C186.02 148.655 185.781 148.583 185.492 148.583C185.289 148.583 185.11 148.618 184.956 148.687C184.802 148.757 184.681 148.854 184.593 148.977C184.507 149.099 184.463 149.238 184.463 149.395C184.463 149.51 184.488 149.611 184.538 149.697C184.588 149.784 184.654 149.859 184.738 149.921C184.823 149.982 184.917 150.035 185.019 150.079C185.123 150.123 185.228 150.16 185.333 150.189L185.793 150.322C185.932 150.36 186.071 150.409 186.211 150.469C186.35 150.528 186.477 150.604 186.592 150.694C186.708 150.784 186.801 150.894 186.871 151.025C186.942 151.154 186.978 151.309 186.978 151.491C186.978 151.724 186.917 151.934 186.796 152.12C186.676 152.306 186.502 152.454 186.277 152.563C186.051 152.671 185.78 152.725 185.465 152.725C185.168 152.725 184.91 152.676 184.691 152.578C184.473 152.479 184.301 152.341 184.176 152.167C184.051 151.992 183.98 151.79 183.965 151.559H184.374C184.388 151.731 184.445 151.877 184.544 151.996C184.644 152.116 184.773 152.207 184.932 152.269C185.091 152.33 185.269 152.361 185.465 152.361C185.682 152.361 185.875 152.324 186.044 152.252C186.215 152.178 186.348 152.076 186.445 151.945C186.543 151.813 186.592 151.66 186.592 151.485C186.592 151.337 186.554 151.214 186.477 151.114C186.4 151.013 186.293 150.929 186.155 150.861C186.019 150.792 185.86 150.732 185.68 150.68L185.158 150.526C184.816 150.424 184.55 150.283 184.361 150.102C184.172 149.922 184.078 149.692 184.078 149.412C184.078 149.177 184.14 148.971 184.265 148.794C184.392 148.615 184.562 148.476 184.777 148.376C184.992 148.275 185.235 148.225 185.503 148.225C185.774 148.225 186.014 148.275 186.223 148.374C186.432 148.474 186.598 148.611 186.72 148.785C186.843 148.959 186.909 149.156 186.918 149.378H186.532Z" fill="white"/>
    </g>
    <g filter="url(#filter3_d_2_552)">
        <rect x="98.0619" y="4" width="63.9712" height="61.8042" rx="2.87908" fill="#22A2FF"/>
        <path d="M135.059 22.8784L124.534 26.0166C123.739 26.2534 123.684 27.3574 124.45 27.673L128.969 29.5349C128.989 29.487 129.018 29.4422 129.057 29.4037L131.368 27.0933C131.525 26.9357 131.78 26.9357 131.937 27.0933C132.095 27.2504 132.095 27.5056 131.937 27.6627L129.626 29.9732C129.587 30.0121 129.542 30.0412 129.494 30.0609L131.358 34.5811C131.673 35.3462 132.775 35.2906 133.012 34.4974L136.152 23.9712C136.351 23.3024 135.728 22.6792 135.059 22.8784Z" fill="white"/>
        <path d="M109.189 42.1453C109.161 41.862 109.036 41.6366 108.814 41.4692C108.592 41.3018 108.313 41.2181 107.976 41.2181C107.739 41.2181 107.531 41.2587 107.35 41.34C107.171 41.4212 107.03 41.5338 106.927 41.678C106.826 41.8205 106.776 41.9829 106.776 42.1652C106.776 42.2995 106.805 42.4171 106.863 42.5182C106.921 42.6193 106.999 42.7063 107.096 42.7792C107.196 42.8505 107.305 42.9118 107.425 42.9632C107.546 43.0145 107.667 43.0576 107.79 43.0924L108.327 43.2466C108.489 43.2913 108.652 43.3485 108.814 43.4181C108.977 43.4877 109.125 43.5755 109.259 43.6816C109.395 43.786 109.504 43.9144 109.585 44.0669C109.668 44.2177 109.709 44.3991 109.709 44.6113C109.709 44.883 109.639 45.1275 109.498 45.3446C109.357 45.5617 109.155 45.734 108.891 45.8616C108.628 45.9876 108.312 46.0505 107.944 46.0505C107.598 46.0505 107.297 45.9934 107.042 45.879C106.787 45.763 106.586 45.6031 106.44 45.3993C106.294 45.1954 106.212 44.9593 106.194 44.6908H106.671C106.688 44.8913 106.754 45.0612 106.87 45.2004C106.986 45.3396 107.137 45.4457 107.323 45.5186C107.508 45.5898 107.715 45.6255 107.944 45.6255C108.198 45.6255 108.423 45.5832 108.62 45.4987C108.819 45.4125 108.975 45.2932 109.088 45.1407C109.202 44.9866 109.259 44.8076 109.259 44.6038C109.259 44.4315 109.214 44.2873 109.125 44.1713C109.035 44.0536 108.91 43.955 108.75 43.8755C108.59 43.7959 108.406 43.7255 108.195 43.6642L107.586 43.4852C107.187 43.3659 106.877 43.201 106.656 42.9905C106.436 42.7801 106.326 42.5116 106.326 42.1851C106.326 41.9117 106.399 41.6714 106.545 41.4642C106.692 41.2554 106.891 41.093 107.141 40.977C107.393 40.8594 107.676 40.8005 107.989 40.8005C108.305 40.8005 108.585 40.8585 108.829 40.9745C109.073 41.0905 109.266 41.2505 109.408 41.4543C109.552 41.6565 109.629 41.8868 109.639 42.1453H109.189ZM110.828 45.9635V40.8726H113.781V41.2902H111.292V43.2068H113.624V43.6244H111.292V45.5459H113.83V45.9635H110.828ZM118.949 40.8726V45.9635H118.496L115.488 41.7004H115.449V45.9635H114.984V40.8726H115.434L118.452 45.1407H118.491V40.8726H118.949ZM121.794 45.9635H120.302V40.8726H121.883C122.369 40.8726 122.784 40.9737 123.129 41.1759C123.475 41.3781 123.74 41.6681 123.924 42.0459C124.108 42.4238 124.2 42.877 124.2 43.4056C124.2 43.9393 124.106 44.3975 123.917 44.7803C123.729 45.1614 123.456 45.4539 123.096 45.6578C122.738 45.8616 122.304 45.9635 121.794 45.9635ZM120.767 45.5459H121.766C122.204 45.5459 122.57 45.4597 122.865 45.2874C123.16 45.115 123.381 44.869 123.529 44.5491C123.676 44.2293 123.75 43.8481 123.75 43.4056C123.748 42.9665 123.675 42.5886 123.531 42.2721C123.389 41.9556 123.177 41.7128 122.895 41.5438C122.615 41.3748 122.268 41.2902 121.856 41.2902H120.767V45.5459ZM131.283 42.4635H130.815C130.78 42.2895 130.718 42.1288 130.626 41.9813C130.537 41.8321 130.424 41.702 130.288 41.591C130.152 41.48 129.998 41.3938 129.826 41.3325C129.654 41.2712 129.467 41.2405 129.267 41.2405C128.945 41.2405 128.652 41.3242 128.387 41.4916C128.123 41.659 127.912 41.9051 127.753 42.2299C127.595 42.553 127.517 42.9491 127.517 43.4181C127.517 43.8904 127.595 44.2881 127.753 44.6113C127.912 44.9344 128.123 45.1797 128.387 45.3471C128.652 45.5128 128.945 45.5956 129.267 45.5956C129.467 45.5956 129.654 45.565 129.826 45.5037C129.998 45.4423 130.152 45.357 130.288 45.2476C130.424 45.1366 130.537 45.0065 130.626 44.8574C130.718 44.7082 130.78 44.5466 130.815 44.3726H131.283C131.241 44.6063 131.163 44.8242 131.049 45.0264C130.936 45.2269 130.792 45.4026 130.616 45.5534C130.442 45.7042 130.242 45.8218 130.015 45.9064C129.788 45.9909 129.538 46.0331 129.267 46.0331C128.839 46.0331 128.46 45.9262 128.128 45.7125C127.797 45.497 127.537 45.1938 127.348 44.8027C127.16 44.4116 127.067 43.95 127.067 43.4181C127.067 42.8861 127.16 42.4246 127.348 42.0335C127.537 41.6424 127.797 41.34 128.128 41.1262C128.46 40.9107 128.839 40.803 129.267 40.803C129.538 40.803 129.788 40.8453 130.015 40.9298C130.242 41.0127 130.442 41.1303 130.616 41.2828C130.792 41.4336 130.936 41.6092 131.049 41.8098C131.163 42.0103 131.241 42.2282 131.283 42.4635ZM132.375 45.9635V40.8726H134.018C134.379 40.8726 134.68 40.9381 134.922 41.069C135.166 41.1983 135.349 41.3781 135.472 41.6084C135.596 41.8371 135.658 42.0998 135.658 42.3964C135.658 42.6931 135.596 42.9549 135.472 43.1819C135.349 43.409 135.167 43.5863 134.925 43.7139C134.683 43.8415 134.383 43.9053 134.025 43.9053H132.626V43.4802H134.013C134.278 43.4802 134.498 43.4363 134.674 43.3485C134.851 43.2606 134.983 43.1355 135.069 42.9731C135.157 42.8107 135.201 42.6185 135.201 42.3964C135.201 42.1744 135.157 41.9805 135.069 41.8147C134.981 41.6474 134.849 41.5181 134.671 41.427C134.496 41.3358 134.274 41.2902 134.005 41.2902H132.839V45.9635H132.375ZM134.619 43.6667L135.872 45.9635H135.335L134.095 43.6667H134.619ZM136.122 40.8726H136.659L138.168 43.2888H138.212L139.721 40.8726H140.258L138.421 43.7586V45.9635H137.959V43.7586L136.122 40.8726ZM141.131 45.9635V40.8726H142.774C143.136 40.8726 143.437 40.9422 143.679 41.0814C143.923 41.219 144.106 41.4062 144.229 41.6432C144.353 41.8802 144.415 42.147 144.415 42.4436C144.415 42.7403 144.354 43.0079 144.231 43.2466C144.108 43.4835 143.926 43.6716 143.684 43.8108C143.442 43.9484 143.142 44.0172 142.782 44.0172H141.489V43.5995H142.769C143.036 43.5995 143.258 43.5498 143.433 43.4504C143.609 43.3493 143.74 43.2118 143.826 43.0378C143.914 42.8637 143.958 42.6657 143.958 42.4436C143.958 42.2216 143.914 42.0235 143.826 41.8495C143.74 41.6755 143.608 41.5388 143.431 41.4394C143.255 41.34 143.032 41.2902 142.762 41.2902H141.596V45.9635H141.131ZM145.198 41.2902V40.8726H148.89V41.2902H147.276V45.9635H146.811V41.2902H145.198ZM153.898 43.4181C153.898 43.9484 153.803 44.4099 153.614 44.8027C153.425 45.1938 153.165 45.497 152.834 45.7125C152.504 45.9262 152.125 46.0331 151.695 46.0331C151.266 46.0331 150.886 45.9262 150.554 45.7125C150.225 45.497 149.965 45.1938 149.776 44.8027C149.589 44.4099 149.495 43.9484 149.495 43.4181C149.495 42.8878 149.589 42.4271 149.776 42.036C149.965 41.6432 150.225 41.34 150.557 41.1262C150.888 40.9107 151.268 40.803 151.695 40.803C152.125 40.803 152.504 40.9107 152.834 41.1262C153.165 41.34 153.425 41.6432 153.614 42.036C153.803 42.4271 153.898 42.8878 153.898 43.4181ZM153.445 43.4181C153.445 42.9623 153.369 42.5721 153.217 42.2473C153.064 41.9208 152.856 41.6714 152.593 41.499C152.329 41.3267 152.03 41.2405 151.695 41.2405C151.362 41.2405 151.064 41.3267 150.8 41.499C150.537 41.6714 150.328 41.92 150.174 42.2448C150.022 42.5696 149.945 42.9607 149.945 43.4181C149.945 43.8738 150.022 44.2641 150.174 44.5889C150.327 44.9137 150.534 45.1631 150.798 45.3371C151.061 45.5095 151.361 45.5956 151.695 45.5956C152.03 45.5956 152.329 45.5095 152.593 45.3371C152.858 45.1648 153.067 44.9162 153.219 44.5914C153.372 44.2649 153.447 43.8738 153.445 43.4181Z" fill="white"/>
    </g>
    <defs>
        <filter id="filter0_d_2_552" x="15.4669" y="47.3781" width="165.067" height="97.5048" filterUnits="userSpaceOnUse" color-interpolation-filters="sRGB">
            <feFlood flood-opacity="0" result="BackgroundImageFix"/>
            <feColorMatrix in="SourceAlpha" type="matrix" values="0 0 0 0 0 0 0 0 0 0 0 0 0 0 0 0 0 0 127 0" result="hardAlpha"/>
            <feOffset/>
            <feGaussianBlur stdDeviation="2.87908"/>
            <feComposite in2="hardAlpha" operator="out"/>
            <feColorMatrix type="matrix" values="0 0 0 0 0 0 0 0 0 0 0 0 0 0 0 0 0 0 0.25 0"/>
            <feBlend mode="normal" in2="BackgroundImageFix" result="effect1_dropShadow_2_552"/>
            <feBlend mode="normal" in="SourceGraphic" in2="effect1_dropShadow_2_552" result="shape"/>
        </filter>
        <filter id="filter1_d_2_552" x="0.405491" y="119.85" width="81.6487" height="58.7332" filterUnits="userSpaceOnUse" color-interpolation-filters="sRGB">
            <feFlood flood-opacity="0" result="BackgroundImageFix"/>
            <feColorMatrix in="SourceAlpha" type="matrix" values="0 0 0 0 0 0 0 0 0 0 0 0 0 0 0 0 0 0 127 0" result="hardAlpha"/>
            <feOffset/>
            <feGaussianBlur stdDeviation="1.91939"/>
            <feComposite in2="hardAlpha" operator="out"/>
            <feColorMatrix type="matrix" values="0 0 0 0 0 0 0 0 0 0 0 0 0 0 0 0 0 0 0.2 0"/>
            <feBlend mode="normal" in2="BackgroundImageFix" result="effect1_dropShadow_2_552"/>
            <feBlend mode="normal" in="SourceGraphic" in2="effect1_dropShadow_2_552" result="shape"/>
        </filter>
        <filter id="filter2_d_2_552" x="139.939" y="127.482" width="54.862" height="33.7374" filterUnits="userSpaceOnUse" color-interpolation-filters="sRGB">
            <feFlood flood-opacity="0" result="BackgroundImageFix"/>
            <feColorMatrix in="SourceAlpha" type="matrix" values="0 0 0 0 0 0 0 0 0 0 0 0 0 0 0 0 0 0 127 0" result="hardAlpha"/>
            <feOffset/>
            <feGaussianBlur stdDeviation="1.02285"/>
            <feComposite in2="hardAlpha" operator="out"/>
            <feColorMatrix type="matrix" values="0 0 0 0 0 0 0 0 0 0 0 0 0 0 0 0 0 0 0.15 0"/>
            <feBlend mode="normal" in2="BackgroundImageFix" result="effect1_dropShadow_2_552"/>
            <feBlend mode="normal" in="SourceGraphic" in2="effect1_dropShadow_2_552" result="shape"/>
        </filter>
        <filter id="filter3_d_2_552" x="94.2231" y="0.161228" width="71.6487" height="69.4818" filterUnits="userSpaceOnUse" color-interpolation-filters="sRGB">
            <feFlood flood-opacity="0" result="BackgroundImageFix"/>
            <feColorMatrix in="SourceAlpha" type="matrix" values="0 0 0 0 0 0 0 0 0 0 0 0 0 0 0 0 0 0 127 0" result="hardAlpha"/>
            <feOffset/>
            <feGaussianBlur stdDeviation="1.91939"/>
            <feComposite in2="hardAlpha" operator="out"/>
            <feColorMatrix type="matrix" values="0 0 0 0 0 0 0 0 0 0 0 0 0 0 0 0 0 0 0.25 0"/>
            <feBlend mode="normal" in2="BackgroundImageFix" result="effect1_dropShadow_2_552"/>
            <feBlend mode="normal" in="SourceGraphic" in2="effect1_dropShadow_2_552" result="shape"/>
        </filter>
        <clipPath id="clip0_2_552">
            <rect width="15.7938" height="15.7938" fill="white" transform="translate(102.58 148.328)"/>
        </clipPath>
        <clipPath id="clip1_2_552">
            <rect width="12.7651" height="12.7651" fill="white" transform="translate(59.9481 23.7928)"/>
        </clipPath>
        <clipPath id="clip2_2_552">
            <rect width="8.83746" height="8.83746" fill="white" transform="translate(162.952 135.051)"/>
        </clipPath>
    </defs>
</svg>
