<svg width="24" height="24" viewBox="0 0 24 24" fill="none" xmlns="http://www.w3.org/2000/svg">
<path d="M12.793 2.293C12.9805 2.10553 13.2348 2.00021 13.5 2.00021C13.7652 2.00021 14.0195 2.10553 14.207 2.293L17.207 5.293C17.3945 5.48053 17.4998 5.73484 17.4998 6C17.4998 6.26516 17.3945 6.51947 17.207 6.707L14.207 9.707C14.0184 9.88916 13.7658 9.98995 13.5036 9.98767C13.2414 9.9854 12.9906 9.88023 12.8052 9.69482C12.6198 9.50941 12.5146 9.2586 12.5123 8.9964C12.51 8.7342 12.6108 8.4816 12.793 8.293L14.086 7H12.5C8.952 7 6 9.952 6 13.5C6 17.048 8.952 20 12.5 20C16.048 20 19 17.048 19 13.5C19 13.2348 19.1054 12.9804 19.2929 12.7929C19.4804 12.6054 19.7348 12.5 20 12.5C20.2652 12.5 20.5196 12.6054 20.7071 12.7929C20.8946 12.9804 21 13.2348 21 13.5C21 18.152 17.152 22 12.5 22C7.848 22 4 18.152 4 13.5C4 8.848 7.848 5 12.5 5H14.086L12.793 3.707C12.6055 3.51947 12.5002 3.26516 12.5002 3C12.5002 2.73484 12.6055 2.48053 12.793 2.293V2.293Z" fill="white"/>
</svg>
