<?xml version="1.0" encoding="UTF-8"?>
<svg width="129px" height="30px" viewBox="0 0 129 30" version="1.1" xmlns="http://www.w3.org/2000/svg" xmlns:xlink="http://www.w3.org/1999/xlink">
    <defs>
        <polygon id="path-1" points="0 0 92.1231573 0 92.1231573 15.9303218 0 15.9303218"></polygon>
    </defs>
    <g id="Get-FIO" stroke="none" stroke-width="1" fill="none" fill-rule="evenodd">
        <g id="FIO_WalletView---No-FIO---Partners" transform="translate(-388.000000, -947.000000)">
            <g id="Group-2" transform="translate(328.000000, 230.000000)">
                <g id="Group-Copy-7" transform="translate(30.000000, 705.000000)">
                    <g id="Group-6" transform="translate(30.000000, 12.000000)">
                        <g id="Group-3" transform="translate(36.512969, 7.505607)">
                            <mask id="mask-2" fill="white">
                                <use xlink:href="#path-1"></use>
                            </mask>
                            <g id="Clip-2"></g>
                            <path d="M23.049151,2.86220575 L16.0932611,2.86220575 L18.505335,0.0242026853 L32.905361,0.0242026853 L32.905361,2.86220575 L26.905382,2.86220575 L26.905382,15.9303218 L23.0502944,15.9303218 L23.0502944,2.86220575 L23.049151,2.86220575 Z M6.16272784,7.89617371 L0.21725245,0.0240121129 L4.94096867,0.0240121129 L8.49723882,5.26818135 L12.3528981,0.0240121129 L17.0221106,0.0240121129 L10.8864441,7.89617371 L17.0221106,15.9301312 L12.488395,15.9301312 L8.49723882,10.469853 L4.58821929,15.9301312 L0,15.9301312 L6.16272784,7.89617371 Z M70.6592632,0.222016758 L85.8032835,0.222016758 C86.8592448,0.186189161 87.9150155,0.29100394 88.9431532,0.534174227 C89.637027,0.731416583 90.2647722,1.11294238 90.7593074,1.6381597 C91.7157899,2.80770206 92.1990813,4.29359448 92.1135144,5.802165 L92.1135144,15.5823367 L87.9891481,15.5823367 L87.9891481,6.46821528 C88.0042033,5.95062084 87.9733306,5.43245469 87.8967205,4.92019628 C87.83326,4.62137888 87.6834701,4.34809816 87.4660271,4.13408544 C86.9301377,3.67213813 86.2320713,3.44287962 85.5267631,3.49795502 L83.3408985,3.49795502 L83.3408985,15.5821461 L79.2163417,15.5821461 L79.2163417,3.49795502 L74.7836294,3.49795502 L74.7836294,15.5821461 L70.6592632,15.5821461 L70.6592632,0.222016758 Z M59.7021168,3.21609855 C57.2189594,3.21609855 55.9771901,4.7940374 55.9771901,7.95010568 C55.9163976,8.96547502 56.1290763,9.9785575 56.5929293,10.8839666 C57.2334429,11.999577 58.4481509,12.6589573 59.7326084,12.5880643 C62.1726964,12.5880643 63.3925517,11.0200353 63.3925517,7.88397708 C63.394265,4.81804952 62.1639301,3.26202648 59.7021168,3.21609855 L59.7021168,3.21609855 Z M59.6708629,0 C62.4412128,0 64.4830047,0.820032714 65.7962386,2.46009814 C67.0465836,4.07005314 67.6895746,6.06896626 67.6123928,8.10599384 C67.7114905,10.2585082 66.8811668,12.3498489 65.3323856,13.8481286 C63.9364433,15.1501187 62.028052,15.8020666 59.6072118,15.8041629 C57.1027103,15.8041629 55.1426739,15.067982 53.7272933,13.5961919 C52.4136782,12.2701897 51.756966,10.3341655 51.756966,7.7881192 C51.691028,5.83017913 52.3610803,3.91854814 53.6348657,2.43017829 C55.0319514,0.828036752 57.044014,0.0181043709 59.6708629,0 L59.6708629,0 Z M49.6059762,0.222016758 L49.6059762,3.49795502 L44.6804439,3.49795502 C43.018272,3.49795502 41.8695021,3.88195826 41.2333716,4.63795867 C40.6176325,5.35203317 40.3098582,6.44591832 40.3098582,7.92018582 C40.3098582,9.56006068 40.8125879,10.7581889 41.8176664,11.5139987 C42.2195834,11.8040498 42.6746701,12.0119642 43.1570087,12.126117 C43.8200098,12.2610422 44.4965416,12.3193574 45.1730733,12.3001096 L49.6059762,12.3001096 L49.6059762,15.5821461 L43.9724677,15.5821461 C42.7543294,15.6254061 41.5377156,15.4651347 40.3723659,15.1080022 C39.4620019,14.7769781 38.6551187,14.2119311 38.0323283,13.4700331 C36.7057543,11.9065777 36.0137862,9.90270972 36.0930643,7.85405722 C36.0930643,5.11781978 36.8625954,3.07793362 38.4020386,1.73401758 C39.0393125,1.17621239 39.798362,0.775629362 40.6182042,0.563903509 C41.7178065,0.310061173 42.8448512,0.195146061 43.9730394,0.222016758 L49.6063573,0.222016758 L49.6059762,0.222016758 Z M29.6959325,13.1161403 C29.7178483,12.2238806 30.4589841,11.5178102 31.3514343,11.5399166 C32.2438845,11.5616418 32.9495738,12.3029681 32.9278486,13.1954183 C32.9063139,14.0722416 32.1893808,14.7718326 31.312367,14.7722138 C30.4092447,14.7600171 29.6862133,14.0190719 29.6959325,13.1161403 L29.6959325,13.1161403 Z" id="Fill-1" fill="#FFBE40" mask="url(#mask-2)"></path>
                        </g>
                        <path d="M22.3139779,8.01571224 C22.0624224,8.01761796 21.8243976,8.12929334 21.6624111,8.32158082 L16.8024357,14.2857323 L14.5967516,16.9855704 L11.7227304,20.5018204 C11.4178146,20.8616209 11.4624086,21.4003689 11.8222091,21.7054752 C12.1822002,22.0103909 12.7211388,21.9656064 13.0258639,21.6059964 L15.6995936,18.347972 L18.3725611,21.6059964 C18.531689,21.8020954 18.7720007,21.9149142 19.0246996,21.9119253 L21.2261911,21.9119253 C21.6999539,21.9088159 22.0818608,21.5225258 22.0790022,21.0485724 C22.0776682,20.8484714 22.0065847,20.65485 21.8777578,20.5018204 L17.9014663,15.6477527 L22.9811716,9.4255663 C23.2797984,9.0495671 23.2171001,8.5028151 22.8411009,8.20399769 C22.6905488,8.08431827 22.5045502,8.01818968 22.3122627,8.01552167 L22.3139779,8.01571224 Z M15.6479485,12.9416257 L18.5219698,9.4255663 C18.8236458,9.05585599 18.7685704,8.511772 18.39886,8.20990544 C18.2492608,8.08793915 18.0632622,8.01952368 17.870403,8.01546131 C17.6186569,8.01685567 17.3804415,8.12872163 17.2188362,8.32158082 L14.5451065,11.585513 L11.8715673,8.32158082 C11.71263,8.12510075 11.4725089,8.01247251 11.2200006,8.01546131 L9.01431648,8.01546131 C8.53979139,8.01971426 8.15864674,8.40791008 8.1630299,8.88243517 C8.16474505,9.08120211 8.23544738,9.27310844 8.3627497,9.4255663 L12.339613,14.2857323 L7.25990765,20.5018204 C6.94794076,20.8557132 6.98186263,21.3956046 7.33575544,21.7077621 C7.68964825,22.019729 8.22953964,21.9858071 8.54169711,21.6319143 C8.54912943,21.6233385 8.55656175,21.6145722 8.5638035,21.6059964 L13.442455,15.6479433 L15.6479485,12.9416257 Z M15.1126309,2.22555329 C8.05764341,2.17467048 2.29702317,7.85239176 2.24594979,14.9075698 C2.19506698,21.9625573 7.87297882,27.7231775 14.9279663,27.7742509 C21.9829538,27.8251337 27.743574,22.1472218 27.7946474,15.0922344 C27.7950648,15.0615522 27.7950648,15.0304889 27.7950648,14.9996162 C27.8116083,7.97359575 22.1386513,2.25947517 15.1126309,2.22555329 L15.1126309,2.22555329 Z M15.1126309,29.9995639 C6.82864248,30.0620716 0.0625626607,23.3968046 0.000436082765,15.1128162 C-0.0620716398,6.8288278 6.60319542,0.0627479768 14.8871838,0.000430826592 C23.1711722,-0.0616957513 29.937252,6.60319017 29.9995692,14.8873691 C30,14.9247213 30,14.9620735 30,14.9996162 C30.0209133,23.2487299 23.3617445,29.9584003 15.1126309,29.9995639 L15.1126309,29.9995639 Z" id="Fill-4" fill="#FFBE40"></path>
                    </g>
                </g>
            </g>
        </g>
    </g>
</svg>
