<svg width="115" height="115" viewBox="0 0 115 115" fill="none" xmlns="http://www.w3.org/2000/svg">
<g clip-path="url(#clip0_41_480)">
<path d="M57.5002 9.58337C31.0502 9.58337 9.5835 31.05 9.5835 57.5C9.5835 83.95 31.0502 105.417 57.5002 105.417H81.4585V95.8334H57.5002C36.7043 95.8334 19.1668 78.2959 19.1668 57.5C19.1668 36.7042 36.7043 19.1667 57.5002 19.1667C78.296 19.1667 95.8335 36.7042 95.8335 57.5V64.3521C95.8335 68.1375 92.4314 71.875 88.646 71.875C84.8606 71.875 81.4585 68.1375 81.4585 64.3521V57.5C81.4585 44.275 70.7252 33.5417 57.5002 33.5417C44.2752 33.5417 33.5418 44.275 33.5418 57.5C33.5418 70.725 44.2752 81.4584 57.5002 81.4584C64.1127 81.4584 70.1502 78.775 74.4627 74.4146C77.5773 78.6792 82.9439 81.4584 88.646 81.4584C98.0856 81.4584 105.417 73.7917 105.417 64.3521V57.5C105.417 31.05 83.9502 9.58337 57.5002 9.58337ZM57.5002 71.875C49.546 71.875 43.1252 65.4542 43.1252 57.5C43.1252 49.5459 49.546 43.125 57.5002 43.125C65.4543 43.125 71.8752 49.5459 71.8752 57.5C71.8752 65.4542 65.4543 71.875 57.5002 71.875Z" fill="#1D1D1D"/>
</g>
<defs>
<clipPath id="clip0_41_480">
<rect width="115" height="115" fill="white"/>
</clipPath>
</defs>
</svg>
