<svg width="468" height="417" viewBox="0 0 468 417" fill="none" xmlns="http://www.w3.org/2000/svg">
    <g filter="url(#filter0_df_41_442)">
        <rect x="5" y="173" width="236" height="236" rx="20" fill="url(#paint0_linear_41_442)"/>
        <g clip-path="url(#clip0_41_442)">
            <path fill-rule="evenodd" clip-rule="evenodd" d="M124.882 314.283V363.367C124.882 365.975 123.241 367.221 121.216 366.117L93.397 350.893C91.1494 349.38 89.7758 346.86 89.7134 344.153V296.183C90.1237 296.512 90.5518 296.797 91.0067 297.046L124.882 314.283Z" fill="#765CD6"/>
            <path fill-rule="evenodd" clip-rule="evenodd" d="M89.7812 252.222V255.153C89.7617 254.083 89.7617 253.111 89.7812 252.222Z" fill="#765CD6"/>
            <path fill-rule="evenodd" clip-rule="evenodd" d="M152.879 220.425V256.132C152.833 258.392 151.642 260.135 149.736 261.343L133.455 269.931L132.265 270.283L92.3754 250.22C92.3205 250.184 92.2655 250.156 92.2105 250.129C92.064 250.055 91.9174 250.01 91.7708 249.964C91.67 249.946 91.5692 249.918 91.4776 249.909C91.386 249.891 91.2944 249.891 91.2028 249.891C90.9279 249.9 90.6622 249.964 90.4149 250.074C90.3324 250.12 90.25 250.156 90.1767 250.211C90.1767 250.211 90.1767 250.22 90.1583 250.22L90.1309 250.248C91.2852 248.152 93.5298 246.944 96.8738 245.151L149.736 218.073C151.459 217.195 152.879 218.211 152.879 220.425Z" fill="#765CD6"/>
            <path fill-rule="evenodd" clip-rule="evenodd" d="M151.258 283.226V318.826C151.258 321.036 149.877 322.066 148.202 321.19L92.4133 291.88C91.148 291.067 90.2124 289.844 89.7134 288.438C89.7579 288.511 89.7936 288.584 89.847 288.648C89.8827 288.694 89.9183 288.74 89.9629 288.785C89.9718 288.803 89.9807 288.813 89.9985 288.831C90.0342 288.867 90.0698 288.913 90.1144 288.95C90.1589 289.004 90.2124 289.041 90.2658 289.086C90.346 289.141 90.4173 289.196 90.5064 289.233C91.0321 289.515 91.7004 289.497 92.4133 289.123L131.21 268.749L133.631 269.807L148.202 277.658C150.064 278.872 151.214 280.962 151.258 283.226Z" fill="#A08AEE"/>
            <path fill-rule="evenodd" clip-rule="evenodd" d="M133.674 269.819L92.9496 290.02C92.2014 290.391 91.4999 290.41 90.948 290.129C90.8545 290.093 90.7797 290.038 90.6955 289.984C90.6394 289.939 90.5832 289.903 90.5365 289.848C90.4897 289.812 90.4523 289.767 90.4149 289.731C90.3962 289.713 90.3868 289.703 90.3775 289.685C90.3307 289.64 90.2933 289.595 90.2559 289.55C90.1998 289.486 90.1623 289.414 90.1156 289.342C89.863 288.907 89.7134 288.346 89.7134 287.694V251.934C89.7134 250.866 90.0782 250.07 90.6581 249.644C90.6674 249.635 90.6768 249.626 90.6861 249.626C90.6861 249.626 90.6955 249.608 90.7048 249.608C90.7797 249.554 90.8638 249.517 90.948 249.472C91.2006 249.364 91.4718 249.3 91.7524 249.291C91.8459 249.291 91.9395 249.291 92.033 249.309C92.1265 249.318 92.2294 249.346 92.3323 249.364C92.482 249.409 92.6316 249.454 92.7813 249.527C92.8374 249.554 92.8935 249.581 92.9496 249.617L133.674 269.819Z" fill="#8B73E2"/>
        </g>
    </g>
    <g clip-path="url(#clip1_41_442)">
        <path d="M445.597 134.809L458.77 119.316L453.042 115.108L462.207 106.692L455.143 101.337L464.307 94.4511L458.388 89.8606L467.934 43.1912L453.424 -0.0354004M453.424 -0.0354004L360.256 34.5841H282.553L189.385 -0.0354004L174.875 43.1912L184.612 89.8606L178.502 94.4511L187.857 101.337L180.793 106.692L189.958 115.108L184.23 119.316L197.403 134.809L177.357 196.78L195.876 260.089L260.979 242.11L273.58 252.439L299.354 270.035H343.456L369.229 252.439L381.83 242.11L447.124 260.089L465.834 196.78L445.597 134.809" fill="#F5841F"/>
        <path d="M453.424 -0.0354004L339.064 84.3139L360.256 34.5841L453.424 -0.0354004Z" fill="#E27625"/>
        <path d="M189.385 -0.0354004L302.79 85.0789L282.553 34.5841L189.385 -0.0354004Z" fill="#E27625"/>
        <path d="M412.377 195.632L381.83 241.919L447.124 259.898L465.834 196.588L412.377 195.632Z" fill="#E27625"/>
        <path d="M177.357 196.588L195.876 259.898L260.979 241.919L230.623 195.632L177.357 196.588Z" fill="#E27625"/>
        <path d="M257.542 117.212L239.405 144.563L303.936 147.432L301.835 78.1934L257.542 117.212Z" fill="#E27625"/>
        <path d="M385.458 117.212L340.401 77.4282L339.064 147.432L403.595 144.563L385.458 117.212Z" fill="#E27625"/>
        <path d="M260.979 241.919L300.117 223.175L266.325 197.162L260.979 241.919Z" fill="#E27625"/>
        <path d="M342.883 223.175L381.83 241.919L376.484 197.162L342.883 223.175Z" fill="#E27625"/>
        <path d="M381.83 241.919L342.883 223.175L346.128 248.422L345.747 259.133L381.83 241.919Z" fill="#D7C1B3"/>
        <path d="M260.979 241.919L297.253 259.133L297.063 248.422L300.117 223.175L260.979 241.919Z" fill="#D7C1B3"/>
        <path d="M297.826 180.33L265.561 170.958L288.471 160.439L297.826 180.33Z" fill="#2F343B"/>
        <path d="M344.983 180.33L354.529 160.439L377.439 170.958L344.983 180.33Z" fill="#2F343B"/>
        <path d="M260.979 241.919L266.707 195.632L230.623 196.588L260.979 241.919Z" fill="#CC6228"/>
        <path d="M376.293 195.632L381.83 241.919L412.377 196.588L376.293 195.632Z" fill="#CC6228"/>
        <path d="M403.595 144.563L339.064 147.432L344.983 180.331L354.529 160.439L377.439 170.958L403.595 144.563Z" fill="#CC6228"/>
        <path d="M265.561 170.958L288.471 160.439L297.826 180.331L303.936 147.432L239.405 144.563L265.561 170.958Z" fill="#CC6228"/>
        <path d="M239.405 144.563L266.325 197.162L265.561 170.958L239.405 144.563Z" fill="#E27625"/>
        <path d="M377.439 170.958L376.484 197.162L403.595 144.563L377.439 170.958Z" fill="#E27625"/>
        <path d="M303.936 147.432L297.826 180.331L305.463 219.349L307.181 168.089L303.936 147.432Z" fill="#E27625"/>
        <path d="M339.064 147.432L335.819 167.898L337.346 219.349L344.983 180.331L339.064 147.432Z" fill="#E27625"/>
        <path d="M344.983 180.331L337.346 219.349L342.883 223.175L376.484 197.162L377.439 170.958L344.983 180.331Z" fill="#F5841F"/>
        <path d="M265.561 170.958L266.325 197.162L300.117 223.175L305.463 219.349L297.826 180.331L265.561 170.958Z" fill="#F5841F"/>
        <path d="M345.747 259.133L346.128 248.422L343.074 245.936H299.735L297.063 248.422L297.253 259.133L260.979 241.919L273.58 252.247L299.354 270.035H343.456L369.229 252.247L381.83 241.919L345.747 259.133Z" fill="#C0AD9E"/>
        <path d="M342.883 223.175L337.346 219.349H305.463L300.117 223.175L297.062 248.422L299.735 245.936H343.074L346.128 248.422L342.883 223.175Z" fill="#2F343B"/>
        <path d="M458.388 89.8607L467.934 43.1912L453.424 -0.0354004L342.883 81.4449L385.458 117.212L445.597 134.809L458.77 119.316L453.042 115.108L462.207 106.884L455.143 101.337L464.307 94.4511L458.388 89.8607Z" fill="#763E1A"/>
        <path d="M174.875 43.1912L184.612 89.8607L178.502 94.4511L187.667 101.528L180.603 106.884L189.767 115.108L184.039 119.316L197.403 134.809L257.542 117.212L300.117 81.4449L189.385 -0.0354004L174.875 43.1912Z" fill="#763E1A"/>
        <path d="M445.597 134.809L385.458 117.212L403.595 144.563L376.484 197.162L412.377 196.588H465.834L445.597 134.809Z" fill="#F5841F"/>
        <path d="M257.542 117.212L197.403 134.809L177.357 196.588H230.623L266.325 197.162L239.405 144.563L257.542 117.212Z" fill="#F5841F"/>
        <path d="M339.064 147.432L342.883 81.4449L360.256 34.5842H282.553L300.117 81.4449L303.936 147.432L305.463 168.089V219.349H337.346L337.537 168.089L339.064 147.432Z" fill="#F5841F"/>
    </g>
    <defs>
        <filter id="filter0_df_41_442" x="0" y="168" width="246" height="249" filterUnits="userSpaceOnUse" color-interpolation-filters="sRGB">
            <feFlood flood-opacity="0" result="BackgroundImageFix"/>
            <feColorMatrix in="SourceAlpha" type="matrix" values="0 0 0 0 0 0 0 0 0 0 0 0 0 0 0 0 0 0 127 0" result="hardAlpha"/>
            <feOffset dy="4"/>
            <feGaussianBlur stdDeviation="2"/>
            <feComposite in2="hardAlpha" operator="out"/>
            <feColorMatrix type="matrix" values="0 0 0 0 0 0 0 0 0 0 0 0 0 0 0 0 0 0 0.25 0"/>
            <feBlend mode="normal" in2="BackgroundImageFix" result="effect1_dropShadow_41_442"/>
            <feBlend mode="normal" in="SourceGraphic" in2="effect1_dropShadow_41_442" result="shape"/>
            <feGaussianBlur stdDeviation="2.5" result="effect2_foregroundBlur_41_442"/>
        </filter>
        <linearGradient id="paint0_linear_41_442" x1="123.944" y1="173" x2="123.944" y2="291.944" gradientUnits="userSpaceOnUse">
            <stop stop-color="white"/>
            <stop offset="1" stop-color="#EBE6FF"/>
        </linearGradient>
        <clipPath id="clip0_41_442">
            <rect width="67.26" height="149.467" fill="white" transform="translate(89.5669 217.053)"/>
        </clipPath>
        <clipPath id="clip1_41_442">
            <rect width="293" height="270" fill="white" transform="translate(175)"/>
        </clipPath>
    </defs>
</svg>
