<svg width="302" height="381" viewBox="0 0 302 381" fill="none" xmlns="http://www.w3.org/2000/svg">
    <path d="M184 244.518C146.464 244.518 116 274.982 116 312.518C116 350.054 146.464 380.518 184 380.518H218V366.918H184C154.488 366.918 129.6 342.03 129.6 312.518C129.6 283.006 154.488 258.118 184 258.118C213.512 258.118 238.4 283.006 238.4 312.518V322.242C238.4 327.614 233.572 332.918 228.2 332.918C222.828 332.918 218 327.614 218 322.242V312.518C218 293.75 202.768 278.518 184 278.518C165.232 278.518 150 293.75 150 312.518C150 331.286 165.232 346.518 184 346.518C193.384 346.518 201.952 342.71 208.072 336.522C212.492 342.574 220.108 346.518 228.2 346.518C241.596 346.518 252 335.638 252 322.242V312.518C252 274.982 221.536 244.518 184 244.518ZM184 332.918C172.712 332.918 163.6 323.806 163.6 312.518C163.6 301.23 172.712 292.118 184 292.118C195.288 292.118 204.4 301.23 204.4 312.518C204.4 323.806 195.288 332.918 184 332.918Z" fill="#252525"/>
    <g filter="url(#filter0_f_41_669)">
        <path d="M60 232.518C36.264 232.518 17 251.782 17 275.518C17 299.254 36.264 318.518 60 318.518H81.5V309.918H60C41.338 309.918 25.6 294.18 25.6 275.518C25.6 256.856 41.338 241.118 60 241.118C78.662 241.118 94.4 256.856 94.4 275.518V281.667C94.4 285.064 91.347 288.418 87.95 288.418C84.553 288.418 81.5 285.064 81.5 281.667V275.518C81.5 263.65 71.868 254.018 60 254.018C48.132 254.018 38.5 263.65 38.5 275.518C38.5 287.386 48.132 297.018 60 297.018C65.934 297.018 71.352 294.61 75.222 290.697C78.017 294.524 82.833 297.018 87.95 297.018C96.421 297.018 103 290.138 103 281.667V275.518C103 251.782 83.736 232.518 60 232.518ZM60 288.418C52.862 288.418 47.1 282.656 47.1 275.518C47.1 268.38 52.862 262.618 60 262.618C67.138 262.618 72.9 268.38 72.9 275.518C72.9 282.656 67.138 288.418 60 288.418Z" fill="#3F3F3F"/>
    </g>
    <path d="M190 74.5176C166.264 74.5176 147 93.7816 147 117.518C147 141.254 166.264 160.518 190 160.518H211.5V151.918H190C171.338 151.918 155.6 136.18 155.6 117.518C155.6 98.8556 171.338 83.1176 190 83.1176C208.662 83.1176 224.4 98.8556 224.4 117.518V123.667C224.4 127.064 221.347 130.418 217.95 130.418C214.553 130.418 211.5 127.064 211.5 123.667V117.518C211.5 105.65 201.868 96.0176 190 96.0176C178.132 96.0176 168.5 105.65 168.5 117.518C168.5 129.386 178.132 139.018 190 139.018C195.934 139.018 201.352 136.61 205.222 132.697C208.017 136.524 212.833 139.018 217.95 139.018C226.421 139.018 233 132.138 233 123.667V117.518C233 93.7816 213.736 74.5176 190 74.5176ZM190 130.418C182.862 130.418 177.1 124.656 177.1 117.518C177.1 110.38 182.862 104.618 190 104.618C197.138 104.618 202.9 110.38 202.9 117.518C202.9 124.656 197.138 130.418 190 130.418Z" fill="#686868"/>
    <g filter="url(#filter1_f_41_669)">
        <path d="M248 8.51758C234.752 8.51758 224 19.2696 224 32.5176C224 45.7656 234.752 56.5176 248 56.5176H260V51.7176H248C237.584 51.7176 228.8 42.9336 228.8 32.5176C228.8 22.1016 237.584 13.3176 248 13.3176C258.416 13.3176 267.2 22.1016 267.2 32.5176V35.9496C267.2 37.8456 265.496 39.7176 263.6 39.7176C261.704 39.7176 260 37.8456 260 35.9496V32.5176C260 25.8936 254.624 20.5176 248 20.5176C241.376 20.5176 236 25.8936 236 32.5176C236 39.1416 241.376 44.5176 248 44.5176C251.312 44.5176 254.336 43.1736 256.496 40.9896C258.056 43.1256 260.744 44.5176 263.6 44.5176C268.328 44.5176 272 40.6776 272 35.9496V32.5176C272 19.2696 261.248 8.51758 248 8.51758ZM248 39.7176C244.016 39.7176 240.8 36.5016 240.8 32.5176C240.8 28.5336 244.016 25.3176 248 25.3176C251.984 25.3176 255.2 28.5336 255.2 32.5176C255.2 36.5016 251.984 39.7176 248 39.7176Z" fill="#B2B1B1"/>
    </g>
    <g filter="url(#filter2_f_41_669)">
        <path d="M272 164.518C258.752 164.518 248 175.27 248 188.518C248 201.766 258.752 212.518 272 212.518H284V207.718H272C261.584 207.718 252.8 198.934 252.8 188.518C252.8 178.102 261.584 169.318 272 169.318C282.416 169.318 291.2 178.102 291.2 188.518V191.95C291.2 193.846 289.496 195.718 287.6 195.718C285.704 195.718 284 193.846 284 191.95V188.518C284 181.894 278.624 176.518 272 176.518C265.376 176.518 260 181.894 260 188.518C260 195.142 265.376 200.518 272 200.518C275.312 200.518 278.336 199.174 280.496 196.99C282.056 199.126 284.744 200.518 287.6 200.518C292.328 200.518 296 196.678 296 191.95V188.518C296 175.27 285.248 164.518 272 164.518ZM272 195.718C268.016 195.718 264.8 192.502 264.8 188.518C264.8 184.534 268.016 181.318 272 181.318C275.984 181.318 279.2 184.534 279.2 188.518C279.2 192.502 275.984 195.718 272 195.718Z" fill="#686868"/>
    </g>
    <g filter="url(#filter3_f_41_669)">
        <path d="M23 167.518C12.512 167.518 4 176.03 4 186.518C4 197.006 12.512 205.518 23 205.518H32.5V201.718H23C14.754 201.718 7.8 194.764 7.8 186.518C7.8 178.272 14.754 171.318 23 171.318C31.246 171.318 38.2 178.272 38.2 186.518V189.235C38.2 190.736 36.851 192.218 35.35 192.218C33.849 192.218 32.5 190.736 32.5 189.235V186.518C32.5 181.274 28.244 177.018 23 177.018C17.756 177.018 13.5 181.274 13.5 186.518C13.5 191.762 17.756 196.018 23 196.018C25.622 196.018 28.016 194.954 29.726 193.225C30.961 194.916 33.089 196.018 35.35 196.018C39.093 196.018 42 192.978 42 189.235V186.518C42 176.03 33.488 167.518 23 167.518ZM23 192.218C19.846 192.218 17.3 189.672 17.3 186.518C17.3 183.364 19.846 180.818 23 180.818C26.154 180.818 28.7 183.364 28.7 186.518C28.7 189.672 26.154 192.218 23 192.218Z" fill="#686868"/>
    </g>
    <g clip-path="url(#clip0_41_669)">
        <path d="M260.414 198.05L270.755 185.888L266.259 182.585L273.452 175.979L267.907 171.775L275.101 166.37L270.455 162.767L277.948 126.132L266.558 92.1997M266.558 92.1997L193.423 119.375H132.427L59.2918 92.1997L47.9019 126.132L55.5451 162.767L50.7493 166.37L58.0928 171.775L52.5477 175.979L59.7414 182.585L55.2454 185.888L65.5862 198.05L49.8501 246.696L64.3873 296.393L115.492 282.28L125.383 290.387L145.615 304.201H180.235L200.467 290.387L210.358 282.28L261.613 296.393L276.3 246.696L260.414 198.05" fill="#F5841F"/>
        <path d="M266.558 92.1997L176.788 158.412L193.423 119.375L266.558 92.1997Z" fill="#E27625"/>
        <path d="M59.292 92.1997L148.313 159.013L132.427 119.375L59.292 92.1997Z" fill="#E27625"/>
        <path d="M234.337 245.795L210.358 282.13L261.613 296.243L276.3 246.546L234.337 245.795Z" fill="#E27625"/>
        <path d="M49.8501 246.546L64.3872 296.243L115.492 282.13L91.6631 245.795L49.8501 246.546Z" fill="#E27625"/>
        <path d="M112.795 184.237L98.5571 205.707L149.212 207.959L147.564 153.608L112.795 184.237Z" fill="#E27625"/>
        <path d="M213.205 184.237L177.837 153.007L176.788 207.959L227.443 205.707L213.205 184.237Z" fill="#E27625"/>
        <path d="M115.492 282.13L146.215 267.416L119.688 246.996L115.492 282.13Z" fill="#E27625"/>
        <path d="M179.785 267.416L210.358 282.13L206.162 246.996L179.785 267.416Z" fill="#E27625"/>
        <path d="M210.358 282.13L179.785 267.416L182.333 287.235L182.033 295.643L210.358 282.13Z" fill="#D7C1B3"/>
        <path d="M115.492 282.13L143.967 295.643L143.817 287.235L146.215 267.416L115.492 282.13Z" fill="#D7C1B3"/>
        <path d="M144.416 233.784L119.089 226.427L137.073 218.169L144.416 233.784Z" fill="#2F343B"/>
        <path d="M181.434 233.784L188.927 218.169L206.911 226.427L181.434 233.784Z" fill="#2F343B"/>
        <path d="M115.492 282.13L119.988 245.795L91.6631 246.546L115.492 282.13Z" fill="#CC6228"/>
        <path d="M206.012 245.795L210.358 282.13L234.337 246.546L206.012 245.795Z" fill="#CC6228"/>
        <path d="M227.443 205.707L176.788 207.959L181.433 233.784L188.927 218.169L206.911 226.427L227.443 205.707Z" fill="#CC6228"/>
        <path d="M119.089 226.427L137.073 218.169L144.417 233.784L149.212 207.959L98.5571 205.707L119.089 226.427Z" fill="#CC6228"/>
        <path d="M98.5571 205.707L119.688 246.996L119.089 226.427L98.5571 205.707Z" fill="#E27625"/>
        <path d="M206.911 226.427L206.162 246.996L227.443 205.707L206.911 226.427Z" fill="#E27625"/>
        <path d="M149.212 207.959L144.417 233.784L150.411 264.413L151.76 224.175L149.212 207.959Z" fill="#E27625"/>
        <path d="M176.788 207.959L174.24 224.025L175.439 264.413L181.434 233.784L176.788 207.959Z" fill="#E27625"/>
        <path d="M181.434 233.784L175.439 264.413L179.785 267.416L206.162 246.996L206.911 226.427L181.434 233.784Z" fill="#F5841F"/>
        <path d="M119.089 226.427L119.688 246.996L146.215 267.416L150.411 264.413L144.416 233.784L119.089 226.427Z" fill="#F5841F"/>
        <path d="M182.033 295.642L182.333 287.234L179.935 285.283H145.915L143.817 287.234L143.967 295.642L115.492 282.13L125.383 290.237L145.616 304.201H180.235L200.467 290.237L210.358 282.13L182.033 295.642Z" fill="#C0AD9E"/>
        <path d="M179.785 267.416L175.439 264.413H150.411L146.215 267.416L143.817 287.234L145.915 285.283H179.935L182.333 287.234L179.785 267.416Z" fill="#2F343B"/>
        <path d="M270.455 162.767L277.948 126.132L266.558 92.1997L179.785 156.16L213.206 184.237L260.414 198.05L270.755 185.888L266.259 182.585L273.452 176.129L267.907 171.775L275.101 166.37L270.455 162.767Z" fill="#763E1A"/>
        <path d="M47.9019 126.132L55.5451 162.767L50.7493 166.37L57.943 171.925L52.3979 176.129L59.5915 182.585L55.0955 185.888L65.5862 198.05L112.794 184.237L146.215 156.16L59.2918 92.1997L47.9019 126.132Z" fill="#763E1A"/>
        <path d="M260.414 198.05L213.205 184.237L227.443 205.707L206.162 246.996L234.337 246.546H276.3L260.414 198.05Z" fill="#F5841F"/>
        <path d="M112.794 184.237L65.5862 198.05L49.8501 246.546H91.6631L119.688 246.996L98.557 205.707L112.794 184.237Z" fill="#F5841F"/>
        <path d="M176.788 207.959L179.785 156.16L193.423 119.375H132.427L146.215 156.16L149.212 207.959L150.411 224.175V264.413H175.439L175.589 224.175L176.788 207.959Z" fill="#F5841F"/>
    </g>
    <defs>
        <filter id="filter0_f_41_669" x="13" y="228.518" width="94" height="94" filterUnits="userSpaceOnUse" color-interpolation-filters="sRGB">
            <feFlood flood-opacity="0" result="BackgroundImageFix"/>
            <feBlend mode="normal" in="SourceGraphic" in2="BackgroundImageFix" result="shape"/>
            <feGaussianBlur stdDeviation="2" result="effect1_foregroundBlur_41_669"/>
        </filter>
        <filter id="filter1_f_41_669" x="216" y="0.517578" width="64" height="64" filterUnits="userSpaceOnUse" color-interpolation-filters="sRGB">
            <feFlood flood-opacity="0" result="BackgroundImageFix"/>
            <feBlend mode="normal" in="SourceGraphic" in2="BackgroundImageFix" result="shape"/>
            <feGaussianBlur stdDeviation="4" result="effect1_foregroundBlur_41_669"/>
        </filter>
        <filter id="filter2_f_41_669" x="242" y="158.518" width="60" height="60" filterUnits="userSpaceOnUse" color-interpolation-filters="sRGB">
            <feFlood flood-opacity="0" result="BackgroundImageFix"/>
            <feBlend mode="normal" in="SourceGraphic" in2="BackgroundImageFix" result="shape"/>
            <feGaussianBlur stdDeviation="3" result="effect1_foregroundBlur_41_669"/>
        </filter>
        <filter id="filter3_f_41_669" x="0" y="163.518" width="46" height="46" filterUnits="userSpaceOnUse" color-interpolation-filters="sRGB">
            <feFlood flood-opacity="0" result="BackgroundImageFix"/>
            <feBlend mode="normal" in="SourceGraphic" in2="BackgroundImageFix" result="shape"/>
            <feGaussianBlur stdDeviation="2" result="effect1_foregroundBlur_41_669"/>
        </filter>
        <clipPath id="clip0_41_669">
            <rect width="230" height="211.945" fill="white" transform="translate(48 92.2275)"/>
        </clipPath>
    </defs>
</svg>

