<svg width="115" height="115" viewBox="0 0 115 115" fill="none" xmlns="http://www.w3.org/2000/svg">
<g clip-path="url(#clip0_41_490)">
<path d="M2.90846 78.8305C2.16518 78.8305 1.42191 78.5464 0.853147 77.9783C-0.284382 76.8454 -0.284382 75.0056 0.853147 73.8726L10.102 64.6348C11.2396 63.4987 13.0784 63.4987 14.2127 64.6348C15.3502 65.7678 15.3502 67.6076 14.2127 68.7405L4.96376 77.9783C4.39823 78.5464 3.65496 78.8305 2.90846 78.8305Z" fill="#252525"/>
<path d="M10.3962 102.587C9.65298 102.587 8.9097 102.303 8.34094 101.735C7.20341 100.602 7.20341 98.7618 8.34094 97.6289L25.74 80.2507C26.8775 79.1145 28.7163 79.1145 29.8506 80.2507C30.9881 81.3836 30.9881 83.2234 29.8506 84.3564L12.4516 101.738C11.8828 102.306 11.1395 102.587 10.3962 102.587Z" fill="#252525"/>
<path d="M34.1809 110.065C33.4376 110.065 32.6944 109.781 32.1256 109.213C30.9881 108.08 30.9881 106.24 32.1256 105.108L41.3745 95.8697C42.512 94.7335 44.3508 94.7335 45.4851 95.8697C46.6226 97.0026 46.6226 98.8425 45.4851 99.9754L36.2362 109.213C35.6707 109.781 34.9274 110.065 34.1809 110.065Z" fill="#252525"/>
<path d="M84.6014 17.7689L9.45292 40.1497C3.77777 41.8386 3.38131 49.7117 8.85503 51.9626L41.1218 65.241C41.2625 64.8993 41.4671 64.5801 41.7453 64.3055L58.2464 47.8281C59.3718 46.7042 61.1911 46.7042 62.3133 47.8281C63.4387 48.9487 63.4387 50.7685 62.3133 51.8892L45.8122 68.3666C45.5341 68.6444 45.2143 68.8519 44.8722 68.9924L58.176 101.229C60.4269 106.685 68.2986 106.289 69.9867 100.632L92.406 25.5623C93.832 20.7924 89.3814 16.3482 84.6014 17.7689Z" fill="#252525"/>
</g>
<defs>
<clipPath id="clip0_41_490">
<rect width="115" height="115" fill="white"/>
</clipPath>
</defs>
</svg>
