<svg width="366" height="75" viewBox="0 0 366 75" fill="none" xmlns="http://www.w3.org/2000/svg">
<g clip-path="url(#clip0_78_190)">
<mask id="mask0_78_190" style="mask-type:luminance" maskUnits="userSpaceOnUse" x="0" y="0" width="69" height="75">
<path d="M68.8963 0.539551H0.343262V74.5396H68.8963V0.539551Z" fill="white"/>
</mask>
<g mask="url(#mask0_78_190)">
<path d="M61.9282 15.7456C58.2029 14.4398 53.7868 13.9227 50.1641 15.5742C54.9928 16.4342 56.3735 22.5979 54.1652 32.5734C61.3751 34.7402 65.549 36.5758 66.7223 40.394C66.7574 39.9825 66.8262 39.3733 66.8614 38.9591C67.2735 34.659 67.6182 30.847 67.9292 26.1679C68.3109 20.0792 64.7219 16.7428 61.9282 15.7456Z" fill="url(#paint0_linear_78_190)"/>
<path d="M16.6512 43.0192C12.511 41.5509 3.77324 38.081 1.94287 31.8325C2.02459 40.5844 3.36472 54.9503 8.07123 59.8694C8.06041 59.8741 8.0821 59.8642 8.07123 59.8694C14.0164 67.6595 24.0487 71.7717 34.6374 74.5425C43.3328 72.27 50.8892 68.1087 56.5446 62.2945C58.1665 60.1612 60.03 57.0658 60.0652 54.4149C60.341 40.5509 54.4051 41.7892 48.9544 48.4626C48.1011 61.6121 35.0208 61.2033 22.7994 55.2481C19.9237 53.4351 18.2171 52.216 17.2105 51.0105C15.7871 48.3165 16.2318 45.7373 16.6512 43.0192Z" fill="url(#paint1_linear_78_190)"/>
<path d="M16.6512 43.0192C12.511 41.5509 3.77324 38.081 1.94287 31.8325C2.02459 40.5844 3.36472 54.9503 8.07123 59.8694C8.06041 59.8741 8.0821 59.8642 8.07123 59.8694C14.0164 67.6595 24.0487 71.7717 34.6374 74.5425C43.3328 72.27 50.8892 68.1087 56.5446 62.2945C58.1665 60.1612 60.03 57.0658 60.0652 54.4149C60.341 40.5509 54.4051 41.7892 48.9544 48.4626C48.1011 61.6121 35.0208 61.2033 22.7994 55.2481C19.9237 53.4351 18.2171 52.216 17.2105 51.0105C15.7871 48.3165 16.2318 45.7373 16.6512 43.0192Z" fill="url(#paint2_linear_78_190)"/>
<g filter="url(#filter0_d_78_190)">
<path fill-rule="evenodd" clip-rule="evenodd" d="M12.7302 17.0177C28.4966 12.9594 46.9897 13.3376 61.9281 18.6349C64.7233 19.6312 68.0697 21.7293 67.931 26.1684C68.346 19.9768 68.6542 13.7491 68.8968 7.55655C49.0254 -1.79815 20.2151 -1.79815 0.34375 7.55655C0.515855 11.6509 0.687956 15.6406 0.895237 19.5301C1.99832 39.7935 33.5659 44.5403 48.9552 48.4626C53.0271 49.4939 56.5107 50.2863 57.8914 54.8617C58.6834 57.4063 58.1673 60.1579 56.5439 62.2921C60.6842 57.9912 63.7899 52.7625 65.5153 46.7071C64.8928 37.7278 50.5073 35.9049 35.9815 32.5324C23.4931 29.6437 12.6599 25.0359 12.7302 17.0177Z" fill="url(#paint3_linear_78_190)"/>
<path fill-rule="evenodd" clip-rule="evenodd" d="M12.7302 17.0177C28.4966 12.9594 46.9897 13.3376 61.9281 18.6349C64.7233 19.6312 68.0697 21.7293 67.931 26.1684C68.346 19.9768 68.6542 13.7491 68.8968 7.55655C49.0254 -1.79815 20.2151 -1.79815 0.34375 7.55655C0.515855 11.6509 0.687956 15.6406 0.895237 19.5301C1.99832 39.7935 33.5659 44.5403 48.9552 48.4626C53.0271 49.4939 56.5107 50.2863 57.8914 54.8617C58.6834 57.4063 58.1673 60.1579 56.5439 62.2921C60.6842 57.9912 63.7899 52.7625 65.5153 46.7071C64.8928 37.7278 50.5073 35.9049 35.9815 32.5324C23.4931 29.6437 12.6599 25.0359 12.7302 17.0177Z" fill="url(#paint4_linear_78_190)"/>
</g>
</g>
<path d="M117.187 33.8796C121.401 33.8796 124.604 34.6738 126.796 36.2602C128.988 37.8133 130.084 40.1768 130.084 43.3516C130.084 45.1114 129.81 46.6988 129.262 48.1128C128.714 49.5281 127.841 50.7182 126.642 51.6849C125.443 52.6502 123.901 53.3921 122.017 53.9101C120.167 54.4271 117.941 54.6861 115.338 54.6861H83.3276L90.1609 45.7837H116.16C117.427 45.7837 118.352 45.5942 118.934 45.2143C119.517 44.801 119.808 44.1449 119.808 43.2479C119.808 42.3508 119.517 41.7128 118.934 41.3329C118.352 40.9529 117.427 40.7635 116.16 40.7635H97.4574C95.2304 40.7635 93.3129 40.5215 91.7027 40.0388C90.0925 39.5559 88.7568 38.8827 87.695 38.02C86.6333 37.1573 85.845 36.1222 85.3317 34.9147C84.8175 33.673 84.5603 32.3094 84.5603 30.8258C84.5603 29.2041 84.8348 27.7376 85.3832 26.4264C85.9649 25.0808 86.838 23.942 88.0037 23.0107C89.2022 22.0793 90.7267 21.3547 92.5758 20.8367C94.46 20.3196 96.7034 20.0605 99.3065 20.0605H129.16L122.326 29.066H98.485C97.2518 29.066 96.3273 29.2384 95.7105 29.584C95.1274 29.9288 94.837 30.5496 94.837 31.4476C94.837 32.3446 95.1274 32.9826 95.7105 33.3625C96.3273 33.7072 97.2518 33.8796 98.485 33.8796H117.187Z" fill="white"/>
<path d="M146.788 54.6855L153.211 45.7831H161.843C162.87 45.7831 163.932 45.7831 165.028 45.7831C166.159 45.7831 167.135 45.8183 167.957 45.8868C167.478 45.266 166.912 44.489 166.261 43.5577C165.645 42.5921 165.045 41.6941 164.463 40.8666L158.297 31.705L142.164 54.6855H129.575L151.618 23.3719C152.337 22.372 153.245 21.4749 154.341 20.6808C155.437 19.8875 156.824 19.4905 158.503 19.4905C160.113 19.4905 161.449 19.8704 162.51 20.6294C163.606 21.354 164.532 22.2682 165.285 23.3719L186.763 54.6855H146.788Z" fill="white"/>
<path d="M227.582 20.0605L207.184 43.2479V54.6861H196.497V43.1964L175.534 20.0605H189.201L197.422 29.6878C197.696 29.9982 198.056 30.4116 198.501 30.9296C198.946 31.4123 199.409 31.9303 199.888 32.4827C200.368 33.034 200.814 33.5521 201.224 34.0349C201.635 34.5177 201.926 34.8804 202.098 35.1223C202.44 34.6385 202.937 33.9834 203.588 33.1549C204.238 32.3274 205.18 31.1543 206.414 29.6355L214.224 20.0605H227.582Z" fill="white"/>
<path d="M269.732 20.0605L262.847 29.066H241.883V33.5692H267.779L261.305 42.0061H241.883V54.6861H231.196V20.0605H269.732Z" fill="white"/>
<path d="M313.268 45.7837L306.434 54.6861H273.345V20.0605H313.165L306.28 29.066H284.032V33.2073H311.264L305.15 41.0739H284.032V45.7837H313.268Z" fill="white"/>
<path d="M365.659 54.6861H351.426L343.771 45.5256H327.431V54.6861H316.796V36.9849H346.699C348.344 36.9849 349.731 36.6402 350.861 35.9498C351.992 35.2603 352.557 34.311 352.557 33.1035C352.557 31.758 352.043 30.7572 351.016 30.1011C349.987 29.4117 348.548 29.066 346.699 29.066H316.796L323.732 20.0605H345.825C347.778 20.0605 349.8 20.2501 351.889 20.63C353.979 20.9747 355.879 21.6127 357.592 22.5449C359.305 23.4763 360.71 24.7361 361.806 26.3235C362.936 27.91 363.501 29.9459 363.501 32.4303C363.501 33.7758 363.296 35.0528 362.884 36.2602C362.473 37.4686 361.874 38.5552 361.086 39.5217C360.333 40.4873 359.391 41.3157 358.26 42.0061C357.164 42.6612 355.914 43.127 354.509 43.4031C355.092 43.8516 355.742 44.421 356.462 45.1114C357.181 45.8009 358.14 46.7502 359.339 47.9578L365.659 54.6861Z" fill="white"/>
</g>
<defs>
<filter id="filter0_d_78_190" x="-1.12311" y="-2.39319" width="71.4869" height="64.6854" filterUnits="userSpaceOnUse" color-interpolation-filters="sRGB">
<feFlood flood-opacity="0" result="BackgroundImageFix"/>
<feColorMatrix in="SourceAlpha" type="matrix" values="0 0 0 0 0 0 0 0 0 0 0 0 0 0 0 0 0 0 127 0" result="hardAlpha"/>
<feOffset dy="-1.46686"/>
<feGaussianBlur stdDeviation="0.733429"/>
<feComposite in2="hardAlpha" operator="out"/>
<feColorMatrix type="matrix" values="0 0 0 0 0.180119 0 0 0 0 0.00232637 0 0 0 0 0.558333 0 0 0 0.4 0"/>
<feBlend mode="normal" in2="BackgroundImageFix" result="effect1_dropShadow_78_190"/>
<feBlend mode="normal" in="SourceGraphic" in2="effect1_dropShadow_78_190" result="shape"/>
</filter>
<linearGradient id="paint0_linear_78_190" x1="62.272" y1="42.7792" x2="62.922" y2="22.9498" gradientUnits="userSpaceOnUse">
<stop stop-color="#7813FD"/>
<stop offset="0.60683" stop-color="#560BF5"/>
<stop offset="1" stop-color="#3601A5"/>
</linearGradient>
<linearGradient id="paint1_linear_78_190" x1="-1.01755" y1="38.1044" x2="50.9557" y2="57.8498" gradientUnits="userSpaceOnUse">
<stop stop-color="#F901FF"/>
<stop offset="0.701095" stop-color="#560BF5"/>
<stop offset="1" stop-color="#3601A5"/>
</linearGradient>
<linearGradient id="paint2_linear_78_190" x1="0.792258" y1="34.3819" x2="7.54106" y2="42.6496" gradientUnits="userSpaceOnUse">
<stop stop-color="#4305C6"/>
<stop offset="1" stop-color="#4305C6" stop-opacity="0"/>
</linearGradient>
<linearGradient id="paint3_linear_78_190" x1="-1.8965" y1="4.81223" x2="83.0547" y2="77.8621" gradientUnits="userSpaceOnUse">
<stop stop-color="#F901FF"/>
<stop offset="0.489186" stop-color="#560BF5"/>
<stop offset="1" stop-color="#4807D2"/>
</linearGradient>
<linearGradient id="paint4_linear_78_190" x1="-2.08628" y1="11.5887" x2="12.5463" y2="23.4724" gradientUnits="userSpaceOnUse">
<stop stop-color="#4305C6"/>
<stop offset="1" stop-color="#4305C6" stop-opacity="0"/>
</linearGradient>
<clipPath id="clip0_78_190">
<rect width="365.316" height="74" fill="white" transform="translate(0.341797 0.539551)"/>
</clipPath>
</defs>
</svg>
