<svg width="96" height="96" viewBox="0 0 96 96" fill="none" xmlns="http://www.w3.org/2000/svg">
<g clip-path="url(#clip0_41_523)">
<mask id="mask0_41_523" style="mask-type:luminance" maskUnits="userSpaceOnUse" x="0" y="0" width="96" height="96">
<path d="M0.166504 0H95.9998V95.8333H0.166504V0Z" fill="white"/>
</mask>
<g mask="url(#mask0_41_523)">
<path fill-rule="evenodd" clip-rule="evenodd" d="M16.4446 11.4775C18.7064 10.0675 21.2193 9.93078 23.9029 10.8454C26.6912 11.7958 29.446 13.8439 31.4655 16.3588C33.4896 18.8794 35.8284 24.6012 37.7422 31.4399C37.9793 32.2869 38.2051 33.1337 38.419 33.9741C27.5946 39.1467 19.848 47.5443 13.854 57.1655C9.37056 64.362 4.32227 74.2013 6.14049 84.8388C7.04647 90.1391 10.2359 93.7014 14.658 95.1286C18.629 96.41 22.9629 95.7803 26.5263 94.5399C35.0326 91.5793 40.7786 83.2542 44.1369 77.4966C49.5574 68.2046 51.6406 58.4759 51.1907 47.9769C51.1023 45.9137 50.7945 43.3488 50.3145 40.5328C51.3337 40.2867 52.3773 40.0921 53.4158 39.978C56.9606 39.5884 59.5741 40.2088 61.2976 41.8256C61.7534 42.2531 62.2279 43.056 62.4869 44.6192C62.7478 46.1936 62.7156 48.1035 62.5161 50.2151C62.3855 51.5971 62.2394 52.6452 62.0916 53.7046C61.9837 54.4787 61.8749 55.2593 61.7707 56.1803C61.6739 57.036 61.5765 58.0999 61.6302 59.0929C61.6571 59.5907 61.7321 60.3191 61.9909 61.1013C62.2447 61.8683 62.8252 63.1327 64.1642 64.0764C66.0217 65.3858 68.0259 65.1915 69.278 64.7368C70.3424 64.3507 71.0961 63.7259 71.4725 63.39C72.2734 62.6755 73.0052 61.746 73.5446 61.036C74.0984 60.3058 74.5858 59.6305 75.0745 58.9525C75.7994 57.9471 76.5284 56.9349 77.4881 55.7299C78.966 53.8738 80.3912 52.3734 81.7233 51.447C83.0314 50.5369 83.6934 50.5515 83.9904 50.613C84.5004 50.7189 85.4464 51.0991 86.5307 51.6531C87.0133 51.8998 87.4363 52.1354 87.7362 52.3084C87.8847 52.3942 88.0004 52.4626 88.0743 52.5071L88.1523 52.5542L88.1599 52.559C90.5687 54.0497 93.7353 53.3112 95.2296 50.9037C96.7246 48.4945 95.9833 45.3295 93.5745 43.8344L90.8672 48.1967C93.5745 43.8344 93.5751 43.8347 93.5745 43.8344L93.5642 43.8283L93.5491 43.8192L93.5046 43.7918L93.3588 43.7037C93.2384 43.6311 93.07 43.5312 92.8625 43.4119C92.4511 43.1746 91.8734 42.8527 91.2033 42.5102C89.9814 41.8857 88.0107 40.9607 86.0769 40.5594C81.9896 39.7112 78.4478 41.2178 75.8604 43.0177C74.8014 43.7543 73.8102 44.6009 72.8936 45.4891C72.8457 44.6431 72.7574 43.7888 72.6164 42.9408C72.1406 40.0675 70.9913 36.8403 68.3224 34.3369C63.489 29.803 57.2807 29.2235 52.294 29.7716C50.8656 29.9286 49.4654 30.1843 48.1258 30.4995C47.9652 29.8888 47.7999 29.2791 47.6302 28.6727C45.7098 21.8108 42.9336 14.2412 39.4716 9.92982C36.4285 6.1402 32.1254 2.8001 27.2154 1.12662C22.2007 -0.582522 16.3749 -0.578688 11.0126 2.76427C4.04464 7.10821 -0.773942 15.6448 0.321925 24.3592C0.841572 28.4916 2.05131 31.8327 4.38132 34.8537C6.5598 37.6782 9.51952 39.94 12.8306 42.2761C15.1473 43.9107 18.3506 43.3578 19.9852 41.041C21.6198 38.7242 21.0668 35.521 18.75 33.8863C15.4495 31.5576 13.6525 30.0617 12.5118 28.5828C11.5227 27.3004 10.8509 25.7926 10.5095 23.0782C9.97342 18.8144 12.4478 13.9693 16.4446 11.4775ZM22.5689 62.5949C27.391 54.8548 33.1265 48.583 40.5334 44.437C40.7497 45.9714 40.8854 47.3233 40.9322 48.4165C41.3066 57.1521 39.5996 64.8971 35.2677 72.323C31.9371 78.0326 27.7997 83.2247 23.1513 84.8423C20.7539 85.6767 18.8688 85.6979 17.8111 85.3563C17.3568 85.2098 17.0989 85.0161 16.9189 84.8039C16.7337 84.5849 16.4326 84.1091 16.2616 83.109C15.139 76.541 18.1937 69.6178 22.5689 62.5949ZM54.9297 77.0079C52.0944 77.0079 49.7958 79.3065 49.7958 82.1418C49.7958 84.9771 52.0944 87.2757 54.9297 87.2757H89.1559C91.9911 87.2757 94.2898 84.9771 94.2898 82.1418C94.2898 79.3065 91.9911 77.0079 89.1559 77.0079H54.9297Z" fill="#252525"/>
</g>
</g>
<defs>
<clipPath id="clip0_41_523">
<rect width="95.8333" height="95.8333" fill="white" transform="translate(0.166504)"/>
</clipPath>
</defs>
</svg>
