<svg width="24" height="24" viewBox="0 0 24 24" fill="none" xmlns="http://www.w3.org/2000/svg">
    <path fill-rule="evenodd" clip-rule="evenodd" d="M24 12C24 18.6274 18.6274 24 12 24C5.37258 24 0 18.6274 0 12C0 5.37258 5.37258 0 12 0C18.6274 0 24 5.37258 24 12ZM17.1293 7.34032L5.53711 11.7975C4.74258 12.1072 4.75661 12.5458 5.40085 12.7497L8.36854 13.6729L15.2527 9.35059C15.5724 9.13877 15.8689 9.25867 15.6265 9.47149L10.0558 14.4902L9.84236 17.5406C10.153 17.5406 10.2882 17.4057 10.4485 17.2458L11.8983 15.853L14.9041 18.0621C15.4521 18.3718 15.8439 18.212 15.9902 17.5545L17.9639 8.28151L17.9629 8.28251C18.1373 7.47121 17.6674 7.14648 17.1293 7.34032Z" fill="#765CD6"/>
</svg>
