<svg width="24" height="24" viewBox="0 0 24 24" fill="none" xmlns="http://www.w3.org/2000/svg">
    <path d="M12 0C5.4 0 0 5.4 0 12C0 18.6 5.4 24 12 24C18.6 24 24 18.6 24 12C24 5.4 18.6 0 12 0ZM16.8 9.525C16.8 9.6 16.8 9.75 16.8 9.825C16.8 13.05 14.325 16.8 9.825 16.8C8.4 16.8 7.125 16.425 6.075 15.675C6.3 15.675 6.45 15.675 6.675 15.675C7.8 15.675 8.925 15.3 9.75 14.625C8.7 14.625 7.8 13.875 7.425 12.9C7.575 12.9 7.725 12.975 7.875 12.975C8.1 12.975 8.325 12.975 8.55 12.9C7.425 12.675 6.6 11.7 6.6 10.5C6.9 10.65 7.275 10.8 7.725 10.8C7.05 10.35 6.6 9.6 6.6 8.775C6.6 8.325 6.75 7.875 6.9 7.5C8.1 9 9.9 9.975 12 10.05C11.925 9.9 11.925 9.675 11.925 9.525C11.925 8.175 13.05 7.05 14.4 7.05C15.075 7.05 15.75 7.35 16.2 7.8C16.725 7.725 17.325 7.5 17.775 7.2C17.625 7.8 17.175 8.25 16.725 8.55C17.25 8.475 17.7 8.325 18.15 8.175C17.7 8.775 17.25 9.225 16.8 9.525Z" fill="#765CD6"/>
</svg>
