<svg width="24" height="24" viewBox="0 0 24 24" fill="none" xmlns="http://www.w3.org/2000/svg">
    <path d="M11.9985 17.6C12.5697 17.6 13.5785 15.796 13.7353 12.8H10.2617C10.4185 15.796 11.4273 17.6 11.9985 17.6Z" fill="#765CD6"/>
    <path d="M6.46484 11.2002H8.66164C8.70562 9.75521 8.99872 8.32866 9.52804 6.9834C8.71423 7.38578 8.0103 7.97975 7.47673 8.71426C6.94316 9.44877 6.59592 10.3019 6.46484 11.2002Z" fill="#765CD6"/>
    <path d="M12 0C9.62663 0 7.30655 0.703788 5.33316 2.02236C3.35977 3.34094 1.8217 5.21509 0.913451 7.4078C0.00519953 9.60051 -0.232441 12.0133 0.230582 14.3411C0.693605 16.6689 1.83649 18.8071 3.51472 20.4853C5.19295 22.1635 7.33115 23.3064 9.65892 23.7694C11.9867 24.2324 14.3995 23.9948 16.5922 23.0866C18.7849 22.1783 20.6591 20.6402 21.9776 18.6668C23.2962 16.6935 24 14.3734 24 12C23.9964 8.81851 22.731 5.76835 20.4813 3.51869C18.2317 1.26904 15.1815 0.00359958 12 0ZM12 19.2C10.576 19.2 9.18393 18.7777 7.9999 17.9866C6.81587 17.1954 5.89302 16.0709 5.34807 14.7553C4.80312 13.4397 4.66054 11.992 4.93835 10.5953C5.21617 9.19869 5.9019 7.91577 6.90884 6.90883C7.91577 5.90189 9.19869 5.21616 10.5954 4.93835C11.992 4.66053 13.4397 4.80312 14.7553 5.34807C16.071 5.89302 17.1954 6.81586 17.9866 7.99989C18.7777 9.18393 19.2 10.576 19.2 12C19.1979 13.9089 18.4386 15.739 17.0888 17.0888C15.739 18.4386 13.9089 19.1979 12 19.2Z" fill="#765CD6"/>
    <path d="M11.9985 6.3999C11.4273 6.3999 10.4185 8.2039 10.2617 11.1999H13.7353C13.5785 8.2039 12.5697 6.3999 11.9985 6.3999Z" fill="#765CD6"/>
    <path d="M6.46484 12.8C6.59592 13.6984 6.94316 14.5515 7.47673 15.286C8.0103 16.0205 8.71423 16.6145 9.52804 17.0168C8.99872 15.6716 8.70562 14.245 8.66164 12.8H6.46484Z" fill="#765CD6"/>
    <path d="M14.4727 6.9834C15.002 8.32866 15.2951 9.75521 15.3391 11.2002H17.5359C17.4048 10.3019 17.0575 9.44877 16.524 8.71426C15.9904 7.97975 15.2865 7.38578 14.4727 6.9834Z" fill="#765CD6"/>
    <path d="M14.4727 17.0168C15.2865 16.6145 15.9904 16.0205 16.524 15.286C17.0575 14.5515 17.4048 13.6984 17.5359 12.8H15.3391C15.2951 14.245 15.002 15.6716 14.4727 17.0168Z" fill="#765CD6"/>
</svg>
