<?xml version="1.0" encoding="UTF-8"?>
<svg width="34px" height="34px" viewBox="0 0 34 34" version="1.1" xmlns="http://www.w3.org/2000/svg" xmlns:xlink="http://www.w3.org/1999/xlink">
    <title>BTCa</title>
    <g id="FINAL-PAYMENT-PROFILE" stroke="none" stroke-width="1" fill="none" fill-rule="evenodd">
        <g id="FIO---My-Profile" transform="translate(-209.000000, -858.000000)">
            <g id="Group-5" transform="translate(92.000000, 238.000000)">
                <g id="Competitive-Edge" transform="translate(97.000000, 339.000000)">
                    <g id="Group-2" transform="translate(0.000000, 261.000000)">
                        <g id="BTCa" transform="translate(20.000000, 20.000000)">
                            <g id="Group" fill="#2B2B2E">
                                <circle id="Oval" cx="17" cy="17" r="17"></circle>
                            </g>
                            <path d="M18.5454545,20.7554818 L18.5454545,28.8439918 C18.5454545,29.2738685 18.2569849,29.4791791 17.9010943,29.2972504 L13.0111367,26.7883857 C12.6160522,26.5390621 12.374611,26.1238147 12.3636364,25.6778082 L12.3636364,17.7727273 C12.4357551,17.8269933 12.5110086,17.8738821 12.5909664,17.9150192 L18.5454545,20.7554818 Z" id="Path" fill="#765CD6"></path>
                            <path d="M22.4090909,5.06502047 L22.4090909,10.8048284 C22.4017536,11.1681674 22.2110829,11.5050299 21.9060148,11.6992043 L19.1104783,13.1363636 L19.1090033,13.1363636 L12.7229782,9.85457826 C12.7141784,9.84869875 12.7053786,9.84427344 12.6965776,9.83986067 C12.6731106,9.8280891 12.6496436,9.82074284 12.6261754,9.81338404 C12.610042,9.81043802 12.5939086,9.80602524 12.5792415,9.8045585 C12.5645743,9.80161247 12.5499071,9.80162501 12.53524,9.80162501 C12.4912397,9.80309175 12.4487044,9.81338404 12.4091041,9.83103513 C12.3959031,9.83839392 12.3827034,9.84427344 12.3709699,9.85309898 C12.3709699,9.85309898 12.3709699,9.85457826 12.3680363,9.85457826 L12.3636364,9.85899103 C12.5484409,9.52212861 12.9077828,9.32795415 13.4431306,9.03964475 L21.9060148,4.68697323 C22.1817586,4.54575779 22.4090909,4.70903922 22.4090909,5.06502047 Z" id="Path" fill="#765CD6"></path>
                            <path d="M22.4090909,15.4690859 L22.4090909,21.2052763 C22.4090909,21.561264 22.1836675,21.7273498 21.9102393,21.5862082 L12.8043153,16.863417 C12.5977927,16.7325164 12.4450819,16.535432 12.3636364,16.308916 C12.3709082,16.3206862 12.3767258,16.3324564 12.3854521,16.3427474 C12.3912697,16.3501053 12.3970872,16.3574507 12.4043592,16.3648086 C12.4058136,16.3677418 12.407268,16.3692209 12.4101768,16.3721665 C12.4159943,16.3780454 12.421812,16.3854033 12.429084,16.3912821 C12.436356,16.4001066 12.4450819,16.4059854 12.4538078,16.4133433 C12.4668979,16.4221678 12.4785329,16.4310048 12.4930769,16.4368836 C12.5788857,16.4824726 12.6879645,16.4795395 12.8043153,16.4192346 L19.1367151,13.1363636 L19.1381777,13.1363636 L21.9102393,14.5718841 C22.2142082,14.7675018 22.4018152,15.1043238 22.4090909,15.4690859 Z" id="Path" fill="#A08AEE"></path>
                            <path d="M19.3181818,13.5248344 L12.8756097,16.9489887 C12.7572346,17.0118758 12.6462569,17.0149482 12.5589552,16.9673972 C12.5441581,16.9612523 12.5323207,16.9520481 12.5190042,16.9428438 C12.5101252,16.9351692 12.5012475,16.9290374 12.493849,16.9198332 C12.4864504,16.9137014 12.4805319,16.9060268 12.4746132,16.899895 C12.4716538,16.8968225 12.4701741,16.8952798 12.4686944,16.8922073 C12.461296,16.8845458 12.4553772,16.8768712 12.4494584,16.8692097 C12.4405803,16.8584627 12.4346615,16.8461991 12.4272631,16.8339224 C12.3873115,16.7602883 12.3636364,16.6651733 12.3636364,16.5547091 L12.3636364,10.4934169 C12.3636364,10.3123911 12.4213443,10.1773866 12.5130849,10.1052822 C12.5145653,10.1037525 12.5160445,10.1022229 12.5175237,10.1022229 C12.5175237,10.1022229 12.5190042,10.0991504 12.5204834,10.0991504 C12.5323207,10.0899462 12.5456386,10.0838013 12.5589552,10.0761267 C12.5989074,10.0577182 12.641818,10.0469973 12.6862091,10.0454545 C12.7010062,10.0454545 12.7158032,10.0454545 12.7306002,10.0485139 C12.745396,10.0500567 12.7616735,10.0546588 12.7779497,10.0577182 C12.8016245,10.0653927 12.8252992,10.0730673 12.8489752,10.085331 C12.857853,10.0899331 12.8667307,10.0945483 12.8756097,10.1006801 L19.3181818,13.5248344 Z" id="Path" fill="#8B73E2"></path>
                        </g>
                    </g>
                </g>
            </g>
        </g>
    </g>
</svg>