<?xml version="1.0" encoding="UTF-8"?>
<svg width="24px" height="24px" viewBox="0 0 24 24" version="1.1" xmlns="http://www.w3.org/2000/svg" xmlns:xlink="http://www.w3.org/1999/xlink">
    <title>discord</title>
    <g id="Manage-FIO-Handles" stroke="none" stroke-width="1" fill="none" fill-rule="evenodd">
        <g id="Artboard" transform="translate(-40.000000, -84.000000)" fill="#202020" fill-rule="nonzero">
            <g id="discord" transform="translate(40.000000, 84.000000)">
                <path d="M9.07512,11.2368 L9.07512,11.22888 C8.156544,11.22888 7.41528,11.98824 7.41528,12.921552 C7.41528,13.854864 8.156544,14.614272 9.07512,14.614272 C9.993696,14.614272 10.735008,13.854912 10.735008,12.929472 C10.735008,11.996064 9.985632,11.2368 9.07512,11.2368 L9.07512,11.2368 Z" id="Path"></path>
                <path d="M12,0 C5.372592,0 0,5.372592 0,12 C0,18.627408 5.372592,24 12,24 C18.627408,24 24,18.627408 24,12 C24,5.372592 18.627408,0 12,0 Z M16.439712,18.331728 C16.439712,18.331728 15.8352,17.6592 15.400272,17.06616 C17.495232,16.472928 18.285072,15.286512 18.285072,15.286512 C16.10688,16.633248 14.072592,17.151408 12,17.084064 C9.927408,17.151264 7.89312,16.633248 5.715168,15.286512 C5.715168,15.286512 6.504768,16.472928 8.599968,17.06616 C8.164896,17.659392 7.560576,18.331728 7.560576,18.331728 C3.966672,18.252624 2.5728,16.053744 2.49216,16.14864 C2.49216,11.25264 4.86912,7.266048 4.86912,7.266048 C6.996288,5.739648 8.978448,5.676192 9.35712,5.668272 L9.598896,5.897664 C6.883488,6.656976 5.570112,7.84344 5.570112,7.84344 C7.900656,6.717792 10.097232,6.32184 12,6.298128 C13.902816,6.322128 16.0992,6.717792 18.429888,7.84344 C18.429888,7.84344 17.116512,6.656976 14.401152,5.897664 L14.64288,5.668272 C15.0216,5.676192 17.003712,5.739456 19.13088,7.266048 C19.13088,7.266048 21.507792,11.252544 21.507792,16.14864 C21.4272,16.053744 20.033328,18.252624 16.439712,18.331728 L16.439712,18.331728 Z" id="Shape"></path>
                <path d="M14.92488,11.228784 L14.92488,11.236704 C14.014368,11.236704 13.264992,11.996064 13.264992,12.929376 C13.264992,13.854816 14.006352,14.614176 14.92488,14.614176 C15.843408,14.614176 16.58472,13.854816 16.58472,12.921456 C16.58472,11.988096 15.843456,11.228784 14.92488,11.228784 Z" id="Path"></path>
            </g>
        </g>
    </g>
</svg>