<?xml version="1.0" encoding="UTF-8"?>
<svg width="24px" height="24px" viewBox="0 0 24 24" version="1.1" xmlns="http://www.w3.org/2000/svg" xmlns:xlink="http://www.w3.org/1999/xlink">
    <title>facebook</title>
    <g id="Manage-FIO-Handles" stroke="none" stroke-width="1" fill="none" fill-rule="evenodd">
        <g id="Artboard" transform="translate(-40.000000, -128.000000)" fill="#000000" fill-rule="nonzero">
            <g id="facebook" transform="translate(40.000000, 128.000000)">
                <path d="M12,0 C5.38322726,0 0,5.38322726 0,12 C0,18.6162894 5.38322726,24 12,24 C18.6162894,24 24,18.6162894 24,12 C24,5.38322726 18.6172561,0 12,0 Z M14.9842907,12.4224603 L13.0319826,12.4224603 L13.0319826,19.3809716 L10.1390478,19.3809716 C10.1390478,19.3809716 10.1390478,15.5788286 10.1390478,12.4224603 L8.76387658,12.4224603 L8.76387658,9.9631032 L10.1390478,9.9631032 L10.1390478,8.37235157 C10.1390478,7.23306211 10.6804157,5.45283171 13.0585676,5.45283171 L15.2022879,5.4610489 L15.2022879,7.84838476 C15.2022879,7.84838476 13.8996214,7.84838476 13.6463385,7.84838476 C13.3930557,7.84838476 13.0329493,7.97502618 13.0329493,8.51832756 L13.0329493,9.96358656 L15.2370901,9.96358656 L14.9842907,12.4224603 Z" id="Shape"></path>
            </g>
        </g>
    </g>
</svg>