<svg width="24" height="25" viewBox="0 0 24 25" fill="none" xmlns="http://www.w3.org/2000/svg">
    <circle cx="12" cy="12.5" r="12" fill="black"/>
    <path d="M7.36372 6.14706H16.4692V19.0952H15.1326V13.1641H15.1195C14.9718 11.5249 13.5941 10.2403 11.9164 10.2403C10.2388 10.2403 8.86113 11.5249 8.71341 13.1641H8.7003V19.0952H7.36372V6.14706Z"
          fill="white"/>
    <path d="M4.94116 7.98486L5.48415 9.82266H5.9436V17.2574C5.71292 17.2574 5.52592 17.4444 5.52592 17.6751V18.1763H5.44238C5.2117 18.1763 5.0247 18.3633 5.0247 18.594V19.0952H9.70274V18.594C9.70274 18.3633 9.51573 18.1763 9.28505 18.1763H9.20152V17.6751C9.20152 17.4444 9.01451 17.2574 8.78384 17.2574H8.28262V7.98486H4.94116Z"
          fill="white"/>
    <path d="M15.2161 17.2574C14.9855 17.2574 14.7985 17.4444 14.7985 17.6751V18.1763H14.7149C14.4842 18.1763 14.2972 18.3633 14.2972 18.594V19.0952H18.9753V18.594C18.9753 18.3633 18.7883 18.1763 18.5576 18.1763H18.4741V17.6751C18.4741 17.4444 18.2871 17.2574 18.0564 17.2574V9.82266H18.5158L19.0588 7.98486H15.7174V17.2574H15.2161Z"
          fill="white"/>
</svg>
