<?xml version="1.0" encoding="UTF-8"?>
<svg width="24px" height="24px" viewBox="0 0 24 24" version="1.1" xmlns="http://www.w3.org/2000/svg" xmlns:xlink="http://www.w3.org/1999/xlink">
    <title>hive</title>
    <g id="Manage-FIO-Crypto-Handles" stroke="none" stroke-width="1" fill="none" fill-rule="evenodd">
        <g id="Artboard" transform="translate(-94.000000, -84.000000)" fill-rule="nonzero">
            <g id="hive" transform="translate(94.000000, 84.000000)">
                <g id="social-1_square-instagram" fill="#202020">
                    <path d="M0,12 C8.11624501e-16,18.627417 5.372583,24 12,24 C18.627417,24 24,18.627417 24,12 C24,5.372583 18.627417,-1.21743675e-15 12,0 C5.372583,1.21743675e-15 -8.11624501e-16,5.372583 0,12 Z" id="Path"></path>
                </g>
                <g id="hive-blockchain-hive-logo" transform="translate(5.000000, 6.000000)" fill="#FFF9F9">
                    <path d="M10.0060025,6.82417476 C10.0267118,6.82595836 10.0452438,6.83774588 10.0556384,6.85574612 C10.0660329,6.87374635 10.0669789,6.89568921 10.0581721,6.91451726 L7.08386808,12.0583136 C7.07258302,12.0763886 7.05299857,12.0876138 7.03169847,12.0882159 L5.21339667,12.0882159 C5.19187855,12.0882159 5.17199733,12.0767345 5.16133551,12.0580434 C5.1506737,12.0393524 5.15087524,12.0163744 5.16186327,11.9978732 L8.1361673,6.85407686 C8.14680398,6.83565314 8.16642715,6.82426685 8.1877007,6.82417476 L10.0060025,6.82417476 Z M8.23796167,5.35006526 C8.21666156,5.34946325 8.19707711,5.33823802 8.18579206,5.32016306 L5.16186327,0.0904776764 C5.15087524,0.071976484 5.1506737,0.0489985626 5.16133551,0.0303074774 C5.17199733,0.0116163922 5.19187855,0.000135070221 5.21339667,0.000135070221 L7.03169847,0.000135070221 C7.05299857,0.000737081594 7.07258302,0.0119623153 7.08386808,0.0300372736 L10.1077969,5.25972265 C10.1187849,5.27822385 10.1189864,5.30120177 10.1083246,5.31989285 C10.0976628,5.33858394 10.0777816,5.35006526 10.0562635,5.35006526 L8.23796167,5.35006526 Z" id="Shape"></path>
                    <path d="M8.59742301,0.0904776764 C8.58601362,0.0713811384 8.58614647,0.0475299564 8.59776787,0.0285616949 C8.60938927,0.00959343338 8.63057853,-0.00135698647 8.65277369,0.000135179529 L10.4736204,0.000135179529 C10.4949294,0 10.5146138,0.0115173422 10.5251538,0.0300372736 L13.991888,6.01427337 C14.002704,6.03274099 14.002704,6.05560993 13.991888,6.07407756 L10.5251538,12.0583136 C10.5146138,12.0768336 10.4949294,12.0882205 10.4736204,12.0882205 L8.65277369,12.0882205 C8.631142,12.0884881 8.61104958,12.077057 8.60023127,12.0583228 C8.58941295,12.0395887 8.58955552,12.0164725 8.60060408,11.9978732 L12.0463433,6.04417546 L8.59742301,0.0904776764 Z M7.11758746,6.01363715 C7.12895234,6.03332171 7.12895234,6.05757408 7.11758746,6.07725863 L3.63494783,12.0583136 C3.62308657,12.0756291 3.60344856,12.0859805 3.58246011,12.0859805 C3.56147167,12.0859805 3.54183365,12.0756291 3.52997239,12.0583136 L0.00852366164,6.07471377 C-0.00284122055,6.05502922 -0.00284122055,6.03077685 0.00852366164,6.01109229 L3.49116329,0.0300372736 C3.50302455,0.012721807 3.52266257,0.00237037555 3.54365101,0.00237037555 C3.56463946,0.00237037555 3.58427747,0.012721807 3.59613873,0.0300372736 L7.11758746,6.01363715 Z" id="Shape"></path>
                </g>
            </g>
        </g>
    </g>
</svg>