<?xml version="1.0" encoding="UTF-8"?>
<svg width="24px" height="24px" viewBox="0 0 24 24" version="1.1" xmlns="http://www.w3.org/2000/svg" xmlns:xlink="http://www.w3.org/1999/xlink">
    <title>Instagram</title>
    <g id="Manage-FIO-Crypto-Handles" stroke="none" stroke-width="1" fill="none" fill-rule="evenodd">
        <g id="Artboard" transform="translate(-40.000000, -216.000000)" fill="#202020" fill-rule="nonzero">
            <g id="social-1_square-instagram" transform="translate(40.000000, 216.000000)">
                <path d="M15.675,12 C15.675,14.025 14.025,15.675 12,15.675 C9.975,15.675 8.325,14.025 8.325,12 C8.325,11.7 8.4,11.325 8.475,11.025 L7.35,11.025 L7.35,16.275 C7.35,16.425 7.5,16.575 7.65,16.575 L16.275,16.575 C16.425,16.575 16.575,16.425 16.575,16.275 L16.575,11.025 L15.45,11.025 C15.6,11.325 15.675,11.7 15.675,12 Z" id="Path"></path>
                <path d="M14.7,9.675 L16.35,9.675 C16.5,9.675 16.65,9.525 16.65,9.375 L16.65,7.725 C16.65,7.575 16.5,7.425 16.35,7.425 L14.7,7.425 C14.55,7.425 14.4,7.575 14.4,7.725 L14.4,9.375 C14.325,9.525 14.475,9.675 14.7,9.675 Z" id="Path"></path>
                <circle id="Oval" cx="12" cy="12" r="2.325"></circle>
                <path d="M0,12 C8.11624501e-16,18.627417 5.372583,24 12,24 C18.627417,24 24,18.627417 24,12 C24,5.372583 18.627417,-1.21743675e-15 12,0 C5.372583,1.21743675e-15 -8.11624501e-16,5.372583 0,12 Z M18,16.575 C18,17.325 17.325,18 16.575,18 L7.425,18 C6.675,18 6,17.4 6,16.575 L6,7.425 C6,6.6 6.675,6 7.425,6 L16.575,6 C17.325,6 18,6.6 18,7.425 L18,16.575 Z" id="Shape"></path>
            </g>
        </g>
    </g>
</svg>