<?xml version="1.0" encoding="UTF-8"?>
<svg width="24px" height="24px" viewBox="0 0 24 24" version="1.1" xmlns="http://www.w3.org/2000/svg" xmlns:xlink="http://www.w3.org/1999/xlink">
    <title>linkedin</title>
    <g id="Manage-FIO-Handles" stroke="none" stroke-width="1" fill="none" fill-rule="evenodd">
        <g id="Artboard" transform="translate(-40.000000, -172.000000)" fill="#202020" fill-rule="nonzero">
            <g id="linkedin" transform="translate(40.000000, 172.000000)">
                <path d="M0,12 C8.11624501e-16,18.627417 5.372583,24 12,24 C18.627417,24 24,18.627417 24,12 C24,5.372583 18.627417,-1.21743675e-15 12,0 C5.372583,1.21743675e-15 -8.11624501e-16,5.372583 0,12 Z M9.40588235,17.2941176 L6.93088235,17.2941176 L6.93088235,9.26911765 L9.40588235,9.26911765 L9.40588235,17.2941176 L9.40588235,17.2941176 Z M8.13088235,8.21911765 C7.38088235,8.21911765 6.70588235,7.54411765 6.70588235,6.71911765 C6.70588235,5.96911765 7.38088235,5.29411765 8.13088235,5.29411765 C8.95588235,5.29411765 9.55588235,5.96911765 9.55588235,6.71911765 C9.55588235,7.54411765 8.95588235,8.21911765 8.13088235,8.21911765 Z M18.7058824,17.2941176 L16.2308824,17.2941176 L16.2308824,13.3941176 C16.2308824,12.4941176 16.2308824,11.2941176 14.9558824,11.2941176 C13.6808824,11.2941176 13.4558824,12.2691176 13.4558824,13.3191176 L13.4558824,17.2941176 L10.9808824,17.2941176 L10.9808824,9.26911765 L13.3808824,9.26911765 L13.3808824,10.3941176 L13.3808824,10.3941176 C13.6808824,9.79411765 14.5058824,9.11911765 15.7058824,9.11911765 C18.2558824,9.11911765 18.7058824,10.7691176 18.7058824,12.9441176 L18.7058824,17.2941176 Z" id="Shape"></path>
            </g>
        </g>
    </g>
</svg>