<?xml version="1.0" encoding="UTF-8"?>
<svg width="24px" height="24px" viewBox="0 0 24 24" version="1.1" xmlns="http://www.w3.org/2000/svg" xmlns:xlink="http://www.w3.org/1999/xlink">
    <title>mastedon</title>
    <g id="Manage-FIO-Handles" stroke="none" stroke-width="1" fill="none" fill-rule="evenodd">
        <g id="Artboard" transform="translate(-40.000000, -40.000000)" fill-rule="nonzero">
            <g id="social-1_square-instagram" transform="translate(40.000000, 40.000000)">
                <path d="M0,12 C8.11624501e-16,18.627417 5.372583,24 12,24 C18.627417,24 24,18.627417 24,12 C24,5.372583 18.627417,-1.21743675e-15 12,0 C5.372583,1.21743675e-15 -8.11624501e-16,5.372583 0,12 Z" id="Path" fill="#202020"></path>
                <g id="Font_Awesome_5_brands_mastodon" transform="translate(6.000000, 6.000000)" fill="#FFFFFF">
                    <path d="M11.9995475,4.22445259 C11.9995475,1.43327997 10.1703531,0.61488061 10.1703531,0.61488061 C8.37561767,-0.209261911 3.60880033,-0.200647181 1.83129435,0.61488061 C1.83129435,0.61488061 0.00209998961,1.43327997 0.00209998961,4.22445259 C0.00209998961,7.54686684 -0.187424073,11.6733226 3.03448499,12.5261809 C4.19747356,12.8334396 5.19678225,12.8994858 6.00082373,12.8535406 C7.4595847,12.7731365 8.27798406,12.3337852 8.27798406,12.3337852 L8.22916726,11.2741734 C8.22916726,11.2741734 7.18678491,11.6015332 6.01518161,11.5642027 C4.85506462,11.5240006 3.63177295,11.4378533 3.44224888,10.0135512 C3.42501942,9.88720186 3.41640469,9.75510933 3.41640469,9.61440208 C5.87447436,10.2145616 7.97072535,9.87571556 8.54791227,9.80679772 C10.1588668,9.61440208 11.5630678,8.62083653 11.7411056,7.71341829 C12.0225201,6.28337309 11.9995475,4.22445259 11.9995475,4.22445259 Z M9.84299337,7.81966663 L8.50483862,7.81966663 L8.50483862,4.54032603 C8.50483862,3.11315241 6.66702953,3.05859245 6.66702953,4.73846482 L6.66702953,6.53320027 L5.33748951,6.53320027 L5.33748951,4.73846482 C5.33748951,3.05859245 3.49968042,3.11315241 3.49968042,4.54032603 L3.49968042,7.81966663 L2.15865409,7.81966663 C2.15865409,4.31347147 2.0093321,3.57260468 2.68702421,2.79440733 C3.43076258,1.96452166 4.97854242,1.90996171 5.66772083,2.96957357 L6.00082373,3.52953103 L6.33392663,2.96957357 C7.02597662,1.90421855 8.57662804,1.97026482 9.31462325,2.79440733 C9.99518693,3.57834783 9.84299337,4.31634305 9.84299337,7.81966663 Z" id="path2"></path>
                </g>
            </g>
        </g>
    </g>
</svg>