<?xml version="1.0" encoding="UTF-8"?>
<svg width="24px" height="24px" viewBox="0 0 24 24" version="1.1" xmlns="http://www.w3.org/2000/svg" xmlns:xlink="http://www.w3.org/1999/xlink">
    <title>nostr</title>
    <g id="Manage-FIO-Handles" stroke="none" stroke-width="1" fill="none" fill-rule="evenodd">
        <g id="Artboard" transform="translate(-94.000000, -40.000000)" fill-rule="nonzero">
            <g id="nostr" transform="translate(94.000000, 40.000000)">
                <g id="social-1_square-linkedin" fill="#202020">
                    <path d="M0,12 C8.11624501e-16,18.627417 5.372583,24 12,24 C18.627417,24 24,18.627417 24,12 C24,5.372583 18.627417,-1.21743675e-15 12,0 C5.372583,1.21743675e-15 -8.11624501e-16,5.372583 0,12 Z" id="Path"></path>
                </g>
                <g id="Vector" transform="translate(6.000000, 5.000000)" fill="#FFFFFF">
                    <path d="M11.8894181,3.21402443 C11.8575175,2.89953538 11.7547269,2.61542312 11.5562347,2.36704825 C11.3807818,2.1472633 11.1557058,1.99001877 10.9430355,1.81311869 C10.8367004,1.72556208 10.5549123,1.48790843 10.5194673,1.35389321 C10.4769333,1.19128808 10.5425066,1.02510921 10.6896035,0.971503124 C10.911135,0.896454602 11.2815356,0.898241472 11.4959781,0.912536428 C11.6785201,0.926831385 11.8663788,0.8625014 11.8734678,0.787452879 C11.8805568,0.712404357 11.7724494,0.601618444 11.628897,0.567667922 C11.5154729,0.540864879 11.3417922,0.499766879 11.2372293,0.430078966 C11.0511429,0.303211227 10.8615119,0.0709180053 10.6027631,0.019098788 C10.2341347,-0.0541628641 9.97715821,0.0852129618 9.85664508,0.405062792 C9.66524186,0.8625014 9.7892995,1.4485973 10.1916007,1.87744599 C10.3723704,2.07042791 10.5832684,2.23660677 10.7853051,2.40993312 C10.9341743,2.53858773 11.0653209,2.67975043 11.1911508,2.83699495 C11.5278787,3.26048303 11.171656,4.03777129 11.0865879,4.12711477 C10.7888496,4.43803008 10.5301008,4.4952099 10.0161478,4.47376747 C9.51105595,4.45232503 8.20131745,3.76974086 7.50836693,3.74829842 C5.79282704,3.69469234 4.60187373,4.49342303 4.19957254,4.7006999 C3.59700687,5.01161521 2.73923693,5.03127077 2.71265315,5.04020512 C2.32452997,5.0705819 1.51992759,5.10095868 1.1211709,5.24033451 C0.559368802,5.39757903 0.256313718,5.65667512 0.0507324913,6.23562086 C-0.0130685789,6.48578259 -0.0254740768,6.71271503 0.0649107728,6.85030399 C0.261630474,7.15049807 0.791533807,7.40065981 1.0325583,7.53824877 C1.15661594,7.60972355 1.40118671,7.52038007 1.44903751,7.48642955 C1.71841981,7.30238199 1.95590157,7.15764555 2.27490692,7.11118694 C2.34225249,7.10046572 2.79240449,7.02005659 3.01925274,7.18802233 C3.18407217,7.30952946 3.32585233,7.38279112 3.51193878,7.46856085 C3.85221116,7.62401851 4.60187373,7.82057416 4.61605175,7.8241479 C4.71707011,7.85095094 4.8464445,7.90277016 4.8464445,7.99390051 C4.8464445,8.12255511 3.65549119,9.12679368 3.58991787,9.15180985 C3.29040729,9.27510385 3.1167266,9.47344637 3.06178679,9.7593455 C3.04406427,9.85226272 3.00330247,9.94875368 2.95190716,10.0255891 C2.7587317,10.3079145 1.90273401,11.533707 1.67588576,11.8696385 C1.56777839,12.026883 1.45612652,12.1055052 1.3019406,12.1305214 C1.0804091,12.1662588 0.91381742,12.1716194 0.819889838,12.3306508 C0.761405524,12.4325024 0.798622815,12.6308449 0.837612358,12.7594995 C0.881918657,12.9060228 0.761405524,13.0882835 0.752544264,13.1097259 C0.646209147,13.3187897 0.601902848,13.5189191 0.617853116,13.7208353 C0.623169872,13.8030313 0.628486628,13.9942264 0.763177776,13.999587 C0.897867152,14.0067345 0.933312191,13.9191778 0.949262459,13.8870142 C0.96875723,13.8477031 1.04319181,13.6850979 1.06445884,13.6457868 C1.15129918,13.4831817 1.4827103,13.1329552 1.51992759,13.0918572 C1.63866847,12.9596289 3.41092042,10.4991095 3.41092042,10.4991095 C3.50839428,10.3704549 3.60941264,10.2382265 3.77423207,10.1738992 C4.00285257,10.0845558 4.15526624,9.9005082 4.19957254,9.65749394 C4.21020605,9.60388785 4.91733458,9.05710576 5.21861741,8.82658172 C5.32849703,8.74259885 5.99486377,8.47278155 6.00549728,8.47635529 C6.00549728,8.4817159 5.39584261,9.4073322 5.20621165,9.89872133 C5.17608336,9.97734359 5.12646031,10.245374 5.18140012,10.3811761 C5.26646821,10.5902398 5.44901016,10.6813702 5.65636364,10.6188298 C5.72016471,10.5991742 5.77687678,10.5670105 5.83181659,10.5366338 C5.85662811,10.5223388 5.88143964,10.5098307 5.90625117,10.4973226 C5.9310627,10.4848145 5.95410197,10.4723065 5.9789135,10.4597984 C6.03562556,10.4294216 6.09056537,10.4008317 6.14550518,10.382963 C6.34931416,10.3150619 6.55489538,10.2507346 6.76047661,10.1864073 L7.17695582,10.0559659 C7.46760514,9.9648355 7.75825446,9.87370515 8.04890378,9.78436168 C8.11270485,9.76470611 8.17473367,9.74147681 8.254485,9.74326368 C8.2987913,9.74326368 8.34664211,9.76113237 8.36259237,9.82724655 C8.36259237,9.83082029 8.39626516,10.0309497 8.51855055,10.1113588 C8.58057936,10.1524568 8.71349826,10.1846205 8.81274437,10.1810467 C8.89962902,10.177473 9.00950864,10.2024892 9.06622071,10.2525215 L9.13888304,10.3150619 C9.19205059,10.3597337 9.25762392,10.3847498 9.30193021,10.3972579 C9.34800877,10.409766 9.43307686,10.409766 9.48269991,10.3579468 C9.53586747,10.300767 9.5163727,10.2078498 9.50928369,10.1792598 C9.49865018,10.1399487 9.47738316,10.1095719 9.46143289,10.0827689 L9.41712659,10.013081 C9.37459254,9.94517994 9.33383075,9.87727889 9.28952445,9.80937785 C9.16723907,9.62175655 9.04672593,9.43592211 8.9226683,9.25008768 C8.7932496,9.05710576 8.59298513,8.98027037 8.33069184,9.02136837 C8.22967348,9.0374502 6.01258629,9.73075559 5.99663602,9.73432933 C6.1153769,9.51454437 6.82604993,8.52460077 7.02454215,8.3995199 C7.17163906,8.31196329 7.23366788,8.22798042 7.50127793,8.18152181 C8.02409225,8.09217833 9.15837781,7.82772164 9.44016587,7.62223164 C9.98779172,7.22197285 10.032098,6.31245625 10.0232368,6.13019555 C10.0126032,5.94793486 10.0710876,5.82285399 10.228818,5.73887112 C10.3067971,5.69777312 11.150389,5.22782642 11.5633237,4.53452103 C11.811439,4.12890164 11.9390411,3.69469234 11.8894181,3.21402443 Z" id="Path"></path>
                </g>
            </g>
        </g>
    </g>
</svg>