<?xml version="1.0" encoding="UTF-8"?>
<svg width="24px" height="24px" viewBox="0 0 24 24" version="1.1" xmlns="http://www.w3.org/2000/svg" xmlns:xlink="http://www.w3.org/1999/xlink">
    <title>reddit</title>
    <g id="Manage-FIO-Handles" stroke="none" stroke-width="1" fill="none" fill-rule="evenodd">
        <g id="Artboard" transform="translate(-94.000000, -128.000000)" fill="#202020" fill-rule="nonzero">
            <g id="reddit" transform="translate(94.000000, 128.000000)">
                <path d="M14.5127564,16.0944214 C13.9751587,16.632019 12.8232422,16.8239136 12.0023804,16.8239136 C11.1791382,16.8239136 10.0296021,16.632019 9.49200441,16.0944214 C9.36474609,15.9671631 9.16076663,15.9671631 9.03369141,16.0944214 C8.90643309,16.2216797 8.90643309,16.4256592 9.03369141,16.5527344 C9.88568114,17.4047241 11.5224609,17.4719238 12.0023804,17.4719238 C12.4822998,17.4719238 14.1166992,17.4047241 14.9712525,16.5527344 C15.0959473,16.4254761 15.0959473,16.2214966 14.9712525,16.0944214 C14.8439941,15.9671631 14.6400146,15.9671631 14.5127564,16.0944214 L14.5127564,16.0944214 Z" id="Path"></path>
                <path d="M10.5,13.2504272 C10.5,12.5615845 9.93841552,12 9.24957277,12 C8.56091306,12 7.99914553,12.5615845 7.99914553,13.2504272 C7.99914553,13.9390869 8.56091306,14.5008545 9.24957277,14.5008545 C9.93841552,14.5008545 10.5,13.93927 10.5,13.2504272 L10.5,13.2504272 Z" id="Path"></path>
                <path d="M12,0 C5.3735962,0 0,5.3735962 0,12 C0,18.6264038 5.3735962,24 12,24 C18.6264038,24 24,18.6264038 24,12 C24,5.3735962 18.6264038,0 12,0 Z M18.9624023,13.600708 C18.9887695,13.7735596 19.0032349,13.9487915 19.0032349,14.1264038 C19.0032349,16.8191528 15.8688354,19.0008545 12.0023804,19.0008545 C8.13592528,19.0008545 5.00152589,16.8191528 5.00152589,14.1264038 C5.00152589,13.9464112 5.01599119,13.7687988 5.04235838,13.5959473 C4.43280028,13.3223877 4.00799559,12.7104492 4.00799559,12 C4.00799559,11.0352173 4.79040525,10.2504272 5.75756836,10.2504272 C6.2279663,10.2504272 6.65277098,10.4351807 6.96716306,10.7376709 C8.18151853,9.86169431 9.86169431,9.30230714 11.7312012,9.25433348 C11.7312012,9.23034666 12.6047974,5.06872556 12.6047974,5.06872556 C12.6216431,4.98724364 12.6696167,4.91748047 12.7391968,4.87207031 C12.8087768,4.82647706 12.8928223,4.81201172 12.9744873,4.82885742 L15.8833008,5.447937 C16.0872802,5.0352173 16.5071411,4.74957277 16.9991455,4.74957277 C17.6903686,4.74957277 18.2495728,5.30877684 18.2495728,6 C18.2495728,6.69122316 17.6903686,7.25042723 16.9991455,7.25042723 C16.3295288,7.25042723 15.7871704,6.72235106 15.7560425,6.06005859 L13.1519165,5.50561523 L12.3552246,9.25689698 C14.1912232,9.3215332 15.8400879,9.87835692 17.0352173,10.7424316 C17.3496094,10.4377441 17.7767944,10.2504272 18.2495728,10.2504272 C19.216919,10.2504272 19.9991455,11.0328369 19.9991455,12 C19.9991455,12.7152099 19.5695801,13.3271484 18.9624023,13.600708 L18.9624023,13.600708 Z" id="Shape"></path>
                <path d="M14.7504272,12 C14.0615845,12 13.5,12.5615845 13.5,13.2504272 C13.5,13.9390869 14.0615845,14.5008545 14.7504272,14.5008545 C15.4390869,14.5008545 16.0008545,13.9390869 16.0008545,13.2504272 C16.0008545,12.5615845 15.43927,12 14.7504272,12 L14.7504272,12 Z" id="Path"></path>
            </g>
        </g>
    </g>
</svg>