<?xml version="1.0" encoding="UTF-8"?>
<svg width="24px" height="24px" viewBox="0 0 24 24" version="1.1" xmlns="http://www.w3.org/2000/svg" xmlns:xlink="http://www.w3.org/1999/xlink">
    <title>twitter</title>
    <g id="Manage-FIO-Crypto-Handles" stroke="none" stroke-width="1" fill="none" fill-rule="evenodd">
        <g id="Artboard" transform="translate(-94.000000, -216.000000)" fill="#202020" fill-rule="nonzero">
            <g id="twitter" transform="translate(94.000000, 216.000000)">
                <path d="M12,0 C5.4,0 0,5.4 0,12 C0,18.6 5.4,24 12,24 C18.6,24 24,18.6 24,12 C24,5.4 18.6,0 12,0 Z M16.8,9.525 C16.8,9.6 16.8,9.75 16.8,9.825 C16.8,13.05 14.325,16.8 9.825,16.8 C8.4,16.8 7.125,16.425 6.075,15.675 C6.3,15.675 6.45,15.675 6.675,15.675 C7.8,15.675 8.925,15.3 9.75,14.625 C8.7,14.625 7.8,13.875 7.425,12.9 C7.575,12.9 7.725,12.975 7.875,12.975 C8.1,12.975 8.325,12.975 8.55,12.9 C7.425,12.675 6.6,11.7 6.6,10.5 C6.6,10.5 6.6,10.5 6.6,10.5 C6.9,10.65 7.275,10.8 7.725,10.8 C7.05,10.35 6.6,9.6 6.6,8.775 C6.6,8.325 6.75,7.875 6.9,7.5 C8.1,9 9.9,9.975 12,10.05 C11.925,9.9 11.925,9.675 11.925,9.525 C11.925,8.175 13.05,7.05 14.4,7.05 C15.075,7.05 15.75,7.35 16.2,7.8 C16.725,7.725 17.325,7.5 17.775,7.2 C17.625,7.8 17.175,8.25 16.725,8.55 C17.25,8.475 17.7,8.325 18.15,8.175 C17.7,8.775 17.25,9.225 16.8,9.525 Z" id="Shape"></path>
            </g>
        </g>
    </g>
</svg>