<?xml version="1.0" encoding="UTF-8"?>
<svg width="24px" height="24px" viewBox="0 0 24 24" version="1.1" xmlns="http://www.w3.org/2000/svg" xmlns:xlink="http://www.w3.org/1999/xlink">
    <title>whatsapp</title>
    <g id="Manage-FIO-Crypto-Handles" stroke="none" stroke-width="1" fill="none" fill-rule="evenodd">
        <g id="Artboard" transform="translate(-40.000000, -260.000000)" fill="#202020" fill-rule="nonzero">
            <g id="whatsapp" transform="translate(40.000000, 260.000000)">
                <path d="M15.3157895,8.68421053 L15.2921053,8.66052632 C13.6709218,7.04797916 11.1191801,6.85010899 9.26878704,8.19345906 C7.41839394,9.53680913 6.81621869,12.0243628 7.84736842,14.0652632 L8.05263158,14.4694737 L7.66894737,16.3294737 L7.66894737,16.3531579 L9.51157895,15.9157895 L9.93157895,16.1242105 C11.7240323,17.0139114 13.8843226,16.6606403 15.3,15.2463158 C17.1041183,13.4334813 17.111163,10.505706 15.3157895,8.68421053 L15.3157895,8.68421053 Z M15.1294737,13.8947368 C14.9036842,14.25 14.5452632,14.6842105 14.0984211,14.7931579 C13.3089474,14.9842105 12.1073684,14.7931579 10.6026316,13.4021053 L10.5836842,13.3847368 C9.27473684,12.1626316 8.92736842,11.1442105 9.00473684,10.3373684 C9.05052632,9.87947368 9.43263158,9.46578947 9.75473684,9.19421053 C9.85833566,9.10597069 9.99772994,9.0722708 10.1301969,9.1034395 C10.2626639,9.13460819 10.3724063,9.22692849 10.4257895,9.35210526 L10.9105263,10.4573684 C10.9750097,10.6011012 10.9549732,10.7686794 10.8584211,10.8931579 L10.6121053,11.2089474 C10.5073847,11.3430306 10.4942763,11.5271715 10.5789474,11.6747368 C10.8130337,12.0190287 11.0929818,12.329787 11.4110526,12.5984211 C11.7525474,12.9288878 12.140942,13.2071486 12.5636842,13.4242105 C12.721199,13.4881587 12.9017657,13.450046 13.02,13.3278947 L13.3026316,13.0421053 C13.4102606,12.9187516 13.5786564,12.8673143 13.7368421,12.9094737 L14.8894737,13.2410526 C15.0193758,13.2790725 15.1238766,13.3759 15.1716737,13.5025313 C15.2194708,13.6291627 15.2050132,13.7708911 15.1326316,13.8852632 L15.1294737,13.8947368 Z" id="Shape"></path>
                <path d="M12,0 C5.372583,0 0,5.372583 0,12 C0,18.627417 5.372583,24 12,24 C18.627417,24 24,18.627417 24,12 C24,5.372583 18.627417,0 12,0 L12,0 Z M17.9478947,12.1405263 C17.8820233,14.1656809 16.7907953,16.018337 15.0515484,17.0578612 C13.3123015,18.0973853 11.1637884,18.1810784 9.34894737,17.28 L6.34894737,17.9936842 C6.25613516,18.0149735 6.15973532,17.9774151 6.10578947,17.8989474 C6.06935943,17.8471288 6.0561972,17.7824622 6.06947368,17.7205263 L6.70105263,14.6542105 C5.56989297,12.4377946 5.93675163,9.75164629 7.62081101,7.91971675 C9.30487038,6.08778721 11.9507301,5.49668298 14.2542966,6.43774804 C16.557863,7.37881309 18.0329964,9.65344704 17.9526316,12.1405263 L17.9478947,12.1405263 Z" id="Shape"></path>
            </g>
        </g>
    </g>
</svg>