<svg width="24" height="25" viewBox="0 0 24 25" fill="none" xmlns="http://www.w3.org/2000/svg">
    <g>
        <path d="M10.3357 14.4358L13.6641 12.5047L10.3357 10.5642V14.4358Z" fill="black"/>
        <path d="M12 0.5C9.62663 0.5 7.30655 1.20379 5.33316 2.52236C3.35977 3.84094 1.8217 5.71509 0.913451 7.9078C0.0051994 10.1005 -0.232441 12.5133 0.230582 14.8411C0.693605 17.1689 1.83649 19.3071 3.51472 20.9853C5.19295 22.6635 7.33115 23.8064 9.65892 24.2694C11.9867 24.7324 14.3995 24.4948 16.5922 23.5866C18.7849 22.6783 20.6591 21.1402 21.9776 19.1668C23.2962 17.1935 24 14.8734 24 12.5C24 9.3174 22.7357 6.26515 20.4853 4.01472C18.2349 1.76428 15.1826 0.5 12 0.5ZM18.3158 14.6237C18.316 14.9375 18.2544 15.2484 18.1344 15.5384C18.0144 15.8284 17.8385 16.0919 17.6166 16.3139C17.3948 16.5359 17.1314 16.7121 16.8414 16.8322C16.5515 16.9524 16.2407 17.0142 15.9268 17.0142H8.07316C7.75931 17.0142 7.44853 16.9524 7.15859 16.8322C6.86865 16.7121 6.60522 16.5359 6.38336 16.3139C6.16151 16.0919 5.98557 15.8284 5.86561 15.5384C5.74565 15.2484 5.68401 14.9375 5.68422 14.6237V10.3763C5.68401 10.0625 5.74565 9.75164 5.86561 9.46162C5.98557 9.1716 6.16151 8.90806 6.38336 8.68605C6.60522 8.46405 6.86865 8.28794 7.15859 8.16779C7.44853 8.04763 7.75931 7.98579 8.07316 7.98579H15.9268C16.2407 7.98579 16.5515 8.04763 16.8414 8.16779C17.1314 8.28794 17.3948 8.46405 17.6166 8.68605C17.8385 8.90806 18.0144 9.1716 18.1344 9.46162C18.2544 9.75164 18.316 10.0625 18.3158 10.3763V14.6237Z"
              fill="black"/>
    </g>
</svg>
