<?xml version="1.0" encoding="UTF-8"?>
<svg width="34px" height="34px" viewBox="0 0 34 34" version="1.1" xmlns="http://www.w3.org/2000/svg" xmlns:xlink="http://www.w3.org/1999/xlink">
    <title>discord@2x</title>
    <g id="FINAL-PAYMENT-PROFILE" stroke="none" stroke-width="1" fill="none" fill-rule="evenodd">
        <g id="FIO---My-Profile---Socials" transform="translate(-146, -695)" fill="#FFFFFF" fill-rule="nonzero">
            <g id="Competitive-Edge" transform="translate(126, 577)">
                <g id="Group-2-Copy-3" transform="translate(0, 98)">
                    <g id="discord" transform="translate(20, 20)">
                        <path d="M12.85642,15.9188 L12.85642,15.90758 C11.555104,15.90758 10.50498,16.98334 10.50498,18.305532 C10.50498,19.627724 11.555104,20.703552 12.85642,20.703552 C14.157736,20.703552 15.207928,19.627792 15.207928,18.316752 C15.207928,16.994424 14.146312,15.9188 12.85642,15.9188 L12.85642,15.9188 Z" id="Path"></path>
                        <path d="M17,0 C7.611172,0 0,7.611172 0,17 C0,26.388828 7.611172,34 17,34 C26.388828,34 34,26.388828 34,17 C34,7.611172 26.388828,0 17,0 Z M23.289592,25.969948 C23.289592,25.969948 22.4332,25.0172 21.817052,24.17706 C24.784912,23.336648 25.903852,21.655892 25.903852,21.655892 C22.81808,23.563768 19.936172,24.297828 17,24.202424 C14.063828,24.297624 11.18192,23.563768 8.096488,21.655892 C8.096488,21.655892 9.215088,23.336648 12.183288,24.17706 C11.566936,25.017472 10.710816,25.969948 10.710816,25.969948 C5.619452,25.857884 3.6448,22.742804 3.53056,22.87724 C3.53056,15.94124 6.89792,10.293568 6.89792,10.293568 C9.911408,8.131168 12.719468,8.041272 13.25592,8.030052 L13.598436,8.355024 C9.751608,9.430716 7.890992,11.11154 7.890992,11.11154 C11.192596,9.516872 14.304412,8.95594 17,8.922348 C19.695656,8.956348 22.8072,9.516872 26.109008,11.11154 C26.109008,11.11154 24.248392,9.430716 20.401632,8.355024 L20.74408,8.030052 C21.2806,8.041272 24.088592,8.130896 27.10208,10.293568 C27.10208,10.293568 30.469372,15.941104 30.469372,22.87724 C30.3552,22.742804 28.380548,25.857884 23.289592,25.969948 L23.289592,25.969948 Z" id="Shape"></path>
                        <path d="M21.14358,15.907444 L21.14358,15.918664 C19.853688,15.918664 18.792072,16.994424 18.792072,18.316616 C18.792072,19.627656 19.842332,20.703416 21.14358,20.703416 C22.444828,20.703416 23.49502,19.627656 23.49502,18.305396 C23.49502,16.983136 22.444896,15.907444 21.14358,15.907444 Z" id="Path"></path>
                    </g>
                </g>
            </g>
        </g>
    </g>
</svg>