<?xml version="1.0" encoding="UTF-8"?>
<svg width="34px" height="34px" viewBox="0 0 34 34" version="1.1" xmlns="http://www.w3.org/2000/svg" xmlns:xlink="http://www.w3.org/1999/xlink">
    <title>Group 7@2x</title>
    <g id="FINAL-PAYMENT-PROFILE" stroke="none" stroke-width="1" fill="none" fill-rule="evenodd">
        <g id="FIO---My-Profile---Socials" transform="translate(-451, -695)" fill="#FFFFFF" fill-rule="nonzero">
            <g id="Competitive-Edge" transform="translate(126, 577)">
                <g id="Group-2-Copy-4" transform="translate(305, 98)">
                    <g id="facebook" transform="translate(20, 20)">
                        <path d="M17,0 C7.62623862,0 0,7.62623862 0,17 C0,26.3730766 7.62623862,34 17,34 C26.3730766,34 34,26.3730766 34,17 C34,7.62623862 26.3744461,0 17,0 Z M21.2277451,17.5984855 L18.4619753,17.5984855 L18.4619753,27.4563764 L14.363651,27.4563764 C14.363651,27.4563764 14.363651,22.0700073 14.363651,17.5984855 L12.4154918,17.5984855 L12.4154918,14.1143962 L14.363651,14.1143962 L14.363651,11.8608314 C14.363651,10.246838 15.1305889,7.72484492 18.4996375,7.72484492 L21.5365746,7.73648594 L21.5365746,11.1185451 C21.5365746,11.1185451 19.6911303,11.1185451 19.3323129,11.1185451 C18.9734955,11.1185451 18.4633449,11.2979538 18.4633449,12.0676307 L18.4633449,14.115081 L21.5858777,14.115081 L21.2277451,17.5984855 Z" id="Shape"></path>
                    </g>
                </g>
            </g>
        </g>
    </g>
</svg>