<svg width="34" height="34" viewBox="0 0 34 34" fill="none" xmlns="http://www.w3.org/2000/svg">
    <circle cx="17" cy="17" r="17" fill="white"/>
    <path d="M10.432 8H23.3314V26.3432H21.4379V17.9408H21.4193C21.21 15.6186 19.2584 13.7988 16.8817 13.7988C14.505 13.7988 12.5533 15.6186 12.344 17.9408H12.3254V26.3432H10.432V8Z"
          fill="#765CD6"/>
    <path d="M7 10.6036L7.76923 13.2071H8.42012V23.7396C8.09332 23.7396 7.8284 24.0046 7.8284 24.3314V25.0414H7.71006C7.38326 25.0414 7.11834 25.3063 7.11834 25.6331V26.3432H13.7456V25.6331C13.7456 25.3063 13.4806 25.0414 13.1538 25.0414H13.0355V24.3314C13.0355 24.0046 12.7706 23.7396 12.4438 23.7396H11.7337V10.6036H7Z"
          fill="#765CD6"/>
    <path d="M21.5562 23.7396C21.2294 23.7396 20.9645 24.0046 20.9645 24.3314V25.0414H20.8462C20.5194 25.0414 20.2544 25.3063 20.2544 25.6331V26.3432H26.8817V25.6331C26.8817 25.3063 26.6167 25.0414 26.2899 25.0414H26.1716V24.3314C26.1716 24.0046 25.9067 23.7396 25.5799 23.7396V13.2071H26.2308L27 10.6036H22.2663V23.7396H21.5562Z"
          fill="#765CD6"/>
</svg>
