<?xml version="1.0" encoding="UTF-8"?>
<svg width="34px" height="34px" viewBox="0 0 34 34" version="1.1" xmlns="http://www.w3.org/2000/svg" xmlns:xlink="http://www.w3.org/1999/xlink">
    <title>Hive Logo@2x</title>
    <g id="FINAL-PAYMENT-PROFILE" stroke="none" stroke-width="1" fill="none" fill-rule="evenodd">
        <g id="FIO---My-Profile---Socials" transform="translate(-755, -695)">
            <g id="Competitive-Edge" transform="translate(126, 577)">
                <g id="Group-2-Copy-2" transform="translate(610, 98)">
                    <g id="Hive-Logo" transform="translate(19, 20)">
                        <circle id="Oval" fill="#FFFFFF" cx="17" cy="17" r="17"></circle>
                        <g id="hive-blockchain-hive-logo" transform="translate(8, 9)" fill="#765CD6" fill-rule="nonzero">
                            <path d="M13.5795748,9.26138004 C13.6076802,9.26380064 13.6328309,9.27979798 13.6469378,9.30422687 C13.6610446,9.32865576 13.6623285,9.35843536 13.6503764,9.38398771 L9.61382097,16.3648542 C9.59850553,16.3893845 9.57192663,16.4046188 9.54301935,16.4054358 L7.07532405,16.4054358 C7.04612089,16.4054358 7.01913923,16.389854 7.00466962,16.3644875 C6.99020002,16.3391211 6.99047354,16.3079367 7.00538587,16.282828 L11.0419413,9.30196145 C11.0563768,9.27695783 11.0830083,9.26150501 11.1118795,9.26138004 L13.5795748,9.26138004 Z M11.1800908,7.26080285 C11.1511836,7.25998584 11.1246047,7.24475159 11.1092892,7.22022129 L7.00538587,0.122791132 C6.99047354,0.0976823712 6.99020002,0.0664980492 7.00466962,0.0411315765 C7.01913923,0.0157651038 7.04612089,0.000183309586 7.07532405,0.000183309586 L9.54301935,0.000183309586 C9.57192663,0.00100032502 9.59850553,0.0162345708 9.61382097,0.0407648713 L13.7177243,7.13819503 C13.7326366,7.16330379 13.7329102,7.19448811 13.7184406,7.21985459 C13.703971,7.24522106 13.6769893,7.26080285 13.6477861,7.26080285 L11.1800908,7.26080285 Z" id="Shape"></path>
                            <path d="M11.6679312,0.122791132 C11.6524471,0.0968744022 11.6526273,0.0645049408 11.6683992,0.0387623002 C11.6841711,0.0130196596 11.712928,-0.0018416245 11.74305,0.000183457932 L14.2141991,0.000183457932 C14.2431185,0 14.269833,0.0156306787 14.2841372,0.0407648713 L18.9889909,8.16222814 C19.0036697,8.18729134 19.0036697,8.21832776 18.9889909,8.24339097 L14.2841372,16.3648542 C14.269833,16.3899884 14.2431185,16.4054421 14.2141991,16.4054421 L11.74305,16.4054421 C11.7136927,16.4058053 11.6864244,16.3902916 11.6717424,16.3648667 C11.6570604,16.3394418 11.6572539,16.3080699 11.6722484,16.282828 L16.3486087,8.20280955 L11.6679312,0.122791132 Z M9.65958298,8.16136471 C9.67500675,8.18807946 9.67500675,8.22099339 9.65958298,8.24770814 L4.93314348,16.3648542 C4.91704606,16.3883538 4.89039447,16.4024022 4.86191015,16.4024022 C4.83342584,16.4024022 4.80677424,16.3883538 4.79067682,16.3648542 L0.0115678265,8.2442544 C-0.00385594217,8.21753965 -0.00385594217,8.18462572 0.0115678265,8.15791097 L4.73800733,0.0407648713 C4.75410475,0.0172653095 4.78075634,0.00321693824 4.80924066,0.00321693824 C4.83772498,0.00321693824 4.86437657,0.0172653095 4.88047399,0.0407648713 L9.65958298,8.16136471 Z" id="Shape"></path>
                        </g>
                    </g>
                </g>
            </g>
        </g>
    </g>
</svg>