<?xml version="1.0" encoding="UTF-8"?>
<svg width="34px" height="34px" viewBox="0 0 34 34" version="1.1" xmlns="http://www.w3.org/2000/svg" xmlns:xlink="http://www.w3.org/1999/xlink">
    <title>social-1_square-instagram@2x</title>
    <g id="FINAL-PAYMENT-PROFILE" stroke="none" stroke-width="1" fill="none" fill-rule="evenodd">
        <g id="FIO---My-Profile---Socials" transform="translate(-1061, -695)" fill="#FFFFFF" fill-rule="nonzero">
            <g id="Competitive-Edge" transform="translate(126, 577)">
                <g id="Group-2-Copy-8" transform="translate(915, 98)">
                    <g id="social-1_square-instagram" transform="translate(20, 20)">
                        <path d="M22.20625,17 C22.20625,19.86875 19.86875,22.20625 17,22.20625 C14.13125,22.20625 11.79375,19.86875 11.79375,17 C11.79375,16.575 11.9,16.04375 12.00625,15.61875 L10.4125,15.61875 L10.4125,23.05625 C10.4125,23.26875 10.625,23.48125 10.8375,23.48125 L23.05625,23.48125 C23.26875,23.48125 23.48125,23.26875 23.48125,23.05625 L23.48125,15.61875 L21.8875,15.61875 C22.1,16.04375 22.20625,16.575 22.20625,17 Z" id="Path"></path>
                        <path d="M20.825,13.70625 L23.1625,13.70625 C23.375,13.70625 23.5875,13.49375 23.5875,13.28125 L23.5875,10.94375 C23.5875,10.73125 23.375,10.51875 23.1625,10.51875 L20.825,10.51875 C20.6125,10.51875 20.4,10.73125 20.4,10.94375 L20.4,13.28125 C20.29375,13.49375 20.50625,13.70625 20.825,13.70625 Z" id="Path"></path>
                        <circle id="Oval" cx="17" cy="17" r="3.29375"></circle>
                        <path d="M0,17 C1.14980138e-15,26.3888407 7.61115925,34 17,34 C26.3888407,34 34,26.3888407 34,17 C34,7.61115925 26.3888407,-1.72470207e-15 17,0 C7.61115925,1.72470207e-15 -1.14980138e-15,7.61115925 0,17 Z M25.5,23.48125 C25.5,24.54375 24.54375,25.5 23.48125,25.5 L10.51875,25.5 C9.45625,25.5 8.5,24.65 8.5,23.48125 L8.5,10.51875 C8.5,9.35 9.45625,8.5 10.51875,8.5 L23.48125,8.5 C24.54375,8.5 25.5,9.35 25.5,10.51875 L25.5,23.48125 Z" id="Shape"></path>
                    </g>
                </g>
            </g>
        </g>
    </g>
</svg>