<?xml version="1.0" encoding="UTF-8"?>
<svg width="34px" height="34px" viewBox="0 0 34 34" version="1.1" xmlns="http://www.w3.org/2000/svg" xmlns:xlink="http://www.w3.org/1999/xlink">
    <title>social-1_square-linkedin@2x</title>
    <g id="FINAL-PAYMENT-PROFILE" stroke="none" stroke-width="1" fill="none" fill-rule="evenodd">
        <g id="FIO---My-Profile---Socials" transform="translate(-146, -828)" fill="#FFFFFF" fill-rule="nonzero">
            <g id="Competitive-Edge" transform="translate(126, 577)">
                <g id="Group-2-Copy" transform="translate(0, 231)">
                    <g id="social-1_square-linkedin" transform="translate(20, 20)">
                        <path d="M0,17 C1.14980138e-15,26.3888407 7.61115925,34 17,34 C26.3888407,34 34,26.3888407 34,17 C34,7.61115925 26.3888407,-1.72470207e-15 17,0 C7.61115925,1.72470207e-15 -1.14980138e-15,7.61115925 0,17 Z M13.325,24.5 L9.81875,24.5 L9.81875,13.13125 L13.325,13.13125 L13.325,24.5 L13.325,24.5 Z M11.51875,11.64375 C10.45625,11.64375 9.5,10.6875 9.5,9.51875 C9.5,8.45625 10.45625,7.5 11.51875,7.5 C12.6875,7.5 13.5375,8.45625 13.5375,9.51875 C13.5375,10.6875 12.6875,11.64375 11.51875,11.64375 Z M26.5,24.5 L22.99375,24.5 L22.99375,18.975 C22.99375,17.7 22.99375,16 21.1875,16 C19.38125,16 19.0625,17.38125 19.0625,18.86875 L19.0625,24.5 L15.55625,24.5 L15.55625,13.13125 L18.95625,13.13125 L18.95625,14.725 L18.95625,14.725 C19.38125,13.875 20.55,12.91875 22.25,12.91875 C25.8625,12.91875 26.5,15.25625 26.5,18.3375 L26.5,24.5 Z" id="Shape"></path>
                    </g>
                </g>
            </g>
        </g>
    </g>
</svg>