<?xml version="1.0" encoding="UTF-8"?>
<svg width="34px" height="34px" viewBox="0 0 34 34" version="1.1" xmlns="http://www.w3.org/2000/svg">
    <title>Mastodon@2x</title>
    <g id="FINAL-PAYMENT-PROFILE" stroke="none" stroke-width="1" fill="none" fill-rule="evenodd">
        <g id="FIO---My-Profile---Socials" transform="translate(-451, -828)">
            <g id="Competitive-Edge" transform="translate(126, 577)">
                <g id="Group-2-Copy-9" transform="translate(305, 231)">
                    <g id="Mastodon" transform="translate(20, 20)">
                        <circle id="Oval-Copy-3" fill="#FFFFFF" cx="17" cy="17" r="17"/>
                        <g id="Font_Awesome_5_brands_mastodon" transform="translate(8, 8)" fill="#765CD6" fill-rule="nonzero">
                            <path d="M16.9993589,5.90982993 C16.9993589,2.00509787 14.4080002,0.860191884 14.4080002,0.860191884 C11.8654584,-0.292748534 5.11246714,-0.280696892 2.59433366,0.860191884 C2.59433366,0.860191884 0.00297498529,2.00509787 0.00297498529,5.90982993 C0.00297498529,10.5577465 -0.265517437,16.330483 4.29885374,17.5235955 C5.94642087,17.9534374 7.36210819,18.0458333 8.50116695,17.9815579 C10.567745,17.8690759 11.7271441,17.2544422 11.7271441,17.2544422 L11.6579869,15.7720902 C11.6579869,15.7720902 10.1812786,16.2300526 8.52150729,16.1778288 C6.87800822,16.1215878 5.14501167,16.0010714 4.87651925,14.0085333 C4.85211085,13.8317759 4.83990665,13.646984 4.83990665,13.4501406 C8.322172,14.2897383 11.2918609,13.815707 12.1095424,13.7192939 C14.391728,13.4501406 16.3810127,12.0601845 16.6332329,10.7907449 C17.0319035,8.79017234 16.9993589,5.90982993 16.9993589,5.90982993 Z M13.9442406,10.9393818 L12.0485214,10.9393818 L12.0485214,6.35172346 C12.0485214,4.35516812 9.4449585,4.27884105 9.4449585,6.62891123 L9.4449585,9.13966996 L7.56144347,9.13966996 L7.56144347,6.62891123 C7.56144347,4.27884105 4.95788059,4.35516812 4.95788059,6.35172346 L4.95788059,10.9393818 L3.0580933,10.9393818 C3.0580933,6.03436356 2.84655381,4.99792235 3.80661763,3.90925729 C4.86024698,2.74828245 7.0529351,2.67195538 8.02927118,4.15430742 L8.50116695,4.93766415 L8.97306272,4.15430742 C9.95346687,2.66392096 12.1502231,2.75631688 13.1957163,3.90925729 C14.1598482,5.00595678 13.9442406,6.03838077 13.9442406,10.9393818 Z" id="path2"/>
                        </g>
                    </g>
                </g>
            </g>
        </g>
    </g>
</svg>
