<?xml version="1.0" encoding="UTF-8"?>
<svg width="34px" height="34px" viewBox="0 0 34 34" version="1.1" xmlns="http://www.w3.org/2000/svg" xmlns:xlink="http://www.w3.org/1999/xlink">
    <title>Nostr@2x</title>
    <g id="FINAL-PAYMENT-PROFILE" stroke="none" stroke-width="1" fill="none" fill-rule="evenodd">
        <g id="FIO---My-Profile---Socials" transform="translate(-755, -828)">
            <g id="Competitive-Edge" transform="translate(126, 577)">
                <g id="Group-2-Copy-10" transform="translate(610, 231)">
                    <g id="Nostr" transform="translate(19, 20)">
                        <circle id="Oval-Copy-3" fill="#FFFFFF" cx="17" cy="17" r="17"></circle>
                        <g id="Vector" transform="translate(8, 7)" fill="#765CD6" fill-rule="nonzero">
                            <path d="M16.9848829,4.59146346 C16.9393108,4.1421934 16.792467,3.73631875 16.5089067,3.3814975 C16.2582596,3.06751899 15.9367225,2.84288396 15.6329079,2.59016955 C15.4810006,2.46508868 15.0784462,2.12558347 15.0278104,1.93413316 C14.9670475,1.70184011 15.0607237,1.46444173 15.2708621,1.38786161 C15.5873357,1.28064943 16.1164795,1.2832021 16.4228259,1.30362347 C16.6836001,1.32404484 16.9519697,1.23214486 16.9620969,1.12493268 C16.972224,1.01772051 16.8177849,0.85945492 16.61271,0.810954175 C16.4506756,0.772664113 16.2025603,0.713952684 16.0531848,0.614398523 C15.787347,0.433158896 15.5164456,0.101311436 15.1468045,0.0272839828 C14.6201925,-0.0773755201 14.2530832,0.121732803 14.0809215,0.578661132 C13.8074884,1.23214486 13.9847136,2.06942471 14.5594296,2.6820657 C14.817672,2.95775415 15.1189548,3.19515253 15.4075787,3.4427616 C15.6202489,3.6265539 15.8076013,3.82821489 15.9873583,4.05284993 C16.4683981,4.65783291 15.9595086,5.76824471 15.8379828,5.89587825 C15.4126423,6.34004297 15.0430012,6.42172843 14.3087825,6.39109638 C13.5872228,6.36046433 11.7161678,5.38534408 10.7262385,5.35471204 C8.2754672,5.27813191 6.57410533,6.41917576 5.99938934,6.71528557 C5.13858125,7.15945029 3.91319561,7.18752967 3.87521879,7.20029303 C3.3207571,7.24368843 2.17132512,7.28708383 1.60167271,7.48619216 C0.799098288,7.71082719 0.366162454,8.08096445 0.0724749876,8.90802979 C-0.0186693985,9.26540371 -0.0363915382,9.5895929 0.0927296754,9.78614855 C0.373757819,10.2149972 1.13076258,10.5723712 1.47508329,10.7689268 C1.65230848,10.8710336 2.00169529,10.7434001 2.07005358,10.6948994 C2.45488544,10.4319743 2.7941451,10.2252079 3.24986703,10.1588385 C3.34607499,10.1435225 3.98914927,10.0286523 4.3132182,10.2686033 C4.54867453,10.4421849 4.75121761,10.5468445 5.0170554,10.6693726 C5.50315879,10.891455 6.57410533,11.1722488 6.59435964,11.1773541 C6.73867158,11.2156442 6.92349214,11.2896717 6.92349214,11.4198579 C6.92349214,11.6036502 5.22213027,13.0382767 5.1284541,13.0740141 C4.70058184,13.2501484 4.45246657,13.5334948 4.37398112,13.9419221 C4.34866324,14.074661 4.2904321,14.2125053 4.21701023,14.3222701 C3.94104529,14.7255921 2.71819144,16.4767243 2.39412251,16.9566264 C2.23968341,17.1812614 2.08018074,17.2935789 1.85991514,17.3293163 C1.54344158,17.3803697 1.30545346,17.3880277 1.1712712,17.6152154 C1.08772218,17.7607177 1.14088974,18.0440641 1.19658908,18.2278564 C1.2598838,18.4371754 1.08772218,18.6975479 1.07506323,18.7281799 C0.923155925,19.0268424 0.859861212,19.3127415 0.882647309,19.6011933 C0.890242674,19.7186162 0.89783804,19.991752 1.09025397,19.99941 C1.28266736,20.0096206 1.33330313,19.8845398 1.35608923,19.8385917 C1.3839389,19.7824329 1.49027402,19.5501399 1.52065548,19.4939811 C1.64471312,19.2616881 2.11815757,18.7613646 2.17132512,18.7026532 C2.34095495,18.5137556 4.87274346,14.9987279 4.87274346,14.9987279 C5.01199182,14.8149356 5.15630377,14.6260379 5.3917601,14.5341418 C5.71836082,14.4065082 5.93609463,14.1435831 5.99938934,13.7964199 C6.01458007,13.7198398 7.02476368,12.9387225 7.45516773,12.6094025 C7.61213862,12.4894269 8.56409109,12.1039736 8.57928183,12.109079 C8.57928183,12.116737 7.70834658,13.439046 7.43744521,14.1410305 C7.39440481,14.253348 7.32351473,14.6362486 7.40200017,14.8302516 C7.52352602,15.1289141 7.78430024,15.2591003 8.08051949,15.1697568 C8.17166388,15.1416774 8.25268111,15.0957293 8.33116655,15.0523339 C8.36661159,15.0319126 8.40205663,15.0140439 8.43750167,14.9961752 C8.47294671,14.9783065 8.50585996,14.9604378 8.541305,14.9425691 C8.62232223,14.8991737 8.70080767,14.858331 8.77929312,14.8328043 C9.07044879,14.7358028 9.36413626,14.6439066 9.65782373,14.5520105 L10.252794,14.3656655 C10.6680073,14.2354793 11.0832207,14.1052931 11.498434,13.9776595 C11.5895784,13.9495802 11.678191,13.9163954 11.7921214,13.9189481 C11.8554161,13.9189481 11.9237744,13.9444748 11.9465605,14.0389236 C11.9465605,14.044029 11.9946645,14.3299281 12.1693579,14.4447983 C12.2579705,14.5035097 12.4478547,14.5494578 12.5896348,14.5443525 C12.7137557,14.5392471 12.8707266,14.5749845 12.9517439,14.6464593 L13.0555472,14.7358028 C13.1315008,14.7996195 13.225177,14.8353569 13.2884717,14.8532256 C13.3542982,14.8710943 13.4758241,14.8710943 13.5467142,14.7970669 C13.6226678,14.7153814 13.5948181,14.5826425 13.584691,14.5417998 C13.5695003,14.485641 13.5391188,14.4422456 13.5163327,14.4039556 L13.453038,14.3044014 C13.3922751,14.2073999 13.3340439,14.1103984 13.2707492,14.0133969 C13.0960558,13.7453665 12.9238942,13.4798887 12.746669,13.214411 C12.5617851,12.9387225 12.275693,12.8289577 11.9009883,12.8876691 C11.7566764,12.9106431 8.58940898,13.9010794 8.56662288,13.9061848 C8.73625271,13.5922062 9.7514999,12.1780011 10.0350602,11.9993141 C10.2451987,11.8742333 10.3338113,11.7542577 10.7161113,11.6878883 C11.4629889,11.5602548 13.0833969,11.1824595 13.4859512,10.8889023 C14.2682739,10.3171041 14.3315686,9.01779464 14.3189097,8.75742222 C14.3037189,8.49704979 14.3872679,8.31836284 14.6125971,8.19838731 C14.7239958,8.13967588 15.9291271,7.46832346 16.5190339,6.47788719 C16.8734843,5.89843092 17.055773,5.27813191 16.9848829,4.59146346 Z" id="Path"></path>
                        </g>
                    </g>
                </g>
            </g>
        </g>
    </g>
</svg>