<?xml version="1.0" encoding="UTF-8"?>
<svg width="34px" height="34px" viewBox="0 0 34 34" version="1.1" xmlns="http://www.w3.org/2000/svg" xmlns:xlink="http://www.w3.org/1999/xlink">
    <title>reddit@2x</title>
    <g id="FINAL-PAYMENT-PROFILE" stroke="none" stroke-width="1" fill="none" fill-rule="evenodd">
        <g id="FIO---My-Profile---Socials" transform="translate(-1061, -828)" fill="#FFFFFF" fill-rule="nonzero">
            <g id="Competitive-Edge" transform="translate(126, 577)">
                <g id="Group-2-Copy-5" transform="translate(915, 231)">
                    <g id="reddit" transform="translate(20, 20)">
                        <path d="M20.5597382,22.8004303 C19.7981415,23.562027 18.1662598,23.8338775 17.0033722,23.8338775 C15.8371124,23.8338775 14.2086029,23.562027 13.4470062,22.8004303 C13.2667236,22.6201477 12.9777527,22.6201477 12.7977295,22.8004303 C12.6174469,22.9807129 12.6174469,23.2696838 12.7977295,23.449707 C14.0047149,24.6566925 16.3234863,24.7518921 17.0033722,24.7518921 C17.683258,24.7518921 19.9986572,24.6566925 21.2092743,23.449707 C21.3859253,23.2694244 21.3859253,22.9804535 21.2092743,22.8004303 C21.0289917,22.6201477 20.7400207,22.6201477 20.5597382,22.8004303 L20.5597382,22.8004303 Z" id="Path"></path>
                        <path d="M14.875,18.7714386 C14.875,17.795578 14.079422,17 13.1035614,17 C12.1279602,17 11.3321228,17.795578 11.3321228,18.7714386 C11.3321228,19.7470398 12.1279602,20.5428772 13.1035614,20.5428772 C14.079422,20.5428772 14.875,19.7472992 14.875,18.7714386 L14.875,18.7714386 Z" id="Path"></path>
                        <path d="M17,0 C7.61259462,0 0,7.61259462 0,17 C0,26.3874054 7.61259462,34 17,34 C26.3874054,34 34,26.3874054 34,17 C34,7.61259462 26.3874054,0 17,0 Z M26.8634033,19.2676697 C26.9007568,19.5125428 26.9212494,19.760788 26.9212494,20.0124054 C26.9212494,23.8271332 22.4808502,26.9178772 17.0033722,26.9178772 C11.5258941,26.9178772 7.08549501,23.8271332 7.08549501,20.0124054 C7.08549501,19.7574158 7.10598752,19.5057983 7.14334103,19.2609253 C6.2798004,18.8733826 5.67799376,18.0064697 5.67799376,17 C5.67799376,15.6332245 6.78640744,14.5214386 8.15655518,14.5214386 C8.82295225,14.5214386 9.42475889,14.7831726 9.87014767,15.2117004 C11.5904846,13.9707336 13.9707336,13.1782684 16.6192017,13.1103058 C16.6192017,13.0763244 17.8567963,7.18069455 17.8567963,7.18069455 C17.880661,7.06526182 17.9486236,6.96643066 18.0471954,6.90209961 C18.1457672,6.83750917 18.2648315,6.8170166 18.3805236,6.84088135 L22.5013428,7.71791075 C22.7903137,7.1332245 23.3851166,6.72856142 24.0821228,6.72856142 C25.0613556,6.72856142 25.8535614,7.5207672 25.8535614,8.5 C25.8535614,9.4792328 25.0613556,10.2714386 24.0821228,10.2714386 C23.1334991,10.2714386 22.3651581,9.52333067 22.3210602,8.58508301 L18.6318817,7.79962158 L17.5032349,13.1139374 C20.1042328,13.2055054 22.4401245,13.994339 24.1332245,15.2184448 C24.5786133,14.7868042 25.1837921,14.5214386 25.8535614,14.5214386 C27.2239685,14.5214386 28.3321228,15.6298523 28.3321228,17 C28.3321228,18.0132141 27.7235718,18.880127 26.8634033,19.2676697 L26.8634033,19.2676697 Z" id="Shape"></path>
                        <path d="M20.8964386,17 C19.920578,17 19.125,17.795578 19.125,18.7714386 C19.125,19.7470398 19.920578,20.5428772 20.8964386,20.5428772 C21.8720398,20.5428772 22.6678772,19.7470398 22.6678772,18.7714386 C22.6678772,17.795578 21.8722992,17 20.8964386,17 L20.8964386,17 Z" id="Path"></path>
                    </g>
                </g>
            </g>
        </g>
    </g>
</svg>