<?xml version="1.0" encoding="UTF-8"?>
<svg width="34px" height="34px" viewBox="0 0 34 34" version="1.1" xmlns="http://www.w3.org/2000/svg" xmlns:xlink="http://www.w3.org/1999/xlink">
    <title>telegram</title>
    <g id="FINAL-PAYMENT-PROFILE" stroke="none" stroke-width="1" fill="none" fill-rule="evenodd">
        <g id="FIO---My-Profile---Socials" transform="translate(-452, -961)" fill-rule="nonzero">
            <g id="Competitive-Edge" transform="translate(126, 577)">
                <g id="Group-2-Copy-6" transform="translate(306, 364)">
                    <g id="telegram" transform="translate(20, 20)">
                        <circle id="Oval" fill="#FFFFFF" cx="17" cy="17" r="17"></circle>
                        <path d="M7.84438387,16.7130352 L24.266713,10.3987094 C25.0289248,10.1241119 25.6946182,10.5841334 25.4476445,11.7334795 L25.4490639,11.732064 L22.6528679,24.8688625 C22.4456371,25.8002291 21.890656,26.0267013 21.1142503,25.5879115 L16.8560837,22.4583499 L14.8022281,24.4314883 C14.5751258,24.6579604 14.3835083,24.8490462 13.9434978,24.8490462 L14.2458276,20.527675 L22.1376297,13.4178659 C22.4811218,13.1163748 22.0609827,12.9465208 21.6081977,13.2465963 L11.8555768,19.3698363 L7.65134698,18.0619598 C6.73867994,17.7732079 6.7188085,17.151825 7.84438387,16.7130352 Z" id="Path" fill="#765CD6"></path>
                    </g>
                </g>
            </g>
        </g>
    </g>
</svg>