<?xml version="1.0" encoding="UTF-8"?>
<svg width="34px" height="34px" viewBox="0 0 34 34" version="1.1" xmlns="http://www.w3.org/2000/svg" xmlns:xlink="http://www.w3.org/1999/xlink">
    <title>social-1_round-twitter@2x</title>
    <g id="FINAL-PAYMENT-PROFILE" stroke="none" stroke-width="1" fill="none" fill-rule="evenodd">
        <g id="FIO---My-Profile---Socials" transform="translate(-147, -961)" fill="#FFFFFF" fill-rule="nonzero">
            <g id="Competitive-Edge" transform="translate(126, 577)">
                <g id="Group-2" transform="translate(1, 364)">
                    <g id="social-1_round-twitter" transform="translate(20, 20)">
                        <path d="M17,0 C7.65,0 0,7.65 0,17 C0,26.35 7.65,34 17,34 C26.35,34 34,26.35 34,17 C34,7.65 26.35,0 17,0 Z M23.8,13.49375 C23.8,13.6 23.8,13.8125 23.8,13.91875 C23.8,18.4875 20.29375,23.8 13.91875,23.8 C11.9,23.8 10.09375,23.26875 8.60625,22.20625 C8.925,22.20625 9.1375,22.20625 9.45625,22.20625 C11.05,22.20625 12.64375,21.675 13.8125,20.71875 C12.325,20.71875 11.05,19.65625 10.51875,18.275 C10.73125,18.275 10.94375,18.38125 11.15625,18.38125 C11.475,18.38125 11.79375,18.38125 12.1125,18.275 C10.51875,17.95625 9.35,16.575 9.35,14.875 C9.35,14.875 9.35,14.875 9.35,14.875 C9.775,15.0875 10.30625,15.3 10.94375,15.3 C9.9875,14.6625 9.35,13.6 9.35,12.43125 C9.35,11.79375 9.5625,11.15625 9.775,10.625 C11.475,12.75 14.025,14.13125 17,14.2375 C16.89375,14.025 16.89375,13.70625 16.89375,13.49375 C16.89375,11.58125 18.4875,9.9875 20.4,9.9875 C21.35625,9.9875 22.3125,10.4125 22.95,11.05 C23.69375,10.94375 24.54375,10.625 25.18125,10.2 C24.96875,11.05 24.33125,11.6875 23.69375,12.1125 C24.4375,12.00625 25.075,11.79375 25.7125,11.58125 C25.075,12.43125 24.4375,13.06875 23.8,13.49375 Z" id="Shape"></path>
                    </g>
                </g>
            </g>
        </g>
    </g>
</svg>