<?xml version="1.0" encoding="UTF-8"?>
<svg width="34px" height="34px" viewBox="0 0 34 34" version="1.1" xmlns="http://www.w3.org/2000/svg" xmlns:xlink="http://www.w3.org/1999/xlink">
    <title>whatsapp@2x</title>
    <g id="FINAL-PAYMENT-PROFILE" stroke="none" stroke-width="1" fill="none" fill-rule="evenodd">
        <g id="FIO---My-Profile---Socials" transform="translate(-757, -961)" fill="#FFFFFF" fill-rule="nonzero">
            <g id="Competitive-Edge" transform="translate(126, 577)">
                <g id="Group-2-Copy-7" transform="translate(611, 364)">
                    <g id="whatsapp" transform="translate(20, 20)">
                        <path d="M21.6973684,12.3026316 L21.6638158,12.2690789 C19.3671393,9.98463714 15.7521719,9.70432107 13.1307816,11.6074003 C10.5093914,13.5104796 9.65630981,17.034514 11.1171053,19.9257895 L11.4078947,20.4984211 L10.8643421,23.1334211 L10.8643421,23.1669737 L13.4747368,22.5473684 L14.0697368,22.8426316 C16.6090457,24.1030411 19.669457,23.6025738 21.675,21.5989474 C24.2308343,19.0307652 24.2408143,14.8830834 21.6973684,12.3026316 L21.6973684,12.3026316 Z M21.4334211,19.6842105 C21.1135526,20.1875 20.6057895,20.8026316 19.9727632,20.9569737 C18.8543421,21.2276316 17.1521053,20.9569737 15.0203947,18.9863158 L14.9935526,18.9617105 C13.1392105,17.2303947 12.6471053,15.7876316 12.7567105,14.6446053 C12.8215789,13.9959211 13.3628947,13.4098684 13.8192105,13.0251316 C13.9659755,12.9001251 14.1634507,12.8523836 14.3511123,12.8965393 C14.5387738,12.9406949 14.6942423,13.071482 14.7698684,13.2488158 L15.4565789,14.8146053 C15.5479305,15.0182267 15.5195454,15.2556291 15.3827632,15.4319737 L15.0338158,15.8793421 C14.8854616,16.0692933 14.8668915,16.3301596 14.9868421,16.5392105 C15.3184645,17.0269573 15.7150576,17.4671982 16.1656579,17.8477632 C16.6494421,18.3159243 17.1996678,18.7101271 17.7985526,19.0176316 C18.0216986,19.1082248 18.2775014,19.0542318 18.445,18.8811842 L18.8453947,18.4763158 C18.9978692,18.3015647 19.2364299,18.2286953 19.4605263,18.2884211 L21.0934211,18.7581579 C21.277449,18.8120193 21.4254918,18.9491916 21.4932044,19.128586 C21.560917,19.3079805 21.5404354,19.5087624 21.4378947,19.6707895 L21.4334211,19.6842105 Z" id="Shape"></path>
                        <path d="M17,0 C7.61115925,0 0,7.61115925 0,17 C0,26.3888407 7.61115925,34 17,34 C26.3888407,34 34,26.3888407 34,17 C34,7.61115925 26.3888407,0 17,0 L17,0 Z M25.4261842,17.1990789 C25.3328664,20.068048 23.78696,22.6926441 21.3230269,24.1653033 C18.8590938,25.6379626 15.8153669,25.7565277 13.2443421,24.48 L8.99434211,25.4910526 C8.86285815,25.5212124 8.72629171,25.4680047 8.64986842,25.3568421 C8.59825919,25.2834324 8.5796127,25.1918214 8.59842105,25.1040789 L9.49315789,20.7601316 C7.8906817,17.620209 8.41039814,13.8148322 10.7961489,11.2195987 C13.1818997,8.62436521 16.930201,7.78696756 20.1935868,9.12014305 C23.4569726,10.4533185 25.5467448,13.6757166 25.4328947,17.1990789 L25.4261842,17.1990789 Z" id="Shape"></path>
                    </g>
                </g>
            </g>
        </g>
    </g>
</svg>