<svg width="34" height="34" viewBox="0 0 34 34" fill="none" xmlns="http://www.w3.org/2000/svg">
    <g>
        <path d="M14.6422 19.7424L19.3575 17.0067L14.6422 14.2576V19.7424Z" fill="white"/>
        <path d="M17 0C13.6377 0 10.3509 0.997033 7.55531 2.86502C4.75968 4.733 2.58075 7.38804 1.29406 10.4944C0.00736579 13.6007 -0.329291 17.0189 0.326658 20.3165C0.982607 23.6142 2.6017 26.6433 4.97919 29.0208C7.35669 31.3983 10.3858 33.0174 13.6835 33.6734C16.9811 34.3293 20.3993 33.9926 23.5056 32.706C26.612 31.4193 29.267 29.2403 31.135 26.4447C33.003 23.6491 34 20.3623 34 17C34 12.4913 32.2089 8.1673 29.0208 4.97918C25.8327 1.79107 21.5087 0 17 0ZM25.9474 20.0086C25.9477 20.4532 25.8603 20.8935 25.6904 21.3044C25.5205 21.7152 25.2712 22.0886 24.9569 22.4031C24.6426 22.7176 24.2694 22.9671 23.8587 23.1373C23.4479 23.3075 23.0077 23.3951 22.563 23.3951H11.437C10.9924 23.3951 10.5521 23.3075 10.1413 23.1373C9.73058 22.9671 9.35739 22.7176 9.0431 22.4031C8.7288 22.0886 8.47956 21.7152 8.30961 21.3044C8.13967 20.8935 8.05235 20.4532 8.05264 20.0086V13.9914C8.05235 13.5468 8.13967 13.1065 8.30961 12.6956C8.47956 12.2848 8.7288 11.9114 9.0431 11.5969C9.35739 11.2824 9.73058 11.0329 10.1413 10.8627C10.5521 10.6925 10.9924 10.6049 11.437 10.6049H22.563C23.0077 10.6049 23.4479 10.6925 23.8587 10.8627C24.2694 11.0329 24.6426 11.2824 24.9569 11.5969C25.2712 11.9114 25.5205 12.2848 25.6904 12.6956C25.8603 13.1065 25.9477 13.5468 25.9474 13.9914V20.0086Z"
              fill="white"/>
    </g>
</svg>
