<?xml version="1.0" encoding="UTF-8"?>
<svg width="48px" height="48px" viewBox="0 0 48 48" version="1.1" xmlns="http://www.w3.org/2000/svg" xmlns:xlink="http://www.w3.org/1999/xlink">
    <title>coin/bitcoin@1.5x</title>
    <g id="Symbols" stroke="none" stroke-width="1" fill="none" fill-rule="evenodd">
        <g id="coin/bitcoin" fill="#FFFFF9">
            <path d="M32.5443354,27.0457253 L32.5525939,27.0613246 L32.5544291,27.0640774 C32.5580995,27.0833472 32.5626876,27.0980289 32.5654404,27.1172986 L32.5672756,27.1200514 L32.5681932,27.1228043 L32.5700284,27.1255571 L32.5718636,27.1283099 C32.7030815,27.7825639 32.6085679,28.4606756 32.3048399,29.0552851 L32.2754765,29.109424 L32.2607948,29.1341994 L32.2507011,29.1534691 L32.2451955,29.1626452 L32.2360194,29.1782445 L32.2305137,29.1874206 L32.2213377,29.2030199 L32.2167496,29.212196 L32.2039031,29.2287129 L32.1993151,29.2388066 L32.1873862,29.2553235 L32.1818806,29.2644996 L32.1708693,29.2810165 L32.1653636,29.2901926 L32.1534347,29.3067095 L32.1479291,29.3168032 L32.1369178,29.3333201 L32.1314122,29.3424962 L32.1194833,29.3590131 L32.1148952,29.3681892 L32.1029663,29.3856237 L32.0974607,29.3947998 L32.0855318,29.4113167 L32.0809438,29.4204928 L32.0680973,29.4370097 L32.0635092,29.4471034 L32.0488275,29.464538 L32.0442395,29.473714 L32.0295578,29.4929838 L32.0240521,29.5012423 L32.0112056,29.5223472 L32.0066176,29.5315233 L31.9928535,29.5526283 L31.9882654,29.5618043 L31.9745013,29.5829093 L31.9671605,29.5939206 L31.9533964,29.6150256 L31.9460555,29.6269544 L31.9304562,29.6480594 L31.9221977,29.6599883 L31.9065984,29.6820109 L31.8983399,29.6930222 L31.8827406,29.7159624 L31.8744821,29.7269736 L31.8588828,29.7489962 L31.8506243,29.7600075 L31.835025,29.7820301 L31.8212609,29.7967118 L31.7964855,29.8269928 C31.0541412,30.7748811 29.8575814,31.5548473 28.4031739,31.9273958 C27.4864843,32.1650561 24.716228,32.8890482 24.0417866,33.0615584 L22.1561037,25.7225356 C22.8287099,25.5481902 25.606307,24.8508087 26.5229966,24.614066 C27.9774041,24.2405999 29.4042834,24.3461247 30.5081649,24.8168572 L30.5439516,24.8324566 L30.5623038,24.840715 L30.5889144,24.8508087 L30.6008433,24.8544791 L30.6247011,24.866408 L30.6366299,24.8691609 L30.6604877,24.8810898 L30.6733342,24.8847602 L30.697192,24.8966891 L30.7063681,24.9012771 L30.7293083,24.913206 L30.739402,24.9187116 L30.7632597,24.9297229 L30.7724358,24.9352286 L30.7962936,24.9462399 L30.8054697,24.9517455 L30.8247394,24.9618392 L30.8339155,24.9673448 L30.8541029,24.9774385 L30.8623613,24.9820265 L30.8825487,24.9930378 L30.8917248,24.9985435 L30.9109945,25.0086372 L30.9201706,25.0132252 L30.9394403,25.0233189 L30.949534,25.0288245 L30.9688038,25.0389182 L30.9779798,25.0444238 L30.9972496,25.0545175 L31.0064257,25.0600232 L31.026613,25.0701168 L31.0348715,25.0756225 L31.0550589,25.0857162 L31.0642349,25.0912218 L31.0807519,25.1022331 L31.0899279,25.1077387 L31.1073625,25.1196676 L31.1165385,25.1251733 L31.1330555,25.1361846 L31.1422315,25.1416902 L31.1587485,25.1536191 L31.1679245,25.1582071 L31.1853591,25.1710536 L31.1945352,25.1756417 L31.2101345,25.1848178 L31.2193106,25.1903234 L31.2358275,25.2022523 L31.2578501,25.2178516 C31.2752846,25.2297805 31.2945543,25.2398742 31.3110713,25.2518031 C31.8671413,25.6261868 32.2791469,26.1785864 32.4810205,26.817241 L32.4865262,26.8282523 C32.4920318,26.8456869 32.4966198,26.8603686 32.5030431,26.8778031 L32.5048783,26.8805559 L32.5131368,26.8961553 C32.51956,26.9209307 32.5250657,26.9457061 32.5333241,26.9723167 C32.5470882,26.9787399 32.5489235,27.0081034 32.5443354,27.0457253 Z M19.5556048,15.6123389 C20.1226861,15.4664394 22.4671726,14.8782531 23.2397979,14.6772971 C24.468474,14.3625578 25.678798,14.4845996 26.6248511,14.9397328 L26.6569673,14.9534969 L26.6707314,14.9599202 L26.6900012,14.9700138 L26.6991772,14.9755195 L26.718447,14.9856132 L26.7285407,14.9911188 L26.7478104,15.0012125 L26.7569865,15.0067181 L26.7762562,15.0168118 L26.7854323,15.0213999 L26.8056197,15.0324111 L26.8147958,15.0379168 L26.8340655,15.0480105 L26.8432416,15.0525985 L26.8625113,15.0626922 L26.8716874,15.0681978 L26.8909572,15.0782915 L26.9010508,15.0837971 L26.9203206,15.0938908 L26.9294967,15.0993965 L26.9460136,15.1113254 L26.9551897,15.116831 L26.9717066,15.1278423 L26.9818003,15.1333479 L26.9983172,15.1452768 L27.0074933,15.1498649 L27.0230926,15.1590409 L27.0322687,15.1645466 L27.047868,15.1737227 L27.0570441,15.1792283 L27.0726434,15.1884044 L27.0818195,15.1929924 L27.0965012,15.2030861 L27.1065949,15.2076741 L27.1212766,15.2168502 L27.1286174,15.2241911 L27.1442168,15.2333671 L27.1497224,15.2370376 L27.1653217,15.2462136 L27.1708274,15.2508017 L27.1864267,15.2599777 L27.1919323,15.2636482 L27.2075317,15.2728242 L27.2121197,15.2764947 L27.2249662,15.287506 L27.2304718,15.2911764 L27.2460712,15.3003525 L27.2671761,15.313199 C27.2827754,15.3232926 27.2965396,15.3361391 27.3112213,15.3453152 C27.7957179,15.7105229 28.1517495,16.2197949 28.3279301,16.7997227 L28.3316005,16.8079812 C28.3361886,16.8226629 28.3426118,16.8400974 28.3471999,16.8556967 L28.3481175,16.8584496 L28.3572935,16.8749665 C28.3627992,16.8988243 28.3710576,16.9190116 28.3765633,16.943787 C28.3839041,16.9685624 28.3884922,16.9933378 28.3903274,17.0199484 L28.3985859,17.0355478 L28.4004211,17.0383006 C28.4031739,17.0548175 28.4068443,17.0713344 28.4132676,17.0869338 L28.416938,17.0951922 C28.5417326,17.6879665 28.4756649,18.3055162 28.2279109,18.859751 L28.2058883,18.9093018 L28.1948771,18.9331596 L28.185701,18.9478413 L28.1829482,18.9570173 L28.1765249,18.9707815 L28.1737721,18.9781223 L28.164596,18.9946392 L28.1618432,19.0019801 L28.1526671,19.0175794 L28.1499143,19.0258379 L28.1407382,19.0414372 L28.1379854,19.0487781 L28.1288093,19.0643774 L28.1269741,19.0726359 L28.1168804,19.0882352 L28.1141276,19.0964936 L28.1058692,19.112093 L28.1003635,19.121269 L28.0902698,19.1368684 L28.0856818,19.1460444 L28.0765057,19.1616438 L28.0710001,19.1708198 L28.061824,19.1864192 L28.0563184,19.1955952 L28.0453071,19.2121122 L28.0398014,19.2212882 L28.0278725,19.2378052 L28.0223669,19.2469812 L28.0113556,19.2644158 L28.00585,19.2735918 L27.9939211,19.2901088 L27.989333,19.2992848 L27.9764865,19.3167194 L27.9718985,19.3249779 L27.9599696,19.3424124 L27.9553816,19.3515885 L27.9425351,19.3681054 L27.937947,19.3781991 L27.9260181,19.394716 L27.9205125,19.4038921 L27.9067484,19.4213266 L27.9012427,19.4314203 L27.886561,19.4497724 L27.8810554,19.4580309 L27.8672913,19.476383 L27.8617856,19.4864767 L27.8471039,19.5039113 L27.8370102,19.5167578 L27.8177405,19.5452036 C27.206614,20.4013312 26.2045869,21.093207 24.9759108,21.4070287 C24.2014503,21.6052319 21.863387,22.2191111 21.2972234,22.3640931 L19.5556048,15.6123389 Z M39.0804519,25.5885649 L39.0630173,25.5555311 L39.0593469,25.550943 C39.0492532,25.5179092 39.0409948,25.4839577 39.0290659,25.4490886 L39.0272306,25.4463358 L39.026313,25.443583 L39.0244778,25.4408302 L39.0235602,25.438995 L39.021725,25.4362421 L39.0208074,25.4325717 L39.017137,25.4270661 C38.6510117,24.2020604 37.9242667,23.1146958 36.9323333,22.3072014 L36.9304981,22.3044486 C36.9020523,22.282426 36.8708536,22.256733 36.8414902,22.2347104 L36.8011155,22.205347 L36.7708344,22.1824068 L36.7589055,22.1713955 L36.7304597,22.1521258 L36.7176132,22.1420321 L36.690085,22.1218448 L36.6772385,22.1117511 L36.647875,22.0897285 L36.6331933,22.0796348 L36.6038299,22.0576122 L36.5882306,22.0484362 L36.5570319,22.0273312 L36.540515,22.0181551 L36.5221629,21.9906269 L36.5056459,21.978698 L36.4735297,21.9575931 L36.4570127,21.9456642 L36.4248965,21.9245592 L36.4083796,21.9126303 L36.3771809,21.8915253 L36.360664,21.880514 L36.3267125,21.8566563 L36.3101956,21.8447274 L36.2734913,21.8227048 L36.2569744,21.8107759 L36.2211877,21.7887533 L36.2046707,21.7768244 L36.1679665,21.7538842 L36.1514495,21.742873 L36.1156628,21.7199328 L36.0963931,21.7098391 L36.0596888,21.6878165 L36.040419,21.6777228 L36.0018795,21.6566179 L35.9816922,21.6465242 L35.9413175,21.6226664 L35.9220477,21.6134903 L35.881673,21.5896325 L35.8624032,21.5786213 L35.8220285,21.5556811 L35.8009236,21.5428346 L35.7605488,21.5198944 L35.7394439,21.5061303 L35.6972339,21.4841077 L35.676129,21.4712612 L35.6330014,21.4492386 L35.603638,21.4336393 L35.6027204,21.4308865 C35.5816154,21.41804 35.5595928,21.4088639 35.5384879,21.3960174 C34.645656,20.9372138 33.6821684,20.6325682 32.6874822,20.4949271 C32.9664348,20.1957871 33.2215296,19.8746246 33.4509314,19.5360275 L33.4876357,19.4818887 L33.4903885,19.4800535 L33.507823,19.4534429 L33.5298456,19.4176562 L33.5417745,19.4002216 L33.5637971,19.364435 L33.575726,19.347918 L33.5977485,19.3112137 L33.6096774,19.2946968 L33.6317,19.2589101 L33.6436289,19.2423932 L33.6656515,19.2056889 L33.6775804,19.189172 L33.6968501,19.1543029 L33.708779,19.137786 L33.7280488,19.1029169 L33.7372248,19.0873176 L33.7564946,19.0524485 L33.7665883,19.0368492 L33.785858,19.0019801 L33.7950341,18.9872984 L33.811551,18.9542645 L33.8216447,18.9386652 L33.8381616,18.9047137 L33.8473377,18.890032 L33.8638546,18.8560805 L33.8730307,18.8413988 L33.8913829,18.8102002 L33.9005589,18.7946009 L33.9198287,18.7643198 L33.9280872,18.7487205 L33.9446041,18.7202747 L33.9537802,18.7046754 L33.9693795,18.6753119 L33.9758027,18.6615478 L33.9923197,18.633102 L33.9978253,18.6184203 L34.0143422,18.5899744 L34.0207655,18.5762103 L34.0363648,18.5468469 L34.0427881,18.5330828 L34.0556346,18.504637 L34.0620578,18.4908729 L34.0749043,18.462427 L34.0813276,18.4486629 L34.0941741,18.4211347 L34.1005973,18.4073706 L34.1143614,18.3752543 L34.1336312,18.333962 C34.1483129,18.3018458 34.1593242,18.2715647 34.1740059,18.2394485 L34.1767587,18.2385309 C34.6043637,17.1832825 34.7043829,16.0252622 34.4639698,14.9122046 L34.4630522,14.9094518 L34.4593818,14.9048637 L34.4584641,14.9021109 L34.4566289,14.8993581 L34.4557113,14.8966053 L34.4538761,14.8938524 L34.4520409,14.8910996 L34.4511233,14.8883468 C34.4447,14.8571482 34.4382768,14.8259495 34.4291007,14.7956685 L34.4291007,14.7892452 L34.4272655,14.7864924 L34.4263479,14.7837396 L34.4245127,14.7809868 L34.4263479,14.7837396 L34.4135014,14.7589642 C34.4034077,14.7158366 34.3942316,14.6727091 34.3804675,14.6277463 C34.3712915,14.5846188 34.3575273,14.539656 34.3446808,14.4974461 L34.3290815,14.4680827 L34.3263287,14.462577 C34.3171526,14.432296 34.3079766,14.4029326 34.2988005,14.3726515 L34.2978829,14.3708163 L34.2960477,14.3680635 L34.2942124,14.3653107 L34.2932948,14.3625578 L34.2914596,14.359805 L34.2896244,14.3570522 L34.2887068,14.3542994 C33.9629562,13.2632644 33.3169607,12.2961063 32.4333049,11.5785374 L32.4323873,11.5757846 C32.4076119,11.5546797 32.3791661,11.5344923 32.3534731,11.5143049 L32.318604,11.4876943 L32.2910758,11.4665894 L32.2782293,11.4564957 L32.2543715,11.4381435 L32.241525,11.4271323 L32.2185848,11.4078625 L32.2057383,11.3977688 L32.1791277,11.3812519 L32.1662812,11.3702406 L32.138753,11.3509709 L32.1259065,11.3399596 L32.0983783,11.3206898 L32.0855318,11.3105961 L32.057086,11.2904088 L32.0424043,11.2812327 L32.0139584,11.2610453 L31.9983591,11.2518693 L31.9708309,11.2325995 L31.9552316,11.2234234 L31.9249505,11.2050713 L31.9093512,11.1958952 L31.8790702,11.1775431 L31.8634708,11.168367 L31.8331898,11.1500149 L31.8175905,11.1408388 L31.7863918,11.121569 L31.7717101,11.112393 L31.7395939,11.091288 L31.7239945,11.0830295 L31.6918783,11.0619246 L31.6771966,11.0518309 L31.6423275,11.0325611 L31.6267282,11.0233851 L31.5918591,11.0041153 L31.5753422,10.9921864 L31.5404731,10.9729167 L31.5239562,10.9609878 L31.4890871,10.941718 L31.4725702,10.9297891 L31.4358659,10.9077665 L31.4165961,10.8967553 L31.3798918,10.8747327 L31.3606221,10.864639 L31.3220826,10.843534 L31.3028128,10.8334404 L31.2633557,10.813253 L31.2358275,10.8004065 L31.2339923,10.7976537 L31.176183,10.766455 C29.4703511,9.88004643 27.304798,9.61302272 25.1254808,10.1727631 L24.5583995,10.3186627 L23.1214266,4.73869301 L19.7987707,5.59115014 L21.2247324,11.1536853 L18.5664242,11.8345499 L17.1358745,6.29036687 L13.8132186,7.142824 L15.2428507,12.7044415 L8.38924217,14.4680827 L9.30134378,18.0118819 L12.062424,17.3025715 C12.9763608,17.0667464 13.9077322,17.6173108 14.1435572,18.5312476 L14.1444748,18.534918 L17.9773203,33.447871 C18.1342312,34.0571623 17.7671883,34.6783824 17.1578971,34.8362108 L14.7381667,35.4583485 L14.8803959,39.6738362 L21.7248283,37.9147831 L23.1728126,43.466307 L26.4936332,42.6120146 L25.0630835,37.0467267 L27.7213917,36.3649445 L29.1519414,41.9293148 L32.4736797,41.0750225 L31.0385419,35.4886296 C31.6010352,35.3418124 32.0855318,35.2161002 32.4204584,35.1298451 C34.8768931,34.4976137 36.8625951,33.057888 38.0646606,31.2621306 L38.1050354,31.2024861 L38.1077882,31.2006509 L38.1270579,31.1731227 L38.1536685,31.1309127 L38.166515,31.1098078 L38.192208,31.0685154 L38.2050545,31.0474105 L38.2289123,31.0070358 L38.2417588,30.9859308 L38.264699,30.9455561 L38.2757103,30.9262863 L38.2986505,30.8859116 L38.3087442,30.8666418 L38.332602,30.8262671 L38.3426956,30.8069974 L38.362883,30.7684579 L38.3738943,30.7482705 L38.3940816,30.709731 L38.4041753,30.6904613 L38.4271155,30.653757 L38.4372092,30.6344872 L38.4592318,30.5987005 L38.470243,30.5794308 L38.4895128,30.5445617 L38.4996065,30.5252919 L38.5188762,30.4895053 L38.5289699,30.4702355 L38.5482397,30.4353664 L38.5564981,30.4179319 L38.5757679,30.3830628 L38.5840263,30.3647107 L38.6005433,30.3316768 L38.6097193,30.3160775 L38.6262363,30.2830436 L38.63633,30.2674443 L38.6528469,30.2344104 L38.662023,30.2188111 L38.6785399,30.1857773 L38.687716,30.1701779 L38.7042329,30.1371441 L38.7143266,30.1215448 L38.7308435,30.0885109 L38.7400196,30.0729116 L38.7547013,30.0417129 L38.7629598,30.0261136 L38.7776415,29.9939973 L38.7840647,29.9802332 L38.7987464,29.9444466 L38.8198514,29.8985662 C38.8354507,29.8627795 38.8519677,29.8297457 38.8648142,29.7948766 L38.8657318,29.7902885 C39.346558,28.60474 39.4594237,27.3008201 39.1905647,26.0501214 L39.1887295,26.0473686 L39.1878119,26.0446157 L39.1859767,26.0418629 L39.1841415,26.0391101 L39.1832239,26.0363573 L39.1813887,26.0336045 L39.1795534,26.0308516 L39.1786358,26.0280988 L39.1547781,25.9262444 L39.1547781,25.9189036 L39.1529428,25.9170683 L39.1520252,25.9143155 L39.15019,25.9115627 L39.1483548,25.9088099 L39.1474372,25.906057 L39.145602,25.9033042 L39.1446844,25.9005514 L39.1428492,25.8977986 L39.1410139,25.8950458 L39.1400963,25.8922929 L39.1382611,25.8895401 L39.1373435,25.8867873 L39.1355083,25.8840345 L39.1300027,25.8739408 C39.1171562,25.82439 39.1070625,25.7748392 39.0923808,25.7271236 C39.0896279,25.6977602 39.0822871,25.6454566 39.0804519,25.5885649 L39.0804519,25.5885649 Z" id="Fill-13" transform="translate(23.861219, 24.102500) rotate(28.000000) translate(-23.861219, -24.102500) "></path>
        </g>
    </g>
</svg>