<?xml version="1.0" encoding="UTF-8"?>
<svg width="406px" height="171px" viewBox="0 0 406 171" version="1.1" xmlns="http://www.w3.org/2000/svg" xmlns:xlink="http://www.w3.org/1999/xlink">
    <title>Control@1x</title>
    <defs>
        <rect id="path-1" x="0" y="0" width="90" height="45" rx="4"></rect>
        <filter x="-13.3%" y="-26.7%" width="126.7%" height="153.3%" filterUnits="objectBoundingBox" id="filter-2">
            <feMorphology radius="1.5" operator="dilate" in="SourceAlpha" result="shadowSpreadOuter1"></feMorphology>
            <feOffset dx="0" dy="0" in="shadowSpreadOuter1" result="shadowOffsetOuter1"></feOffset>
            <feGaussianBlur stdDeviation="2.5" in="shadowOffsetOuter1" result="shadowBlurOuter1"></feGaussianBlur>
            <feColorMatrix values="0 0 0 0 0   0 0 0 0 0   0 0 0 0 0  0 0 0 0.157740453 0" type="matrix" in="shadowBlurOuter1"></feColorMatrix>
        </filter>
        <rect id="path-3" x="0" y="0" width="90" height="45" rx="4"></rect>
        <filter x="-13.3%" y="-26.7%" width="126.7%" height="153.3%" filterUnits="objectBoundingBox" id="filter-4">
            <feMorphology radius="1.5" operator="dilate" in="SourceAlpha" result="shadowSpreadOuter1"></feMorphology>
            <feOffset dx="0" dy="0" in="shadowSpreadOuter1" result="shadowOffsetOuter1"></feOffset>
            <feGaussianBlur stdDeviation="2.5" in="shadowOffsetOuter1" result="shadowBlurOuter1"></feGaussianBlur>
            <feColorMatrix values="0 0 0 0 0   0 0 0 0 0   0 0 0 0 0  0 0 0 0.157740453 0" type="matrix" in="shadowBlurOuter1"></feColorMatrix>
        </filter>
        <rect id="path-5" x="0" y="0" width="90" height="45" rx="4"></rect>
        <filter x="-13.3%" y="-26.7%" width="126.7%" height="153.3%" filterUnits="objectBoundingBox" id="filter-6">
            <feMorphology radius="1.5" operator="dilate" in="SourceAlpha" result="shadowSpreadOuter1"></feMorphology>
            <feOffset dx="0" dy="0" in="shadowSpreadOuter1" result="shadowOffsetOuter1"></feOffset>
            <feGaussianBlur stdDeviation="2.5" in="shadowOffsetOuter1" result="shadowBlurOuter1"></feGaussianBlur>
            <feColorMatrix values="0 0 0 0 0   0 0 0 0 0   0 0 0 0 0  0 0 0 0.157740453 0" type="matrix" in="shadowBlurOuter1"></feColorMatrix>
        </filter>
        <rect id="path-7" x="0" y="0" width="90" height="45" rx="4"></rect>
        <filter x="-13.3%" y="-26.7%" width="126.7%" height="153.3%" filterUnits="objectBoundingBox" id="filter-8">
            <feMorphology radius="1.5" operator="dilate" in="SourceAlpha" result="shadowSpreadOuter1"></feMorphology>
            <feOffset dx="0" dy="0" in="shadowSpreadOuter1" result="shadowOffsetOuter1"></feOffset>
            <feGaussianBlur stdDeviation="2.5" in="shadowOffsetOuter1" result="shadowBlurOuter1"></feGaussianBlur>
            <feColorMatrix values="0 0 0 0 0   0 0 0 0 0   0 0 0 0 0  0 0 0 0.157740453 0" type="matrix" in="shadowBlurOuter1"></feColorMatrix>
        </filter>
        <rect id="path-9" x="0" y="0" width="90" height="45" rx="4"></rect>
        <filter x="-13.3%" y="-26.7%" width="126.7%" height="153.3%" filterUnits="objectBoundingBox" id="filter-10">
            <feMorphology radius="1.5" operator="dilate" in="SourceAlpha" result="shadowSpreadOuter1"></feMorphology>
            <feOffset dx="0" dy="0" in="shadowSpreadOuter1" result="shadowOffsetOuter1"></feOffset>
            <feGaussianBlur stdDeviation="2.5" in="shadowOffsetOuter1" result="shadowBlurOuter1"></feGaussianBlur>
            <feColorMatrix values="0 0 0 0 0   0 0 0 0 0   0 0 0 0 0  0 0 0 0.157740453 0" type="matrix" in="shadowBlurOuter1"></feColorMatrix>
        </filter>
        <rect id="path-11" x="0" y="0" width="90" height="45" rx="4"></rect>
        <filter x="-13.3%" y="-26.7%" width="126.7%" height="153.3%" filterUnits="objectBoundingBox" id="filter-12">
            <feMorphology radius="1.5" operator="dilate" in="SourceAlpha" result="shadowSpreadOuter1"></feMorphology>
            <feOffset dx="0" dy="0" in="shadowSpreadOuter1" result="shadowOffsetOuter1"></feOffset>
            <feGaussianBlur stdDeviation="2.5" in="shadowOffsetOuter1" result="shadowBlurOuter1"></feGaussianBlur>
            <feColorMatrix values="0 0 0 0 0   0 0 0 0 0   0 0 0 0 0  0 0 0 0.157740453 0" type="matrix" in="shadowBlurOuter1"></feColorMatrix>
        </filter>
        <rect id="path-13" x="0" y="0" width="90" height="45" rx="4"></rect>
        <filter x="-13.3%" y="-26.7%" width="126.7%" height="153.3%" filterUnits="objectBoundingBox" id="filter-14">
            <feMorphology radius="1.5" operator="dilate" in="SourceAlpha" result="shadowSpreadOuter1"></feMorphology>
            <feOffset dx="0" dy="0" in="shadowSpreadOuter1" result="shadowOffsetOuter1"></feOffset>
            <feGaussianBlur stdDeviation="2.5" in="shadowOffsetOuter1" result="shadowBlurOuter1"></feGaussianBlur>
            <feColorMatrix values="0 0 0 0 0   0 0 0 0 0   0 0 0 0 0  0 0 0 0.157740453 0" type="matrix" in="shadowBlurOuter1"></feColorMatrix>
        </filter>
        <rect id="path-15" x="0" y="0" width="90" height="45" rx="4"></rect>
        <filter x="-13.3%" y="-26.7%" width="126.7%" height="153.3%" filterUnits="objectBoundingBox" id="filter-16">
            <feMorphology radius="1.5" operator="dilate" in="SourceAlpha" result="shadowSpreadOuter1"></feMorphology>
            <feOffset dx="0" dy="0" in="shadowSpreadOuter1" result="shadowOffsetOuter1"></feOffset>
            <feGaussianBlur stdDeviation="2.5" in="shadowOffsetOuter1" result="shadowBlurOuter1"></feGaussianBlur>
            <feColorMatrix values="0 0 0 0 0   0 0 0 0 0   0 0 0 0 0  0 0 0 0.157740453 0" type="matrix" in="shadowBlurOuter1"></feColorMatrix>
        </filter>
        <rect id="path-17" x="0" y="0" width="90" height="45" rx="4"></rect>
        <filter x="-13.3%" y="-26.7%" width="126.7%" height="153.3%" filterUnits="objectBoundingBox" id="filter-18">
            <feMorphology radius="1.5" operator="dilate" in="SourceAlpha" result="shadowSpreadOuter1"></feMorphology>
            <feOffset dx="0" dy="0" in="shadowSpreadOuter1" result="shadowOffsetOuter1"></feOffset>
            <feGaussianBlur stdDeviation="2.5" in="shadowOffsetOuter1" result="shadowBlurOuter1"></feGaussianBlur>
            <feColorMatrix values="0 0 0 0 0   0 0 0 0 0   0 0 0 0 0  0 0 0 0.157740453 0" type="matrix" in="shadowBlurOuter1"></feColorMatrix>
        </filter>
        <rect id="path-19" x="0" y="0" width="90" height="45" rx="4"></rect>
        <filter x="-13.3%" y="-26.7%" width="126.7%" height="153.3%" filterUnits="objectBoundingBox" id="filter-20">
            <feMorphology radius="1.5" operator="dilate" in="SourceAlpha" result="shadowSpreadOuter1"></feMorphology>
            <feOffset dx="0" dy="0" in="shadowSpreadOuter1" result="shadowOffsetOuter1"></feOffset>
            <feGaussianBlur stdDeviation="2.5" in="shadowOffsetOuter1" result="shadowBlurOuter1"></feGaussianBlur>
            <feColorMatrix values="0 0 0 0 0   0 0 0 0 0   0 0 0 0 0  0 0 0 0.157740453 0" type="matrix" in="shadowBlurOuter1"></feColorMatrix>
        </filter>
        <rect id="path-21" x="0" y="0" width="90" height="45" rx="4"></rect>
        <filter x="-13.3%" y="-26.7%" width="126.7%" height="153.3%" filterUnits="objectBoundingBox" id="filter-22">
            <feMorphology radius="1.5" operator="dilate" in="SourceAlpha" result="shadowSpreadOuter1"></feMorphology>
            <feOffset dx="0" dy="0" in="shadowSpreadOuter1" result="shadowOffsetOuter1"></feOffset>
            <feGaussianBlur stdDeviation="2.5" in="shadowOffsetOuter1" result="shadowBlurOuter1"></feGaussianBlur>
            <feColorMatrix values="0 0 0 0 0   0 0 0 0 0   0 0 0 0 0  0 0 0 0.157740453 0" type="matrix" in="shadowBlurOuter1"></feColorMatrix>
        </filter>
        <rect id="path-23" x="0" y="0" width="90" height="45" rx="4"></rect>
        <filter x="-13.3%" y="-26.7%" width="126.7%" height="153.3%" filterUnits="objectBoundingBox" id="filter-24">
            <feMorphology radius="1.5" operator="dilate" in="SourceAlpha" result="shadowSpreadOuter1"></feMorphology>
            <feOffset dx="0" dy="0" in="shadowSpreadOuter1" result="shadowOffsetOuter1"></feOffset>
            <feGaussianBlur stdDeviation="2.5" in="shadowOffsetOuter1" result="shadowBlurOuter1"></feGaussianBlur>
            <feColorMatrix values="0 0 0 0 0   0 0 0 0 0   0 0 0 0 0  0 0 0 0.157740453 0" type="matrix" in="shadowBlurOuter1"></feColorMatrix>
        </filter>
        <rect id="path-25" x="0" y="0" width="246" height="90" rx="8"></rect>
        <filter x="-9.1%" y="-25.0%" width="118.3%" height="150.0%" filterUnits="objectBoundingBox" id="filter-26">
            <feMorphology radius="2.5" operator="dilate" in="SourceAlpha" result="shadowSpreadOuter1"></feMorphology>
            <feOffset dx="0" dy="0" in="shadowSpreadOuter1" result="shadowOffsetOuter1"></feOffset>
            <feGaussianBlur stdDeviation="5" in="shadowOffsetOuter1" result="shadowBlurOuter1"></feGaussianBlur>
            <feColorMatrix values="0 0 0 0 0   0 0 0 0 0   0 0 0 0 0  0 0 0 0.157740453 0" type="matrix" in="shadowBlurOuter1"></feColorMatrix>
        </filter>
    </defs>
    <g id="Final-Files" stroke="none" stroke-width="1" fill="none" fill-rule="evenodd">
        <g id="FIO_NFT_DemoSignInorUp---v2---DOMAIN-ONLY---v3" transform="translate(-201.000000, -3712.000000)">
            <g id="Group-11-Copy" transform="translate(154.000000, 3665.000000)">
                <g id="Control" transform="translate(55.000000, 55.000000)">
                    <g id="Group-14">
                        <g id="Group-9-Copy-2">
                            <g id="Rectangle-Copy-6" opacity="0.09920974">
                                <use fill="black" fill-opacity="1" filter="url(#filter-2)" xlink:href="#path-1"></use>
                                <use fill="#DFD6FF" fill-rule="evenodd" xlink:href="#path-1"></use>
                            </g>
                            <path d="M9,4 L81,4 C83.209139,4 85,5.790861 85,8 L85,37 C85,39.209139 83.209139,41 81,41 L9,41 C6.790861,41 5,39.209139 5,37 L5,8 C5,5.790861 6.790861,4 9,4 Z" id="Rectangle" fill-opacity="0.0803649476" fill="#FFFFFF"></path>
                            <text id="@rulez" font-family="ProximaNova-Light, Proxima Nova" font-size="18" font-weight="300">
                                <tspan x="17.577" y="28.5" fill="#FFFFFF">@</tspan>
                                <tspan x="31.671" y="28.5" font-family="ProximaNova-Extrabld, Proxima Nova" font-weight="700" fill="#4C186E">rulez</tspan>
                            </text>
                        </g>
                        <g id="Group-9-Copy-12" transform="translate(0.000000, 110.000000)">
                            <g id="Rectangle-Copy-6" opacity="0.09920974">
                                <use fill="black" fill-opacity="1" filter="url(#filter-4)" xlink:href="#path-3"></use>
                                <use fill="#DFD6FF" fill-rule="evenodd" xlink:href="#path-3"></use>
                            </g>
                            <path d="M9,4 L81,4 C83.209139,4 85,5.790861 85,8 L85,37 C85,39.209139 83.209139,41 81,41 L9,41 C6.790861,41 5,39.209139 5,37 L5,8 C5,5.790861 6.790861,4 9,4 Z" id="Rectangle" fill-opacity="0.0803649476" fill="#FFFFFF"></path>
                            <text id="@rulez" font-family="ProximaNova-Light, Proxima Nova" font-size="18" font-weight="300">
                                <tspan x="17.577" y="28.5" fill="#FFFFFF">@</tspan>
                                <tspan x="31.671" y="28.5" font-family="ProximaNova-Extrabld, Proxima Nova" font-weight="700" fill="#4C186E">rulez</tspan>
                            </text>
                        </g>
                        <g id="Group-9-Copy-7" transform="translate(0.000000, 55.000000)">
                            <g id="Rectangle-Copy-6" opacity="0.09920974">
                                <use fill="black" fill-opacity="1" filter="url(#filter-6)" xlink:href="#path-5"></use>
                                <use fill="#DFD6FF" fill-rule="evenodd" xlink:href="#path-5"></use>
                            </g>
                            <path d="M9,4 L81,4 C83.209139,4 85,5.790861 85,8 L85,37 C85,39.209139 83.209139,41 81,41 L9,41 C6.790861,41 5,39.209139 5,37 L5,8 C5,5.790861 6.790861,4 9,4 Z" id="Rectangle" fill-opacity="0.0803649476" fill="#FFFFFF"></path>
                            <text id="@rulez" font-family="ProximaNova-Light, Proxima Nova" font-size="18" font-weight="300">
                                <tspan x="17.577" y="28.5" fill="#FFFFFF">@</tspan>
                                <tspan x="31.671" y="28.5" font-family="ProximaNova-Extrabld, Proxima Nova" font-weight="700" fill="#4C186E">rulez</tspan>
                            </text>
                        </g>
                        <g id="Group-9-Copy-3" transform="translate(100.000000, 0.000000)">
                            <g id="Rectangle-Copy-6" opacity="0.09920974">
                                <use fill="black" fill-opacity="1" filter="url(#filter-8)" xlink:href="#path-7"></use>
                                <use fill="#DFD6FF" fill-rule="evenodd" xlink:href="#path-7"></use>
                            </g>
                            <path d="M9,4 L81,4 C83.209139,4 85,5.790861 85,8 L85,37 C85,39.209139 83.209139,41 81,41 L9,41 C6.790861,41 5,39.209139 5,37 L5,8 C5,5.790861 6.790861,4 9,4 Z" id="Rectangle" fill-opacity="0.0803649476" fill="#FFFFFF"></path>
                            <text id="@rulez" font-family="ProximaNova-Light, Proxima Nova" font-size="18" font-weight="300">
                                <tspan x="17.577" y="28.5" fill="#FFFFFF">@</tspan>
                                <tspan x="31.671" y="28.5" font-family="ProximaNova-Extrabld, Proxima Nova" font-weight="700" fill="#4C186E">rulez</tspan>
                            </text>
                        </g>
                        <g id="Group-9-Copy-14" transform="translate(100.000000, 110.000000)">
                            <g id="Rectangle-Copy-6" opacity="0.09920974">
                                <use fill="black" fill-opacity="1" filter="url(#filter-10)" xlink:href="#path-9"></use>
                                <use fill="#DFD6FF" fill-rule="evenodd" xlink:href="#path-9"></use>
                            </g>
                            <path d="M9,4 L81,4 C83.209139,4 85,5.790861 85,8 L85,37 C85,39.209139 83.209139,41 81,41 L9,41 C6.790861,41 5,39.209139 5,37 L5,8 C5,5.790861 6.790861,4 9,4 Z" id="Rectangle" fill-opacity="0.0803649476" fill="#FFFFFF"></path>
                            <text id="@rulez" font-family="ProximaNova-Light, Proxima Nova" font-size="18" font-weight="300">
                                <tspan x="17.577" y="28.5" fill="#FFFFFF">@</tspan>
                                <tspan x="31.671" y="28.5" font-family="ProximaNova-Extrabld, Proxima Nova" font-weight="700" fill="#4C186E">rulez</tspan>
                            </text>
                        </g>
                        <g id="Group-9-Copy-8" transform="translate(100.000000, 55.000000)">
                            <g id="Rectangle-Copy-6" opacity="0.09920974">
                                <use fill="black" fill-opacity="1" filter="url(#filter-12)" xlink:href="#path-11"></use>
                                <use fill="#DFD6FF" fill-rule="evenodd" xlink:href="#path-11"></use>
                            </g>
                            <path d="M9,4 L81,4 C83.209139,4 85,5.790861 85,8 L85,37 C85,39.209139 83.209139,41 81,41 L9,41 C6.790861,41 5,39.209139 5,37 L5,8 C5,5.790861 6.790861,4 9,4 Z" id="Rectangle" fill-opacity="0.0803649476" fill="#FFFFFF"></path>
                            <text id="@rulez" font-family="ProximaNova-Light, Proxima Nova" font-size="18" font-weight="300">
                                <tspan x="17.577" y="28.5" fill="#FFFFFF">@</tspan>
                                <tspan x="31.671" y="28.5" font-family="ProximaNova-Extrabld, Proxima Nova" font-weight="700" fill="#4C186E">rulez</tspan>
                            </text>
                        </g>
                        <g id="Group-9-Copy-4" transform="translate(200.000000, 0.000000)">
                            <g id="Rectangle-Copy-6" opacity="0.09920974">
                                <use fill="black" fill-opacity="1" filter="url(#filter-14)" xlink:href="#path-13"></use>
                                <use fill="#DFD6FF" fill-rule="evenodd" xlink:href="#path-13"></use>
                            </g>
                            <path d="M9,4 L81,4 C83.209139,4 85,5.790861 85,8 L85,37 C85,39.209139 83.209139,41 81,41 L9,41 C6.790861,41 5,39.209139 5,37 L5,8 C5,5.790861 6.790861,4 9,4 Z" id="Rectangle" fill-opacity="0.0803649476" fill="#FFFFFF"></path>
                            <text id="@rulez" font-family="ProximaNova-Light, Proxima Nova" font-size="18" font-weight="300">
                                <tspan x="17.577" y="28.5" fill="#FFFFFF">@</tspan>
                                <tspan x="31.671" y="28.5" font-family="ProximaNova-Extrabld, Proxima Nova" font-weight="700" fill="#4C186E">rulez</tspan>
                            </text>
                        </g>
                        <g id="Group-9-Copy-16" transform="translate(200.000000, 110.000000)">
                            <g id="Rectangle-Copy-6" opacity="0.09920974">
                                <use fill="black" fill-opacity="1" filter="url(#filter-16)" xlink:href="#path-15"></use>
                                <use fill="#DFD6FF" fill-rule="evenodd" xlink:href="#path-15"></use>
                            </g>
                            <path d="M9,4 L81,4 C83.209139,4 85,5.790861 85,8 L85,37 C85,39.209139 83.209139,41 81,41 L9,41 C6.790861,41 5,39.209139 5,37 L5,8 C5,5.790861 6.790861,4 9,4 Z" id="Rectangle" fill-opacity="0.0803649476" fill="#FFFFFF"></path>
                            <text id="@rulez" font-family="ProximaNova-Light, Proxima Nova" font-size="18" font-weight="300">
                                <tspan x="17.577" y="28.5" fill="#FFFFFF">@</tspan>
                                <tspan x="31.671" y="28.5" font-family="ProximaNova-Extrabld, Proxima Nova" font-weight="700" fill="#4C186E">rulez</tspan>
                            </text>
                        </g>
                        <g id="Group-9-Copy-9" transform="translate(200.000000, 55.000000)">
                            <g id="Rectangle-Copy-6" opacity="0.09920974">
                                <use fill="black" fill-opacity="1" filter="url(#filter-18)" xlink:href="#path-17"></use>
                                <use fill="#DFD6FF" fill-rule="evenodd" xlink:href="#path-17"></use>
                            </g>
                            <path d="M9,4 L81,4 C83.209139,4 85,5.790861 85,8 L85,37 C85,39.209139 83.209139,41 81,41 L9,41 C6.790861,41 5,39.209139 5,37 L5,8 C5,5.790861 6.790861,4 9,4 Z" id="Rectangle" fill-opacity="0.0803649476" fill="#FFFFFF"></path>
                            <text id="@rulez" font-family="ProximaNova-Light, Proxima Nova" font-size="18" font-weight="300">
                                <tspan x="17.577" y="28.5" fill="#FFFFFF">@</tspan>
                                <tspan x="31.671" y="28.5" font-family="ProximaNova-Extrabld, Proxima Nova" font-weight="700" fill="#4C186E">rulez</tspan>
                            </text>
                        </g>
                        <g id="Group-9-Copy-5" transform="translate(300.000000, 0.000000)">
                            <g id="Rectangle-Copy-6" opacity="0.09920974">
                                <use fill="black" fill-opacity="1" filter="url(#filter-20)" xlink:href="#path-19"></use>
                                <use fill="#DFD6FF" fill-rule="evenodd" xlink:href="#path-19"></use>
                            </g>
                            <path d="M9,4 L81,4 C83.209139,4 85,5.790861 85,8 L85,37 C85,39.209139 83.209139,41 81,41 L9,41 C6.790861,41 5,39.209139 5,37 L5,8 C5,5.790861 6.790861,4 9,4 Z" id="Rectangle" fill-opacity="0.0803649476" fill="#FFFFFF"></path>
                            <text id="@rulez" font-family="ProximaNova-Light, Proxima Nova" font-size="18" font-weight="300">
                                <tspan x="17.577" y="28.5" fill="#FFFFFF">@</tspan>
                                <tspan x="31.671" y="28.5" font-family="ProximaNova-Extrabld, Proxima Nova" font-weight="700" fill="#4C186E">rulez</tspan>
                            </text>
                        </g>
                        <g id="Group-9-Copy-18" transform="translate(300.000000, 110.000000)">
                            <g id="Rectangle-Copy-6" opacity="0.09920974">
                                <use fill="black" fill-opacity="1" filter="url(#filter-22)" xlink:href="#path-21"></use>
                                <use fill="#DFD6FF" fill-rule="evenodd" xlink:href="#path-21"></use>
                            </g>
                            <path d="M9,4 L81,4 C83.209139,4 85,5.790861 85,8 L85,37 C85,39.209139 83.209139,41 81,41 L9,41 C6.790861,41 5,39.209139 5,37 L5,8 C5,5.790861 6.790861,4 9,4 Z" id="Rectangle" fill-opacity="0.0803649476" fill="#FFFFFF"></path>
                            <text id="@rulez" font-family="ProximaNova-Light, Proxima Nova" font-size="18" font-weight="300">
                                <tspan x="17.577" y="28.5" fill="#FFFFFF">@</tspan>
                                <tspan x="31.671" y="28.5" font-family="ProximaNova-Extrabld, Proxima Nova" font-weight="700" fill="#4C186E">rulez</tspan>
                            </text>
                        </g>
                        <g id="Group-9-Copy-10" transform="translate(300.000000, 55.000000)">
                            <g id="Rectangle-Copy-6" opacity="0.09920974">
                                <use fill="black" fill-opacity="1" filter="url(#filter-24)" xlink:href="#path-23"></use>
                                <use fill="#DFD6FF" fill-rule="evenodd" xlink:href="#path-23"></use>
                            </g>
                            <path d="M9,4 L81,4 C83.209139,4 85,5.790861 85,8 L85,37 C85,39.209139 83.209139,41 81,41 L9,41 C6.790861,41 5,39.209139 5,37 L5,8 C5,5.790861 6.790861,4 9,4 Z" id="Rectangle" fill-opacity="0.0803649476" fill="#FFFFFF"></path>
                            <text id="@rulez" font-family="ProximaNova-Light, Proxima Nova" font-size="18" font-weight="300">
                                <tspan x="17.577" y="28.5" fill="#FFFFFF">@</tspan>
                                <tspan x="31.671" y="28.5" font-family="ProximaNova-Extrabld, Proxima Nova" font-weight="700" fill="#4C186E">rulez</tspan>
                            </text>
                        </g>
                    </g>
                    <g id="Group-9-Copy" transform="translate(72.000000, 32.000000)">
                        <g id="Rectangle-Copy-6" opacity="0.952296666">
                            <use fill="black" fill-opacity="1" filter="url(#filter-26)" xlink:href="#path-25"></use>
                            <use fill="#DFD6FF" fill-rule="evenodd" xlink:href="#path-25"></use>
                        </g>
                        <path d="M18,8 L228,8 C232.418278,8 236,11.581722 236,16 L236,74 C236,78.418278 232.418278,82 228,82 L18,82 C13.581722,82 10,78.418278 10,74 L10,16 C10,11.581722 13.581722,8 18,8 Z" id="Rectangle" fill="#FFFFFF"></path>
                        <text id="who@rulez" font-family="ProximaNova-Light, Proxima Nova" font-size="36" font-weight="300" fill="#4C186E">
                            <tspan x="35.214" y="56">who@</tspan>
                            <tspan x="129.282" y="56" font-family="ProximaNova-Extrabld, Proxima Nova" font-weight="700">rulez</tspan>
                        </text>
                    </g>
                </g>
            </g>
        </g>
    </g>
</svg>