<?xml version="1.0" encoding="UTF-8"?>
<svg width="222px" height="177px" viewBox="0 0 222 177" version="1.1" xmlns="http://www.w3.org/2000/svg" xmlns:xlink="http://www.w3.org/1999/xlink">
    <title>Customizable-Mobile@1x</title>
    <defs>
        <rect id="path-1" x="0" y="0" width="197.054264" height="72" rx="6.4"></rect>
        <filter x="-9.1%" y="-25.0%" width="118.3%" height="150.0%" filterUnits="objectBoundingBox" id="filter-2">
            <feMorphology radius="2" operator="dilate" in="SourceAlpha" result="shadowSpreadOuter1"></feMorphology>
            <feOffset dx="0" dy="0" in="shadowSpreadOuter1" result="shadowOffsetOuter1"></feOffset>
            <feGaussianBlur stdDeviation="4" in="shadowOffsetOuter1" result="shadowBlurOuter1"></feGaussianBlur>
            <feColorMatrix values="0 0 0 0 0   0 0 0 0 0   0 0 0 0 0  0 0 0 0.157740453 0" type="matrix" in="shadowBlurOuter1"></feColorMatrix>
        </filter>
        <linearGradient x1="50%" y1="44.507701%" x2="100%" y2="55.492299%" id="linearGradient-3">
            <stop stop-color="#D3FAEA" offset="0%"></stop>
            <stop stop-color="#D3FAEA" offset="0%"></stop>
            <stop stop-color="#D3FAEA" offset="0%"></stop>
            <stop stop-color="#DFD6FF" offset="99.9829272%"></stop>
        </linearGradient>
        <filter x="-58.7%" y="-58.8%" width="217.5%" height="217.6%" filterUnits="objectBoundingBox" id="filter-4">
            <feOffset dx="0" dy="0" in="SourceAlpha" result="shadowOffsetOuter1"></feOffset>
            <feGaussianBlur stdDeviation="4" in="shadowOffsetOuter1" result="shadowBlurOuter1"></feGaussianBlur>
            <feColorMatrix values="0 0 0 0 0   0 0 0 0 0   0 0 0 0 0  0 0 0 0.118877704 0" type="matrix" in="shadowBlurOuter1" result="shadowMatrixOuter1"></feColorMatrix>
            <feMerge>
                <feMergeNode in="shadowMatrixOuter1"></feMergeNode>
                <feMergeNode in="SourceGraphic"></feMergeNode>
            </feMerge>
        </filter>
    </defs>
    <g id="Final-Files" stroke="none" stroke-width="1" fill="none" fill-rule="evenodd">
        <g id="Domain_Landing_Page---Mobile" transform="translate(-77.000000, -4667.000000)">
            <g id="Group-3" transform="translate(20.000000, 4598.000000)">
                <g id="Customizable-Mobile" transform="translate(69.000000, 71.800000)">
                    <g id="Group-9" transform="translate(0.000000, 44.200000)">
                        <g id="Rectangle-Copy-6" opacity="0.09920974">
                            <use fill="black" fill-opacity="1" filter="url(#filter-2)" xlink:href="#path-1"></use>
                            <use fill="#DFD6FF" fill-rule="evenodd" xlink:href="#path-1"></use>
                        </g>
                        <path d="M14.4103359,6.4 L182.643928,6.4 C186.17855,6.4 189.043928,9.2653776 189.043928,12.8 L189.043928,60 C189.043928,63.5346224 186.17855,66.4 182.643928,66.4 L14.4103359,66.4 C10.8757135,66.4 8.01033592,63.5346224 8.01033592,60 L8.01033592,12.8 C8.01033592,9.2653776 10.8757135,6.4 14.4103359,6.4 Z" id="Rectangle" stroke="url(#linearGradient-3)" stroke-width="3.2" fill-opacity="0.0803649476" fill="#FFFFFF" stroke-dasharray="8"></path>
                        <text id="bob@rulez" font-family="ProximaNova-Light, Proxima Nova" font-size="28.8" font-weight="300">
                            <tspan x="29.9831318" y="44.4" fill="#FFFFFF">bob@</tspan>
                            <tspan x="101.867932" y="44.4" font-family="ProximaNova-Extrabld, Proxima Nova" font-weight="700" fill="#4C186E">rulez</tspan>
                        </text>
                    </g>
                    <g id="bracket" transform="translate(98.451693, 135.400000) rotate(-90.000000) translate(-98.451693, -135.400000) translate(88.438773, 44.785802)" fill="#FFFFFF" fill-rule="nonzero">
                        <path d="M18.3569807,3.33907599 C19.2781621,3.33907599 20.0258398,2.59105911 20.0258398,1.66945974 C20.0258398,0.747860362 19.2781621,0 18.3569807,0 C11.915438,0 6.67527993,5.24237905 6.67527993,11.6870008 L6.67527993,89.4200018 L1.6688591,89.4200018 C0.747677662,89.4200018 0,90.1680187 0,91.0896181 C0,92.0112175 0.747677662,92.7590778 1.6688591,92.7590778 L6.67527993,92.7590778 L6.67527993,169.541395 C6.67527993,175.98586 11.9152816,181.228396 18.3569807,181.228396 C19.2781621,181.228396 20.0258398,180.480379 20.0258398,179.55878 C20.0258398,178.63718 19.2781621,177.889164 18.3569807,177.889164 C13.754359,177.889164 10.0129981,174.145949 10.0129981,169.541395 L10.0129981,11.6870008 C10.0129981,7.08229084 13.754359,3.33907599 18.3569807,3.33907599 Z" id="Path"></path>
                    </g>
                    <text id="FIO-Handle" font-family="ProximaNova-Light, Proxima Nova" font-size="14.4" font-weight="300" line-spacing="21.6" fill="#FFFFFF">
                        <tspan x="40.126615" y="165.2">FIO Handle</tspan>
                    </text>
                    <g id="Group-2" transform="translate(82.935401, 0.000000)">
                        <text id="domain" font-family="ProximaNova-Extrabld, Proxima Nova" font-size="28.8" font-weight="700" line-spacing="21.6" fill="#4C186E">
                            <tspan x="0" y="26">domain</tspan>
                        </text>
                        <ellipse id="Oval" fill="#FFFFFF" cx="50.3074935" cy="47.8" rx="12.8165375" ry="12.8"></ellipse>
                        <g id="arrow-right" filter="url(#filter-4)" transform="translate(50.307494, 47.800000) scale(-1, 1) rotate(90.000000) translate(-50.307494, -47.800000) translate(36.689922, 34.200000)" fill="#4C186E" fill-rule="nonzero">
                            <path d="M13.6339239,0 C7.28813302,0 1.62673979,4.54954364 0.299286207,10.7447406 C-0.363919468,13.84026 0.0828497822,17.1319132 1.56246894,19.9328852 C2.9865025,22.6285132 5.32109764,24.8071239 8.11427398,26.0417971 C11.0196637,27.32637 14.3551471,27.550226 17.4088809,26.6742076 C20.3549176,25.8293765 22.9670934,23.9751143 24.7454851,21.486016 C28.4638143,16.2822307 27.9666706,8.97260518 23.592084,4.30974745 C21.0281982,1.57704114 17.3866467,0 13.6339239,0 L13.6339239,0 Z M20.1753067,14.3278224 L16.4580198,18.1250575 C15.5168861,19.086668 14.0292765,17.6298714 14.9665887,16.6727658 L16.8422552,14.756822 L7.95342315,14.756822 C7.3221792,14.756822 6.79550565,14.2311416 6.79550565,13.6018499 C6.79550565,12.9725581 7.32252661,12.4468778 7.95342315,12.4468778 L16.7977867,12.4468778 L14.8849473,10.5392505 C13.9344336,9.59115461 15.4081468,8.12084357 16.3586605,9.06893949 L20.1666214,12.8668676 C20.5703118,13.2691846 20.5741333,13.9206541 20.1753067,14.3278224 L20.1753067,14.3278224 Z" id="Shape"></path>
                        </g>
                    </g>
                </g>
            </g>
        </g>
    </g>
</svg>