<?xml version="1.0" encoding="UTF-8"?>
<svg width="535px" height="208px" viewBox="0 0 535 208" version="1.1" xmlns="http://www.w3.org/2000/svg" xmlns:xlink="http://www.w3.org/1999/xlink">
    <title>DomainsAreNFTS@1x</title>
    <defs>
        <rect id="path-1" x="0" y="0" width="246" height="90" rx="8"></rect>
        <filter x="-9.1%" y="-25.0%" width="118.3%" height="150.0%" filterUnits="objectBoundingBox" id="filter-2">
            <feMorphology radius="2.5" operator="dilate" in="SourceAlpha" result="shadowSpreadOuter1"></feMorphology>
            <feOffset dx="0" dy="0" in="shadowSpreadOuter1" result="shadowOffsetOuter1"></feOffset>
            <feGaussianBlur stdDeviation="5" in="shadowOffsetOuter1" result="shadowBlurOuter1"></feGaussianBlur>
            <feColorMatrix values="0 0 0 0 0   0 0 0 0 0   0 0 0 0 0  0 0 0 0.157740453 0" type="matrix" in="shadowBlurOuter1"></feColorMatrix>
        </filter>
    </defs>
    <g id="Final-Files" stroke="none" stroke-width="1" fill="none" fill-rule="evenodd">
        <g id="FIO_NFT_DemoSignInorUp---v2---DOMAIN-ONLY---v3" transform="translate(-722.000000, -3389.000000)">
            <g id="Group-11" transform="translate(154.000000, 3360.000000)">
                <g id="DomainsAreNFTS" transform="translate(568.000000, 29.000000)">
                    <g id="transfer" opacity="0.12902832" fill="#FFFFFF" fill-rule="nonzero">
                        <path d="M18.6110927,49.5438194 L13.4561746,44.388902 C11.5146085,42.4473361 11.5146085,39.2858129 13.4561746,37.3402601 L38.8360726,11.9603652 L31.9787958,5.10308915 C31.1256229,4.24991643 30.8664817,2.96218378 31.3289492,1.84588303 C31.7914167,0.729582276 32.8877836,0 34.0957806,0 L60.0099083,0 C61.6604389,0 63,1.3395609 63,2.9900913 L63,28.9042159 C63,30.1122128 62.2704176,31.2045928 61.1541168,31.6670602 C60.0378159,32.1295277 58.7540698,31.87836 57.8969102,31.0172137 L51.0396334,24.1639245 L25.6597354,49.5438194 C23.722156,51.4774118 20.5646192,51.4933589 18.6110927,49.5438194 Z" id="Path"></path>
                        <path d="M28.9042194,96 L2.99009166,96 C1.33956106,96 0,94.6604389 0,93.0099083 L0,67.0957806 C0,65.8877836 0.729582364,64.7954035 1.84588325,64.332936 C2.96218413,63.8704684 4.24991694,64.1256229 5.10308976,64.9827825 L11.9603666,71.8360726 L37.3402646,46.4561746 C39.2818308,44.5146085 42.4433544,44.5146085 44.3889073,46.4561746 L49.5438254,51.6110927 C51.4853915,53.5526588 51.4853915,56.7141824 49.5438254,58.6597354 L24.1639274,84.0396334 L31.0212042,90.8969102 C31.8743771,91.7500831 32.1335183,93.0378159 31.6710508,94.1541168 C31.2085833,95.2704176 30.1122164,96 28.9042194,96 Z" id="Path"></path>
                    </g>
                    <g id="transfer-copy-8" opacity="0.12902832" transform="translate(31.000000, 112.000000)" fill="#FFFFFF" fill-rule="nonzero">
                        <path d="M18.6110927,49.5438194 L13.4561746,44.388902 C11.5146085,42.4473361 11.5146085,39.2858129 13.4561746,37.3402601 L38.8360726,11.9603652 L31.9787958,5.10308915 C31.1256229,4.24991643 30.8664817,2.96218378 31.3289492,1.84588303 C31.7914167,0.729582276 32.8877836,0 34.0957806,0 L60.0099083,0 C61.6604389,0 63,1.3395609 63,2.9900913 L63,28.9042159 C63,30.1122128 62.2704176,31.2045928 61.1541168,31.6670602 C60.0378159,32.1295277 58.7540698,31.87836 57.8969102,31.0172137 L51.0396334,24.1639245 L25.6597354,49.5438194 C23.722156,51.4774118 20.5646192,51.4933589 18.6110927,49.5438194 Z" id="Path"></path>
                        <path d="M28.9042194,96 L2.99009166,96 C1.33956106,96 0,94.6604389 0,93.0099083 L0,67.0957806 C0,65.8877836 0.729582364,64.7954035 1.84588325,64.332936 C2.96218413,63.8704684 4.24991694,64.1256229 5.10308976,64.9827825 L11.9603666,71.8360726 L37.3402646,46.4561746 C39.2818308,44.5146085 42.4433544,44.5146085 44.3889073,46.4561746 L49.5438254,51.6110927 C51.4853915,53.5526588 51.4853915,56.7141824 49.5438254,58.6597354 L24.1639274,84.0396334 L31.0212042,90.8969102 C31.8743771,91.7500831 32.1335183,93.0378159 31.6710508,94.1541168 C31.2085833,95.2704176 30.1122164,96 28.9042194,96 Z" id="Path"></path>
                    </g>
                    <g id="transfer-copy" opacity="0.12902832" transform="translate(63.000000, 0.000000)" fill="#FFFFFF" fill-rule="nonzero">
                        <path d="M18.6110927,49.5438194 L13.4561746,44.388902 C11.5146085,42.4473361 11.5146085,39.2858129 13.4561746,37.3402601 L38.8360726,11.9603652 L31.9787958,5.10308915 C31.1256229,4.24991643 30.8664817,2.96218378 31.3289492,1.84588303 C31.7914167,0.729582276 32.8877836,0 34.0957806,0 L60.0099083,0 C61.6604389,0 63,1.3395609 63,2.9900913 L63,28.9042159 C63,30.1122128 62.2704176,31.2045928 61.1541168,31.6670602 C60.0378159,32.1295277 58.7540698,31.87836 57.8969102,31.0172137 L51.0396334,24.1639245 L25.6597354,49.5438194 C23.722156,51.4774118 20.5646192,51.4933589 18.6110927,49.5438194 Z" id="Path"></path>
                        <path d="M28.9042194,96 L2.99009166,96 C1.33956106,96 0,94.6604389 0,93.0099083 L0,67.0957806 C0,65.8877836 0.729582364,64.7954035 1.84588325,64.332936 C2.96218413,63.8704684 4.24991694,64.1256229 5.10308976,64.9827825 L11.9603666,71.8360726 L37.3402646,46.4561746 C39.2818308,44.5146085 42.4433544,44.5146085 44.3889073,46.4561746 L49.5438254,51.6110927 C51.4853915,53.5526588 51.4853915,56.7141824 49.5438254,58.6597354 L24.1639274,84.0396334 L31.0212042,90.8969102 C31.8743771,91.7500831 32.1335183,93.0378159 31.6710508,94.1541168 C31.2085833,95.2704176 30.1122164,96 28.9042194,96 Z" id="Path"></path>
                    </g>
                    <g id="transfer-copy-9" opacity="0.12902832" transform="translate(94.000000, 112.000000)" fill="#FFFFFF" fill-rule="nonzero">
                        <path d="M18.6110927,49.5438194 L13.4561746,44.388902 C11.5146085,42.4473361 11.5146085,39.2858129 13.4561746,37.3402601 L38.8360726,11.9603652 L31.9787958,5.10308915 C31.1256229,4.24991643 30.8664817,2.96218378 31.3289492,1.84588303 C31.7914167,0.729582276 32.8877836,0 34.0957806,0 L60.0099083,0 C61.6604389,0 63,1.3395609 63,2.9900913 L63,28.9042159 C63,30.1122128 62.2704176,31.2045928 61.1541168,31.6670602 C60.0378159,32.1295277 58.7540698,31.87836 57.8969102,31.0172137 L51.0396334,24.1639245 L25.6597354,49.5438194 C23.722156,51.4774118 20.5646192,51.4933589 18.6110927,49.5438194 Z" id="Path"></path>
                        <path d="M28.9042194,96 L2.99009166,96 C1.33956106,96 0,94.6604389 0,93.0099083 L0,67.0957806 C0,65.8877836 0.729582364,64.7954035 1.84588325,64.332936 C2.96218413,63.8704684 4.24991694,64.1256229 5.10308976,64.9827825 L11.9603666,71.8360726 L37.3402646,46.4561746 C39.2818308,44.5146085 42.4433544,44.5146085 44.3889073,46.4561746 L49.5438254,51.6110927 C51.4853915,53.5526588 51.4853915,56.7141824 49.5438254,58.6597354 L24.1639274,84.0396334 L31.0212042,90.8969102 C31.8743771,91.7500831 32.1335183,93.0378159 31.6710508,94.1541168 C31.2085833,95.2704176 30.1122164,96 28.9042194,96 Z" id="Path"></path>
                    </g>
                    <g id="transfer-copy-2" opacity="0.12902832" transform="translate(126.000000, 0.000000)" fill="#FFFFFF" fill-rule="nonzero">
                        <path d="M18.6110927,49.5438194 L13.4561746,44.388902 C11.5146085,42.4473361 11.5146085,39.2858129 13.4561746,37.3402601 L38.8360726,11.9603652 L31.9787958,5.10308915 C31.1256229,4.24991643 30.8664817,2.96218378 31.3289492,1.84588303 C31.7914167,0.729582276 32.8877836,0 34.0957806,0 L60.0099083,0 C61.6604389,0 63,1.3395609 63,2.9900913 L63,28.9042159 C63,30.1122128 62.2704176,31.2045928 61.1541168,31.6670602 C60.0378159,32.1295277 58.7540698,31.87836 57.8969102,31.0172137 L51.0396334,24.1639245 L25.6597354,49.5438194 C23.722156,51.4774118 20.5646192,51.4933589 18.6110927,49.5438194 Z" id="Path"></path>
                        <path d="M28.9042194,96 L2.99009166,96 C1.33956106,96 0,94.6604389 0,93.0099083 L0,67.0957806 C0,65.8877836 0.729582364,64.7954035 1.84588325,64.332936 C2.96218413,63.8704684 4.24991694,64.1256229 5.10308976,64.9827825 L11.9603666,71.8360726 L37.3402646,46.4561746 C39.2818308,44.5146085 42.4433544,44.5146085 44.3889073,46.4561746 L49.5438254,51.6110927 C51.4853915,53.5526588 51.4853915,56.7141824 49.5438254,58.6597354 L24.1639274,84.0396334 L31.0212042,90.8969102 C31.8743771,91.7500831 32.1335183,93.0378159 31.6710508,94.1541168 C31.2085833,95.2704176 30.1122164,96 28.9042194,96 Z" id="Path"></path>
                    </g>
                    <g id="transfer-copy-10" opacity="0.12902832" transform="translate(157.000000, 112.000000)" fill="#FFFFFF" fill-rule="nonzero">
                        <path d="M18.6110927,49.5438194 L13.4561746,44.388902 C11.5146085,42.4473361 11.5146085,39.2858129 13.4561746,37.3402601 L38.8360726,11.9603652 L31.9787958,5.10308915 C31.1256229,4.24991643 30.8664817,2.96218378 31.3289492,1.84588303 C31.7914167,0.729582276 32.8877836,0 34.0957806,0 L60.0099083,0 C61.6604389,0 63,1.3395609 63,2.9900913 L63,28.9042159 C63,30.1122128 62.2704176,31.2045928 61.1541168,31.6670602 C60.0378159,32.1295277 58.7540698,31.87836 57.8969102,31.0172137 L51.0396334,24.1639245 L25.6597354,49.5438194 C23.722156,51.4774118 20.5646192,51.4933589 18.6110927,49.5438194 Z" id="Path"></path>
                        <path d="M28.9042194,96 L2.99009166,96 C1.33956106,96 0,94.6604389 0,93.0099083 L0,67.0957806 C0,65.8877836 0.729582364,64.7954035 1.84588325,64.332936 C2.96218413,63.8704684 4.24991694,64.1256229 5.10308976,64.9827825 L11.9603666,71.8360726 L37.3402646,46.4561746 C39.2818308,44.5146085 42.4433544,44.5146085 44.3889073,46.4561746 L49.5438254,51.6110927 C51.4853915,53.5526588 51.4853915,56.7141824 49.5438254,58.6597354 L24.1639274,84.0396334 L31.0212042,90.8969102 C31.8743771,91.7500831 32.1335183,93.0378159 31.6710508,94.1541168 C31.2085833,95.2704176 30.1122164,96 28.9042194,96 Z" id="Path"></path>
                    </g>
                    <g id="transfer-copy-3" opacity="0.12902832" transform="translate(189.000000, 0.000000)" fill="#FFFFFF" fill-rule="nonzero">
                        <path d="M18.6110927,49.5438194 L13.4561746,44.388902 C11.5146085,42.4473361 11.5146085,39.2858129 13.4561746,37.3402601 L38.8360726,11.9603652 L31.9787958,5.10308915 C31.1256229,4.24991643 30.8664817,2.96218378 31.3289492,1.84588303 C31.7914167,0.729582276 32.8877836,0 34.0957806,0 L60.0099083,0 C61.6604389,0 63,1.3395609 63,2.9900913 L63,28.9042159 C63,30.1122128 62.2704176,31.2045928 61.1541168,31.6670602 C60.0378159,32.1295277 58.7540698,31.87836 57.8969102,31.0172137 L51.0396334,24.1639245 L25.6597354,49.5438194 C23.722156,51.4774118 20.5646192,51.4933589 18.6110927,49.5438194 Z" id="Path"></path>
                        <path d="M28.9042194,96 L2.99009166,96 C1.33956106,96 0,94.6604389 0,93.0099083 L0,67.0957806 C0,65.8877836 0.729582364,64.7954035 1.84588325,64.332936 C2.96218413,63.8704684 4.24991694,64.1256229 5.10308976,64.9827825 L11.9603666,71.8360726 L37.3402646,46.4561746 C39.2818308,44.5146085 42.4433544,44.5146085 44.3889073,46.4561746 L49.5438254,51.6110927 C51.4853915,53.5526588 51.4853915,56.7141824 49.5438254,58.6597354 L24.1639274,84.0396334 L31.0212042,90.8969102 C31.8743771,91.7500831 32.1335183,93.0378159 31.6710508,94.1541168 C31.2085833,95.2704176 30.1122164,96 28.9042194,96 Z" id="Path"></path>
                    </g>
                    <g id="transfer-copy-11" opacity="0.12902832" transform="translate(220.000000, 112.000000)" fill="#FFFFFF" fill-rule="nonzero">
                        <path d="M18.6110927,49.5438194 L13.4561746,44.388902 C11.5146085,42.4473361 11.5146085,39.2858129 13.4561746,37.3402601 L38.8360726,11.9603652 L31.9787958,5.10308915 C31.1256229,4.24991643 30.8664817,2.96218378 31.3289492,1.84588303 C31.7914167,0.729582276 32.8877836,0 34.0957806,0 L60.0099083,0 C61.6604389,0 63,1.3395609 63,2.9900913 L63,28.9042159 C63,30.1122128 62.2704176,31.2045928 61.1541168,31.6670602 C60.0378159,32.1295277 58.7540698,31.87836 57.8969102,31.0172137 L51.0396334,24.1639245 L25.6597354,49.5438194 C23.722156,51.4774118 20.5646192,51.4933589 18.6110927,49.5438194 Z" id="Path"></path>
                        <path d="M28.9042194,96 L2.99009166,96 C1.33956106,96 0,94.6604389 0,93.0099083 L0,67.0957806 C0,65.8877836 0.729582364,64.7954035 1.84588325,64.332936 C2.96218413,63.8704684 4.24991694,64.1256229 5.10308976,64.9827825 L11.9603666,71.8360726 L37.3402646,46.4561746 C39.2818308,44.5146085 42.4433544,44.5146085 44.3889073,46.4561746 L49.5438254,51.6110927 C51.4853915,53.5526588 51.4853915,56.7141824 49.5438254,58.6597354 L24.1639274,84.0396334 L31.0212042,90.8969102 C31.8743771,91.7500831 32.1335183,93.0378159 31.6710508,94.1541168 C31.2085833,95.2704176 30.1122164,96 28.9042194,96 Z" id="Path"></path>
                    </g>
                    <g id="transfer-copy-4" opacity="0.12902832" transform="translate(252.000000, 0.000000)" fill="#FFFFFF" fill-rule="nonzero">
                        <path d="M18.6110927,49.5438194 L13.4561746,44.388902 C11.5146085,42.4473361 11.5146085,39.2858129 13.4561746,37.3402601 L38.8360726,11.9603652 L31.9787958,5.10308915 C31.1256229,4.24991643 30.8664817,2.96218378 31.3289492,1.84588303 C31.7914167,0.729582276 32.8877836,0 34.0957806,0 L60.0099083,0 C61.6604389,0 63,1.3395609 63,2.9900913 L63,28.9042159 C63,30.1122128 62.2704176,31.2045928 61.1541168,31.6670602 C60.0378159,32.1295277 58.7540698,31.87836 57.8969102,31.0172137 L51.0396334,24.1639245 L25.6597354,49.5438194 C23.722156,51.4774118 20.5646192,51.4933589 18.6110927,49.5438194 Z" id="Path"></path>
                        <path d="M28.9042194,96 L2.99009166,96 C1.33956106,96 0,94.6604389 0,93.0099083 L0,67.0957806 C0,65.8877836 0.729582364,64.7954035 1.84588325,64.332936 C2.96218413,63.8704684 4.24991694,64.1256229 5.10308976,64.9827825 L11.9603666,71.8360726 L37.3402646,46.4561746 C39.2818308,44.5146085 42.4433544,44.5146085 44.3889073,46.4561746 L49.5438254,51.6110927 C51.4853915,53.5526588 51.4853915,56.7141824 49.5438254,58.6597354 L24.1639274,84.0396334 L31.0212042,90.8969102 C31.8743771,91.7500831 32.1335183,93.0378159 31.6710508,94.1541168 C31.2085833,95.2704176 30.1122164,96 28.9042194,96 Z" id="Path"></path>
                    </g>
                    <g id="transfer-copy-12" opacity="0.12902832" transform="translate(283.000000, 112.000000)" fill="#FFFFFF" fill-rule="nonzero">
                        <path d="M18.6110927,49.5438194 L13.4561746,44.388902 C11.5146085,42.4473361 11.5146085,39.2858129 13.4561746,37.3402601 L38.8360726,11.9603652 L31.9787958,5.10308915 C31.1256229,4.24991643 30.8664817,2.96218378 31.3289492,1.84588303 C31.7914167,0.729582276 32.8877836,0 34.0957806,0 L60.0099083,0 C61.6604389,0 63,1.3395609 63,2.9900913 L63,28.9042159 C63,30.1122128 62.2704176,31.2045928 61.1541168,31.6670602 C60.0378159,32.1295277 58.7540698,31.87836 57.8969102,31.0172137 L51.0396334,24.1639245 L25.6597354,49.5438194 C23.722156,51.4774118 20.5646192,51.4933589 18.6110927,49.5438194 Z" id="Path"></path>
                        <path d="M28.9042194,96 L2.99009166,96 C1.33956106,96 0,94.6604389 0,93.0099083 L0,67.0957806 C0,65.8877836 0.729582364,64.7954035 1.84588325,64.332936 C2.96218413,63.8704684 4.24991694,64.1256229 5.10308976,64.9827825 L11.9603666,71.8360726 L37.3402646,46.4561746 C39.2818308,44.5146085 42.4433544,44.5146085 44.3889073,46.4561746 L49.5438254,51.6110927 C51.4853915,53.5526588 51.4853915,56.7141824 49.5438254,58.6597354 L24.1639274,84.0396334 L31.0212042,90.8969102 C31.8743771,91.7500831 32.1335183,93.0378159 31.6710508,94.1541168 C31.2085833,95.2704176 30.1122164,96 28.9042194,96 Z" id="Path"></path>
                    </g>
                    <g id="transfer-copy-5" opacity="0.12902832" transform="translate(315.000000, 0.000000)" fill="#FFFFFF" fill-rule="nonzero">
                        <path d="M18.6110927,49.5438194 L13.4561746,44.388902 C11.5146085,42.4473361 11.5146085,39.2858129 13.4561746,37.3402601 L38.8360726,11.9603652 L31.9787958,5.10308915 C31.1256229,4.24991643 30.8664817,2.96218378 31.3289492,1.84588303 C31.7914167,0.729582276 32.8877836,0 34.0957806,0 L60.0099083,0 C61.6604389,0 63,1.3395609 63,2.9900913 L63,28.9042159 C63,30.1122128 62.2704176,31.2045928 61.1541168,31.6670602 C60.0378159,32.1295277 58.7540698,31.87836 57.8969102,31.0172137 L51.0396334,24.1639245 L25.6597354,49.5438194 C23.722156,51.4774118 20.5646192,51.4933589 18.6110927,49.5438194 Z" id="Path"></path>
                        <path d="M28.9042194,96 L2.99009166,96 C1.33956106,96 0,94.6604389 0,93.0099083 L0,67.0957806 C0,65.8877836 0.729582364,64.7954035 1.84588325,64.332936 C2.96218413,63.8704684 4.24991694,64.1256229 5.10308976,64.9827825 L11.9603666,71.8360726 L37.3402646,46.4561746 C39.2818308,44.5146085 42.4433544,44.5146085 44.3889073,46.4561746 L49.5438254,51.6110927 C51.4853915,53.5526588 51.4853915,56.7141824 49.5438254,58.6597354 L24.1639274,84.0396334 L31.0212042,90.8969102 C31.8743771,91.7500831 32.1335183,93.0378159 31.6710508,94.1541168 C31.2085833,95.2704176 30.1122164,96 28.9042194,96 Z" id="Path"></path>
                    </g>
                    <g id="transfer-copy-13" opacity="0.12902832" transform="translate(346.000000, 112.000000)" fill="#FFFFFF" fill-rule="nonzero">
                        <path d="M18.6110927,49.5438194 L13.4561746,44.388902 C11.5146085,42.4473361 11.5146085,39.2858129 13.4561746,37.3402601 L38.8360726,11.9603652 L31.9787958,5.10308915 C31.1256229,4.24991643 30.8664817,2.96218378 31.3289492,1.84588303 C31.7914167,0.729582276 32.8877836,0 34.0957806,0 L60.0099083,0 C61.6604389,0 63,1.3395609 63,2.9900913 L63,28.9042159 C63,30.1122128 62.2704176,31.2045928 61.1541168,31.6670602 C60.0378159,32.1295277 58.7540698,31.87836 57.8969102,31.0172137 L51.0396334,24.1639245 L25.6597354,49.5438194 C23.722156,51.4774118 20.5646192,51.4933589 18.6110927,49.5438194 Z" id="Path"></path>
                        <path d="M28.9042194,96 L2.99009166,96 C1.33956106,96 0,94.6604389 0,93.0099083 L0,67.0957806 C0,65.8877836 0.729582364,64.7954035 1.84588325,64.332936 C2.96218413,63.8704684 4.24991694,64.1256229 5.10308976,64.9827825 L11.9603666,71.8360726 L37.3402646,46.4561746 C39.2818308,44.5146085 42.4433544,44.5146085 44.3889073,46.4561746 L49.5438254,51.6110927 C51.4853915,53.5526588 51.4853915,56.7141824 49.5438254,58.6597354 L24.1639274,84.0396334 L31.0212042,90.8969102 C31.8743771,91.7500831 32.1335183,93.0378159 31.6710508,94.1541168 C31.2085833,95.2704176 30.1122164,96 28.9042194,96 Z" id="Path"></path>
                    </g>
                    <g id="transfer-copy-6" opacity="0.12902832" transform="translate(378.000000, 0.000000)" fill="#FFFFFF" fill-rule="nonzero">
                        <path d="M18.6110927,49.5438194 L13.4561746,44.388902 C11.5146085,42.4473361 11.5146085,39.2858129 13.4561746,37.3402601 L38.8360726,11.9603652 L31.9787958,5.10308915 C31.1256229,4.24991643 30.8664817,2.96218378 31.3289492,1.84588303 C31.7914167,0.729582276 32.8877836,0 34.0957806,0 L60.0099083,0 C61.6604389,0 63,1.3395609 63,2.9900913 L63,28.9042159 C63,30.1122128 62.2704176,31.2045928 61.1541168,31.6670602 C60.0378159,32.1295277 58.7540698,31.87836 57.8969102,31.0172137 L51.0396334,24.1639245 L25.6597354,49.5438194 C23.722156,51.4774118 20.5646192,51.4933589 18.6110927,49.5438194 Z" id="Path"></path>
                        <path d="M28.9042194,96 L2.99009166,96 C1.33956106,96 0,94.6604389 0,93.0099083 L0,67.0957806 C0,65.8877836 0.729582364,64.7954035 1.84588325,64.332936 C2.96218413,63.8704684 4.24991694,64.1256229 5.10308976,64.9827825 L11.9603666,71.8360726 L37.3402646,46.4561746 C39.2818308,44.5146085 42.4433544,44.5146085 44.3889073,46.4561746 L49.5438254,51.6110927 C51.4853915,53.5526588 51.4853915,56.7141824 49.5438254,58.6597354 L24.1639274,84.0396334 L31.0212042,90.8969102 C31.8743771,91.7500831 32.1335183,93.0378159 31.6710508,94.1541168 C31.2085833,95.2704176 30.1122164,96 28.9042194,96 Z" id="Path"></path>
                    </g>
                    <g id="transfer-copy-14" opacity="0.12902832" transform="translate(409.000000, 112.000000)" fill="#FFFFFF" fill-rule="nonzero">
                        <path d="M18.6110927,49.5438194 L13.4561746,44.388902 C11.5146085,42.4473361 11.5146085,39.2858129 13.4561746,37.3402601 L38.8360726,11.9603652 L31.9787958,5.10308915 C31.1256229,4.24991643 30.8664817,2.96218378 31.3289492,1.84588303 C31.7914167,0.729582276 32.8877836,0 34.0957806,0 L60.0099083,0 C61.6604389,0 63,1.3395609 63,2.9900913 L63,28.9042159 C63,30.1122128 62.2704176,31.2045928 61.1541168,31.6670602 C60.0378159,32.1295277 58.7540698,31.87836 57.8969102,31.0172137 L51.0396334,24.1639245 L25.6597354,49.5438194 C23.722156,51.4774118 20.5646192,51.4933589 18.6110927,49.5438194 Z" id="Path"></path>
                        <path d="M28.9042194,96 L2.99009166,96 C1.33956106,96 0,94.6604389 0,93.0099083 L0,67.0957806 C0,65.8877836 0.729582364,64.7954035 1.84588325,64.332936 C2.96218413,63.8704684 4.24991694,64.1256229 5.10308976,64.9827825 L11.9603666,71.8360726 L37.3402646,46.4561746 C39.2818308,44.5146085 42.4433544,44.5146085 44.3889073,46.4561746 L49.5438254,51.6110927 C51.4853915,53.5526588 51.4853915,56.7141824 49.5438254,58.6597354 L24.1639274,84.0396334 L31.0212042,90.8969102 C31.8743771,91.7500831 32.1335183,93.0378159 31.6710508,94.1541168 C31.2085833,95.2704176 30.1122164,96 28.9042194,96 Z" id="Path"></path>
                    </g>
                    <g id="transfer-copy-7" opacity="0.12902832" transform="translate(441.000000, 0.000000)" fill="#FFFFFF" fill-rule="nonzero">
                        <path d="M18.6110927,49.5438194 L13.4561746,44.388902 C11.5146085,42.4473361 11.5146085,39.2858129 13.4561746,37.3402601 L38.8360726,11.9603652 L31.9787958,5.10308915 C31.1256229,4.24991643 30.8664817,2.96218378 31.3289492,1.84588303 C31.7914167,0.729582276 32.8877836,0 34.0957806,0 L60.0099083,0 C61.6604389,0 63,1.3395609 63,2.9900913 L63,28.9042159 C63,30.1122128 62.2704176,31.2045928 61.1541168,31.6670602 C60.0378159,32.1295277 58.7540698,31.87836 57.8969102,31.0172137 L51.0396334,24.1639245 L25.6597354,49.5438194 C23.722156,51.4774118 20.5646192,51.4933589 18.6110927,49.5438194 Z" id="Path"></path>
                        <path d="M28.9042194,96 L2.99009166,96 C1.33956106,96 0,94.6604389 0,93.0099083 L0,67.0957806 C0,65.8877836 0.729582364,64.7954035 1.84588325,64.332936 C2.96218413,63.8704684 4.24991694,64.1256229 5.10308976,64.9827825 L11.9603666,71.8360726 L37.3402646,46.4561746 C39.2818308,44.5146085 42.4433544,44.5146085 44.3889073,46.4561746 L49.5438254,51.6110927 C51.4853915,53.5526588 51.4853915,56.7141824 49.5438254,58.6597354 L24.1639274,84.0396334 L31.0212042,90.8969102 C31.8743771,91.7500831 32.1335183,93.0378159 31.6710508,94.1541168 C31.2085833,95.2704176 30.1122164,96 28.9042194,96 Z" id="Path"></path>
                    </g>
                    <g id="transfer-copy-15" opacity="0.12902832" transform="translate(472.000000, 112.000000)" fill="#FFFFFF" fill-rule="nonzero">
                        <path d="M18.6110927,49.5438194 L13.4561746,44.388902 C11.5146085,42.4473361 11.5146085,39.2858129 13.4561746,37.3402601 L38.8360726,11.9603652 L31.9787958,5.10308915 C31.1256229,4.24991643 30.8664817,2.96218378 31.3289492,1.84588303 C31.7914167,0.729582276 32.8877836,0 34.0957806,0 L60.0099083,0 C61.6604389,0 63,1.3395609 63,2.9900913 L63,28.9042159 C63,30.1122128 62.2704176,31.2045928 61.1541168,31.6670602 C60.0378159,32.1295277 58.7540698,31.87836 57.8969102,31.0172137 L51.0396334,24.1639245 L25.6597354,49.5438194 C23.722156,51.4774118 20.5646192,51.4933589 18.6110927,49.5438194 Z" id="Path"></path>
                        <path d="M28.9042194,96 L2.99009166,96 C1.33956106,96 0,94.6604389 0,93.0099083 L0,67.0957806 C0,65.8877836 0.729582364,64.7954035 1.84588325,64.332936 C2.96218413,63.8704684 4.24991694,64.1256229 5.10308976,64.9827825 L11.9603666,71.8360726 L37.3402646,46.4561746 C39.2818308,44.5146085 42.4433544,44.5146085 44.3889073,46.4561746 L49.5438254,51.6110927 C51.4853915,53.5526588 51.4853915,56.7141824 49.5438254,58.6597354 L24.1639274,84.0396334 L31.0212042,90.8969102 C31.8743771,91.7500831 32.1335183,93.0378159 31.6710508,94.1541168 C31.2085833,95.2704176 30.1122164,96 28.9042194,96 Z" id="Path"></path>
                    </g>
                    <g id="Group-9-Copy-6" transform="translate(148.000000, 59.000000)">
                        <g id="Rectangle-Copy-6" opacity="0.952296666">
                            <use fill="black" fill-opacity="1" filter="url(#filter-2)" xlink:href="#path-1"></use>
                            <use fill="#DFD6FF" fill-rule="evenodd" xlink:href="#path-1"></use>
                        </g>
                        <path d="M18,8 L228,8 C232.418278,8 236,11.581722 236,16 L236,74 C236,78.418278 232.418278,82 228,82 L18,82 C13.581722,82 10,78.418278 10,74 L10,16 C10,11.581722 13.581722,8 18,8 Z" id="Rectangle" fill="#FFFFFF"></path>
                        <text id="who@rulez" font-family="ProximaNova-Light, Proxima Nova" font-size="36" font-weight="300" fill="#4C186E">
                            <tspan x="35.214" y="56">who@</tspan>
                            <tspan x="129.282" y="56" font-family="ProximaNova-Extrabld, Proxima Nova" font-weight="700">rulez</tspan>
                        </text>
                    </g>
                </g>
            </g>
        </g>
    </g>
</svg>