<?xml version="1.0" encoding="UTF-8"?>
<svg width="235px" height="207px" viewBox="0 0 235 207" version="1.1" xmlns="http://www.w3.org/2000/svg" xmlns:xlink="http://www.w3.org/1999/xlink">
    <title>NeverExpries-Mobile@1x</title>
    <defs>
        <rect id="path-1" x="0" y="0" width="197" height="72" rx="6.4"></rect>
        <filter x="-9.1%" y="-25.0%" width="118.3%" height="150.0%" filterUnits="objectBoundingBox" id="filter-2">
            <feMorphology radius="2" operator="dilate" in="SourceAlpha" result="shadowSpreadOuter1"></feMorphology>
            <feOffset dx="0" dy="0" in="shadowSpreadOuter1" result="shadowOffsetOuter1"></feOffset>
            <feGaussianBlur stdDeviation="4" in="shadowOffsetOuter1" result="shadowBlurOuter1"></feGaussianBlur>
            <feColorMatrix values="0 0 0 0 0   0 0 0 0 0   0 0 0 0 0  0 0 0 0.157740453 0" type="matrix" in="shadowBlurOuter1"></feColorMatrix>
        </filter>
    </defs>
    <g id="Final-Files" stroke="none" stroke-width="1" fill="none" fill-rule="evenodd">
        <g id="Dashboard_Page---Mobile" transform="translate(-76.000000, -2047.000000)">
            <g id="Group-11-Copy-4" transform="translate(20.000000, 1995.000000)">
                <g id="NeverExpries-Mobile" transform="translate(56.000000, 52.000000)">
                    <g id="delete" opacity="0.63167681" fill="#FFFFFF" fill-rule="nonzero">
                        <path d="M58.7625557,113.248103 C60.8726225,115.47082 64.816058,115.694436 67.2607886,113.248103 L73.5296152,107.037823 L79.7381079,113.248103 C81.9894784,115.619671 86.056237,115.544596 88.2363408,113.248103 C90.5878864,110.896846 90.5878864,107.098178 88.2363408,104.746553 L82.0293195,98.5359046 L88.2363408,92.2652702 C90.5878864,89.9136445 90.5878864,86.1149772 88.2363408,83.7637193 C85.8862666,81.4120936 82.0881822,81.4120936 79.7381079,83.7637193 L73.5296152,90.0343537 L67.2607886,83.7637193 C64.9107144,81.4120936 61.1126299,81.4120936 58.7625557,83.7637193 C56.4124814,86.1149772 56.4124814,89.9136445 58.7625557,92.2652702 L65.0313823,98.5359046 L58.7625557,104.746553 C56.4124814,107.098178 56.4124814,110.896845 58.7625557,113.248103 L58.7625557,113.248103 Z" id="Path"></path>
                        <path d="M146,39.7096011 C146,26.0767693 134.928818,15 121.30332,15 L117.835686,15 L117.835686,33.0150261 C117.835686,41.4138908 111.02368,48.2303067 102.62859,48.2303067 C94.2349865,48.2303067 87.4214947,41.4138908 87.4214947,33.0150261 L87.4214947,15 L58.5889008,15 L58.5889008,33.0150261 C58.5889008,41.4138908 51.775409,48.2303067 43.3818051,48.2303067 C34.9882012,48.2303067 28.1747094,41.4138908 28.1747094,33.0150261 L28.1747094,15 L24.7070755,15 C11.0815773,15 0.0118803915,26.0767687 0.0118803915,39.7096011 C0.0106662569,48.0517822 0.016281325,9.48963824 0,121.295971 C0,134.918403 11.0726666,146 24.6877698,146 L121.294409,146 C134.909513,146 145.988119,134.918402 145.988119,121.295971 C145.989477,111.934996 145.983815,150.852181 146,39.7096011 Z M133.822442,121.295971 C133.822442,128.205254 128.202945,133.827776 121.294409,133.827776 L24.6877698,133.827776 C17.7851741,133.827776 12.1656766,128.205254 12.1656766,121.295971 L12.1656766,64.9162245 L133.822442,64.9162245 L133.822442,121.295971 Z" id="Shape"></path>
                        <path d="M43.5,40 C46.5400392,40 49,37.2348285 49,33.8243498 L49,6.17565019 C49,2.76517146 46.5400392,0 43.5,0 C40.4599608,0 38,2.76517146 38,6.17565019 L38,33.8243498 C38,37.2348279 40.4599608,40 43.5,40 Z" id="Path"></path>
                        <path d="M103.5,40 C106.540039,40 109,37.2348285 109,33.8243498 L109,6.17565019 C109,2.76517146 106.540039,0 103.5,0 C100.459961,0 98,2.76517146 98,6.17565019 L98,33.8243498 C98,37.2348279 100.459961,40 103.5,40 Z" id="Path"></path>
                    </g>
                    <g id="Group-9-Copy" transform="translate(26.000000, 123.000000)">
                        <g id="Rectangle-Copy-6" opacity="0.952296666">
                            <use fill="black" fill-opacity="1" filter="url(#filter-2)" xlink:href="#path-1"></use>
                            <use fill="#DFD6FF" fill-rule="evenodd" xlink:href="#path-1"></use>
                        </g>
                        <path d="M14.4081301,6.4 L182.59187,6.4 C186.126492,6.4 188.99187,9.2653776 188.99187,12.8 L188.99187,59.2 C188.99187,62.7346224 186.126492,65.6 182.59187,65.6 L14.4081301,65.6 C10.8735077,65.6 8.00813008,62.7346224 8.00813008,59.2 L8.00813008,12.8 C8.00813008,9.2653776 10.8735077,6.4 14.4081301,6.4 Z" id="Rectangle" fill="#FFFFFF"></path>
                        <text id="bob@rulez" font-family="ProximaNova-Light, Proxima Nova" font-size="28.8" font-weight="300" fill="#4C186E">
                            <tspan x="29.956" y="44.4">bob@</tspan>
                            <tspan x="101.8408" y="44.4" font-family="ProximaNova-Extrabld, Proxima Nova" font-weight="700">rulez</tspan>
                        </text>
                    </g>
                </g>
            </g>
        </g>
    </g>
</svg>