<?xml version="1.0" encoding="UTF-8"?>
<svg width="374px" height="161px" viewBox="0 0 374 161" version="1.1" xmlns="http://www.w3.org/2000/svg" xmlns:xlink="http://www.w3.org/1999/xlink">
    <title>Expires@1x</title>
    <defs>
        <rect id="path-1" x="0" y="0" width="246" height="90" rx="8"></rect>
        <filter x="-9.1%" y="-25.0%" width="118.3%" height="150.0%" filterUnits="objectBoundingBox" id="filter-2">
            <feMorphology radius="2.5" operator="dilate" in="SourceAlpha" result="shadowSpreadOuter1"></feMorphology>
            <feOffset dx="0" dy="0" in="shadowSpreadOuter1" result="shadowOffsetOuter1"></feOffset>
            <feGaussianBlur stdDeviation="5" in="shadowOffsetOuter1" result="shadowBlurOuter1"></feGaussianBlur>
            <feColorMatrix values="0 0 0 0 0   0 0 0 0 0   0 0 0 0 0  0 0 0 0.157740453 0" type="matrix" in="shadowBlurOuter1"></feColorMatrix>
        </filter>
    </defs>
    <g id="Twitter-Landing-Page" stroke="none" stroke-width="1" fill="none" fill-rule="evenodd">
        <g id="FIO-Twitter-Landing---Base---Existing-FCH" transform="translate(-245.000000, -1496.000000)">
            <g id="Group-11-Copy" transform="translate(155.000000, 1444.000000)">
                <g id="Expires" transform="translate(90.000000, 52.000000)">
                    <g id="delete" opacity="0.63167681" fill="#FFFFFF" fill-rule="nonzero">
                        <path d="M63.581284,126.251581 C65.9325126,128.728335 70.3266475,128.977508 73.050789,126.251581 L80.0360864,119.331521 L86.9541543,126.251581 C89.4628363,128.894198 93.994389,128.810542 96.4236592,126.251581 C99.0439654,123.631595 99.0439654,119.398774 96.4236592,116.778379 L89.5072309,109.857909 L96.4236592,102.870598 C99.0439654,100.250202 99.0439654,96.017381 96.4236592,93.3973954 C93.8049925,90.7769999 89.572821,90.7769999 86.9541543,93.3973954 L80.0360864,100.384707 L73.050789,93.3973954 C70.4321222,90.7769999 66.1999507,90.7769999 63.581284,93.3973954 C60.9626173,96.017381 60.9626173,100.250202 63.581284,102.870598 L70.5665815,109.857909 L63.581284,116.778379 C60.9626173,119.398774 60.9626173,123.631595 63.581284,126.251581 L63.581284,126.251581 Z" id="Path"></path>
                        <path d="M161,44.0765544 C161,29.0799255 148.791368,16.8950617 133.76599,16.8950617 L129.942092,16.8950617 L129.942092,36.7122696 C129.942092,45.9513373 122.430222,53.4496518 113.172624,53.4496518 C103.916663,53.4496518 96.4031551,45.9513373 96.4031551,36.7122696 L96.4031551,16.8950617 L64.6083085,16.8950617 L64.6083085,36.7122696 C64.6083085,45.9513373 57.0948004,53.4496518 47.8388399,53.4496518 C38.5828794,53.4496518 31.0693713,45.9513373 31.0693713,36.7122696 L31.0693713,16.8950617 L27.2454737,16.8950617 C12.2200955,16.8950617 0.0131009796,29.0799249 0.0131009796,44.0765544 C0.0117621053,53.253268 0.0179540638,10.8334561 0,133.824637 C0,148.809825 12.2102693,161 27.2241845,161 L133.756164,161 C148.770079,161 160.986898,148.809824 160.986898,133.824637 C160.988396,123.527212 160.982152,166.337582 161,44.0765544 Z M147.571323,133.824637 C147.571323,141.425109 141.374481,147.610094 133.756164,147.610094 L27.2241845,147.610094 C19.6124181,147.610094 13.4155749,141.425109 13.4155749,133.824637 L13.4155749,71.8047903 L147.571323,71.8047903 L147.571323,133.824637 Z" id="Shape"></path>
                        <path d="M47.2067901,43.7283951 C50.7773861,43.7283951 53.6666667,40.7054823 53.6666667,36.9771133 L53.6666667,6.75128178 C53.6666667,3.02291275 50.7773861,0 47.2067901,0 C43.6361941,0 40.7469136,3.02291275 40.7469136,6.75128178 L40.7469136,36.9771133 C40.7469136,40.7054816 43.6361941,43.7283951 47.2067901,43.7283951 Z" id="Path"></path>
                        <path d="M112.799383,43.7283951 C116.369979,43.7283951 119.259259,40.7054823 119.259259,36.9771133 L119.259259,6.75128178 C119.259259,3.02291275 116.369979,0 112.799383,0 C109.228787,0 106.339506,3.02291275 106.339506,6.75128178 L106.339506,36.9771133 C106.339506,40.7054816 109.228787,43.7283951 112.799383,43.7283951 Z" id="Path"></path>
                    </g>
                    <g id="Group-9-Copy" transform="translate(113.000000, 35.000000)">
                        <g id="Rectangle-Copy-6" opacity="0.952296666">
                            <use fill="black" fill-opacity="1" filter="url(#filter-2)" xlink:href="#path-1"></use>
                            <use fill="#DFD6FF" fill-rule="evenodd" xlink:href="#path-1"></use>
                        </g>
                        <path d="M18,8 L228,8 C232.418278,8 236,11.581722 236,16 L236,74 C236,78.418278 232.418278,82 228,82 L18,82 C13.581722,82 10,78.418278 10,74 L10,16 C10,11.581722 13.581722,8 18,8 Z" id="Rectangle" fill="#FFFFFF"></path>
                        <text id="bob@twitter" font-family="ProximaNova-Light, Proxima Nova" font-size="32" font-weight="300" fill="#4C186E">
                            <tspan x="34.168" y="56">bob@</tspan>
                            <tspan x="114.04" y="56" font-family="ProximaNova-Extrabld, Proxima Nova" font-weight="700">twitter</tspan>
                        </text>
                    </g>
                </g>
            </g>
        </g>
    </g>
</svg>