<?xml version="1.0" encoding="UTF-8"?>
<svg width="319px" height="178px" viewBox="0 0 319 178" version="1.1" xmlns="http://www.w3.org/2000/svg" xmlns:xlink="http://www.w3.org/1999/xlink">
    <title>SendnReceive@1x</title>
    <defs>
        <rect id="path-1" x="0" y="0" width="246" height="90" rx="8"></rect>
        <filter x="-9.1%" y="-25.0%" width="118.3%" height="150.0%" filterUnits="objectBoundingBox" id="filter-2">
            <feMorphology radius="2.5" operator="dilate" in="SourceAlpha" result="shadowSpreadOuter1"></feMorphology>
            <feOffset dx="0" dy="0" in="shadowSpreadOuter1" result="shadowOffsetOuter1"></feOffset>
            <feGaussianBlur stdDeviation="5" in="shadowOffsetOuter1" result="shadowBlurOuter1"></feGaussianBlur>
            <feColorMatrix values="0 0 0 0 0   0 0 0 0 0   0 0 0 0 0  0 0 0 0.157740453 0" type="matrix" in="shadowBlurOuter1"></feColorMatrix>
        </filter>
    </defs>
    <g id="Twitter-Landing-Page" stroke="none" stroke-width="1" fill="none" fill-rule="evenodd">
        <g id="FIO-Twitter-Landing---Base---Existing-FCH" transform="translate(-880.000000, -1183.000000)">
            <g id="Group-11" transform="translate(155.000000, 1139.000000)">
                <g id="SendnReceive" transform="translate(725.000000, 44.000000)">
                    <g id="send-copy-2" opacity="0.274081276" transform="translate(143.000000, 35.000000) scale(-1, -1) translate(-143.000000, -35.000000) translate(121.000000, 13.000000)" fill="#4C186E" fill-rule="nonzero">
                        <g id="Group" transform="translate(0.000000, 22.000000)">
                            <path d="M1.38084943,7.15280006 C1.02796569,7.15280006 0.675081944,7.01778367 0.405049167,6.74775089 C-0.135016389,6.20921961 -0.135016389,5.33468164 0.405049167,4.79615036 L4.79615036,0.405049167 C5.33621591,-0.135016389 6.20921961,-0.135016389 6.74775089,0.405049167 C7.28781644,0.943580445 7.28781644,1.81811842 6.74775089,2.3566497 L2.3566497,6.74775089 C2.0881512,7.01778367 1.73526745,7.15280006 1.38084943,7.15280006 L1.38084943,7.15280006 Z" id="Path"></path>
                            <path d="M4.93576958,18.4450799 C4.58288584,18.4450799 4.23000209,18.3100635 3.95996931,18.0400307 C3.41990376,17.5014994 3.41990376,16.6269614 3.95996931,16.0884302 L12.2205175,7.827882 C12.760583,7.28781644 13.6335867,7.28781644 14.172118,7.827882 C14.7121836,8.36641328 14.7121836,9.24095125 14.172118,9.77948253 L5.91156984,18.041565 C5.64153707,18.3115977 5.28865332,18.4450799 4.93576958,18.4450799 L4.93576958,18.4450799 Z" id="Path"></path>
                            <path d="M16.2280494,22 C15.8751656,22 15.5222819,21.8649836 15.2522491,21.5949508 C14.7121836,21.0564196 14.7121836,20.1818816 15.2522491,19.6433503 L19.6433503,15.2522491 C20.1834159,14.7121836 21.0564196,14.7121836 21.5949508,15.2522491 C22.1350164,15.7907804 22.1350164,16.6653184 21.5949508,17.2038496 L17.2038496,21.5949508 C16.9353511,21.8649836 16.5824674,22 16.2280494,22 L16.2280494,22 Z" id="Path"></path>
                        </g>
                        <path d="M40.133389,0.128926302 L4.14908155,10.858632 C1.43158045,11.6683345 1.24173812,15.4428643 3.86278707,16.5219574 L19.3135032,22.8878413 C19.3808666,22.7240641 19.4788497,22.5710012 19.6120455,22.4393672 L27.513467,14.5397935 C28.0523743,14.0010123 28.9235056,14.0010123 29.4608819,14.5397935 C29.9997892,15.0770441 29.9997892,15.9495024 29.4608819,16.486753 L21.5594604,24.3863266 C21.4262646,24.5194913 21.2731659,24.6189821 21.1093504,24.6863298 L27.4797853,40.1410856 C28.5575999,42.7569297 32.3268887,42.5671318 33.1352496,39.8548581 L43.8705272,3.86519044 C44.5533472,1.57843148 42.4222139,-0.552203375 40.133389,0.128926302 L40.133389,0.128926302 Z" id="Path"></path>
                    </g>
                    <g id="send-copy-3" opacity="0.717554002" transform="translate(224.000000, 34.000000) scale(-1, -1) translate(-224.000000, -34.000000) translate(190.000000, 0.000000)" fill="#FFFFFF" fill-rule="nonzero">
                        <g id="Group" transform="translate(0.000000, 34.000000)">
                            <path d="M2.13404003,11.0543274 C1.58867425,11.0543274 1.04330846,10.8456657 0.625985076,10.4283423 C-0.208661692,9.59606667 -0.208661692,8.24450799 0.625985076,7.41223237 L7.41223237,0.625985076 C8.24687914,-0.208661692 9.59606667,-0.208661692 10.4283423,0.625985076 C11.2629891,1.45826069 11.2629891,2.80981937 10.4283423,3.64209499 L3.64209499,10.4283423 C3.22714276,10.8456657 2.68177697,11.0543274 2.13404003,11.0543274 L2.13404003,11.0543274 Z" id="Path"></path>
                            <path d="M7.62800753,28.5060325 C7.08264175,28.5060325 6.53727596,28.2973708 6.11995258,27.8800474 C5.28530581,27.0477718 5.28530581,25.6962131 6.11995258,24.8639375 L18.8862543,12.0976358 C19.720901,11.2629891 21.0700886,11.2629891 21.9023642,12.0976358 C22.7370109,12.9299114 22.7370109,14.2814701 21.9023642,15.1137457 L9.13606249,27.8824186 C8.7187391,28.299742 8.17337332,28.5060325 7.62800753,28.5060325 L7.62800753,28.5060325 Z" id="Path"></path>
                            <path d="M25.0797127,34 C24.5343469,34 23.9889811,33.7913383 23.5716577,33.3740149 C22.7370109,32.5417393 22.7370109,31.1901806 23.5716577,30.357905 L30.357905,23.5716577 C31.1925518,22.7370109 32.5417393,22.7370109 33.3740149,23.5716577 C34.2086617,24.4039333 34.2086617,25.755492 33.3740149,26.5877676 L26.5877676,33.3740149 C26.1728154,33.7913383 25.6274496,34 25.0797127,34 L25.0797127,34 Z" id="Path"></path>
                        </g>
                        <path d="M62.0159592,0.199528801 L6.32595954,16.8050257 C2.12030308,18.0581367 1.82649948,23.899671 5.88288475,25.569696 L29.7947073,35.4216592 C29.8989602,35.1681944 30.0506007,34.9313114 30.2567371,34.727592 L42.4851276,22.5020614 C43.3191507,21.6682333 44.6673302,21.6682333 45.4989839,22.5020614 C46.333007,23.3335207 46.333007,24.6837537 45.4989839,25.5152129 L33.2705935,37.7407436 C33.0644571,37.9468317 32.8275187,38.1008057 32.5739946,38.2050342 L42.4330011,62.1231087 C44.1010474,66.1714389 49.9344706,65.877704 51.1855053,61.6801376 L67.7996254,5.98184236 C68.8563706,2.44281063 65.5581882,-0.854600462 62.0159592,0.199528801 L62.0159592,0.199528801 Z" id="Path"></path>
                    </g>
                    <g id="send-copy-4" opacity="0.8168691" transform="translate(22.000000, 90.000000) scale(-1, -1) translate(-22.000000, -90.000000) translate(0.000000, 68.000000)" fill="#4C186E" fill-rule="nonzero">
                        <g id="Group" transform="translate(0.000000, 22.000000)">
                            <path d="M1.38084943,7.15280006 C1.02796569,7.15280006 0.675081944,7.01778367 0.405049167,6.74775089 C-0.135016389,6.20921961 -0.135016389,5.33468164 0.405049167,4.79615036 L4.79615036,0.405049167 C5.33621591,-0.135016389 6.20921961,-0.135016389 6.74775089,0.405049167 C7.28781644,0.943580445 7.28781644,1.81811842 6.74775089,2.3566497 L2.3566497,6.74775089 C2.0881512,7.01778367 1.73526745,7.15280006 1.38084943,7.15280006 L1.38084943,7.15280006 Z" id="Path"></path>
                            <path d="M4.93576958,18.4450799 C4.58288584,18.4450799 4.23000209,18.3100635 3.95996931,18.0400307 C3.41990376,17.5014994 3.41990376,16.6269614 3.95996931,16.0884302 L12.2205175,7.827882 C12.760583,7.28781644 13.6335867,7.28781644 14.172118,7.827882 C14.7121836,8.36641328 14.7121836,9.24095125 14.172118,9.77948253 L5.91156984,18.041565 C5.64153707,18.3115977 5.28865332,18.4450799 4.93576958,18.4450799 L4.93576958,18.4450799 Z" id="Path"></path>
                            <path d="M16.2280494,22 C15.8751656,22 15.5222819,21.8649836 15.2522491,21.5949508 C14.7121836,21.0564196 14.7121836,20.1818816 15.2522491,19.6433503 L19.6433503,15.2522491 C20.1834159,14.7121836 21.0564196,14.7121836 21.5949508,15.2522491 C22.1350164,15.7907804 22.1350164,16.6653184 21.5949508,17.2038496 L17.2038496,21.5949508 C16.9353511,21.8649836 16.5824674,22 16.2280494,22 L16.2280494,22 Z" id="Path"></path>
                        </g>
                        <path d="M40.133389,0.128926302 L4.14908155,10.858632 C1.43158045,11.6683345 1.24173812,15.4428643 3.86278707,16.5219574 L19.3135032,22.8878413 C19.3808666,22.7240641 19.4788497,22.5710012 19.6120455,22.4393672 L27.513467,14.5397935 C28.0523743,14.0010123 28.9235056,14.0010123 29.4608819,14.5397935 C29.9997892,15.0770441 29.9997892,15.9495024 29.4608819,16.486753 L21.5594604,24.3863266 C21.4262646,24.5194913 21.2731659,24.6189821 21.1093504,24.6863298 L27.4797853,40.1410856 C28.5575999,42.7569297 32.3268887,42.5671318 33.1352496,39.8548581 L43.8705272,3.86519044 C44.5533472,1.57843148 42.4222139,-0.552203375 40.133389,0.128926302 L40.133389,0.128926302 Z" id="Path"></path>
                    </g>
                    <g id="send-copy-5" opacity="0.193347023" transform="translate(157.000000, 134.000000)" fill="#FFFFFF" fill-rule="nonzero">
                        <g id="Group" transform="translate(0.000000, 22.000000)">
                            <path d="M1.38084943,7.15280006 C1.02796569,7.15280006 0.675081944,7.01778367 0.405049167,6.74775089 C-0.135016389,6.20921961 -0.135016389,5.33468164 0.405049167,4.79615036 L4.79615036,0.405049167 C5.33621591,-0.135016389 6.20921961,-0.135016389 6.74775089,0.405049167 C7.28781644,0.943580445 7.28781644,1.81811842 6.74775089,2.3566497 L2.3566497,6.74775089 C2.0881512,7.01778367 1.73526745,7.15280006 1.38084943,7.15280006 L1.38084943,7.15280006 Z" id="Path"></path>
                            <path d="M4.93576958,18.4450799 C4.58288584,18.4450799 4.23000209,18.3100635 3.95996931,18.0400307 C3.41990376,17.5014994 3.41990376,16.6269614 3.95996931,16.0884302 L12.2205175,7.827882 C12.760583,7.28781644 13.6335867,7.28781644 14.172118,7.827882 C14.7121836,8.36641328 14.7121836,9.24095125 14.172118,9.77948253 L5.91156984,18.041565 C5.64153707,18.3115977 5.28865332,18.4450799 4.93576958,18.4450799 L4.93576958,18.4450799 Z" id="Path"></path>
                            <path d="M16.2280494,22 C15.8751656,22 15.5222819,21.8649836 15.2522491,21.5949508 C14.7121836,21.0564196 14.7121836,20.1818816 15.2522491,19.6433503 L19.6433503,15.2522491 C20.1834159,14.7121836 21.0564196,14.7121836 21.5949508,15.2522491 C22.1350164,15.7907804 22.1350164,16.6653184 21.5949508,17.2038496 L17.2038496,21.5949508 C16.9353511,21.8649836 16.5824674,22 16.2280494,22 L16.2280494,22 Z" id="Path"></path>
                        </g>
                        <path d="M40.133389,0.128926302 L4.14908155,10.858632 C1.43158045,11.6683345 1.24173812,15.4428643 3.86278707,16.5219574 L19.3135032,22.8878413 C19.3808666,22.7240641 19.4788497,22.5710012 19.6120455,22.4393672 L27.513467,14.5397935 C28.0523743,14.0010123 28.9235056,14.0010123 29.4608819,14.5397935 C29.9997892,15.0770441 29.9997892,15.9495024 29.4608819,16.486753 L21.5594604,24.3863266 C21.4262646,24.5194913 21.2731659,24.6189821 21.1093504,24.6863298 L27.4797853,40.1410856 C28.5575999,42.7569297 32.3268887,42.5671318 33.1352496,39.8548581 L43.8705272,3.86519044 C44.5533472,1.57843148 42.4222139,-0.552203375 40.133389,0.128926302 L40.133389,0.128926302 Z" id="Path"></path>
                    </g>
                    <g id="Group-9-Copy-2" transform="translate(35.000000, 46.000000)">
                        <g id="Rectangle-Copy-6" opacity="0.952296666">
                            <use fill="black" fill-opacity="1" filter="url(#filter-2)" xlink:href="#path-1"></use>
                            <use fill="#DFD6FF" fill-rule="evenodd" xlink:href="#path-1"></use>
                        </g>
                        <path d="M18,8 L228,8 C232.418278,8 236,11.581722 236,16 L236,74 C236,78.418278 232.418278,82 228,82 L18,82 C13.581722,82 10,78.418278 10,74 L10,16 C10,11.581722 13.581722,8 18,8 Z" id="Rectangle" fill="#FFFFFF"></path>
                        <text id="bob@twitter" font-family="ProximaNova-Light, Proxima Nova" font-size="32" font-weight="300" fill="#4C186E">
                            <tspan x="34.168" y="56">bob@</tspan>
                            <tspan x="114.04" y="56" font-family="ProximaNova-Extrabld, Proxima Nova" font-weight="700">twitter</tspan>
                        </text>
                    </g>
                    <g id="send" transform="translate(263.000000, 57.000000)" fill="#4C186E" fill-rule="nonzero">
                        <g id="Group" transform="translate(0.000000, 28.000000)">
                            <path d="M1.75744473,9.10356371 C1.30831997,9.10356371 0.859195202,8.93172467 0.515517121,8.58804659 C-0.17183904,7.90264314 -0.17183904,6.78959481 0.515517121,6.10419137 L6.10419137,0.515517121 C6.79154753,-0.17183904 7.90264314,-0.17183904 8.58804659,0.515517121 C9.27540275,1.20092057 9.27540275,2.3139689 8.58804659,2.99937234 L2.99937234,8.58804659 C2.65764698,8.93172467 2.20852221,9.10356371 1.75744473,9.10356371 L1.75744473,9.10356371 Z" id="Path"></path>
                            <path d="M6.28188856,23.4755562 C5.83276379,23.4755562 5.38363903,23.3037171 5.03996095,22.9600391 C4.35260478,22.2746356 4.35260478,21.1615873 5.03996095,20.4761838 L15.5533859,9.96275891 C16.240742,9.27540275 17.3518376,9.27540275 18.0372411,9.96275891 C18.7245973,10.6481624 18.7245973,11.7612107 18.0372411,12.4466141 L7.52381617,22.9619918 C7.18013808,23.3056699 6.73101332,23.4755562 6.28188856,23.4755562 L6.28188856,23.4755562 Z" id="Path"></path>
                            <path d="M20.653881,28 C20.2047563,28 19.7556315,27.828161 19.4119534,27.4844829 C18.7245973,26.7990794 18.7245973,25.6860311 19.4119534,25.0006277 L25.0006277,19.4119534 C25.6879838,18.7245973 26.7990794,18.7245973 27.4844829,19.4119534 C28.171839,20.0973569 28.171839,21.2104052 27.4844829,21.8958086 L21.8958086,27.4844829 C21.5540833,27.828161 21.1049585,28 20.653881,28 L20.653881,28 Z" id="Path"></path>
                        </g>
                        <path d="M51.1207052,0.162692715 L5.71193624,13.7025594 C2.28270867,14.7243268 2.04314573,19.487424 5.35065987,20.8491367 L24.8479921,28.8822759 C24.9329983,28.6756047 25.0566437,28.4824539 25.2247241,28.3163443 L35.1955656,18.3478347 C35.8756152,17.6679441 36.9749,17.6679441 37.6530176,18.3478347 C38.3330673,19.0257938 38.3330673,20.126753 37.6530176,20.8047121 L27.6821762,30.7732217 C27.5140958,30.9412628 27.3208999,31.0668108 27.1141802,31.1517971 L35.1530624,50.6542271 C36.5131617,53.9551732 41.2696453,53.7156663 42.2897197,50.2930352 L55.8366176,4.87750223 C56.6982714,1.9918302 54.0089842,-0.696828069 51.1207052,0.162692715 L51.1207052,0.162692715 Z" id="Path"></path>
                    </g>
                    <g id="send-copy" transform="translate(93.000000, 146.000000) scale(-1, -1) translate(-93.000000, -146.000000) translate(65.000000, 118.000000)" fill="#4C186E" fill-rule="nonzero">
                        <g id="Group" transform="translate(0.000000, 28.000000)">
                            <path d="M1.75744473,9.10356371 C1.30831997,9.10356371 0.859195202,8.93172467 0.515517121,8.58804659 C-0.17183904,7.90264314 -0.17183904,6.78959481 0.515517121,6.10419137 L6.10419137,0.515517121 C6.79154753,-0.17183904 7.90264314,-0.17183904 8.58804659,0.515517121 C9.27540275,1.20092057 9.27540275,2.3139689 8.58804659,2.99937234 L2.99937234,8.58804659 C2.65764698,8.93172467 2.20852221,9.10356371 1.75744473,9.10356371 L1.75744473,9.10356371 Z" id="Path"></path>
                            <path d="M6.28188856,23.4755562 C5.83276379,23.4755562 5.38363903,23.3037171 5.03996095,22.9600391 C4.35260478,22.2746356 4.35260478,21.1615873 5.03996095,20.4761838 L15.5533859,9.96275891 C16.240742,9.27540275 17.3518376,9.27540275 18.0372411,9.96275891 C18.7245973,10.6481624 18.7245973,11.7612107 18.0372411,12.4466141 L7.52381617,22.9619918 C7.18013808,23.3056699 6.73101332,23.4755562 6.28188856,23.4755562 L6.28188856,23.4755562 Z" id="Path"></path>
                            <path d="M20.653881,28 C20.2047563,28 19.7556315,27.828161 19.4119534,27.4844829 C18.7245973,26.7990794 18.7245973,25.6860311 19.4119534,25.0006277 L25.0006277,19.4119534 C25.6879838,18.7245973 26.7990794,18.7245973 27.4844829,19.4119534 C28.171839,20.0973569 28.171839,21.2104052 27.4844829,21.8958086 L21.8958086,27.4844829 C21.5540833,27.828161 21.1049585,28 20.653881,28 L20.653881,28 Z" id="Path"></path>
                        </g>
                        <path d="M51.1207052,0.162692715 L5.71193624,13.7025594 C2.28270867,14.7243268 2.04314573,19.487424 5.35065987,20.8491367 L24.8479921,28.8822759 C24.9329983,28.6756047 25.0566437,28.4824539 25.2247241,28.3163443 L35.1955656,18.3478347 C35.8756152,17.6679441 36.9749,17.6679441 37.6530176,18.3478347 C38.3330673,19.0257938 38.3330673,20.126753 37.6530176,20.8047121 L27.6821762,30.7732217 C27.5140958,30.9412628 27.3208999,31.0668108 27.1141802,31.1517971 L35.1530624,50.6542271 C36.5131617,53.9551732 41.2696453,53.7156663 42.2897197,50.2930352 L55.8366176,4.87750223 C56.6982714,1.9918302 54.0089842,-0.696828069 51.1207052,0.162692715 L51.1207052,0.162692715 Z" id="Path"></path>
                    </g>
                </g>
            </g>
        </g>
    </g>
</svg>