<svg width="332" height="225" viewBox="0 0 332 225" fill="none" xmlns="http://www.w3.org/2000/svg">
<g filter="url(#filter0_d_19_4780)">
<path d="M109.731 103.386C130.527 103.386 147.386 86.5273 147.386 65.7307C147.386 44.9341 130.527 28.0752 109.731 28.0752C88.9341 28.0752 72.0752 44.9341 72.0752 65.7307C72.0752 86.5273 88.9341 103.386 109.731 103.386Z" fill="#F2A900"/>
<path opacity="0.406666" d="M109.731 114.461C136.644 114.461 158.461 92.6439 158.461 65.7307C158.461 38.8175 136.644 17 109.731 17C82.8175 17 61 38.8175 61 65.7307C61 92.6439 82.8175 114.461 109.731 114.461Z" stroke="#F2A900" stroke-width="3.24871"/>
</g>
<path fill-rule="evenodd" clip-rule="evenodd" d="M116.537 73.2372L116.537 73.2567L116.538 73.2604C116.531 73.2811 116.528 73.2979 116.521 73.3181L116.521 73.3218L116.521 73.3286L116.521 73.3322C116.31 74.0403 115.865 74.6542 115.258 75.0778L115.201 75.1154L115.174 75.132L115.154 75.1456L115.144 75.1517L115.127 75.1622L115.117 75.1683L115.1 75.1788L115.091 75.1854L115.069 75.1949L115.06 75.2024L115.039 75.2123L115.029 75.2184L115.01 75.2288L115 75.2349L114.98 75.2449L114.969 75.2519L114.95 75.2623L114.939 75.2684L114.919 75.2784L114.91 75.285L114.889 75.2958L114.879 75.3019L114.859 75.3119L114.85 75.3185L114.828 75.3279L114.819 75.3354L114.795 75.3448L114.786 75.3514L114.762 75.3626L114.752 75.3679L114.728 75.3818L114.719 75.3884L114.695 75.4019L114.685 75.4085L114.661 75.4219L114.648 75.4289L114.624 75.4424L114.61 75.4502L114.584 75.4628L114.57 75.4701L114.543 75.4836L114.529 75.49L114.502 75.5043L114.488 75.5108L114.462 75.5242L114.448 75.5307L114.421 75.5441L114.4 75.5513L114.36 75.5681C113.141 76.109 111.566 76.2496 109.95 75.8577C108.93 75.6134 105.844 74.881 105.095 74.6991L107.067 66.5419C107.815 66.7212 110.894 67.4834 111.914 67.7285C113.53 68.1195 114.87 68.9646 115.705 69.9989L115.732 70.0328L115.746 70.0504L115.766 70.0741L115.776 70.0839L115.793 70.108L115.804 70.1169L115.821 70.1409L115.831 70.1512L115.848 70.1753L115.855 70.1845L115.871 70.2081L115.878 70.2187L115.896 70.2419L115.902 70.2521L115.92 70.2752L115.926 70.2854L115.939 70.3053L115.945 70.3154L115.96 70.3358L115.966 70.3446L115.98 70.3659L115.986 70.376L115.999 70.3959L116.006 70.4052L116.02 70.425L116.027 70.4357L116.04 70.4556L116.046 70.4657L116.06 70.4856L116.066 70.4958L116.08 70.5161L116.086 70.5258L116.1 70.5462L116.106 70.5563L116.117 70.5757L116.123 70.5858L116.134 70.6066L116.14 70.6167L116.15 70.6361L116.156 70.6462L116.166 70.6665L116.173 70.6758L116.183 70.6974L116.19 70.7066L116.2 70.7237L116.206 70.7339L116.216 70.7541L116.23 70.7808C116.241 70.8016 116.254 70.8215 116.264 70.8417C116.613 71.4969 116.729 72.2513 116.594 72.9808L116.594 72.9945C116.59 73.0144 116.587 73.0311 116.584 73.0515L116.585 73.0551L116.585 73.0747C116.578 73.1023 116.571 73.1294 116.565 73.1597C116.575 73.1731 116.561 73.2028 116.537 73.2372ZM109.781 55.3033C110.411 55.4555 113.01 56.0993 113.87 56.3045C115.235 56.6356 116.355 57.3842 117.043 58.3212L117.068 58.3513L117.078 58.3648L117.091 58.3847L117.097 58.3948L117.111 58.4147L117.118 58.4253L117.132 58.4452L117.138 58.4554L117.151 58.4753L117.158 58.4845L117.172 58.5058L117.178 58.5159L117.192 58.5358L117.198 58.5451L117.212 58.565L117.218 58.5751L117.232 58.595L117.239 58.6057L117.252 58.6256L117.258 58.6357L117.268 58.656L117.274 58.6661L117.285 58.6855L117.292 58.6961L117.302 58.7164L117.308 58.7256L117.319 58.7427L117.325 58.7529L117.335 58.7699L117.341 58.7801L117.352 58.7972L117.359 58.8064L117.368 58.8239L117.375 58.8337L117.385 58.8503L117.388 58.8613L117.399 58.8784L117.402 58.8848L117.412 58.9019L117.415 58.9092L117.426 58.9263L117.429 58.9328L117.44 58.9499L117.443 58.9558L117.449 58.9733L117.453 58.9797L117.463 58.9968L117.477 59.0204C117.487 59.0383 117.494 59.0581 117.504 59.0747C117.788 59.6837 117.871 60.3668 117.742 61.0255L117.741 61.0355C117.738 61.0523 117.735 61.0726 117.731 61.0903L117.731 61.1144C117.724 61.1406 117.722 61.1646 117.714 61.1917C117.709 61.2197 117.7 61.2464 117.688 61.2733L117.688 61.2929L117.688 61.2965C117.683 61.3141 117.678 61.3322 117.676 61.3508L117.675 61.3607C117.489 62.0053 117.103 62.5748 116.573 62.988L116.525 63.025L116.502 63.0426L116.486 63.0522L116.478 63.0597L116.465 63.0698L116.458 63.0756L116.441 63.087L116.434 63.0927L116.417 63.1032L116.41 63.1098L116.393 63.1203L116.387 63.1261L116.369 63.1366L116.363 63.1437L116.345 63.1537L116.338 63.1603L116.322 63.1713L116.312 63.1774L116.294 63.1874L116.285 63.194L116.268 63.2045L116.258 63.2106L116.24 63.2211L116.23 63.2272L116.211 63.2376L116.201 63.2437L116.181 63.2537L116.17 63.2598L116.151 63.2711L116.14 63.2772L116.12 63.2872L116.111 63.2937L116.089 63.3041L116.08 63.3098L116.06 63.3207L116.051 63.3272L116.029 63.3367L116.02 63.3442L115.999 63.3541L115.989 63.3603L115.967 63.3701L115.956 63.3772L115.932 63.3875L115.922 63.3927L115.899 63.4035L115.889 63.4105L115.865 63.4199L115.849 63.4272L115.815 63.445C114.772 63.9644 113.433 64.12 112.068 63.788C111.208 63.5792 108.602 62.9638 107.973 62.8112L109.781 55.3033ZM123.687 75.2107L123.687 75.1693L123.685 75.1629C123.693 75.1254 123.702 75.0879 123.709 75.0476L123.708 75.0439L123.709 75.0371L123.708 75.0312L123.709 75.0271L123.709 75.0198C123.988 73.6316 123.842 72.1904 123.292 70.885L123.292 70.8814C123.275 70.845 123.258 70.8037 123.241 70.7669L123.217 70.7172L123.199 70.679L123.193 70.662L123.175 70.6284L123.168 70.6118L123.152 70.5778L123.144 70.5612L123.127 70.5244L123.118 70.5069L123.101 70.4701L123.09 70.453L123.071 70.4162L123.059 70.3986L123.056 70.3622L123.046 70.3419L123.025 70.3046L123.015 70.2843L122.995 70.247L122.985 70.2267L122.965 70.1899L122.955 70.1705L122.934 70.1295L122.924 70.1093L122.9 70.0687L122.89 70.0484L122.866 70.0083L122.856 69.988L122.832 69.9465L122.822 69.9271L122.799 69.8861L122.785 69.8662L122.761 69.8256L122.747 69.8057L122.72 69.765L122.706 69.7447L122.679 69.7003L122.665 69.6813L122.638 69.637L122.625 69.6162L122.597 69.5728L122.583 69.5493L122.556 69.5058L122.542 69.4814L122.512 69.4379L122.498 69.4144L122.468 69.3704L122.447 69.3399C122.433 69.3164 122.417 69.2928 122.403 69.2693C121.768 68.3564 120.985 67.5575 120.083 66.9057C120.512 66.7582 120.928 66.5768 121.329 66.365L121.393 66.3311L121.396 66.3308L121.427 66.3138L121.467 66.2903L121.488 66.2794L121.528 66.2559L121.548 66.2459L121.589 66.2215L121.609 66.2115L121.649 66.188L121.67 66.178L121.71 66.1536L121.731 66.1437L121.768 66.1196L121.788 66.1096L121.825 66.0855L121.842 66.0751L121.879 66.051L121.897 66.041L121.934 66.0169L121.95 66.0073L121.984 65.9836L122.002 65.9736L122.035 65.949L122.052 65.9394L122.086 65.9148L122.103 65.9052L122.137 65.8842L122.154 65.8737L122.188 65.8542L122.205 65.8432L122.235 65.824L122.253 65.8135L122.283 65.7929L122.297 65.7828L122.327 65.7635L122.34 65.752L122.371 65.7328L122.385 65.7227L122.415 65.7021L122.429 65.692L122.456 65.6708L122.47 65.6607L122.497 65.6396L122.51 65.6295L122.537 65.6092L122.551 65.5991L122.581 65.5748L122.621 65.5445C122.652 65.5207 122.679 65.4968 122.71 65.4731C123.677 64.6635 124.38 63.5836 124.723 62.3702L124.723 62.3606L124.723 62.3538L124.723 62.347L124.723 62.3433C124.733 62.3095 124.743 62.2725 124.75 62.2381L124.753 62.2318L124.753 62.2282L124.754 62.1941C124.766 62.1467 124.78 62.0997 124.79 62.0486C124.803 62.0017 124.813 61.9505 124.822 61.9026L124.822 61.8658L124.823 61.8589C124.829 61.8246 124.836 61.7911 124.842 61.7567L124.842 61.7508L124.842 61.7471L124.842 61.7403L124.842 61.7367C125.09 60.5004 124.962 59.2156 124.471 58.0544C124.458 58.0209 124.441 57.9832 124.426 57.9501L124.406 57.906L124.39 57.871L124.383 57.8545L124.369 57.8241L124.362 57.8067L124.35 57.7759L124.342 57.7593L124.325 57.7293L124.318 57.7119L124.301 57.6787L124.294 57.6613L124.277 57.6281L124.27 57.6116L124.253 57.5771L124.243 57.5604L124.226 57.5259L124.215 57.5088L124.199 57.4757L124.188 57.4586L124.168 57.4249L124.158 57.4078L124.137 57.3741L124.127 57.357L124.107 57.3234L124.096 57.3063L124.076 57.2712L124.066 57.2546L124.046 57.2173L124.035 57.2011L124.015 57.1637L124.005 57.1462L123.981 57.1093L123.971 57.0922L123.947 57.0552L123.937 57.035L123.913 56.998L123.903 56.9777L123.879 56.9408L123.869 56.9205L123.844 56.8799L123.831 56.8591L123.807 56.8185L123.793 56.7986L123.766 56.7579L123.753 56.738L123.725 56.6978L123.705 56.6709L123.704 56.6672L123.664 56.6067C122.457 54.8529 120.478 53.4658 118.056 52.8801L117.425 52.7279L118.921 46.5242L115.229 45.6302L113.731 51.8111L110.778 51.0947L112.261 44.9294L108.569 44.0354L107.075 50.2173L99.4564 48.3784L98.5057 52.3181L101.575 53.0601C102.591 53.3046 103.215 54.3273 102.971 55.3436L102.97 55.3477L98.9639 71.9236C98.8005 72.601 98.1186 73.0177 97.4407 72.8552L94.751 72.2054L92.6983 76.4016L100.306 78.2402L98.8354 84.4218L102.527 85.3131L104.022 79.1271L106.976 79.8426L105.481 86.0276L109.174 86.9194L110.675 80.7104C111.301 80.8593 111.841 80.9883 112.213 81.0781C114.944 81.737 117.634 81.3616 119.743 80.2306L119.814 80.1933L119.817 80.1929L119.851 80.176L119.899 80.1485L119.922 80.1346L119.969 80.1076L119.992 80.0936L120.037 80.0665L120.06 80.0526L120.104 80.025L120.124 80.0119L120.168 79.9843L120.188 79.9708L120.232 79.9437L120.252 79.9301L120.292 79.9029L120.313 79.8889L120.353 79.8617L120.373 79.8481L120.414 79.8241L120.434 79.8105L120.474 79.787L120.495 79.7739L120.532 79.7498L120.552 79.7362L120.589 79.7112L120.609 79.6976L120.646 79.6735L120.663 79.6608L120.7 79.6367L120.718 79.6231L120.751 79.5993L120.768 79.5889L120.802 79.5651L120.819 79.5551L120.853 79.5314L120.87 79.5209L120.903 79.4972L120.92 79.4867L120.954 79.463L120.972 79.453L121.005 79.4293L121.022 79.4188L121.053 79.3959L121.069 79.385L121.1 79.3612L121.113 79.3511L121.146 79.3237L121.191 79.2898C121.225 79.263 121.258 79.2392 121.289 79.2118L121.292 79.2078C122.379 78.2985 123.167 77.0821 123.554 75.7193L123.554 75.7156L123.554 75.7088L123.554 75.7052L123.554 75.6984L123.554 75.6947L123.584 75.5795L123.587 75.5724L123.587 75.5664L123.587 75.5628L123.586 75.5592L123.587 75.5523L123.587 75.5455L123.586 75.5419L123.587 75.5351L123.587 75.5282L123.587 75.5155C123.6 75.4604 123.616 75.4067 123.626 75.3524C123.639 75.3222 123.659 75.2673 123.687 75.2107Z" fill="#FFFFF9"/>
<g filter="url(#filter1_d_19_4780)">
<path d="M44.487 178.591C58.3514 178.591 69.5907 167.351 69.5907 153.487C69.5907 139.623 58.3514 128.383 44.487 128.383C30.6226 128.383 19.3833 139.623 19.3833 153.487C19.3833 167.351 30.6226 178.591 44.487 178.591Z" fill="#C99D66"/>
<path fill-rule="evenodd" clip-rule="evenodd" d="M54.1473 155.136L44.7664 167.781L35.3906 155.136L44.7664 160.435L54.1473 155.136ZM44.7664 138.543L54.1423 153.434L44.7664 158.739L35.3906 153.434L44.7664 138.543Z" fill="#FFFFF9"/>
<path opacity="0.406666" d="M44.4871 185.974C62.4292 185.974 76.9742 171.429 76.9742 153.487C76.9742 135.545 62.4292 121 44.4871 121C26.545 121 12 135.545 12 153.487C12 171.429 26.545 185.974 44.4871 185.974Z" stroke="#C99D66" stroke-width="2.16581"/>
</g>
<g filter="url(#filter2_d_19_4780)">
<path d="M149.316 204.771C167.802 204.771 182.788 189.786 182.788 171.3C182.788 152.814 167.802 137.828 149.316 137.828C130.83 137.828 115.845 152.814 115.845 171.3C115.845 189.786 130.83 204.771 149.316 204.771Z" fill="#2775CA"/>
<path d="M157.665 176.584C157.665 171.723 154.888 170.057 149.333 169.362C145.366 168.807 144.573 167.696 144.573 165.751C144.573 163.806 145.895 162.557 148.54 162.557C150.92 162.557 152.243 163.39 152.904 165.473C153.036 165.89 153.433 166.168 153.83 166.168H155.945C156.474 166.168 156.871 165.751 156.871 165.196V165.057C156.342 162.001 153.962 159.64 150.92 159.363V156.029C150.92 155.474 150.524 155.057 149.862 154.918H147.879C147.35 154.918 146.953 155.335 146.821 156.029V159.224C142.853 159.779 140.341 162.557 140.341 166.029C140.341 170.612 142.986 172.418 148.54 173.112C152.243 173.807 153.433 174.64 153.433 176.862C153.433 179.084 151.581 180.612 149.069 180.612C145.631 180.612 144.44 179.084 144.044 177.001C143.912 176.445 143.515 176.167 143.118 176.167H140.87C140.341 176.167 139.944 176.584 139.944 177.14V177.279C140.473 180.751 142.589 183.251 146.953 183.945V187.279C146.953 187.834 147.35 188.251 148.011 188.39H149.994C150.524 188.39 150.92 187.973 151.053 187.279V183.945C155.02 183.251 157.665 180.334 157.665 176.584Z" fill="white"/>
<path d="M141.69 191.571C130.628 187.588 124.956 175.211 129.069 164.256C131.196 158.281 135.876 153.729 141.69 151.595C142.257 151.31 142.541 150.884 142.541 150.172V148.18C142.541 147.611 142.257 147.185 141.69 147.042C141.548 147.042 141.265 147.042 141.123 147.185C127.65 151.452 120.276 165.821 124.53 179.336C127.083 187.303 133.181 193.42 141.123 195.981C141.69 196.265 142.257 195.981 142.399 195.412C142.541 195.27 142.541 195.127 142.541 194.843V192.851C142.541 192.424 142.115 191.855 141.69 191.571ZM156.722 147.185C156.155 146.9 155.588 147.185 155.446 147.754C155.304 147.896 155.304 148.038 155.304 148.323V150.314C155.304 150.884 155.73 151.452 156.155 151.737C167.217 155.72 172.889 168.097 168.777 179.052C166.649 185.027 161.969 189.579 156.155 191.713C155.588 191.997 155.304 192.424 155.304 193.136V195.127C155.304 195.697 155.588 196.123 156.155 196.265C156.297 196.265 156.581 196.265 156.722 196.123C170.195 191.855 177.569 177.487 173.315 163.972C170.762 155.863 164.522 149.745 156.722 147.185Z" fill="white"/>
<path opacity="0.406666" d="M149.316 214.616C173.239 214.616 192.632 195.222 192.632 171.3C192.632 147.377 173.239 127.983 149.316 127.983C125.393 127.983 106 147.377 106 171.3C106 195.222 125.393 214.616 149.316 214.616Z" stroke="#2775CA" stroke-width="2.88774"/>
</g>
<g filter="url(#filter3_d_19_4780)">
<path d="M222.901 118.173C239.076 118.173 252.189 105.06 252.189 88.8853C252.189 72.7102 239.076 59.5977 222.901 59.5977C206.726 59.5977 193.614 72.7102 193.614 88.8853C193.614 105.06 206.726 118.173 222.901 118.173Z" fill="url(#paint0_linear_19_4780)"/>
<path opacity="0.406666" d="M222.902 126.787C243.834 126.787 260.803 109.818 260.803 88.885C260.803 67.9525 243.834 50.9834 222.902 50.9834C201.969 50.9834 185 67.9525 185 88.885C185 109.818 201.969 126.787 222.902 126.787Z" stroke="white" stroke-width="2.52678"/>
</g>
<g clip-path="url(#clip0_19_4780)">
<path fill-rule="evenodd" clip-rule="evenodd" d="M223.519 94.5894V107.036C223.519 107.697 223.103 108.013 222.59 107.733L215.535 103.873C214.965 103.489 214.617 102.85 214.601 102.164V89.9995C214.705 90.083 214.814 90.1552 214.929 90.2185L223.519 94.5894Z" fill="#765CD6"/>
<path fill-rule="evenodd" clip-rule="evenodd" d="M214.618 78.8521V79.5952C214.614 79.324 214.614 79.0775 214.618 78.8521Z" fill="#765CD6"/>
<path fill-rule="evenodd" clip-rule="evenodd" d="M230.619 70.789V79.8434C230.607 80.4166 230.305 80.8586 229.822 81.1649L225.693 83.3426L225.391 83.432L215.276 78.3444C215.262 78.3352 215.248 78.3282 215.234 78.3212C215.197 78.3026 215.16 78.2911 215.123 78.2794C215.097 78.2748 215.072 78.2678 215.049 78.2655C215.025 78.2609 215.002 78.2609 214.979 78.2609C214.909 78.2632 214.842 78.2794 214.779 78.3073C214.758 78.3189 214.737 78.3282 214.719 78.3421C214.719 78.3421 214.719 78.3444 214.714 78.3444L214.707 78.3514C215 77.82 215.569 77.5137 216.417 77.0589L229.822 70.1926C230.258 69.9699 230.619 70.2274 230.619 70.789Z" fill="#765CD6"/>
<path fill-rule="evenodd" clip-rule="evenodd" d="M230.208 86.7141V95.7416C230.208 96.3018 229.857 96.5632 229.433 96.3411L215.286 88.9085C214.965 88.7025 214.728 88.3923 214.601 88.0358C214.612 88.0544 214.621 88.0729 214.635 88.0891C214.644 88.1007 214.653 88.1122 214.664 88.1238C214.667 88.1284 214.669 88.1307 214.673 88.1354C214.682 88.1446 214.691 88.1562 214.703 88.1655C214.714 88.1794 214.728 88.1886 214.741 88.2002C214.762 88.2141 214.78 88.228 214.802 88.2372C214.935 88.309 215.105 88.3044 215.286 88.2095L225.124 83.043L225.738 83.3114L229.433 85.3021C229.905 85.61 230.196 86.1401 230.208 86.7141Z" fill="#A08AEE"/>
<path fill-rule="evenodd" clip-rule="evenodd" d="M225.749 83.3142L215.422 88.4369C215.232 88.531 215.054 88.5356 214.914 88.4645C214.89 88.4553 214.871 88.4415 214.85 88.4277C214.836 88.4163 214.822 88.4071 214.81 88.3933C214.798 88.3841 214.788 88.3727 214.779 88.3635C214.774 88.3589 214.772 88.3566 214.769 88.352C214.758 88.3405 214.748 88.329 214.739 88.3176C214.724 88.3015 214.715 88.2832 214.703 88.2648C214.639 88.1546 214.601 88.0123 214.601 87.8471V78.7791C214.601 78.5082 214.694 78.3063 214.841 78.1984C214.843 78.1961 214.845 78.1938 214.848 78.1938C214.848 78.1938 214.85 78.1892 214.852 78.1892C214.871 78.1754 214.893 78.1663 214.914 78.1548C214.978 78.1272 215.047 78.1112 215.118 78.1089C215.142 78.1089 215.166 78.1089 215.189 78.1135C215.213 78.1158 215.239 78.1227 215.265 78.1272C215.303 78.1387 215.341 78.1502 215.379 78.1685C215.393 78.1754 215.407 78.1823 215.422 78.1915L225.749 83.3142Z" fill="#8B73E2"/>
</g>
<defs>
<filter id="filter0_d_19_4780" x="46.3806" y="2.38064" width="126.7" height="126.7" filterUnits="userSpaceOnUse" color-interpolation-filters="sRGB">
<feFlood flood-opacity="0" result="BackgroundImageFix"/>
<feColorMatrix in="SourceAlpha" type="matrix" values="0 0 0 0 0 0 0 0 0 0 0 0 0 0 0 0 0 0 127 0" result="hardAlpha"/>
<feOffset/>
<feGaussianBlur stdDeviation="6.49742"/>
<feColorMatrix type="matrix" values="0 0 0 0 0 0 0 0 0 0 0 0 0 0 0 0 0 0 0.25 0"/>
<feBlend mode="normal" in2="BackgroundImageFix" result="effect1_dropShadow_19_4780"/>
<feBlend mode="normal" in="SourceGraphic" in2="effect1_dropShadow_19_4780" result="shape"/>
</filter>
<filter id="filter1_d_19_4780" x="0.521117" y="109.521" width="87.9319" height="87.9319" filterUnits="userSpaceOnUse" color-interpolation-filters="sRGB">
<feFlood flood-opacity="0" result="BackgroundImageFix"/>
<feColorMatrix in="SourceAlpha" type="matrix" values="0 0 0 0 0 0 0 0 0 0 0 0 0 0 0 0 0 0 127 0" result="hardAlpha"/>
<feOffset/>
<feGaussianBlur stdDeviation="5.19794"/>
<feColorMatrix type="matrix" values="0 0 0 0 0 0 0 0 0 0 0 0 0 0 0 0 0 0 0.25 0"/>
<feBlend mode="normal" in2="BackgroundImageFix" result="effect1_dropShadow_19_4780"/>
<feBlend mode="normal" in="SourceGraphic" in2="effect1_dropShadow_19_4780" result="shape"/>
</filter>
<filter id="filter2_d_19_4780" x="95.8929" y="117.876" width="106.846" height="106.846" filterUnits="userSpaceOnUse" color-interpolation-filters="sRGB">
<feFlood flood-opacity="0" result="BackgroundImageFix"/>
<feColorMatrix in="SourceAlpha" type="matrix" values="0 0 0 0 0 0 0 0 0 0 0 0 0 0 0 0 0 0 127 0" result="hardAlpha"/>
<feOffset/>
<feGaussianBlur stdDeviation="4.33161"/>
<feColorMatrix type="matrix" values="0 0 0 0 0 0 0 0 0 0 0 0 0 0 0 0 0 0 0.25 0"/>
<feBlend mode="normal" in2="BackgroundImageFix" result="effect1_dropShadow_19_4780"/>
<feBlend mode="normal" in="SourceGraphic" in2="effect1_dropShadow_19_4780" result="shape"/>
</filter>
<filter id="filter3_d_19_4780" x="176.156" y="42.1399" width="93.4902" height="93.4902" filterUnits="userSpaceOnUse" color-interpolation-filters="sRGB">
<feFlood flood-opacity="0" result="BackgroundImageFix"/>
<feColorMatrix in="SourceAlpha" type="matrix" values="0 0 0 0 0 0 0 0 0 0 0 0 0 0 0 0 0 0 127 0" result="hardAlpha"/>
<feOffset/>
<feGaussianBlur stdDeviation="3.79016"/>
<feColorMatrix type="matrix" values="0 0 0 0 0 0 0 0 0 0 0 0 0 0 0 0 0 0 0.25 0"/>
<feBlend mode="normal" in2="BackgroundImageFix" result="effect1_dropShadow_19_4780"/>
<feBlend mode="normal" in="SourceGraphic" in2="effect1_dropShadow_19_4780" result="shape"/>
</filter>
<linearGradient id="paint0_linear_19_4780" x1="223.136" y1="59.5977" x2="223.136" y2="89.1196" gradientUnits="userSpaceOnUse">
<stop stop-color="white"/>
<stop offset="1" stop-color="#EBE6FF"/>
</linearGradient>
<clipPath id="clip0_19_4780">
<rect width="17.0557" height="37.9016" fill="white" transform="translate(214.563 69.9341)"/>
</clipPath>
</defs>
</svg>
