<svg width="330" height="215" viewBox="0 0 330 215" fill="none" xmlns="http://www.w3.org/2000/svg">
<g clip-path="url(#clip0_19_4881)">
<path d="M58 79.9834C58 95.9997 45.0163 108.983 29 108.983C12.9837 108.983 0 95.9997 0 79.9834C0 63.9671 12.9837 50.9834 29 50.9834C45.0163 50.9834 58 63.9671 58 79.9834Z" fill="white"/>
<path d="M29 50.9834C13.05 50.9834 0 64.0334 0 79.9834C0 95.9334 13.05 108.983 29 108.983C44.95 108.983 58 95.9334 58 79.9834C58 64.0334 44.95 50.9834 29 50.9834ZM40.6 74.0021C40.6 74.1834 40.6 74.5459 40.6 74.7271C40.6 82.5209 34.6188 91.5834 23.7437 91.5834C20.3 91.5834 17.2188 90.6772 14.6812 88.8647C15.225 88.8647 15.5875 88.8647 16.1313 88.8647C18.85 88.8647 21.5688 87.9584 23.5625 86.3271C21.025 86.3271 18.85 84.5146 17.9438 82.1584C18.3063 82.1584 18.6688 82.3397 19.0312 82.3397C19.575 82.3397 20.1188 82.3396 20.6625 82.1584C17.9438 81.6146 15.95 79.2584 15.95 76.3584C16.675 76.7209 17.5813 77.0834 18.6688 77.0834C17.0375 75.9959 15.95 74.1834 15.95 72.1896C15.95 71.1021 16.3125 70.0146 16.675 69.1084C19.575 72.7334 23.925 75.0896 29 75.2709C28.8188 74.9084 28.8188 74.3646 28.8188 74.0021C28.8188 70.7396 31.5375 68.0209 34.8 68.0209C36.4313 68.0209 38.0625 68.7459 39.15 69.8334C40.4188 69.6521 41.8688 69.1084 42.9562 68.3834C42.5938 69.8334 41.5063 70.9209 40.4188 71.6459C41.6875 71.4646 42.775 71.1021 43.8625 70.7396C42.775 72.1896 41.6875 73.2771 40.6 74.0021Z" fill="#26A7DE"/>
</g>
<g clip-path="url(#clip1_19_4881)">
<path d="M178 59.9834C178 86.4931 156.51 107.983 130 107.983C103.49 107.983 82 86.4931 82 59.9834C82 33.4737 103.49 11.9834 130 11.9834C156.51 11.9834 178 33.4737 178 59.9834Z" fill="white"/>
<path d="M130 11.9834C103.533 11.9834 82 33.5163 82 59.9834C82 86.4486 103.533 107.983 130 107.983C156.465 107.983 178 86.4486 178 59.9834C178 33.5163 156.469 11.9834 130 11.9834ZM141.937 61.6732H134.128V89.5073H122.556C122.556 89.5073 122.556 74.2987 122.556 61.6732H117.056V51.8358H122.556V45.4728C122.556 40.9156 124.722 33.7947 134.234 33.7947L142.809 33.8276V43.3769C142.809 43.3769 137.598 43.3769 136.585 43.3769C135.572 43.3769 134.132 43.8835 134.132 46.0567V51.8377H142.948L141.937 61.6732Z" fill="#3B5998"/>
</g>
<g clip-path="url(#clip2_19_4881)">
<path d="M109 170.983C109 195.284 89.3005 214.983 65 214.983C40.6995 214.983 21 195.284 21 170.983C21 146.683 40.6995 126.983 65 126.983C89.3005 126.983 109 146.683 109 170.983Z" fill="white"/>
<path d="M78.4752 170.983C78.4752 178.408 72.4252 184.458 65.0002 184.458C57.5752 184.458 51.5252 178.408 51.5252 170.983C51.5252 169.883 51.8002 168.508 52.0752 167.408H47.9502V186.658C47.9502 187.208 48.5002 187.758 49.0502 187.758H80.6752C81.2252 187.758 81.7752 187.208 81.7752 186.658V167.408H77.6502C78.2002 168.508 78.4752 169.883 78.4752 170.983Z" fill="#E1306C"/>
<path d="M74.9001 162.458H80.9501C81.5001 162.458 82.0501 161.908 82.0501 161.358V155.308C82.0501 154.758 81.5001 154.208 80.9501 154.208H74.9001C74.3501 154.208 73.8001 154.758 73.8001 155.308V161.358C73.5251 161.908 74.0751 162.458 74.9001 162.458Z" fill="#E1306C"/>
<path d="M65.0001 179.508C69.7083 179.508 73.5251 175.692 73.5251 170.983C73.5251 166.275 69.7083 162.458 65.0001 162.458C60.2919 162.458 56.4751 166.275 56.4751 170.983C56.4751 175.692 60.2919 179.508 65.0001 179.508Z" fill="#E1306C"/>
<path d="M21 170.983C21 195.284 40.6995 214.983 65 214.983C89.3005 214.983 109 195.284 109 170.983C109 146.683 89.3005 126.983 65 126.983C40.6995 126.983 21 146.683 21 170.983ZM87 187.758C87 190.508 84.525 192.983 81.775 192.983H48.225C45.475 192.983 43 190.783 43 187.758V154.208C43 151.183 45.475 148.983 48.225 148.983H81.775C84.525 148.983 87 151.183 87 154.208V187.758Z" fill="#E1306C"/>
</g>
<g clip-path="url(#clip3_19_4881)">
<path d="M165 147.983C165 156.268 158.284 162.983 150 162.983C141.716 162.983 135 156.268 135 147.983C135 139.699 141.716 132.983 150 132.983C158.284 132.983 165 139.699 165 147.983Z" fill="white"/>
<path d="M132 147.983C132 157.925 140.059 165.983 150 165.983C159.941 165.983 168 157.925 168 147.983C168 138.042 159.941 129.983 150 129.983C140.059 129.983 132 138.042 132 147.983ZM146.109 155.925H142.396V143.887H146.109V155.925ZM144.196 142.312C143.071 142.312 142.059 141.3 142.059 140.062C142.059 138.937 143.071 137.925 144.196 137.925C145.434 137.925 146.334 138.937 146.334 140.062C146.334 141.3 145.434 142.312 144.196 142.312ZM160.059 155.925H156.346V150.075C156.346 148.725 156.346 146.925 154.434 146.925C152.521 146.925 152.184 148.387 152.184 149.962V155.925H148.471V143.887H152.071V145.575C152.521 144.675 153.759 143.662 155.559 143.662C159.384 143.662 160.059 146.137 160.059 149.4V155.925Z" fill="#0072B1"/>
</g>
<g clip-path="url(#clip4_19_4881)">
<path d="M242 114.983C242 129.895 229.912 141.983 215 141.983C200.088 141.983 188 129.895 188 114.983C188 100.072 200.088 87.9834 215 87.9834C229.912 87.9834 242 100.072 242 114.983Z" fill="white"/>
<path d="M222.461 107.523L222.407 107.469C218.76 103.841 213.018 103.396 208.855 106.419C204.692 109.441 203.337 115.038 205.657 119.63L206.119 120.54L205.255 124.725V124.778L209.401 123.794L210.346 124.263C214.379 126.265 219.24 125.47 222.425 122.287C226.484 118.209 226.5 111.621 222.461 107.523ZM222.041 119.246C221.533 120.046 220.727 121.023 219.722 121.268C217.945 121.698 215.242 121.268 211.856 118.138L211.813 118.099C208.868 115.349 208.087 113.058 208.261 111.242C208.364 110.212 209.224 109.281 209.948 108.67C210.181 108.472 210.495 108.396 210.793 108.466C211.091 108.536 211.338 108.744 211.458 109.025L212.549 111.512C212.694 111.836 212.649 112.213 212.432 112.493L211.877 113.203C211.642 113.505 211.612 113.919 211.803 114.251C212.329 115.026 212.959 115.725 213.675 116.33C214.443 117.073 215.317 117.699 216.268 118.188C216.623 118.332 217.029 118.246 217.295 117.971L217.931 117.328C218.173 117.05 218.552 116.935 218.908 117.03L221.501 117.776C221.794 117.861 222.029 118.079 222.136 118.364C222.244 118.649 222.211 118.968 222.049 119.225L222.041 119.246Z" fill="#25D366"/>
<path d="M215 87.9834C200.088 87.9834 188 100.072 188 114.983C188 129.895 200.088 141.983 215 141.983C229.912 141.983 242 129.895 242 114.983C242 100.072 229.912 87.9834 215 87.9834ZM228.383 115.3C228.235 119.856 225.779 124.025 221.866 126.364C217.953 128.703 213.119 128.891 209.035 126.863L202.285 128.469C202.076 128.517 201.859 128.433 201.738 128.256C201.656 128.139 201.626 127.994 201.656 127.855L203.077 120.955C200.532 115.968 201.358 109.925 205.147 105.803C208.936 101.681 214.889 100.351 220.072 102.468C225.255 104.586 228.574 109.704 228.393 115.3H228.383Z" fill="#25D366"/>
</g>
<defs>
<clipPath id="clip0_19_4881">
<rect width="58" height="58" fill="white" transform="translate(0 50.9834)"/>
</clipPath>
<clipPath id="clip1_19_4881">
<rect width="96" height="96" fill="white" transform="translate(82 11.9834)"/>
</clipPath>
<clipPath id="clip2_19_4881">
<rect width="88" height="88" fill="white" transform="translate(21 126.983)"/>
</clipPath>
<clipPath id="clip3_19_4881">
<rect width="36" height="36" fill="white" transform="translate(132 129.983)"/>
</clipPath>
<clipPath id="clip4_19_4881">
<rect width="54" height="54" fill="white" transform="translate(188 87.9834)"/>
</clipPath>
</defs>
</svg>
