<svg width="24" height="24" viewBox="0 0 24 24" fill="none" xmlns="http://www.w3.org/2000/svg">
    <g clip-path="url(#clip0_201_18645)">
        <circle cx="12" cy="12" r="12" fill="#765CD6"/>
        <path d="M16.9498 7.04978C15.6276 5.72762 13.8698 4.99951 12 4.99951C10.1302 4.99951 8.37237 5.72762 7.05027 7.04975C5.72811 8.37188 5 10.1298 5 11.9995C5 13.8693 5.72811 15.6271 7.05027 16.9493C8.37237 18.2714 10.1302 18.9995 12 18.9995C13.8698 18.9995 15.6276 18.2714 16.9498 16.9492C18.2719 15.6271 19 13.8693 19 11.9995C19 10.1297 18.2719 8.37188 16.9498 7.04978ZM7.63091 7.63042C8.24645 7.01489 8.96906 6.54539 9.75667 6.23895C9.54689 6.50085 9.35059 6.80188 9.1707 7.14045C8.96176 7.53365 8.78148 7.96549 8.63134 8.42676C8.11121 8.34043 7.62927 8.23428 7.19872 8.10971C7.33366 7.94384 7.47762 7.78371 7.63091 7.63042ZM6.70158 8.8163C7.20517 8.97754 7.78108 9.11352 8.4095 9.22123C8.2345 9.96405 8.13149 10.7634 8.10691 11.589H5.83497C5.8995 10.5982 6.19706 9.65266 6.70158 8.8163ZM6.65687 15.1068C6.17958 14.2893 5.89756 13.371 5.83494 12.4101H8.10847C8.13532 13.2121 8.23628 13.9887 8.40537 14.7121C7.76405 14.816 7.17367 14.9486 6.65687 15.1068ZM7.63091 16.3686C7.45646 16.1941 7.29398 16.0109 7.14334 15.8202C7.58968 15.6965 8.08865 15.5917 8.62576 15.5076C8.77697 15.9753 8.95919 16.4128 9.17067 16.8109C9.36672 17.1798 9.58227 17.504 9.81352 17.7817C9.00387 17.4759 8.26124 16.9989 7.63091 16.3686ZM11.5894 18.073C10.9658 17.8983 10.3758 17.3288 9.89585 16.4256C9.72799 16.1097 9.58055 15.7651 9.45425 15.3978C10.1305 15.3234 10.85 15.2794 11.5894 15.269V18.073ZM11.5894 14.4478C10.7694 14.459 9.9702 14.5105 9.22172 14.5984C9.05662 13.9159 8.95728 13.1771 8.93002 12.4101H11.5894V14.4478H11.5894ZM11.5894 11.5889H8.92846C8.95337 10.8005 9.05429 10.0411 9.22454 9.34124C9.96823 9.43421 10.7658 9.49076 11.5894 9.50695V11.5889ZM11.5894 8.68568C10.8471 8.67072 10.1292 8.62232 9.45775 8.54335C9.58329 8.1799 9.72958 7.83876 9.89585 7.52575C10.3758 6.62253 10.9658 6.05301 11.5894 5.87831V8.68568ZM17.3243 8.85991C17.8131 9.6855 18.1016 10.6154 18.1651 11.5889H15.8932C15.8689 10.7729 15.7678 9.98251 15.5965 9.24702C16.229 9.14486 16.8121 9.01489 17.3243 8.85991ZM16.3691 7.63042C16.5339 7.79528 16.6879 7.96809 16.8316 8.14749C16.3921 8.26751 15.9027 8.36936 15.3768 8.45134C15.2251 7.98081 15.042 7.54065 14.8294 7.14045C14.6495 6.80188 14.4532 6.50085 14.2434 6.23895C15.0309 6.54539 15.7536 7.01489 16.3691 7.63042ZM12.4106 12.4101H15.07C15.0426 13.1831 14.9419 13.9274 14.7745 14.6144C14.0309 14.5219 13.2337 14.4659 12.4106 14.4501V12.4101ZM12.4106 11.5889V9.50968C13.2311 9.49891 14.0309 9.44786 14.7801 9.36027C14.9476 10.0549 15.0469 10.8076 15.0716 11.5889H12.4106ZM12.4106 5.87831H12.4106C13.0342 6.05301 13.6242 6.62253 14.1041 7.52575C14.2731 7.84368 14.4214 8.1907 14.5482 8.56066C13.8711 8.63482 13.1507 8.67848 12.4106 8.68846V5.87831ZM12.4106 18.073V15.2714C13.1522 15.286 13.8696 15.3339 14.5408 15.4124C14.4156 15.7742 14.2698 16.1139 14.1042 16.4256C13.6242 17.3288 13.0343 17.8983 12.4106 18.073ZM16.3691 16.3686C15.7388 16.9989 14.9962 17.4759 14.1865 17.7817C14.4177 17.504 14.6333 17.1798 14.8293 16.8109C15.0377 16.4187 15.2176 15.9882 15.3675 15.5283C15.8997 15.6162 16.3921 15.7248 16.8308 15.8526C16.6874 16.0316 16.5336 16.204 16.3691 16.3686ZM17.3213 15.1443C16.8117 14.9805 16.2275 14.8427 15.5897 14.7339C15.7619 14.0043 15.8645 13.2201 15.8916 12.4101H18.1651C18.1015 13.3857 17.8119 14.3174 17.3213 15.1443Z" fill="white"/>
    </g>
</svg>
