<svg width="396" height="162" viewBox="0 0 396 162" fill="none" xmlns="http://www.w3.org/2000/svg">
<g opacity="0.631677">
<path d="M64.0812 126.627C66.4324 129.103 70.8266 129.353 73.5507 126.627L80.536 119.707L87.4541 126.627C89.9627 129.269 94.4943 129.186 96.9236 126.627C99.5439 124.007 99.5439 119.774 96.9236 117.154L90.0071 110.233L96.9236 103.246C99.5439 100.625 99.5439 96.3925 96.9236 93.7725C94.3049 91.1522 90.0727 91.1522 87.4541 93.7725L80.536 100.76L73.5507 93.7725C70.932 91.1522 66.6999 91.1522 64.0812 93.7725C61.4625 96.3925 61.4625 100.625 64.0812 103.246L71.0665 110.233L64.0812 117.154C61.4625 119.774 61.4625 124.007 64.0812 126.627Z" fill="black"/>
<path fill-rule="evenodd" clip-rule="evenodd" d="M134.266 17.2702C149.291 17.2702 161.5 29.4551 161.5 44.4517L161.487 134.2C161.487 149.185 149.27 161.375 134.256 161.375H27.7242C12.7103 161.375 0.5 149.185 0.5 134.2L0.513101 44.4517C0.513101 29.4551 12.7201 17.2702 27.7455 17.2702H31.5694V37.0874C31.5694 46.3265 39.0829 53.8248 48.3388 53.8248C57.5948 53.8248 65.1083 46.3265 65.1083 37.0874V17.2702H96.9032V37.0874C96.9032 46.3265 104.417 53.8248 113.673 53.8248C122.93 53.8248 130.442 46.3265 130.442 37.0874V17.2702H134.266ZM134.256 147.985C141.874 147.985 148.071 141.8 148.071 134.2V72.1799H13.9156V134.2C13.9156 141.8 20.1124 147.985 27.7242 147.985H134.256Z" fill="black"/>
<path d="M47.7067 44.1035C51.2773 44.1035 54.1666 41.0806 54.1666 37.3522V7.1264C54.1666 3.39803 51.2773 0.375122 47.7067 0.375122C44.1361 0.375122 41.2468 3.39803 41.2468 7.1264V37.3522C41.2468 41.0806 44.1361 44.1035 47.7067 44.1035Z" fill="black"/>
<path d="M113.299 44.1035C116.87 44.1035 119.759 41.0806 119.759 37.3522V7.1264C119.759 3.39803 116.87 0.375122 113.299 0.375122C109.729 0.375122 106.84 3.39803 106.84 7.1264V37.3522C106.84 41.0806 109.729 44.1035 113.299 44.1035Z" fill="black"/>
</g>
<g clip-path="url(#clip0_61_365)">
<g opacity="0.952297" filter="url(#filter0_d_61_365)">
<rect x="114" y="35" width="254" height="90" rx="8" fill="#DFD6FF"/>
</g>
<rect x="123" y="43" width="236" height="74" rx="8" fill="white"/>
<path d="M141.748 89V70.324H143.204V77.66C144.296 76.12 146.004 75.14 147.908 75.14C151.52 75.14 153.956 77.968 153.956 82.252C153.956 86.592 151.492 89.336 147.908 89.336C145.892 89.336 144.156 88.244 143.204 86.844V89H141.748ZM143.204 85.612C143.988 86.9 145.78 88.02 147.656 88.02C150.68 88.02 152.388 85.528 152.388 82.252C152.388 78.976 150.68 76.456 147.656 76.456C145.78 76.456 143.988 77.632 143.204 78.92V85.612ZM163.457 89.336C159.509 89.336 156.961 86.172 156.961 82.224C156.961 78.276 159.509 75.14 163.457 75.14C167.461 75.14 169.981 78.276 169.981 82.224C169.981 86.172 167.461 89.336 163.457 89.336ZM163.457 88.02C166.649 88.02 168.413 85.248 168.413 82.224C168.413 79.228 166.649 76.456 163.457 76.456C160.321 76.456 158.529 79.228 158.529 82.224C158.529 85.248 160.321 88.02 163.457 88.02ZM173.741 89V70.324H175.197V77.66C176.289 76.12 177.997 75.14 179.901 75.14C183.513 75.14 185.949 77.968 185.949 82.252C185.949 86.592 183.485 89.336 179.901 89.336C177.885 89.336 176.149 88.244 175.197 86.844V89H173.741ZM175.197 85.612C175.981 86.9 177.773 88.02 179.649 88.02C182.673 88.02 184.381 85.528 184.381 82.252C184.381 78.976 182.673 76.456 179.649 76.456C177.773 76.456 175.981 77.632 175.197 78.92V85.612ZM188.449 82.168C188.449 76.092 193.741 71.136 199.565 71.136C204.829 71.136 208.385 75.14 208.385 80.152C208.385 84.38 206.145 86.62 203.849 86.62C202.309 86.62 201.413 85.5 201.385 84.24L201.357 84.072C200.377 85.444 198.641 86.62 196.765 86.62C194.189 86.62 192.481 84.856 192.481 82.14C192.481 78.136 195.841 75.028 199.173 75.028C201.049 75.028 202.281 76.092 202.813 77.324L203.177 75.504H204.549L202.897 83.4C202.869 83.568 202.841 83.764 202.841 83.96C202.841 84.912 203.485 85.5 204.241 85.5C205.333 85.5 207.489 84.268 207.489 80.152C207.489 75.504 204.241 72.032 199.481 72.032C194.021 72.032 189.345 76.876 189.345 82.14C189.345 86.648 192.761 90.092 197.437 90.092C199.453 90.092 201.161 89.476 202.673 88.496L203.149 89.196C201.413 90.316 199.397 90.96 197.325 90.96C192.229 90.96 188.449 87.124 188.449 82.168ZM201.637 82.644L202.533 78.5C202.197 77.52 201.189 76.176 199.341 76.176C196.345 76.176 193.937 79.088 193.937 82.084C193.937 84.016 195.057 85.472 197.045 85.472C199.145 85.472 200.741 83.96 201.637 82.644Z" fill="#4C186E"/>
<path d="M228.018 89V80.768C228.018 79.732 227.514 78.948 226.226 78.948C225.05 78.948 224.21 79.704 223.79 80.264V89H219.478V80.768C219.478 79.732 219.002 78.948 217.686 78.948C216.538 78.948 215.726 79.704 215.278 80.264V89H210.966V75.476H215.278V77.128C215.866 76.344 217.602 75.14 219.73 75.14C221.662 75.14 223.006 75.952 223.566 77.548C224.35 76.372 226.114 75.14 228.242 75.14C230.734 75.14 232.302 76.428 232.302 79.2V89H228.018ZM234.57 82.224C234.57 78.304 237.538 75.14 241.766 75.14C245.77 75.14 248.682 78.08 248.682 82.672V83.596H239.05C239.302 84.856 240.478 86.004 242.494 86.004C243.698 86.004 245.042 85.528 245.798 84.856L247.618 87.544C246.274 88.748 244.034 89.336 241.962 89.336C237.79 89.336 234.57 86.62 234.57 82.224ZM241.766 78.472C239.89 78.472 239.162 79.816 238.994 80.796H244.566C244.454 79.844 243.754 78.472 241.766 78.472ZM255.93 89.336C253.186 89.336 251.702 87.964 251.702 85.36V79.228H249.462V75.476H251.702V71.78H255.986V75.476H258.73V79.228H255.986V84.156C255.986 84.94 256.434 85.528 257.19 85.528C257.666 85.528 258.142 85.36 258.282 85.192L259.122 88.44C258.59 88.944 257.526 89.336 255.93 89.336ZM268.876 89V87.656C268.036 88.664 266.412 89.336 264.676 89.336C262.604 89.336 260.028 87.936 260.028 84.884C260.028 81.608 262.604 80.628 264.676 80.628C266.468 80.628 268.064 81.188 268.876 82.196V80.488C268.876 79.312 267.868 78.528 266.132 78.528C264.788 78.528 263.388 79.032 262.296 79.956L260.756 77.24C262.492 75.756 264.816 75.14 266.888 75.14C270.136 75.14 273.188 76.344 273.188 80.544V89H268.876ZM268.876 85.528V84.324C268.428 83.708 267.42 83.372 266.468 83.372C265.32 83.372 264.312 83.876 264.312 84.94C264.312 86.004 265.32 86.508 266.468 86.508C267.42 86.508 268.428 86.172 268.876 85.528ZM293.37 89V80.768C293.37 79.732 292.866 78.948 291.578 78.948C290.402 78.948 289.562 79.704 289.142 80.264V89H284.83V80.768C284.83 79.732 284.354 78.948 283.038 78.948C281.89 78.948 281.078 79.704 280.63 80.264V89H276.318V75.476H280.63V77.128C281.218 76.344 282.954 75.14 285.082 75.14C287.014 75.14 288.358 75.952 288.918 77.548C289.702 76.372 291.466 75.14 293.594 75.14C296.086 75.14 297.654 76.428 297.654 79.2V89H293.37ZM308.798 89V87.656C307.958 88.664 306.334 89.336 304.598 89.336C302.526 89.336 299.95 87.936 299.95 84.884C299.95 81.608 302.526 80.628 304.598 80.628C306.39 80.628 307.986 81.188 308.798 82.196V80.488C308.798 79.312 307.79 78.528 306.054 78.528C304.71 78.528 303.31 79.032 302.218 79.956L300.678 77.24C302.414 75.756 304.738 75.14 306.81 75.14C310.058 75.14 313.11 76.344 313.11 80.544V89H308.798ZM308.798 85.528V84.324C308.35 83.708 307.342 83.372 306.39 83.372C305.242 83.372 304.234 83.876 304.234 84.94C304.234 86.004 305.242 86.508 306.39 86.508C307.342 86.508 308.35 86.172 308.798 85.528ZM315.092 87.264L316.884 84.296C317.892 85.192 320.048 86.088 321.644 86.088C322.932 86.088 323.464 85.668 323.464 85.08C323.464 84.38 322.54 84.128 321.14 83.904C318.844 83.512 315.596 83.036 315.596 79.592C315.596 77.212 317.64 75.14 321.392 75.14C323.66 75.14 325.592 75.868 327.048 76.932L325.396 79.788C324.584 79.004 323.044 78.304 321.42 78.304C320.412 78.304 319.712 78.64 319.712 79.228C319.712 79.844 320.44 80.068 321.868 80.32C324.164 80.712 327.58 81.272 327.58 84.856C327.58 87.432 325.312 89.336 321.42 89.336C319.012 89.336 316.52 88.524 315.092 87.264ZM338.37 89L335.402 84.212L334.114 85.752V89H329.802V70.324H334.114V80.88L338.23 75.476H343.438L338.454 81.636L343.69 89H338.37Z" fill="#4C186E"/>
</g>
<defs>
<filter id="filter0_d_61_365" x="99" y="20" width="284" height="120" filterUnits="userSpaceOnUse" color-interpolation-filters="sRGB">
<feFlood flood-opacity="0" result="BackgroundImageFix"/>
<feColorMatrix in="SourceAlpha" type="matrix" values="0 0 0 0 0 0 0 0 0 0 0 0 0 0 0 0 0 0 127 0" result="hardAlpha"/>
<feMorphology radius="5" operator="dilate" in="SourceAlpha" result="effect1_dropShadow_61_365"/>
<feOffset/>
<feGaussianBlur stdDeviation="5"/>
<feColorMatrix type="matrix" values="0 0 0 0 0 0 0 0 0 0 0 0 0 0 0 0 0 0 0.15774 0"/>
<feBlend mode="normal" in2="BackgroundImageFix" result="effect1_dropShadow_61_365"/>
<feBlend mode="normal" in="SourceGraphic" in2="effect1_dropShadow_61_365" result="shape"/>
</filter>
<clipPath id="clip0_61_365">
<rect width="282" height="114" fill="white" transform="translate(114 35)"/>
</clipPath>
</defs>
</svg>
