<svg width="340" height="179" viewBox="0 0 340 179" fill="none" xmlns="http://www.w3.org/2000/svg">
<g opacity="0.274081">
<path d="M184.119 28.2223C184.472 28.2223 184.825 28.3573 185.095 28.6274C185.635 29.1659 185.635 30.0404 185.095 30.579L180.704 34.9701C180.164 35.5101 179.291 35.5101 178.752 34.9701C178.212 34.4315 178.212 33.557 178.752 33.0185L183.143 28.6274C183.412 28.3573 183.765 28.2223 184.119 28.2223Z" fill="black"/>
<path d="M180.564 16.93C180.917 16.93 181.27 17.065 181.54 17.3351C182.08 17.8736 182.08 18.7481 181.54 19.2867L173.279 27.5472C172.739 28.0873 171.866 28.0873 171.328 27.5472C170.788 27.0087 170.788 26.1342 171.328 25.5956L179.588 17.3335C179.858 17.0635 180.211 16.93 180.564 16.93Z" fill="black"/>
<path d="M169.272 13.3752C169.625 13.3752 169.978 13.5102 170.248 13.7802C170.788 14.3187 170.788 15.1933 170.248 15.7318L165.857 20.1229C165.317 20.663 164.444 20.663 163.905 20.1229C163.365 19.5844 163.365 18.7098 163.905 18.1713L168.296 13.7802C168.565 13.5102 168.918 13.3752 169.272 13.3752Z" fill="black"/>
<path d="M145.367 57.2462L181.351 46.5165C184.068 45.7068 184.258 41.9323 181.637 40.8532L166.186 34.4873C166.119 34.6511 166.021 34.8041 165.888 34.9358L157.987 42.8353C157.448 43.3741 156.576 43.3741 156.039 42.8353C155.5 42.2981 155.5 41.4256 156.039 40.8884L163.941 32.9888C164.074 32.8556 164.227 32.7561 164.391 32.6888L158.02 17.234C156.942 14.6182 153.173 14.808 152.365 17.5203L141.629 53.5099C140.947 55.7967 143.078 57.9273 145.367 57.2462Z" fill="black"/>
</g>
<g opacity="0.717554">
<path d="M276.366 23.3208C276.911 23.3208 277.457 23.5295 277.874 23.9468C278.709 24.7791 278.709 26.1306 277.874 26.9629L271.088 33.7491C270.253 34.5838 268.904 34.5838 268.072 33.7491C267.237 32.9169 267.237 31.5653 268.072 30.733L274.858 23.9468C275.273 23.5295 275.818 23.3208 276.366 23.3208Z" fill="black"/>
<path d="M270.872 5.86906C271.417 5.86906 271.963 6.07772 272.38 6.49505C273.215 7.32732 273.215 8.67888 272.38 9.51116L259.614 22.2775C258.779 23.1121 257.43 23.1121 256.598 22.2775C255.763 21.4452 255.763 20.0936 256.598 19.2613L269.364 6.49267C269.781 6.07535 270.327 5.86906 270.872 5.86906Z" fill="black"/>
<path d="M253.42 0.375116C253.966 0.375116 254.511 0.583778 254.928 1.0011C255.763 1.83338 255.763 3.18494 254.928 4.01721L248.142 10.8035C247.307 11.6381 245.958 11.6381 245.126 10.8035C244.291 9.97118 244.291 8.61962 245.126 7.78735L251.912 1.0011C252.327 0.583778 252.873 0.375116 253.42 0.375116Z" fill="black"/>
<path d="M216.484 68.1756L272.174 51.5701C276.38 50.317 276.674 44.4755 272.617 42.8054L248.705 32.9535C248.601 33.2069 248.449 33.4438 248.243 33.6475L236.015 45.8731C235.181 46.7069 233.833 46.7069 233.001 45.8731C232.167 45.0416 232.167 43.6914 233.001 42.8599L245.229 30.6344C245.436 30.4283 245.672 30.2743 245.926 30.1701L236.067 6.25201C234.399 2.20368 228.566 2.49742 227.314 6.69498L210.7 62.3933C209.644 65.9323 212.942 69.2297 216.484 68.1756Z" fill="black"/>
</g>
<g opacity="0.816869">
<path d="M43.1192 83.2223C43.472 83.2223 43.8249 83.3573 44.095 83.6274C44.635 84.1659 44.635 85.0404 44.095 85.579L39.7038 89.9701C39.1638 90.5101 38.2908 90.5101 37.7522 89.9701C37.2122 89.4315 37.2122 88.557 37.7522 88.0185L42.1434 83.6274C42.4118 83.3573 42.7647 83.2223 43.1192 83.2223Z" fill="black"/>
<path d="M39.5642 71.93C39.9171 71.93 40.27 72.065 40.54 72.3351C41.0801 72.8736 41.0801 73.7481 40.54 74.2867L32.2795 82.5472C31.7394 83.0873 30.8664 83.0873 30.3279 82.5472C29.7878 82.0087 29.7878 81.1342 30.3279 80.5956L38.5884 72.3335C38.8585 72.0635 39.2113 71.93 39.5642 71.93Z" fill="black"/>
<path d="M28.272 68.3752C28.6249 68.3752 28.9778 68.5102 29.2478 68.7802C29.7878 69.3187 29.7878 70.1933 29.2478 70.7318L24.8567 75.1229C24.3166 75.663 23.4436 75.663 22.9051 75.1229C22.365 74.5844 22.365 73.7098 22.9051 73.1713L27.2962 68.7802C27.5647 68.5102 27.9176 68.3752 28.272 68.3752Z" fill="black"/>
<path d="M4.36661 112.246L40.3509 101.516C43.0684 100.707 43.2583 96.9323 40.6372 95.8532L25.1865 89.4873C25.1191 89.6511 25.0212 89.8041 24.888 89.9358L16.9865 97.8353C16.4476 98.3741 15.5765 98.3741 15.0391 97.8353C14.5002 97.2981 14.5002 96.4256 15.0391 95.8884L22.9405 87.9888C23.0737 87.8556 23.2268 87.7561 23.3906 87.6888L17.0202 72.234C15.9424 69.6182 12.1731 69.808 11.3647 72.5203L0.629475 108.51C-0.0533447 110.797 2.07779 112.927 4.36661 112.246Z" fill="black"/>
</g>
<g opacity="0.193347">
<path d="M178.881 163.528C178.528 163.528 178.175 163.393 177.905 163.123C177.365 162.584 177.365 161.71 177.905 161.171L182.296 156.78C182.836 156.24 183.709 156.24 184.248 156.78C184.788 157.319 184.788 158.193 184.248 158.732L179.857 163.123C179.588 163.393 179.235 163.528 178.881 163.528Z" fill="black"/>
<path d="M182.436 174.82C182.083 174.82 181.73 174.685 181.46 174.415C180.92 173.877 180.92 173.002 181.46 172.464L189.721 164.203C190.261 163.663 191.134 163.663 191.672 164.203C192.212 164.742 192.212 165.616 191.672 166.155L183.412 174.417C183.142 174.687 182.789 174.82 182.436 174.82Z" fill="black"/>
<path d="M193.728 178.375C193.375 178.375 193.022 178.24 192.752 177.97C192.212 177.432 192.212 176.557 192.752 176.019L197.143 171.627C197.683 171.087 198.556 171.087 199.095 171.627C199.635 172.166 199.635 173.04 199.095 173.579L194.704 177.97C194.435 178.24 194.082 178.375 193.728 178.375Z" fill="black"/>
<path d="M217.633 134.504L181.649 145.234C178.932 146.043 178.742 149.818 181.363 150.897L196.814 157.263C196.881 157.099 196.979 156.946 197.112 156.814L205.013 148.915C205.552 148.376 206.424 148.376 206.961 148.915C207.5 149.452 207.5 150.325 206.961 150.862L199.059 158.761C198.926 158.895 198.773 158.994 198.609 159.061L204.98 174.516C206.058 177.132 209.827 176.942 210.635 174.23L221.371 138.24C222.053 135.954 219.922 133.823 217.633 134.504Z" fill="black"/>
</g>
<g opacity="0.952297" filter="url(#filter0_d_61_320)">
<rect x="31" y="46" width="270" height="90" rx="8" fill="#DFD6FF"/>
</g>
<rect x="40" y="54" width="252" height="74" rx="8" fill="white"/>
<path d="M66.7485 100V81.324H68.2045V88.66C69.2965 87.12 71.0045 86.14 72.9085 86.14C76.5205 86.14 78.9565 88.968 78.9565 93.252C78.9565 97.592 76.4925 100.336 72.9085 100.336C70.8925 100.336 69.1565 99.244 68.2045 97.844V100H66.7485ZM68.2045 96.612C68.9885 97.9 70.7805 99.02 72.6565 99.02C75.6805 99.02 77.3885 96.528 77.3885 93.252C77.3885 89.976 75.6805 87.456 72.6565 87.456C70.7805 87.456 68.9885 88.632 68.2045 89.92V96.612ZM88.4566 100.336C84.5086 100.336 81.9606 97.172 81.9606 93.224C81.9606 89.276 84.5086 86.14 88.4566 86.14C92.4606 86.14 94.9806 89.276 94.9806 93.224C94.9806 97.172 92.4606 100.336 88.4566 100.336ZM88.4566 99.02C91.6486 99.02 93.4126 96.248 93.4126 93.224C93.4126 90.228 91.6486 87.456 88.4566 87.456C85.3206 87.456 83.5286 90.228 83.5286 93.224C83.5286 96.248 85.3206 99.02 88.4566 99.02ZM98.7407 100V81.324H100.197V88.66C101.289 87.12 102.997 86.14 104.901 86.14C108.513 86.14 110.949 88.968 110.949 93.252C110.949 97.592 108.485 100.336 104.901 100.336C102.885 100.336 101.149 99.244 100.197 97.844V100H98.7407ZM100.197 96.612C100.981 97.9 102.773 99.02 104.649 99.02C107.673 99.02 109.381 96.528 109.381 93.252C109.381 89.976 107.673 87.456 104.649 87.456C102.773 87.456 100.981 88.632 100.197 89.92V96.612ZM113.449 93.168C113.449 87.092 118.741 82.136 124.565 82.136C129.829 82.136 133.385 86.14 133.385 91.152C133.385 95.38 131.145 97.62 128.849 97.62C127.309 97.62 126.413 96.5 126.385 95.24L126.357 95.072C125.377 96.444 123.641 97.62 121.765 97.62C119.189 97.62 117.481 95.856 117.481 93.14C117.481 89.136 120.841 86.028 124.173 86.028C126.049 86.028 127.281 87.092 127.813 88.324L128.177 86.504H129.549L127.897 94.4C127.869 94.568 127.841 94.764 127.841 94.96C127.841 95.912 128.485 96.5 129.241 96.5C130.333 96.5 132.489 95.268 132.489 91.152C132.489 86.504 129.241 83.032 124.481 83.032C119.021 83.032 114.345 87.876 114.345 93.14C114.345 97.648 117.761 101.092 122.437 101.092C124.453 101.092 126.161 100.476 127.673 99.496L128.149 100.196C126.413 101.316 124.397 101.96 122.325 101.96C117.229 101.96 113.449 98.124 113.449 93.168ZM126.637 93.644L127.533 89.5C127.197 88.52 126.189 87.176 124.341 87.176C121.345 87.176 118.937 90.088 118.937 93.084C118.937 95.016 120.057 96.472 122.045 96.472C124.145 96.472 125.741 94.96 126.637 93.644Z" fill="#4C186E"/>
<path d="M153.018 100V91.768C153.018 90.732 152.514 89.948 151.226 89.948C150.05 89.948 149.21 90.704 148.79 91.264V100H144.478V91.768C144.478 90.732 144.002 89.948 142.686 89.948C141.538 89.948 140.726 90.704 140.278 91.264V100H135.966V86.476H140.278V88.128C140.866 87.344 142.602 86.14 144.73 86.14C146.662 86.14 148.006 86.952 148.566 88.548C149.35 87.372 151.114 86.14 153.242 86.14C155.734 86.14 157.302 87.428 157.302 90.2V100H153.018ZM159.57 93.224C159.57 89.304 162.538 86.14 166.766 86.14C170.77 86.14 173.682 89.08 173.682 93.672V94.596H164.05C164.302 95.856 165.478 97.004 167.494 97.004C168.698 97.004 170.042 96.528 170.798 95.856L172.618 98.544C171.274 99.748 169.034 100.336 166.962 100.336C162.79 100.336 159.57 97.62 159.57 93.224ZM166.766 89.472C164.89 89.472 164.162 90.816 163.994 91.796H169.566C169.454 90.844 168.754 89.472 166.766 89.472ZM180.93 100.336C178.186 100.336 176.702 98.964 176.702 96.36V90.228H174.462V86.476H176.702V82.78H180.986V86.476H183.73V90.228H180.986V95.156C180.986 95.94 181.434 96.528 182.19 96.528C182.666 96.528 183.142 96.36 183.282 96.192L184.122 99.44C183.59 99.944 182.526 100.336 180.93 100.336ZM193.876 100V98.656C193.036 99.664 191.412 100.336 189.676 100.336C187.604 100.336 185.028 98.936 185.028 95.884C185.028 92.608 187.604 91.628 189.676 91.628C191.468 91.628 193.064 92.188 193.876 93.196V91.488C193.876 90.312 192.868 89.528 191.132 89.528C189.788 89.528 188.388 90.032 187.296 90.956L185.756 88.24C187.492 86.756 189.816 86.14 191.888 86.14C195.136 86.14 198.188 87.344 198.188 91.544V100H193.876ZM193.876 96.528V95.324C193.428 94.708 192.42 94.372 191.468 94.372C190.32 94.372 189.312 94.876 189.312 95.94C189.312 97.004 190.32 97.508 191.468 97.508C192.42 97.508 193.428 97.172 193.876 96.528ZM218.37 100V91.768C218.37 90.732 217.866 89.948 216.578 89.948C215.402 89.948 214.562 90.704 214.142 91.264V100H209.83V91.768C209.83 90.732 209.354 89.948 208.038 89.948C206.89 89.948 206.078 90.704 205.63 91.264V100H201.318V86.476H205.63V88.128C206.218 87.344 207.954 86.14 210.082 86.14C212.014 86.14 213.358 86.952 213.918 88.548C214.702 87.372 216.466 86.14 218.594 86.14C221.086 86.14 222.654 87.428 222.654 90.2V100H218.37ZM233.798 100V98.656C232.958 99.664 231.334 100.336 229.598 100.336C227.526 100.336 224.95 98.936 224.95 95.884C224.95 92.608 227.526 91.628 229.598 91.628C231.39 91.628 232.986 92.188 233.798 93.196V91.488C233.798 90.312 232.79 89.528 231.054 89.528C229.71 89.528 228.31 90.032 227.218 90.956L225.678 88.24C227.414 86.756 229.738 86.14 231.81 86.14C235.058 86.14 238.11 87.344 238.11 91.544V100H233.798ZM233.798 96.528V95.324C233.35 94.708 232.342 94.372 231.39 94.372C230.242 94.372 229.234 94.876 229.234 95.94C229.234 97.004 230.242 97.508 231.39 97.508C232.342 97.508 233.35 97.172 233.798 96.528ZM240.092 98.264L241.884 95.296C242.892 96.192 245.048 97.088 246.644 97.088C247.932 97.088 248.464 96.668 248.464 96.08C248.464 95.38 247.54 95.128 246.14 94.904C243.844 94.512 240.596 94.036 240.596 90.592C240.596 88.212 242.64 86.14 246.392 86.14C248.66 86.14 250.592 86.868 252.048 87.932L250.396 90.788C249.584 90.004 248.044 89.304 246.42 89.304C245.412 89.304 244.712 89.64 244.712 90.228C244.712 90.844 245.44 91.068 246.868 91.32C249.164 91.712 252.58 92.272 252.58 95.856C252.58 98.432 250.312 100.336 246.42 100.336C244.012 100.336 241.52 99.524 240.092 98.264ZM263.37 100L260.402 95.212L259.114 96.752V100H254.802V81.324H259.114V91.88L263.23 86.476H268.438L263.454 92.636L268.69 100H263.37Z" fill="#4C186E"/>
<path d="M285.257 94.4787C284.808 94.4787 284.359 94.3068 284.016 93.9632C283.328 93.2778 283.328 92.1647 284.016 91.4793L289.604 85.8906C290.292 85.2033 291.403 85.2033 292.088 85.8906C292.775 86.576 292.775 87.6891 292.088 88.3745L286.499 93.9632C286.158 94.3068 285.709 94.4787 285.257 94.4787Z" fill="black"/>
<path d="M289.782 108.851C289.333 108.851 288.884 108.679 288.54 108.335C287.853 107.65 287.853 106.537 288.54 105.851L299.053 95.3379C299.741 94.6505 300.852 94.6505 301.537 95.3379C302.225 96.0233 302.225 97.1364 301.537 97.8218L291.024 108.337C290.68 108.681 290.231 108.851 289.782 108.851Z" fill="black"/>
<path d="M304.154 113.375C303.705 113.375 303.256 113.203 302.912 112.86C302.225 112.174 302.225 111.061 302.912 110.376L308.501 104.787C309.188 104.1 310.299 104.1 310.985 104.787C311.672 105.473 311.672 106.586 310.985 107.271L305.396 112.86C305.054 113.203 304.605 113.375 304.154 113.375Z" fill="black"/>
<path d="M334.621 57.5378L289.212 71.0777C285.783 72.0994 285.543 76.8625 288.851 78.2243L308.348 86.2574C308.433 86.0507 308.557 85.8576 308.725 85.6915L318.696 75.723C319.376 75.0431 320.475 75.0431 321.153 75.723C321.833 76.4009 321.833 77.5019 321.153 78.1798L311.182 88.1483C311.014 88.3164 310.821 88.4419 310.614 88.5269L318.653 108.029C320.013 111.33 324.77 111.091 325.79 107.668L339.337 62.2526C340.198 59.367 337.509 56.6783 334.621 57.5378Z" fill="black"/>
<path d="M139.743 137.272C140.192 137.272 140.641 137.443 140.984 137.787C141.672 138.472 141.672 139.586 140.984 140.271L135.396 145.86C134.708 146.547 133.597 146.547 132.912 145.86C132.225 145.174 132.225 144.061 132.912 143.376L138.501 137.787C138.842 137.443 139.291 137.272 139.743 137.272Z" fill="black"/>
<path d="M135.218 122.9C135.667 122.9 136.116 123.071 136.46 123.415C137.147 124.1 137.147 125.214 136.46 125.899L125.947 136.412C125.259 137.1 124.148 137.1 123.463 136.412C122.775 135.727 122.775 134.614 123.463 133.928L133.976 123.413C134.32 123.069 134.769 122.9 135.218 122.9Z" fill="black"/>
<path d="M120.846 118.375C121.295 118.375 121.744 118.547 122.088 118.891C122.775 119.576 122.775 120.689 122.088 121.375L116.499 126.963C115.812 127.651 114.701 127.651 114.015 126.963C113.328 126.278 113.328 125.165 114.015 124.479L119.604 118.891C119.946 118.547 120.395 118.375 120.846 118.375Z" fill="black"/>
<path d="M90.3793 174.212L135.788 160.673C139.217 159.651 139.457 154.888 136.149 153.526L116.652 145.493C116.567 145.7 116.443 145.893 116.275 146.059L106.304 156.027C105.624 156.707 104.525 156.707 103.847 156.027C103.167 155.349 103.167 154.248 103.847 153.57L113.818 143.602C113.986 143.434 114.179 143.308 114.386 143.223L106.347 123.721C104.987 120.42 100.23 120.659 99.2103 124.082L85.6634 169.498C84.8017 172.383 87.491 175.072 90.3793 174.212Z" fill="black"/>
<defs>
<filter id="filter0_d_61_320" x="16" y="31" width="300" height="120" filterUnits="userSpaceOnUse" color-interpolation-filters="sRGB">
<feFlood flood-opacity="0" result="BackgroundImageFix"/>
<feColorMatrix in="SourceAlpha" type="matrix" values="0 0 0 0 0 0 0 0 0 0 0 0 0 0 0 0 0 0 127 0" result="hardAlpha"/>
<feMorphology radius="5" operator="dilate" in="SourceAlpha" result="effect1_dropShadow_61_320"/>
<feOffset/>
<feGaussianBlur stdDeviation="5"/>
<feColorMatrix type="matrix" values="0 0 0 0 0 0 0 0 0 0 0 0 0 0 0 0 0 0 0.15774 0"/>
<feBlend mode="normal" in2="BackgroundImageFix" result="effect1_dropShadow_61_320"/>
<feBlend mode="normal" in="SourceGraphic" in2="effect1_dropShadow_61_320" result="shape"/>
</filter>
</defs>
</svg>
