<svg width="24" height="24" viewBox="0 0 24 24" fill="none" xmlns="http://www.w3.org/2000/svg">
<g clip-path="url(#clip0_201_18638)">
<circle cx="12" cy="12" r="10" fill="white"/>
<path d="M0 12C0 18.6274 5.37258 24 12 24C18.6274 24 24 18.6274 24 12C24 5.37258 18.6274 0 12 0C5.37258 0 0 5.37258 0 12ZM9.40588 17.2941H6.93088V9.26912H9.40588V17.2941ZM8.13088 8.21912C7.38088 8.21912 6.70588 7.54412 6.70588 6.71912C6.70588 5.96912 7.38088 5.29412 8.13088 5.29412C8.95588 5.29412 9.55588 5.96912 9.55588 6.71912C9.55588 7.54412 8.95588 8.21912 8.13088 8.21912ZM18.7059 17.2941H16.2309V13.3941C16.2309 12.4941 16.2309 11.2941 14.9559 11.2941C13.6809 11.2941 13.4559 12.2691 13.4559 13.3191V17.2941H10.9809V9.26912H13.3809V10.3941C13.6809 9.79412 14.5059 9.11912 15.7059 9.11912C18.2559 9.11912 18.7059 10.7691 18.7059 12.9441V17.2941Z" fill="#765CD6"/>
</g>
<defs>
<clipPath id="clip0_201_18638">
<rect width="24" height="24" fill="white"/>
</clipPath>
</defs>
</svg>
