<svg id="Layer_1" data-name="Layer 1" xmlns="http://www.w3.org/2000/svg" viewBox="0 0 101.89 29.9"><defs><style>.edge-logo-cls-1{fill:#0e4b75;}.edge-logo-cls-1,.edge-logo-cls-2{fill-rule:evenodd;}.edge-logo-cls-2{fill:#66eda8;}</style></defs><g id="Navigation_header_L_sticky" data-name="Navigation/header_L_sticky"><g id="edge_logo_dark" data-name="edge logo dark"><path id="Fill-1" class="edge-logo-cls-1" d="M41.51,13.26a4.91,4.91,0,0,0-4.83-4,4.82,4.82,0,0,0-4.84,4Zm-9.7,2.63A5.37,5.37,0,0,0,37,20.14,7.29,7.29,0,0,0,42,18l2,2.41a10,10,0,0,1-6.94,3,8.63,8.63,0,0,1-8.62-8.72,8.18,8.18,0,0,1,8.32-8.26c4.77,0,8.36,3.79,8.36,9.54Z" transform="translate(0 0)"></path><path id="Fill-3" class="edge-logo-cls-1" d="M60.84,14.84A5.16,5.16,0,1,0,55.68,20a5.17,5.17,0,0,0,5.16-5.13m0-6.51V0H64.1v23H61.31V21a8.16,8.16,0,0,1-5.66,2.34,8.49,8.49,0,0,1,0-17,7.73,7.73,0,0,1,5.16,2" transform="translate(0 0)"></path><path id="Fill-5" class="edge-logo-cls-1" d="M79.8,14.84A5.18,5.18,0,1,0,74.64,20,5.2,5.2,0,0,0,79.8,14.84Zm3.26,6.35c0,6.28-3.85,8.71-7.57,8.71a8.25,8.25,0,0,1-4.67-1.41l1.29-2.73a6,6,0,0,0,3.19.95c2.73,0,4.6-1.87,4.6-5.49a7.75,7.75,0,0,1-5.29,2.11,8.49,8.49,0,1,1,0-17A7.85,7.85,0,0,1,80.2,8.66v-2h2.86Z" transform="translate(0 0)"></path><path id="Fill-7" class="edge-logo-cls-1" d="M98.33,13.26a4.91,4.91,0,0,0-4.83-4,4.82,4.82,0,0,0-4.84,4Zm-9.7,2.63a5.37,5.37,0,0,0,5.23,4.25A7.29,7.29,0,0,0,98.79,18l2,2.41a10,10,0,0,1-6.94,3,8.63,8.63,0,0,1-8.62-8.72,8.18,8.18,0,0,1,8.32-8.26c4.77,0,8.36,3.79,8.36,9.54Z" transform="translate(0 0)"></path><polygon id="Fill-10" class="edge-logo-cls-2" points="24.63 3.37 17.33 23.44 0.43 23.44 4.22 13 10.88 13 14.38 3.37 24.63 3.37"></polygon><polygon id="Fill-12" class="edge-logo-cls-2" points="12.86 0 9.05 10.46 0 10.46 3.82 0 12.86 0"></polygon></g></g></svg>
