<svg width="400" height="400" viewBox="0 0 400 400" fill="none" xmlns="http://www.w3.org/2000/svg">
<path fill-rule="evenodd" clip-rule="evenodd" d="M175.948 195.857C174.926 190.14 169.912 185.54 163.619 185.54C157.646 185.54 152.28 189.565 151.29 195.857H175.948ZM151.162 202.565C152.855 209.368 158.381 213.393 164.514 213.393C169.72 213.393 174.256 210.614 177.098 207.867L182.145 214C176.683 219.366 170.135 221.57 164.418 221.57C151.673 221.57 142.41 211.157 142.41 199.339C142.41 187.329 151.801 178.258 163.651 178.258C175.821 178.258 184.988 187.904 184.988 202.597H151.162V202.565Z" fill="#0D2145"/>
<path fill-rule="evenodd" clip-rule="evenodd" d="M225.265 199.882C225.265 192.568 219.292 186.69 212.074 186.69C204.855 186.69 198.882 192.568 198.882 199.882C198.882 207.101 204.855 212.978 212.074 212.978C219.292 212.978 225.265 207.101 225.265 199.882ZM225.17 183.273V162.128H233.57V220.899H226.447V215.597C222.742 219.206 217.631 221.57 212.01 221.57C200 221.57 190.354 211.828 190.354 199.914C190.354 187.904 200 178.258 212.01 178.258C217.057 178.226 221.752 180.142 225.17 183.273Z" fill="#0D2145"/>
<path fill-rule="evenodd" clip-rule="evenodd" d="M273.656 199.882C273.656 192.567 267.683 186.626 260.464 186.626C253.246 186.626 247.209 192.599 247.209 199.882C247.209 207.101 253.182 213.074 260.464 213.074C267.779 213.074 273.656 207.101 273.656 199.882ZM281.961 216.076C281.961 232.11 272.155 238.307 262.668 238.307C259.155 238.307 254.875 237.477 250.754 234.698L254.044 227.735C256.823 229.332 259.251 230.162 262.189 230.162C269.152 230.162 273.944 225.371 273.944 216.14C270.238 219.494 265.639 221.506 260.432 221.506C248.423 221.506 238.681 211.764 238.681 199.85C238.681 187.936 248.423 178.194 260.432 178.194C265.958 178.194 271.005 180.366 274.71 184.071V178.865H282.025V216.076H281.961Z" fill="#0D2145"/>
<path fill-rule="evenodd" clip-rule="evenodd" d="M320.929 195.857C319.907 190.14 314.892 185.54 308.6 185.54C302.627 185.54 297.26 189.565 296.27 195.857H320.929ZM296.174 202.565C297.867 209.368 303.393 213.393 309.526 213.393C314.732 213.393 319.268 210.614 322.111 207.867L327.157 214C321.695 219.366 315.147 221.57 309.43 221.57C296.685 221.57 287.423 211.157 287.423 199.339C287.423 187.329 296.813 178.258 308.663 178.258C320.833 178.258 330 187.904 330 202.597H296.174V202.565Z" fill="#0D2145"/>
<path fill-rule="evenodd" clip-rule="evenodd" d="M132.828 170.624L114.238 221.825H71.086L80.7641 195.187H97.7568L106.7 170.624H132.828Z" fill="#66EDA8"/>
<path fill-rule="evenodd" clip-rule="evenodd" d="M102.835 162L93.0934 188.703H70L79.742 162H102.835Z" fill="#66EDA8"/>
<defs>
<linearGradient id="paint0_linear_3728_2112" x1="-1.52588e-05" y1="400" x2="400" y2="400" gradientUnits="userSpaceOnUse">
<stop stop-color="#6BEFB7"/>
<stop offset="0.333333" stop-color="#A08AEE"/>
<stop offset="0.661458" stop-color="#F1BBF2"/>
<stop offset="1" stop-color="#FDFF9B"/>
</linearGradient>
</defs>
</svg>
