<svg width="400" height="400" viewBox="0 0 400 400" fill="none" xmlns="http://www.w3.org/2000/svg">
<path fill-rule="evenodd" clip-rule="evenodd" d="M265.604 116.554C265.744 116.718 265.828 116.923 265.845 117.138C265.931 118.194 273.59 222.919 202.027 247.31C201.812 247.383 201.578 247.383 201.363 247.31C129.802 222.919 137.461 118.194 137.546 117.138C137.563 116.923 137.647 116.72 137.786 116.555C137.925 116.391 138.112 116.275 138.321 116.223L201.453 100.834C201.612 100.797 201.778 100.797 201.937 100.834L265.066 116.223C265.276 116.273 265.464 116.389 265.604 116.554V116.554ZM253.985 127.735C254.099 127.869 254.168 128.034 254.183 128.209H254.19C254.26 129.07 260.525 214.569 201.967 234.478C201.795 234.544 201.605 234.544 201.433 234.478C142.872 214.569 149.14 129.07 149.21 128.209C149.223 128.034 149.292 127.868 149.406 127.735C149.519 127.602 149.672 127.508 149.842 127.467L201.494 114.897C201.624 114.864 201.761 114.864 201.892 114.897L253.548 127.467C253.718 127.509 253.871 127.602 253.985 127.735V127.735Z" fill="#798CE5"/>
<path d="M200.963 133.661L166.523 142.037C166.409 142.066 166.307 142.13 166.232 142.219C166.156 142.309 166.11 142.42 166.101 142.537C166.056 143.112 161.879 200.111 200.914 213.386C201.031 213.424 201.157 213.424 201.275 213.386C240.309 200.109 236.134 143.112 236.088 142.535C236.078 142.417 236.033 142.306 235.957 142.216C235.88 142.127 235.778 142.064 235.663 142.037L201.225 133.659C201.139 133.636 201.049 133.636 200.963 133.659" fill="#798CE5"/>
<path d="M137.809 288.112V282.943H146.168V298.146C142.143 298.806 138.878 299.137 136.373 299.137C131.897 299.137 128.815 297.917 127.126 295.476C125.466 293.036 124.635 289.159 124.635 283.847C124.635 278.537 125.508 274.704 127.253 272.348C128.998 269.995 131.968 268.817 136.162 268.817C138.78 268.817 141.609 269.119 144.649 269.722L146.168 270.024L146 274.632C142.622 274.259 139.849 274.071 137.682 274.071C135.543 274.071 134.037 274.329 133.164 274.846C132.291 275.363 131.644 276.325 131.222 277.732C130.828 279.111 130.631 281.494 130.631 284.881C130.631 288.242 131.039 290.595 131.855 291.945C132.671 293.294 134.36 293.97 136.922 293.97L140.426 293.796V288.112H137.809Z" fill="#798CE5"/>
<path d="M157.244 288.843C157.244 292.26 158.947 293.97 162.353 293.97C165.759 293.97 167.462 292.26 167.462 288.843V269.334H173.289V288.714C173.289 292.303 172.374 294.945 170.544 296.64C168.743 298.304 166.012 299.137 162.353 299.137C158.694 299.137 155.95 298.304 154.12 296.64C152.318 294.945 151.418 292.303 151.418 288.714V269.334H157.244V288.843Z" fill="#798CE5"/>
<path d="M176.684 298.62L183.144 269.334H194.206L200.666 298.62H194.839L193.7 293.324H183.651L182.511 298.62H176.684ZM187.662 274.245L184.748 288.155H192.602L189.688 274.245H187.662Z" fill="#798CE5"/>
<path d="M210.316 288.801V298.62H204.49V269.334H215.637C222.392 269.334 225.77 272.55 225.77 278.981C225.77 282.801 224.363 285.614 221.547 287.424L225.643 298.62H219.268L215.932 288.801H210.316ZM215.721 283.719C217.1 283.719 218.127 283.289 218.804 282.427C219.479 281.566 219.816 280.431 219.816 279.024C219.816 277.617 219.45 276.499 218.719 275.666C218.015 274.833 216.988 274.416 215.637 274.416H210.316V283.719H215.721Z" fill="#798CE5"/>
<path d="M240.341 298.62H230.673V269.334H240.341C242.819 269.334 244.859 269.607 246.463 270.153C248.068 270.668 249.306 271.545 250.179 272.781C251.08 273.986 251.699 275.42 252.037 277.087C252.375 278.723 252.543 280.863 252.543 283.504C252.543 286.145 252.388 288.341 252.079 290.093C251.77 291.816 251.178 293.366 250.306 294.743C249.461 296.093 248.223 297.084 246.59 297.716C244.958 298.319 242.875 298.62 240.341 298.62V298.62ZM246.463 286.991C246.52 286.074 246.548 284.809 246.548 283.201C246.548 281.566 246.491 280.259 246.379 279.283C246.266 278.307 245.999 277.416 245.577 276.613C245.155 275.808 244.522 275.263 243.677 274.976C242.86 274.66 241.749 274.503 240.341 274.503H236.499V293.453H240.341C242.452 293.453 243.986 292.907 244.944 291.816C245.76 290.926 246.266 289.318 246.463 286.991V286.991Z" fill="#798CE5"/>
<path d="M254.778 298.62L261.238 269.334H272.3L278.76 298.62H272.934L271.793 293.324H261.745L260.605 298.62H254.778ZM265.756 274.245L262.842 288.155H270.696L267.783 274.245H265.756Z" fill="#798CE5"/>
<defs>
<linearGradient id="paint0_linear_3680_2124" x1="0" y1="400" x2="400" y2="400" gradientUnits="userSpaceOnUse">
<stop stop-color="#6BEFB7"/>
<stop offset="0.333333" stop-color="#A08AEE"/>
<stop offset="0.661458" stop-color="#F1BBF2"/>
<stop offset="1" stop-color="#FDFF9B"/>
</linearGradient>
</defs>
</svg>
