<svg width="400" height="400" viewBox="0 0 400 400" fill="none" xmlns="http://www.w3.org/2000/svg">
<path d="M168.363 252.807C157.902 240.455 151.13 222.219 150.676 201.732C150.676 201.675 150.676 197.325 150.676 197.268C151.13 176.781 157.902 158.545 168.363 146.193C181.945 128.581 202.11 117.402 224.621 117.402C238.468 117.402 251.445 121.639 262.53 128.998C245.884 114.091 223.94 105.011 199.859 104.917C199.746 104.917 199.613 104.917 199.5 104.917C147.271 104.917 104.917 147.271 104.917 199.5C104.917 250.234 144.85 291.624 194.998 293.97C196.492 294.045 197.987 294.083 199.5 294.083C223.713 294.083 245.808 284.984 262.53 270.021C251.445 277.361 238.487 281.598 224.621 281.598C202.11 281.598 181.945 270.419 168.363 252.807Z" fill="url(#paint1_linear_3728_2123)"/>
<path d="M168.363 146.193C177.046 135.94 188.245 129.773 200.503 129.773C228.045 129.773 250.348 160.986 250.348 199.5C250.348 238.014 228.026 269.227 200.503 269.227C188.263 269.227 177.046 263.041 168.363 252.807C181.945 270.419 202.11 281.598 224.621 281.598C238.468 281.598 251.445 277.361 262.53 270.021C281.901 252.694 294.083 227.516 294.083 199.5C294.083 171.484 281.901 146.306 262.53 128.998C251.445 121.639 238.487 117.402 224.621 117.402C202.11 117.402 181.945 128.581 168.363 146.193Z" fill="url(#paint2_linear_3728_2123)"/>
<defs>
<linearGradient id="paint0_linear_3728_2123" x1="0" y1="400" x2="400" y2="400" gradientUnits="userSpaceOnUse">
<stop stop-color="#6BEFB7"/>
<stop offset="0.333333" stop-color="#A08AEE"/>
<stop offset="0.661458" stop-color="#F1BBF2"/>
<stop offset="1" stop-color="#FDFF9B"/>
</linearGradient>
<linearGradient id="paint1_linear_3728_2123" x1="183.728" y1="108.001" x2="183.728" y2="291.33" gradientUnits="userSpaceOnUse">
<stop offset="0.3" stop-color="#FF1B2D"/>
<stop offset="0.4381" stop-color="#FA1A2C"/>
<stop offset="0.5939" stop-color="#ED1528"/>
<stop offset="0.7581" stop-color="#D60E21"/>
<stop offset="0.9272" stop-color="#B70519"/>
<stop offset="1" stop-color="#A70014"/>
</linearGradient>
<linearGradient id="paint2_linear_3728_2123" x1="231.225" y1="118.806" x2="231.225" y2="280.952" gradientUnits="userSpaceOnUse">
<stop stop-color="#9C0000"/>
<stop offset="0.7" stop-color="#FF4B4B"/>
</linearGradient>
</defs>
</svg>
